<svg width="668" height="113" viewBox="0 0 668 113" fill="none" xmlns="http://www.w3.org/2000/svg">
<path d="M14.3054 59.277C14.8872 46.567 16.5055 29.6567 17.8146 17.3468C18.2328 13.5647 18.5783 10.2372 18.8874 7.56426C19.3056 3.89127 22.4149 1.12744 26.106 1.12744H381.181V94.8796H24.2332C21.1239 94.8796 18.3783 92.8976 17.3419 89.9701C15.76 85.4244 13.9236 77.4965 14.1054 65.2047C14.1236 63.3682 14.1963 61.3681 14.2872 59.2589L14.3054 59.277Z" fill="#8CE254"/>
<path d="M424.856 1.14551H655.96C659.669 1.14551 662.797 3.90934 663.197 7.58233C663.506 10.2371 663.851 13.5828 664.27 17.3648C665.561 29.6566 667.197 46.5851 667.761 59.2951C667.87 61.4043 667.924 63.4045 667.943 65.241C668.143 77.5146 666.306 85.4606 664.706 90.0064C663.67 92.9339 660.924 94.9158 657.833 94.9158H424.856V1.14551Z" fill="#8CE254"/>
<path d="M17.251 22.6743C17.4328 20.8378 17.6146 19.0559 17.7964 17.3648C18.2146 13.5828 18.5601 10.2552 18.8692 7.58233C19.2874 3.90934 22.3967 1.14551 26.0878 1.14551H381.163V22.6743H17.2328H17.251Z" fill="#F0F2E9"/>
<path d="M14.1053 65.2229C14.1053 64.1683 14.1417 63.0409 14.178 61.8772H381.163V72.2779H30.4699L17.3418 89.9883C15.7599 85.4425 13.9235 77.5147 14.1053 65.2229Z" fill="#F0F2E9"/>
<path d="M14.1053 65.2229C14.1053 64.1683 14.1417 63.0409 14.178 61.8772H381.163V72.2779H30.4699L17.3418 89.9883C15.7599 85.4425 13.9235 77.5147 14.1053 65.2229Z" fill="#F0F2E9"/>
<path d="M424.856 22.6743V1.14551H655.96C659.669 1.14551 662.797 3.90934 663.197 7.58233C663.506 10.2371 663.851 13.5828 664.27 17.3648C664.451 19.0559 664.633 20.8378 664.815 22.6743H424.856Z" fill="#F0F2E9"/>
<path d="M19.3602 5.6731C20.4511 3.00019 23.0694 1.14551 26.0878 1.14551H381.163V5.6731H19.342H19.3602Z" fill="#8CE254"/>
<path d="M424.856 5.6731V1.14551H655.96C658.997 1.14551 661.633 3.00019 662.706 5.6731H424.856Z" fill="#8CE254"/>
<path d="M424.856 72.2779V61.8772H667.852C667.888 63.0409 667.924 64.1501 667.924 65.2229C667.961 67.7503 667.924 70.096 667.815 72.2779H424.856Z" fill="#F0F2E9"/>
<path d="M381.181 59.2769H14.3054C14.8872 46.5669 16.5055 29.6566 17.8146 17.3467H381.199V59.2769H381.181Z" fill="#102611"/>
<path d="M424.856 17.365H664.27C665.561 29.6568 667.197 46.5853 667.761 59.2953H424.856V17.365Z" fill="#102611"/>
<path d="M206.207 19.074H252.192V94.8976H206.207V19.074Z" fill="#102611"/>
<path d="M229.954 21.2559H250.846V92.6973H229.954V21.2559Z" fill="#74C640"/>
<path d="M231.718 22.8015H249.082V81.0784H231.718V22.8015Z" fill="#AFCDEC"/>
<path d="M231.827 57.4766L249.191 39.0208V42.5301L231.827 61.0041V57.4766Z" fill="#8AA8C4"/>
<path d="M231.827 67.8046L249.191 49.3306V52.8581L231.827 71.314V67.8046Z" fill="#8AA8C4"/>
<path d="M228.427 92.6973H207.534V21.2558H228.427V92.6973Z" fill="#74C640"/>
<path d="M226.663 81.0964H209.298V22.8196H226.663V81.0964Z" fill="#AFCDEC"/>
<path d="M226.554 57.4766L209.189 39.0208V42.5301L226.554 61.0041V57.4766Z" fill="#8AA8C4"/>
<path d="M226.554 67.8046L209.189 49.3306V52.8581L226.554 71.314V67.8046Z" fill="#8AA8C4"/>
<path d="M427.638 19.074H473.622V94.8976H427.638V19.074Z" fill="#102611"/>
<path d="M451.403 21.2559H472.295V92.6973H451.403V21.2559Z" fill="#74C640"/>
<path d="M453.167 22.8015H470.531V81.0784H453.167V22.8015Z" fill="#AFCDEC"/>
<path d="M453.276 57.4766L470.64 39.0208V42.5301L453.276 61.0041V57.4766Z" fill="#8AA8C4"/>
<path d="M453.276 67.8046L470.64 49.3306V52.8581L453.276 71.314V67.8046Z" fill="#8AA8C4"/>
<path d="M449.857 92.6973H428.965V21.2558H449.857V92.6973Z" fill="#74C640"/>
<path d="M448.094 81.0964H430.729V22.8196H448.094V81.0964Z" fill="#AFCDEC"/>
<path d="M447.985 57.4766L430.62 39.0208V42.5301L447.985 61.0041V57.4766Z" fill="#8AA8C4"/>
<path d="M447.985 67.8046L430.62 49.3306V52.8581L447.985 71.314V67.8046Z" fill="#8AA8C4"/>
<path d="M600.939 19.074H646.923V94.8976H600.939V19.074Z" fill="#102611"/>
<path d="M624.704 21.2559H645.596V92.6973H624.704V21.2559Z" fill="#74C640"/>
<path d="M626.467 22.8015H643.832V81.0784H626.467V22.8015Z" fill="#AFCDEC"/>
<path d="M626.577 57.4766L643.941 39.0208V42.5301L626.577 61.0041V57.4766Z" fill="#8AA8C4"/>
<path d="M626.577 67.8046L643.941 49.3306V52.8581L626.577 71.314V67.8046Z" fill="#8AA8C4"/>
<path d="M623.158 92.6973H602.266V21.2558H623.158V92.6973Z" fill="#74C640"/>
<path d="M621.394 81.0964H604.03V22.8196H621.394V81.0964Z" fill="#AFCDEC"/>
<path d="M621.285 57.4766L603.921 39.0208V42.5301L621.285 61.0041V57.4766Z" fill="#8AA8C4"/>
<path d="M621.285 67.8046L603.921 49.3306V52.8581L621.285 71.314V67.8046Z" fill="#8AA8C4"/>
<path d="M30.4881 19.074H76.4725V94.8976H30.4881V19.074Z" fill="#102611"/>
<path d="M54.2531 21.2559H75.1452V92.6973H54.2531V21.2559Z" fill="#74C640"/>
<path d="M56.0168 22.8015H73.3814V81.0784H56.0168V22.8015Z" fill="#AFCDEC"/>
<path d="M56.1259 57.4766L73.4905 39.0208V42.5301L56.1259 61.0041V57.4766Z" fill="#8AA8C4"/>
<path d="M56.1259 67.8046L73.4905 49.3306V52.8581L56.1259 71.314V67.8046Z" fill="#8AA8C4"/>
<path d="M52.7075 92.6973H31.8155L31.8155 21.2558H52.7075L52.7075 92.6973Z" fill="#74C640"/>
<path d="M50.9438 81.0964H33.5792L33.5792 22.8196H50.9438L50.9438 81.0964Z" fill="#AFCDEC"/>
<path d="M50.8347 57.4766L33.47 39.0208V42.5301L50.8347 61.0041V57.4766Z" fill="#8AA8C4"/>
<path d="M50.8347 67.8046L33.47 49.3306V52.8581L50.8347 71.314V67.8046Z" fill="#8AA8C4"/>
<path d="M540.044 25.6381V52.4037C540.044 55.4766 542.535 57.9859 545.626 57.9859H594.575C597.648 57.9859 600.157 55.4948 600.157 52.4037V25.6381C600.157 22.5652 597.666 20.0559 594.575 20.0559H545.626C544.972 20.0559 544.335 20.165 543.754 20.3832C541.59 21.1469 540.044 23.2016 540.044 25.6199V25.6381Z" fill="#AFCDEC"/>
<path d="M14.4144 56.9676H22.1239C24.2877 56.9676 26.0696 55.222 26.0696 53.0218V23.0015C26.0696 20.8377 24.2877 19.074 22.1239 19.074H17.6146C16.4327 30.4384 15.0326 45.1849 14.4144 56.9676Z" fill="#AFCDEC"/>
<path d="M79.4545 29.0021V24.6381C79.4545 21.5652 81.9455 19.0559 85.0366 19.0559H133.967C137.04 19.0559 139.549 21.547 139.549 24.6381V29.0021H79.4545Z" fill="#AFCDEC"/>
<path d="M139.549 31.584V51.4036C139.549 54.4765 137.058 56.9858 133.967 56.9858H85.0366C81.9637 56.9858 79.4545 54.4947 79.4545 51.4036V31.584H139.549Z" fill="#AFCDEC"/>
<path d="M148.986 19.074H197.916C200.999 19.074 203.498 21.5732 203.498 24.6562V51.4036C203.498 54.4865 200.999 56.9858 197.916 56.9858H148.986C145.903 56.9858 143.404 54.4865 143.404 51.4036V24.6562C143.404 21.5732 145.903 19.074 148.986 19.074Z" fill="#AFCDEC"/>
<path d="M313.868 31.584V52.4036C313.868 55.4766 311.377 57.9859 308.286 57.9859H259.356C256.283 57.9859 253.773 55.4948 253.773 52.4036V31.584H313.868Z" fill="#AFCDEC"/>
<path d="M253.792 29.002V25.6381C253.792 22.5652 256.283 20.0559 259.374 20.0559H308.304C311.377 20.0559 313.886 22.547 313.886 25.6381V29.002H253.792Z" fill="#AFCDEC"/>
<path d="M323.323 20.0742H372.253C375.336 20.0742 377.835 22.5735 377.835 25.6564V52.4038C377.835 55.4868 375.336 57.986 372.253 57.986H323.323C320.24 57.986 317.741 55.4868 317.741 52.4038V25.6564C317.741 22.5735 320.24 20.0742 323.323 20.0742Z" fill="#AFCDEC"/>
<path d="M476.077 29.002V25.6381C476.077 22.5652 478.568 20.0559 481.659 20.0559H530.589C533.662 20.0559 536.171 22.547 536.171 25.6381V29.002H476.077Z" fill="#AFCDEC"/>
<path d="M536.171 31.584V52.4036C536.171 55.4766 533.68 57.9859 530.589 57.9859H481.659C478.586 57.9859 476.077 55.4948 476.077 52.4036V31.584H536.171Z" fill="#AFCDEC"/>
<path d="M545.626 20.0742H594.557C597.639 20.0742 600.139 22.5735 600.139 25.6564V52.4038C600.139 55.4868 597.639 57.986 594.557 57.986H545.626C542.544 57.986 540.044 55.4868 540.044 52.4038V25.6564C540.044 22.5735 542.544 20.0742 545.626 20.0742Z" fill="#AFCDEC"/>
<path d="M381.181 92.4429V94.8976H24.2332C22.1058 94.8976 20.1602 93.9521 18.8147 92.4429H381.181Z" fill="#102611"/>
<path d="M378.09 13.7827C378.09 14.4918 377.508 15.0737 376.799 15.0737H25.5605C24.8514 15.0737 24.2695 14.4918 24.2695 13.7827C24.2695 13.0736 24.8514 12.4917 25.5605 12.4917H376.799C377.508 12.4917 378.09 13.0736 378.09 13.7827Z" fill="#102611"/>
<path d="M656.869 13.7827C656.869 14.4918 656.287 15.0737 655.578 15.0737H429.674C428.965 15.0737 428.383 14.4918 428.383 13.7827C428.383 13.0736 428.965 12.4917 429.674 12.4917H655.578C656.287 12.4917 656.869 13.0736 656.869 13.7827Z" fill="#102611"/>
<path d="M663.215 92.4429C661.869 93.9521 659.924 94.8976 657.815 94.8976H424.838V92.4429H663.215Z" fill="#102611"/>
<path d="M8.45041 13.7828C9.72321 13.1464 11.1233 12.8191 12.5598 12.8191H20.1602C20.7239 12.8191 21.1785 13.2737 21.1785 13.8373C21.1785 14.401 20.7239 14.8556 20.1602 14.8556H13.1052C11.5051 14.8556 9.90513 15.2374 8.54142 16.0557C6.15946 17.474 3.14105 20.3651 3.14105 25.8564V38.33C3.14105 38.8937 2.68649 39.3483 2.12282 39.3483C1.55915 39.3483 1.10458 38.8937 1.10458 38.33V25.8564C1.10458 18.6741 5.57756 15.2374 8.48682 13.7828H8.45041Z" fill="#102611"/>
<path d="M6.97763 32.4933L5.21394 43.785C5.08666 44.6214 4.46846 45.3124 3.63205 45.5306C2.48653 45.8215 1.32284 45.1306 1.03191 43.985L0.0681663 40.2575C-0.0045651 39.9665 -0.0227835 39.6756 0.0317651 39.3847L1.41368 30.6932C1.66824 29.0385 3.65025 28.3112 4.90487 29.4022L6.25038 30.5477C6.81405 31.0386 7.08673 31.766 6.97763 32.5115V32.4933Z" fill="#8CE254"/>
<path d="M86.1094 94.8794V88.3153C86.1094 78.0054 94.5463 69.5503 104.874 69.5503C115.184 69.5503 123.639 77.9873 123.639 88.3153V94.8794H86.1094Z" fill="#847F7B"/>
<path d="M88.7177 96.5287C84.6932 87.6359 88.6396 77.1643 97.5322 73.1398C106.425 69.1152 116.896 73.0616 120.921 81.9544C124.945 90.8471 120.999 101.319 112.106 105.343C103.214 109.368 92.7423 105.421 88.7177 96.5287Z" fill="#111010"/>
<path d="M94.5099 89.2247C94.5099 94.9524 99.1465 99.5891 104.874 99.5891C110.602 99.5891 115.238 94.9524 115.238 89.2247C115.238 83.497 110.602 78.8604 104.874 78.8604C99.1465 78.8604 94.5099 83.497 94.5099 89.2247Z" fill="#595958"/>
<path d="M104.856 78.8604C110.584 78.8604 115.22 83.497 115.22 89.2247C115.22 94.9524 110.584 99.5891 104.856 99.5891C99.1283 99.5891 94.4917 94.9524 94.4917 89.2247C94.4917 83.497 99.1283 78.8604 104.856 78.8604ZM99.7648 83.9698C98.8193 83.4243 97.601 83.7516 97.0373 84.6971C96.4918 85.6608 96.8191 86.8791 97.7646 87.4428C98.7283 88.0065 99.9466 87.6792 100.492 86.7155C101.056 85.7699 100.728 84.5335 99.7648 83.9698ZM109.947 94.4796C110.911 95.0433 112.129 94.716 112.693 93.7523C113.256 92.8068 112.929 91.5885 111.965 91.0067C111.02 90.4612 109.802 90.7885 109.22 91.734C108.674 92.6977 109.002 93.916 109.947 94.4796ZM109.22 86.7155C109.783 87.6792 111.002 88.0065 111.965 87.4428C112.929 86.8973 113.256 85.6608 112.693 84.6971C112.147 83.7516 110.911 83.4243 109.947 83.9698C109.002 84.5335 108.674 85.7518 109.22 86.7155ZM104.856 98.2617C105.965 98.2617 106.856 97.3708 106.856 96.2616C106.856 95.1524 105.965 94.2615 104.856 94.2615C103.747 94.2615 102.856 95.1706 102.856 96.2616C102.856 97.3526 103.765 98.2617 104.856 98.2617ZM106.238 89.2247C106.238 88.4792 105.62 87.861 104.856 87.861C104.092 87.861 103.492 88.4792 103.492 89.2247C103.492 89.9702 104.11 90.6066 104.856 90.6066C105.601 90.6066 106.238 89.9884 106.238 89.2247ZM104.856 84.188C105.965 84.188 106.856 83.297 106.856 82.1879C106.856 81.0787 105.965 80.1877 104.856 80.1877C103.747 80.1877 102.856 81.0787 102.856 82.1879C102.856 83.297 103.765 84.188 104.856 84.188ZM97.0373 93.7523C97.601 94.716 98.8193 95.0433 99.7648 94.4796C100.728 93.9342 101.056 92.6977 100.492 91.734C99.9466 90.7885 98.7283 90.4612 97.7646 91.0067C96.8191 91.5703 96.4918 92.7886 97.0373 93.7523Z" fill="#919191"/>
<path d="M327.014 94.8794V88.3153C327.014 78.0054 335.451 69.5503 345.779 69.5503C356.088 69.5503 364.543 77.9873 364.543 88.3153V94.8794H327.014Z" fill="#847F7B"/>
<path d="M329.08 95.1347C325.828 85.9313 330.653 75.8342 339.856 72.5823C349.06 69.3304 359.157 74.1551 362.408 83.3586C365.66 92.5621 360.836 102.659 351.632 105.911C342.429 109.163 332.332 104.338 329.08 95.1347Z" fill="#111010"/>
<path d="M335.415 89.2245C335.415 94.9522 340.051 99.5889 345.779 99.5889C351.506 99.5889 356.143 94.9522 356.143 89.2245C356.143 83.4968 351.506 78.8601 345.779 78.8601C340.051 78.8601 335.415 83.4968 335.415 89.2245Z" fill="#595958"/>
<path d="M345.779 78.8601C351.506 78.8601 356.143 83.4968 356.143 89.2245C356.143 94.9522 351.506 99.5889 345.779 99.5889C340.051 99.5889 335.415 94.9522 335.415 89.2245C335.415 83.4968 340.051 78.8601 345.779 78.8601ZM340.688 83.9696C339.742 83.4241 338.524 83.7514 337.96 84.6969C337.415 85.6606 337.742 86.8789 338.687 87.4425C339.651 88.0062 340.869 87.6789 341.415 86.7152C341.979 85.7697 341.651 84.5332 340.688 83.9696ZM350.87 94.4794C351.834 95.0431 353.052 94.7158 353.616 93.7521C354.179 92.8066 353.852 91.5883 352.888 91.0064C351.943 90.4609 350.724 90.7882 350.161 91.7338C349.615 92.6975 349.943 93.9157 350.888 94.4794H350.87ZM350.143 86.7152C350.706 87.6789 351.925 88.0062 352.87 87.4425C353.834 86.897 354.161 85.6606 353.597 84.6969C353.052 83.7514 351.815 83.4241 350.852 83.9696C349.906 84.5332 349.579 85.7515 350.124 86.7152H350.143ZM345.779 98.2615C346.888 98.2615 347.779 97.3705 347.779 96.2613C347.779 95.1522 346.888 94.2612 345.779 94.2612C344.67 94.2612 343.779 95.1704 343.779 96.2613C343.779 97.3523 344.688 98.2615 345.779 98.2615ZM347.161 89.2245C347.161 88.479 346.542 87.8607 345.779 87.8607C345.015 87.8607 344.415 88.479 344.415 89.2245C344.415 89.97 345.033 90.6064 345.779 90.6064C346.524 90.6064 347.161 89.9882 347.161 89.2245ZM345.779 84.1878C346.888 84.1878 347.779 83.2968 347.779 82.1876C347.779 81.0785 346.888 80.1875 345.779 80.1875C344.67 80.1875 343.779 81.0785 343.779 82.1876C343.779 83.2968 344.688 84.1878 345.779 84.1878ZM337.96 93.7521C338.524 94.7158 339.742 95.0431 340.688 94.4794C341.651 93.9339 341.979 92.6975 341.415 91.7338C340.869 90.7882 339.651 90.4609 338.687 91.0064C337.742 91.5701 337.415 92.7884 337.96 93.7521Z" fill="#919191"/>
<path d="M539.59 94.8794V88.3153C539.59 78.0054 548.027 69.5503 558.354 69.5503C568.664 69.5503 577.119 77.9873 577.119 88.3153V94.8794H539.59Z" fill="#847F7B"/>
<path d="M542.055 96.0187C538.298 87.0098 542.555 76.6606 551.564 72.9032C560.573 69.1458 570.922 73.4029 574.679 82.4118C578.436 91.4207 574.179 101.77 565.171 105.527C556.162 109.285 545.813 105.028 542.055 96.0187Z" fill="#111010"/>
<path d="M547.99 89.2245C547.99 94.9522 552.627 99.5889 558.354 99.5889C564.082 99.5889 568.719 94.9522 568.719 89.2245C568.719 83.4968 564.082 78.8601 558.354 78.8601C552.627 78.8601 547.99 83.4968 547.99 89.2245Z" fill="#595958"/>
<path d="M558.354 78.8601C564.082 78.8601 568.719 83.4968 568.719 89.2245C568.719 94.9522 564.082 99.5889 558.354 99.5889C552.627 99.5889 547.99 94.9522 547.99 89.2245C547.99 83.4968 552.627 78.8601 558.354 78.8601ZM553.263 83.9696C552.318 83.4241 551.1 83.7514 550.536 84.6969C549.99 85.6606 550.318 86.8789 551.263 87.4425C552.227 88.0062 553.445 87.6789 553.991 86.7152C554.554 85.7697 554.227 84.5332 553.263 83.9696ZM563.446 94.4794C564.409 95.0431 565.628 94.7158 566.191 93.7521C566.755 92.8066 566.428 91.5883 565.464 91.0064C564.518 90.4609 563.3 90.7882 562.718 91.7338C562.173 92.6975 562.5 93.9157 563.446 94.4794ZM562.718 86.7152C563.282 87.6789 564.5 88.0062 565.464 87.4425C566.428 86.897 566.755 85.6606 566.191 84.6969C565.646 83.7514 564.409 83.4241 563.446 83.9696C562.5 84.5332 562.173 85.7515 562.718 86.7152ZM558.354 98.2615C559.464 98.2615 560.355 97.3705 560.355 96.2613C560.355 95.1522 559.464 94.2612 558.354 94.2612C557.245 94.2612 556.354 95.1704 556.354 96.2613C556.354 97.3523 557.263 98.2615 558.354 98.2615ZM559.736 89.2245C559.736 88.479 559.118 87.8607 558.354 87.8607C557.591 87.8607 556.991 88.479 556.991 89.2245C556.991 89.97 557.609 90.6064 558.354 90.6064C559.1 90.6064 559.736 89.9882 559.736 89.2245ZM558.354 84.1878C559.464 84.1878 560.355 83.2968 560.355 82.1876C560.355 81.0785 559.464 80.1875 558.354 80.1875C557.245 80.1875 556.354 81.0785 556.354 82.1876C556.354 83.2968 557.263 84.1878 558.354 84.1878ZM550.536 93.7521C551.1 94.7158 552.318 95.0431 553.263 94.4794C554.227 93.9339 554.554 92.6975 553.991 91.7338C553.445 90.7882 552.227 90.4609 551.263 91.0064C550.318 91.5701 549.99 92.7884 550.536 93.7521Z" fill="#919191"/>
<path d="M381.181 1.14551H424.856V94.8976H381.181V1.14551Z" fill="#919191"/>
<path d="M423.874 96.2614C424.42 96.2614 424.856 95.825 424.856 95.2795V0.981888C424.856 0.436395 424.42 0 423.874 0C423.329 0 422.892 0.436395 422.892 0.981888V95.2977C422.892 95.8432 423.329 96.2796 423.874 96.2796V96.2614Z" fill="#102611"/>
<path d="M419.71 96.2614C420.256 96.2614 420.692 95.825 420.692 95.2795V0.981888C420.692 0.436395 420.256 0 419.71 0C419.165 0 418.728 0.436395 418.728 0.981888V95.2977C418.728 95.8432 419.165 96.2796 419.71 96.2796V96.2614Z" fill="#102611"/>
<path d="M415.528 96.2614C416.074 96.2614 416.51 95.825 416.51 95.2795V0.981888C416.51 0.436395 416.074 0 415.528 0C414.983 0 414.546 0.436395 414.546 0.981888V95.2977C414.546 95.8432 414.983 96.2796 415.528 96.2796V96.2614Z" fill="#102611"/>
<path d="M411.364 96.2614C411.91 96.2614 412.346 95.825 412.346 95.2795V0.981888C412.346 0.436395 411.91 0 411.364 0C410.819 0 410.382 0.436395 410.382 0.981888V95.2977C410.382 95.8432 410.819 96.2796 411.364 96.2796V96.2614Z" fill="#102611"/>
<path d="M407.182 96.2614C407.728 96.2614 408.164 95.825 408.164 95.2795V0.981888C408.164 0.436395 407.728 0 407.182 0C406.637 0 406.2 0.436395 406.2 0.981888V95.2977C406.2 95.8432 406.637 96.2796 407.182 96.2796V96.2614Z" fill="#102611"/>
<path d="M403.018 96.2614C403.564 96.2614 404 95.825 404 95.2795V0.981888C404 0.436395 403.564 0 403.018 0C402.473 0 402.036 0.436395 402.036 0.981888V95.2977C402.036 95.8432 402.473 96.2796 403.018 96.2796V96.2614Z" fill="#102611"/>
<path d="M398.836 96.2614C399.382 96.2614 399.818 95.825 399.818 95.2795V0.981888C399.818 0.436395 399.382 0 398.836 0C398.291 0 397.854 0.436395 397.854 0.981888V95.2977C397.854 95.8432 398.291 96.2796 398.836 96.2796V96.2614Z" fill="#102611"/>
<path d="M394.672 96.2614C395.218 96.2614 395.654 95.825 395.654 95.2795V0.981888C395.654 0.436395 395.218 0 394.672 0C394.127 0 393.691 0.436395 393.691 0.981888V95.2977C393.691 95.8432 394.127 96.2796 394.672 96.2796V96.2614Z" fill="#102611"/>
<path d="M390.49 96.2614C391.036 96.2614 391.472 95.825 391.472 95.2795V0.981888C391.472 0.436395 391.036 0 390.49 0C389.945 0 389.509 0.436395 389.509 0.981888V95.2977C389.509 95.8432 389.945 96.2796 390.49 96.2796V96.2614Z" fill="#102611"/>
<path d="M386.327 96.2614C386.872 96.2614 387.308 95.825 387.308 95.2795V0.981888C387.308 0.436395 386.872 0 386.327 0C385.781 0 385.345 0.436395 385.345 0.981888V95.2977C385.345 95.8432 385.781 96.2796 386.327 96.2796V96.2614Z" fill="#102611"/>
<path d="M382.144 96.2614C382.69 96.2614 383.126 95.825 383.126 95.2795V0.981888C383.126 0.436395 382.69 0 382.144 0C381.599 0 381.163 0.436395 381.163 0.981888V95.2977C381.163 95.8432 381.599 96.2796 382.144 96.2796V96.2614Z" fill="#102611"/>
<path d="M14.4327 75.0417C15.7964 74.2962 17.2874 73.0779 17.2692 71.3142C17.2147 68.4049 19.4511 70.205 20.1057 66.3684C20.233 65.6229 19.6511 64.9683 18.9238 64.9683H14.1417C14.1417 65.0592 14.1417 65.1501 14.1417 65.241C14.0871 68.8958 14.2145 72.1506 14.4509 75.0599L14.4327 75.0417Z" fill="#51A9B7"/>
<path d="M566.573 20.0742C576.501 29.7113 592.702 44.4032 600.139 51.531V41.9849L583.156 20.0742H566.573Z" fill="#C6DEF4"/>
<path d="M543.754 20.4014L583.119 57.9677H591.775L559.591 20.0559H545.608C544.954 20.0559 544.317 20.165 543.735 20.3832L543.754 20.4014Z" fill="#C6DEF4"/>
<path d="M498.006 20.0742C500.624 22.6562 503.86 25.7474 507.315 29.0021H521.898L514.988 20.0742H498.006Z" fill="#C6DEF4"/>
<path d="M510.061 31.5659C520.025 40.8757 531.098 50.9855 535.39 55.2585C535.899 54.4221 536.19 53.4402 536.19 52.4038V47.4398L523.916 31.5841H510.079L510.061 31.5659Z" fill="#C6DEF4"/>
<path d="M477.168 22.347L484.114 28.9838H498.878L491.296 20.0559H481.641C479.786 20.0559 478.15 20.9469 477.15 22.347H477.168Z" fill="#C6DEF4"/>
<path d="M486.841 31.5659L514.479 57.9678H523.498L501.097 31.5659H486.841Z" fill="#C6DEF4"/>
<path d="M339.287 20.0741C349.761 30.4566 370.435 49.0943 376.89 55.4766C377.49 54.5856 377.817 53.531 377.817 52.4037V47.7852L356.343 20.0559H339.269L339.287 20.0741Z" fill="#C6DEF4"/>
<path d="M318.668 22.5652L355.761 57.9677H364.834L332.651 20.0559H323.305C321.359 20.0559 319.65 21.056 318.65 22.5652H318.668Z" fill="#C6DEF4"/>
<path d="M283.812 31.5658C294.394 41.512 306.849 52.84 311.159 57.1676C312.777 56.1857 313.868 54.422 313.868 52.3855V51.8763L298.122 31.5476H283.793L283.812 31.5658Z" fill="#C6DEF4"/>
<path d="M271.865 20.0742C274.32 22.5653 277.539 25.6564 281.084 29.0021H296.14L289.23 20.0742H271.865Z" fill="#C6DEF4"/>
<path d="M253.81 25.0928L257.901 29.0021H272.993L265.411 20.0742H259.337C256.446 20.0742 254.083 22.2744 253.792 25.0928H253.81Z" fill="#C6DEF4"/>
<path d="M260.61 31.5659L288.266 57.9678H297.594L275.193 31.5659H260.61Z" fill="#C6DEF4"/>
<path d="M162.677 19.074C171.642 28.2746 193.406 47.8942 201.461 55.7129C202.698 54.6765 203.498 53.1309 203.498 51.4036V49.0943L180.26 19.074H162.677Z" fill="#C6DEF4"/>
<path d="M143.622 23.1834L179.042 56.9858H188.57L156.386 19.074H149.004C146.44 19.074 144.258 20.8196 143.622 23.1834Z" fill="#C6DEF4"/>
<path d="M94.0918 19.074C96.6555 21.6923 100.256 25.1835 104.311 29.002H119.366L111.675 19.074H94.1099H94.0918Z" fill="#C6DEF4"/>
<path d="M107.038 31.5659C117.457 41.3484 129.676 52.4765 134.167 56.9677C136.167 56.895 137.894 55.7676 138.821 54.1312L121.348 31.5659H107.038Z" fill="#C6DEF4"/>
<path d="M79.4545 24.638V27.4018L81.1273 29.002H96.2191L87.8004 19.074H85.0366C81.9637 19.074 79.4545 21.5651 79.4545 24.6562V24.638Z" fill="#C6DEF4"/>
<path d="M83.8366 31.5659L110.456 56.9859H119.966L98.4192 31.5659H83.8366Z" fill="#C6DEF4"/>
<path d="M15.5236 41.1483L26.0696 51.2218V38.1118L16.7964 27.1655C16.36 31.6749 15.9236 36.4207 15.5236 41.1302V41.1483Z" fill="#C6DEF4"/>
<path d="M481.75 73.4597H477.914C477.586 73.4597 477.332 73.7143 477.332 74.0416V75.3508C477.332 75.6781 477.586 75.9326 477.914 75.9326H481.75C482.077 75.9326 482.332 75.6781 482.332 75.3508V74.0416C482.332 73.7143 482.077 73.4597 481.75 73.4597Z" fill="#F28C25"/>
<path d="M481.75 88.2427H477.914C477.586 88.2427 477.332 88.4972 477.332 88.8245V90.1337C477.332 90.461 477.586 90.7156 477.914 90.7156H481.75C482.077 90.7156 482.332 90.461 482.332 90.1337V88.8245C482.332 88.4972 482.077 88.2427 481.75 88.2427Z" fill="#F28C25"/>
<path d="M371.18 73.5872H375.017C375.338 73.5872 375.599 73.8477 375.599 74.169V75.4782C375.599 75.7995 375.338 76.0601 375.017 76.0601H371.18C370.859 76.0601 370.598 75.7995 370.598 75.4782V74.169C370.598 73.8477 370.859 73.5872 371.18 73.5872Z" fill="#F28C25"/>
<path d="M371.18 88.3699H375.017C375.338 88.3699 375.599 88.6304 375.599 88.9517V90.2609C375.599 90.5823 375.338 90.8428 375.017 90.8428H371.18C370.859 90.8428 370.598 90.5823 370.598 90.2609V88.9517C370.598 88.6304 370.859 88.3699 371.18 88.3699Z" fill="#F28C25"/>
<path d="M260.719 73.7144H256.883C256.555 73.7144 256.301 73.9689 256.301 74.2962V75.6054C256.301 75.9327 256.555 76.1873 256.883 76.1873H260.719C261.047 76.1873 261.301 75.9327 261.301 75.6054V74.2962C261.301 73.9689 261.047 73.7144 260.719 73.7144Z" fill="#F28C25"/>
<path d="M260.719 88.4973H256.883C256.555 88.4973 256.301 88.7519 256.301 89.0792V90.3884C256.301 90.7157 256.555 90.9702 256.883 90.9702H260.719C261.047 90.9702 261.301 90.7157 261.301 90.3884V89.0792C261.301 88.7519 261.047 88.4973 260.719 88.4973Z" fill="#F28C25"/>
<path d="M198.352 73.5508H202.189C202.51 73.5508 202.771 73.8113 202.771 74.1326V75.4418C202.771 75.7632 202.51 76.0237 202.189 76.0237H198.352C198.031 76.0237 197.77 75.7632 197.77 75.4418V74.1326C197.77 73.8113 198.031 73.5508 198.352 73.5508Z" fill="#F28C25"/>
<path d="M198.352 88.3518H202.189C202.51 88.3518 202.771 88.6123 202.771 88.9337V90.2429C202.771 90.5642 202.51 90.8247 202.189 90.8247H198.352C198.031 90.8247 197.77 90.5642 197.77 90.2429V88.9337C197.77 88.6123 198.031 88.3518 198.352 88.3518Z" fill="#F28C25"/>
<path d="M79.4181 73.5872H83.2547C83.576 73.5872 83.8365 73.8477 83.8365 74.169V75.4782C83.8365 75.7995 83.576 76.0601 83.2547 76.0601H79.4181C79.0968 76.0601 78.8363 75.7995 78.8363 75.4782V74.169C78.8363 73.8477 79.0968 73.5872 79.4181 73.5872Z" fill="#F28C25"/>
<path d="M79.4181 88.3699H83.2547C83.576 88.3699 83.8365 88.6304 83.8365 88.9517V90.2609C83.8365 90.5823 83.576 90.8428 83.2547 90.8428H79.4181C79.0968 90.8428 78.8363 90.5823 78.8363 90.2609V88.9517C78.8363 88.6304 79.0968 88.3699 79.4181 88.3699Z" fill="#F28C25"/>
<path d="M589.865 73.5872H593.702C594.023 73.5872 594.284 73.8477 594.284 74.169V75.4782C594.284 75.7995 594.023 76.0601 593.702 76.0601H589.865C589.544 76.0601 589.283 75.7995 589.283 75.4782V74.169C589.283 73.8477 589.544 73.5872 589.865 73.5872Z" fill="#F28C25"/>
<path d="M589.865 88.3699H593.702C594.023 88.3699 594.284 88.6304 594.284 88.9517V90.2609C594.284 90.5823 594.023 90.8428 593.702 90.8428H589.865C589.544 90.8428 589.283 90.5823 589.283 90.2609V88.9517C589.283 88.6304 589.544 88.3699 589.865 88.3699Z" fill="#F28C25"/>
<path d="M658.797 80.9695H662.633C662.954 80.9695 663.215 81.23 663.215 81.5513V82.8605C663.215 83.1819 662.954 83.4424 662.633 83.4424H658.797C658.475 83.4424 658.215 83.1819 658.215 82.8605V81.5513C658.215 81.23 658.475 80.9695 658.797 80.9695Z" fill="#F28C25"/>
</svg>
