<svg width="284" height="85" viewBox="0 0 284 85" fill="none" xmlns="http://www.w3.org/2000/svg">
<path d="M74.2209 72.9939H105.967V53.4052H74.2209V72.9939Z" fill="black"/>
<path d="M198.365 72.9939H230.111V53.4052H198.365V72.9939Z" fill="black"/>
<path d="M0.825306 64.5144L5.69687 70.9557L12.2594 73.8502H75.2877C75.2072 73.1571 75.1267 72.4437 75.1267 71.7099C75.1267 70.6092 75.2475 69.5084 75.489 68.4893C75.9319 66.349 76.8579 64.3514 78.106 62.6595C80.8236 58.9701 85.1718 56.5852 90.0635 56.5852C94.9552 56.5852 99.3436 58.9701 102.041 62.6595C103.229 64.2698 104.115 66.1451 104.577 68.2039C104.859 69.325 105.02 70.5072 105.02 71.7099C105.02 72.4437 104.94 73.1367 104.859 73.8502H199.533C199.452 73.1571 199.372 72.4437 199.372 71.7099C199.372 70.6092 199.472 69.5084 199.714 68.4893C200.177 66.349 201.083 64.3514 202.331 62.6595C205.069 58.9701 209.417 56.5852 214.288 56.5852C219.16 56.5852 223.548 58.9701 226.266 62.6595C227.454 64.2698 228.339 66.1451 228.802 68.2039C229.084 69.325 229.225 70.5072 229.225 71.7099C229.225 72.4437 229.165 73.1367 229.064 73.8502H268.258L271.962 72.2602L275.525 62.6799L276.028 61.3346L277.619 61.0288L283.738 59.8466L282.712 43.7027C282.671 42.9689 282.208 42.3166 281.524 42.0108L280.054 13.1679L270.613 5.42212H13.3464L3.46239 13.1679L2.89874 37.2207C2.29483 37.2207 1.8117 37.7099 1.77144 38.301L0.885697 62.4353V62.6799L0.805176 64.5348L0.825306 64.5144Z" fill="#EEF4F4"/>
<path d="M275.525 62.6594H226.266C227.454 64.2697 228.339 66.145 228.802 68.2038C229.084 69.3249 229.225 70.5071 229.225 71.7098C229.225 72.4436 229.165 73.1366 229.064 73.8501H268.258L271.962 72.2601L275.525 62.6798V62.6594Z" fill="#B8B5B6"/>
<path d="M202.331 62.6594H102.061C103.249 64.2697 104.135 66.145 104.598 68.2038C104.88 69.3249 105.041 70.5071 105.041 71.7098C105.041 72.4436 104.96 73.1366 104.88 73.8501H199.553C199.472 73.157 199.392 72.4436 199.392 71.7098C199.392 70.6091 199.493 69.5083 199.734 68.4892C200.197 66.3489 201.103 64.3513 202.351 62.6594H202.331Z" fill="#B8B5B6"/>
<path d="M0.825317 64.5143L5.69688 70.9556L12.2594 73.8501H75.2878C75.2072 73.157 75.1267 72.4436 75.1267 71.7098C75.1267 70.6091 75.2475 69.5083 75.4891 68.4892C75.9319 66.3489 76.8579 64.3513 78.106 62.6594H0.885709L0.825317 64.5143Z" fill="#B8B5B6"/>
<path d="M190.895 5.96665L191.652 6.08301L192.256 2.05253L191.5 1.93617L190.895 5.96665Z" fill="#B40100"/>
<path d="M201.183 71.7098C201.183 79.048 207.062 84.9796 214.288 84.9796C221.515 84.9796 227.413 79.0276 227.413 71.7098C227.413 70.6499 227.293 69.6103 227.051 68.6319C225.702 62.7614 220.509 58.4197 214.288 58.4197C208.068 58.4197 202.754 62.8837 201.485 68.8765C201.284 69.7938 201.183 70.7314 201.183 71.7098Z" fill="#2B2B2B"/>
<path d="M214.288 84.1642C221.081 84.1642 226.588 78.5882 226.588 71.7098C226.588 64.8314 221.081 59.2554 214.288 59.2554C207.495 59.2554 201.989 64.8314 201.989 71.7098C201.989 78.5882 207.495 84.1642 214.288 84.1642Z" fill="#3A3A3A"/>
<path d="M203.458 71.7098C203.458 77.7638 208.31 82.6763 214.288 82.6763C220.267 82.6763 225.119 77.7638 225.119 71.7098C225.119 65.6559 220.267 60.7434 214.288 60.7434C208.31 60.7434 203.458 65.6559 203.458 71.7098Z" fill="#494949"/>
<path d="M207.323 71.7097C207.323 75.603 210.443 78.7625 214.288 78.7625C218.133 78.7625 221.254 75.603 221.254 71.7097C221.254 67.8165 218.133 64.657 214.288 64.657C210.443 64.657 207.323 67.8165 207.323 71.7097Z" fill="#89857F"/>
<path d="M211.208 71.7099C211.208 73.4425 212.597 74.849 214.308 74.849C216.02 74.849 217.409 73.4425 217.409 71.7099C217.409 69.9773 216.02 68.5708 214.308 68.5708C212.597 68.5708 211.208 69.9773 211.208 71.7099Z" fill="#B8B5B6"/>
<path d="M214.288 65.3298C214.631 65.3298 214.912 65.6152 214.912 65.9617C214.912 66.3083 214.631 66.5936 214.288 66.5936C213.946 66.5936 213.664 66.3083 213.664 65.9617C213.664 65.6152 213.946 65.3298 214.288 65.3298ZM213.684 77.4581C213.684 77.8047 213.966 78.09 214.308 78.09C214.651 78.09 214.933 77.8047 214.933 77.4581C214.933 77.1116 214.651 76.8262 214.308 76.8262C213.966 76.8262 213.684 77.1116 213.684 77.4581ZM207.988 71.7099C207.988 71.3634 208.269 71.078 208.612 71.078C208.954 71.078 209.236 71.3634 209.236 71.7099C209.236 72.0565 208.954 72.3418 208.612 72.3418C208.269 72.3418 207.988 72.0565 207.988 71.7099ZM219.985 72.3418C220.327 72.3418 220.609 72.0565 220.609 71.7099C220.609 71.3634 220.327 71.078 219.985 71.078C219.643 71.078 219.361 71.3634 219.361 71.7099C219.361 72.0565 219.643 72.3418 219.985 72.3418ZM209.84 67.2051C210.081 66.9605 210.484 66.9605 210.725 67.2051C210.967 67.4497 210.967 67.8574 210.725 68.102C210.484 68.3466 210.081 68.3466 209.84 68.102C209.598 67.8574 209.598 67.4497 209.84 67.2051ZM217.872 76.2147C218.113 76.4593 218.516 76.4593 218.757 76.2147C218.999 75.9701 218.999 75.5625 218.757 75.3178C218.516 75.0732 218.113 75.0732 217.872 75.3178C217.63 75.5625 217.63 75.9701 217.872 76.2147ZM209.84 76.2147C209.598 75.9701 209.598 75.5625 209.84 75.3178C210.081 75.0732 210.484 75.0732 210.725 75.3178C210.967 75.5625 210.967 75.9701 210.725 76.2147C210.484 76.4593 210.081 76.4593 209.84 76.2147ZM218.757 68.0816C218.999 67.837 218.999 67.4294 218.757 67.1847C218.516 66.9401 218.113 66.9401 217.872 67.1847C217.63 67.4294 217.63 67.837 217.872 68.0816C218.113 68.3262 218.516 68.3262 218.757 68.0816Z" fill="#B8B5B6"/>
<path d="M76.9586 71.7098C76.9586 79.048 82.8367 84.9796 90.0635 84.9796C97.2903 84.9796 103.189 79.0276 103.189 71.7098C103.189 70.6499 103.068 69.6103 102.826 68.6319C101.477 62.7614 96.2838 58.4197 90.0635 58.4197C83.8432 58.4197 78.5288 62.8837 77.2606 68.8765C77.0593 69.7938 76.9586 70.7314 76.9586 71.7098Z" fill="#2B2B2B"/>
<path d="M90.0836 84.1642C96.8766 84.1642 102.383 78.5882 102.383 71.7098C102.383 64.8314 96.8766 59.2554 90.0836 59.2554C83.2907 59.2554 77.7839 64.8314 77.7839 71.7098C77.7839 78.5882 83.2907 84.1642 90.0836 84.1642Z" fill="#3A3A3A"/>
<path d="M79.2534 71.7098C79.2534 77.7638 84.1049 82.6763 90.0836 82.6763C96.0623 82.6763 100.914 77.7638 100.914 71.7098C100.914 65.6559 96.0623 60.7434 90.0836 60.7434C84.1049 60.7434 79.2534 65.6559 79.2534 71.7098Z" fill="#494949"/>
<path d="M83.0984 71.7097C83.0984 75.603 86.2186 78.7625 90.0635 78.7625C93.9084 78.7625 97.0286 75.603 97.0286 71.7097C97.0286 67.8165 93.9084 64.657 90.0635 64.657C86.2186 64.657 83.0984 67.8165 83.0984 71.7097Z" fill="#89857F"/>
<path d="M86.9835 71.7099C86.9835 73.4425 88.3725 74.849 90.0836 74.849C91.7947 74.849 93.1837 73.4425 93.1837 71.7099C93.1837 69.9773 91.7947 68.5708 90.0836 68.5708C88.3725 68.5708 86.9835 69.9773 86.9835 71.7099Z" fill="#B8B5B6"/>
<path d="M90.0837 65.3298C90.4259 65.3298 90.7077 65.6152 90.7077 65.9617C90.7077 66.3083 90.4259 66.5936 90.0837 66.5936C89.7414 66.5936 89.4596 66.3083 89.4596 65.9617C89.4596 65.6152 89.7414 65.3298 90.0837 65.3298ZM89.4596 77.4581C89.4596 77.8047 89.7414 78.09 90.0837 78.09C90.4259 78.09 90.7077 77.8047 90.7077 77.4581C90.7077 77.1116 90.4259 76.8262 90.0837 76.8262C89.7414 76.8262 89.4596 77.1116 89.4596 77.4581ZM83.7828 71.7099C83.7828 71.3634 84.0647 71.078 84.4069 71.078C84.7491 71.078 85.0309 71.3634 85.0309 71.7099C85.0309 72.0565 84.7491 72.3418 84.4069 72.3418C84.0647 72.3418 83.7828 72.0565 83.7828 71.7099ZM95.7604 72.3418C96.1027 72.3418 96.3845 72.0565 96.3845 71.7099C96.3845 71.3634 96.1027 71.078 95.7604 71.078C95.4182 71.078 95.1364 71.3634 95.1364 71.7099C95.1364 72.0565 95.4182 72.3418 95.7604 72.3418ZM85.6147 67.2051C85.8563 66.9605 86.2589 66.9605 86.5004 67.2051C86.742 67.4497 86.742 67.8574 86.5004 68.102C86.2589 68.3466 85.8563 68.3466 85.6147 68.102C85.3731 67.8574 85.3731 67.4497 85.6147 67.2051ZM93.6669 76.2147C93.9084 76.4593 94.3111 76.4593 94.5526 76.2147C94.7942 75.9701 94.7942 75.5625 94.5526 75.3178C94.3111 75.0732 93.9084 75.0732 93.6669 75.3178C93.4253 75.5625 93.4253 75.9701 93.6669 76.2147ZM85.6147 76.2147C85.3731 75.9701 85.3731 75.5625 85.6147 75.3178C85.8563 75.0732 86.2589 75.0732 86.5004 75.3178C86.742 75.5625 86.742 75.9701 86.5004 76.2147C86.2589 76.4593 85.8563 76.4593 85.6147 76.2147ZM94.5325 68.0816C94.774 67.837 94.774 67.4294 94.5325 67.1847C94.2909 66.9401 93.8883 66.9401 93.6467 67.1847C93.4052 67.4294 93.4052 67.837 93.6467 68.0816C93.8883 68.3262 94.2909 68.3262 94.5325 68.0816Z" fill="#B8B5B6"/>
<path d="M3.4624 13.1679H280.075L270.633 5.42212H13.3464L3.4624 13.1679Z" fill="#F72322"/>
<path d="M12.2594 62.4148V73.85L5.6969 70.9556V62.4148H12.2594Z" fill="#F72322"/>
<path d="M0.905839 62.4148H5.69688V70.9556L0.825317 64.5143L0.905839 62.4148Z" fill="#B40100"/>
<path d="M272.767 70.0791H277.78L279.43 67.0623L283.316 59.928L276.048 61.3141L273.472 68.1834L272.767 70.0791Z" fill="#F72322"/>
<path d="M272.767 70.079H277.78L279.43 67.0623L273.472 68.1834L272.767 70.079Z" fill="#B40100"/>
<path d="M267.674 15.0635H250.04V72.3213H267.674V15.0635Z" fill="#B40100"/>
<path d="M266.346 16.4292H251.369V54.3633H266.346V16.4292Z" fill="#95CDFF"/>
<path d="M266.346 55.668H251.369V70.9761H266.346V55.668Z" fill="#95CDFF"/>
<path d="M251.369 51.8357C251.369 51.8357 251.51 51.795 251.53 51.7134C254.187 45.6799 259.864 41.4808 266.346 40.747C266.446 40.747 266.527 40.6451 266.507 40.5432C266.507 40.4412 266.406 40.3597 266.305 40.3801C259.682 41.1139 253.905 45.4149 251.187 51.5707C251.147 51.6727 251.187 51.7746 251.288 51.8153C251.308 51.8153 251.348 51.8153 251.369 51.8153V51.8357Z" fill="white"/>
<path d="M251.369 49.4304C251.369 49.4304 251.51 49.3896 251.53 49.3284C254.187 43.9064 259.864 40.1354 266.346 39.4831C266.446 39.4831 266.527 39.3812 266.507 39.2793C266.507 39.1774 266.426 39.1162 266.326 39.1162C259.703 39.7889 253.925 43.621 251.208 49.1654C251.167 49.2673 251.208 49.3692 251.288 49.41C251.308 49.41 251.348 49.41 251.369 49.41V49.4304Z" fill="white"/>
<path d="M250.04 15.0635H232.406V72.3213H250.04V15.0635Z" fill="#B40100"/>
<path d="M248.711 16.4292H233.734V54.3633H248.711V16.4292Z" fill="#95CDFF"/>
<path d="M248.711 55.668H233.734V70.9761H248.711V55.668Z" fill="#95CDFF"/>
<path d="M248.711 51.8356C248.711 51.8356 248.772 51.8356 248.792 51.8356C248.892 51.7949 248.933 51.6726 248.892 51.591C246.195 45.4352 240.397 41.1342 233.775 40.4004C233.674 40.4004 233.573 40.4615 233.573 40.5635C233.573 40.6654 233.634 40.7673 233.734 40.7673C240.216 41.5011 245.893 45.7001 248.55 51.7337C248.591 51.7949 248.651 51.856 248.711 51.856V51.8356Z" fill="white"/>
<path d="M248.711 49.4305C248.711 49.4305 248.772 49.4305 248.792 49.4305C248.892 49.3897 248.913 49.2674 248.872 49.1859C246.155 43.6619 240.377 39.8094 233.754 39.1367C233.654 39.1367 233.573 39.2183 233.573 39.2998C233.573 39.4017 233.634 39.5036 233.734 39.5036C240.216 40.1559 245.913 43.9269 248.55 49.3489C248.591 49.4101 248.651 49.4509 248.711 49.4509V49.4305Z" fill="white"/>
<path d="M169.438 15.0635H151.803V72.3213H169.438V15.0635Z" fill="#B40100"/>
<path d="M168.109 16.4292H153.132V54.3633H168.109V16.4292Z" fill="#95CDFF"/>
<path d="M168.109 55.668H153.132V70.9761H168.109V55.668Z" fill="#95CDFF"/>
<path d="M153.132 51.8357C153.132 51.8357 153.273 51.795 153.293 51.7134C155.95 45.6799 161.627 41.4808 168.109 40.747C168.21 40.747 168.29 40.6451 168.27 40.5432C168.27 40.4412 168.17 40.3597 168.069 40.3801C161.446 41.1139 155.669 45.4149 152.951 51.5707C152.911 51.6727 152.951 51.7746 153.052 51.8153C153.072 51.8153 153.112 51.8153 153.132 51.8153V51.8357Z" fill="white"/>
<path d="M153.132 49.4304C153.132 49.4304 153.273 49.3896 153.293 49.3284C155.95 43.9064 161.627 40.1354 168.109 39.4831C168.21 39.4831 168.29 39.3812 168.27 39.2793C168.27 39.1774 168.19 39.1162 168.089 39.1162C161.466 39.7889 155.689 43.621 152.971 49.1654C152.931 49.2673 152.971 49.3692 153.052 49.41C153.072 49.41 153.112 49.41 153.132 49.41V49.4304Z" fill="white"/>
<path d="M151.804 15.0635H134.169V72.3213H151.804V15.0635Z" fill="#B40100"/>
<path d="M150.475 16.4292H135.498V54.3633H150.475V16.4292Z" fill="#95CDFF"/>
<path d="M150.475 55.668H135.498V70.9761H150.475V55.668Z" fill="#95CDFF"/>
<path d="M150.475 51.8356C150.475 51.8356 150.535 51.8356 150.555 51.8356C150.656 51.7949 150.696 51.6726 150.656 51.591C147.959 45.4352 142.161 41.1342 135.538 40.4004C135.437 40.4004 135.337 40.4615 135.337 40.5635C135.337 40.6654 135.397 40.7673 135.498 40.7673C141.98 41.5011 147.657 45.7001 150.314 51.7337C150.354 51.7949 150.414 51.856 150.475 51.856V51.8356Z" fill="white"/>
<path d="M150.475 49.4305C150.475 49.4305 150.535 49.4305 150.555 49.4305C150.656 49.3897 150.676 49.2674 150.636 49.1858C147.918 43.6619 142.141 39.8094 135.518 39.1367C135.397 39.1163 135.317 39.1978 135.317 39.2998C135.317 39.4017 135.377 39.5036 135.478 39.5036C141.96 40.1559 147.657 43.9269 150.294 49.3489C150.334 49.4101 150.394 49.4508 150.455 49.4508L150.475 49.4305Z" fill="white"/>
<path d="M71.2013 15.0635H53.567V72.3213H71.2013V15.0635Z" fill="#B40100"/>
<path d="M69.8727 16.4292H54.8956V54.3633H69.8727V16.4292Z" fill="#95CDFF"/>
<path d="M69.8727 55.668H54.8956V70.9761H69.8727V55.668Z" fill="#95CDFF"/>
<path d="M54.8957 51.8357C54.8957 51.8357 55.0366 51.795 55.0567 51.7134C57.714 45.6799 63.3907 41.4808 69.8727 40.747C69.9734 40.747 70.0539 40.6451 70.0338 40.5432C70.0338 40.4412 69.9331 40.3597 69.8325 40.3801C63.2096 41.1139 57.4321 45.4149 54.7145 51.5707C54.6743 51.6727 54.7145 51.7746 54.8152 51.8153C54.8353 51.8153 54.8756 51.8153 54.8957 51.8153V51.8357Z" fill="white"/>
<path d="M54.8957 49.4305C54.8957 49.4305 55.0366 49.3898 55.0567 49.3286C57.714 43.9065 63.3907 40.1356 69.8727 39.4833C69.9734 39.4833 70.0539 39.3814 70.0338 39.2795C70.0338 39.1775 69.9533 39.0756 69.8325 39.1164C63.2096 39.789 57.4321 43.6212 54.7145 49.1655C54.6743 49.2675 54.7145 49.3694 54.795 49.4101C54.8152 49.4101 54.8554 49.4101 54.8756 49.4101L54.8957 49.4305Z" fill="white"/>
<path d="M53.5671 15.0635H35.9329V72.3213H53.5671V15.0635Z" fill="#B40100"/>
<path d="M52.2385 16.4292H37.2615V54.3633H52.2385V16.4292Z" fill="#95CDFF"/>
<path d="M52.2385 55.668H37.2615V70.9761H52.2385V55.668Z" fill="#95CDFF"/>
<path d="M52.2384 51.8356C52.2384 51.8356 52.2988 51.8356 52.3189 51.8356C52.4196 51.7949 52.4599 51.6726 52.4196 51.591C49.7221 45.4352 43.9246 41.1342 37.3016 40.4004C37.1809 40.4004 37.1003 40.4615 37.1003 40.5635C37.1003 40.6654 37.1607 40.7673 37.2614 40.7673C43.7434 41.5011 49.4202 45.7001 52.0774 51.7337C52.1176 51.7949 52.178 51.856 52.2384 51.856V51.8356Z" fill="white"/>
<path d="M52.2384 49.4305C52.2384 49.4305 52.2988 49.4305 52.3189 49.4305C52.4196 49.3897 52.4397 49.2674 52.3995 49.1858C49.6818 43.6619 43.9044 39.8094 37.2815 39.1367C37.1607 39.1163 37.0802 39.1978 37.0802 39.2998C37.0802 39.4017 37.1406 39.5036 37.2412 39.5036C43.7232 40.1559 49.4201 43.9269 52.0572 49.3489C52.0975 49.4101 52.1579 49.4508 52.2183 49.4508L52.2384 49.4305Z" fill="white"/>
<path d="M229.91 15.0635H202.17V45.8225H229.91V15.0635Z" fill="#B40100"/>
<path d="M228.802 16.1643H214.067V25.9077H228.802V16.1643Z" fill="#95CDFF"/>
<path d="M212.98 16.1643H203.257V25.9077H212.98V16.1643Z" fill="#95CDFF"/>
<path d="M228.822 27.0083H203.257V44.7217H228.822V27.0083Z" fill="#95CDFF"/>
<path d="M199.674 15.0635H171.934V45.8225H199.674V15.0635Z" fill="#B40100"/>
<path d="M198.587 16.1643H183.851V25.9077H198.587V16.1643Z" fill="#95CDFF"/>
<path d="M182.744 16.1643H173.021V25.9077H182.744V16.1643Z" fill="#95CDFF"/>
<path d="M198.587 27.0083H173.021V44.7217H198.587V27.0083Z" fill="#95CDFF"/>
<path d="M131.673 15.0635H103.933V45.8225H131.673V15.0635Z" fill="#B40100"/>
<path d="M130.586 16.1643H115.851V25.9077H130.586V16.1643Z" fill="#95CDFF"/>
<path d="M114.743 16.1643H105.02V25.9077H114.743V16.1643Z" fill="#95CDFF"/>
<path d="M130.586 27.0083H105.02V44.7217H130.586V27.0083Z" fill="#95CDFF"/>
<path d="M101.437 15.0635H73.6975V45.8225H101.437V15.0635Z" fill="#B40100"/>
<path d="M100.35 16.1643H85.6147V25.9077H100.35V16.1643Z" fill="#95CDFF"/>
<path d="M84.5075 16.1643H74.7845V25.9077H84.5075V16.1643Z" fill="#95CDFF"/>
<path d="M100.35 27.0083H74.7845V44.7217H100.35V27.0083Z" fill="#95CDFF"/>
<path d="M33.4366 15.0635H11.2328V45.8225H33.4366V15.0635Z" fill="#B40100"/>
<path d="M32.3294 16.1643H12.2594V25.9077H32.3294V16.1643Z" fill="#95CDFF"/>
<path d="M32.3294 27.0083H12.2594V44.7217H32.3294V27.0083Z" fill="#95CDFF"/>
<path d="M13.3464 5.42212L9.25996 13.1679H3.4624L13.3464 5.42212Z" fill="#B40100"/>
<path d="M0.905884 62.4148H7.91127L9.28014 13.1475H3.46245L2.8988 37.2002C2.29488 37.2002 1.81175 37.6894 1.79162 38.2806L0.905884 62.4148Z" fill="#DADCDC"/>
<path d="M270.633 5.42212L274.841 13.1679H280.075L270.633 5.42212Z" fill="#B40100"/>
<path d="M274.821 13.168L277.619 61.0289L283.738 59.8466L282.712 43.7027C282.671 42.9689 282.208 42.3167 281.524 42.0109L280.054 13.168H274.821Z" fill="#DADCDC"/>
<path d="M3.42219 15.0635H6.80411L6.01902 37.2002H2.8988L3.42219 15.0635Z" fill="#95CDFF"/>
<path d="M0.221436 51.8357H5.27417L5.39495 49.0635H0.342218L0.221436 51.8357Z" fill="#E27113"/>
<path d="M0.120728 54.6079H5.17346L5.27412 51.8357H0.22138L0.120728 54.6079Z" fill="#FF9C01"/>
<path d="M0 57.3801H3.26113L5.17352 54.6079H0.120783L0 57.3801Z" fill="#E27113"/>
<path d="M280.175 49.8994H283.799L283.597 46.9641H279.974L280.175 49.8994Z" fill="#FF9C01"/>
<path d="M280.276 51.6522L284 52.8548L283.799 49.8992H280.175L280.276 51.6522Z" fill="#E27113"/>
<path d="M274.821 13.168L276.391 39.8502L281.544 42.0109L281.484 40.8286L280.135 14.2279L280.075 13.168H274.821Z" fill="#B40100"/>
<path d="M275.948 14.228L277.417 39.0961L281.484 40.8288L280.135 14.228H275.948Z" fill="#95CDFF"/>
<path d="M232.406 47.2698H169.438V51.6523H232.406V47.2698Z" fill="#F72322"/>
<path d="M134.169 47.2698H71.2013V51.6523H134.169V47.2698Z" fill="#F72322"/>
<path d="M8.33404 47.2698H35.9328V51.6523H8.21326L8.33404 47.2698Z" fill="#F72322"/>
<path d="M29.3904 5.42212L38.6907 5.42212V4.23986L29.3904 4.23986V5.42212Z" fill="#B40100"/>
<path d="M26.9344 4.21949H41.1465L39.6569 3.05762H28.4241L26.9344 4.21949Z" fill="#B40100"/>
<path d="M85.5745 5.40179H120.138L118.206 3.5061H87.507L85.5745 5.40179Z" fill="#B40100"/>
<path d="M184.978 1.67146L219.361 5.40168L217.63 3.30216L187.112 0L184.978 1.67146Z" fill="#B40100"/>
<path d="M109.852 72.3418H133.042V62.6188H109.852V72.3418Z" fill="#DADCDC"/>
<path d="M109.852 64.3311H133.042V62.6392H109.852V64.3311Z" fill="#89857F"/>
<path d="M170.505 72.3418H193.695V62.6188H170.505V72.3418Z" fill="#DADCDC"/>
<path d="M170.505 64.3311H193.695V62.6392H170.505V64.3311Z" fill="#89857F"/>
<path d="M196.936 72.4641V74.4413H199.633C199.513 73.8094 199.432 73.1367 199.392 72.4641C199.392 72.2195 199.392 71.9749 199.392 71.7099C199.392 70.6092 199.513 69.5084 199.754 68.4892C201.204 61.6811 207.182 56.5852 214.308 56.5852C221.435 56.5852 227.293 61.5384 228.822 68.2039C229.084 69.325 229.245 70.5072 229.245 71.7099C229.245 71.9749 229.245 72.2195 229.245 72.4641C229.225 73.1367 229.124 73.8094 229.004 74.4413H231.701V72.4641H230.715C230.715 72.2195 230.715 71.9749 230.715 71.7099C230.715 70.3849 230.554 69.0804 230.252 67.8574C228.561 60.5192 222.059 55.0972 214.288 55.0972C206.518 55.0972 199.875 60.7027 198.285 68.1631C198.023 69.3046 197.902 70.4869 197.902 71.7099C197.902 71.9749 197.902 72.2195 197.902 72.4641H196.936Z" fill="#B40100"/>
<path d="M72.7111 72.4641V74.4413H75.4085C75.2878 73.8094 75.2072 73.1367 75.167 72.4641C75.167 72.2195 75.167 71.9749 75.167 71.7099C75.167 70.6092 75.2878 69.5084 75.5293 68.4892C76.9787 61.6811 82.9574 56.5852 90.0836 56.5852C97.2098 56.5852 103.068 61.5384 104.598 68.2039C104.859 69.325 105.02 70.5072 105.02 71.7099C105.02 71.9749 105.02 72.2195 105.02 72.4641C105 73.1367 104.9 73.8094 104.779 74.4413H107.476V72.4641H106.49C106.49 72.2195 106.49 71.9749 106.49 71.7099C106.49 70.3849 106.329 69.0804 106.027 67.8574C104.336 60.5192 97.8338 55.0972 90.0635 55.0972C82.2931 55.0972 75.6501 60.7027 74.0598 68.1631C73.7981 69.3046 73.6773 70.4869 73.6773 71.7099C73.6773 71.9749 73.6773 72.2195 73.6773 72.4641H72.7111Z" fill="#B40100"/>
<path opacity="0.26" d="M251.369 16.4293V18.3657L266.346 40.4209V27.5384L258.817 16.4293H251.369ZM246.195 16.4293L248.711 20.1187V16.4293H246.195ZM251.369 20.3226V24.0528L266.346 46.0672V42.337L251.369 20.3226ZM233.734 16.4293V31.8394L248.711 53.8945V35.5084L235.767 16.4293H233.754H233.734ZM251.369 55.6679V57.8082L260.306 70.9761H266.346V61.4773L262.4 55.6679H251.369ZM251.369 39.4425V54.3633H261.494L251.369 39.4425ZM223.105 16.1643L228.822 24.6032V16.1643H223.105ZM251.369 60.56V65.8801L254.831 70.9761H258.454L251.369 60.56ZM244.444 55.6679L248.691 61.9461V56.6259L248.047 55.6679H244.424H244.444ZM233.734 34.6115V39.9113L243.558 54.3633H247.181L233.754 34.6115H233.734ZM217.61 16.1643L224.233 25.9077H227.856L221.233 16.1643H217.61ZM224.957 27.0084L228.802 32.6751V27.355L228.561 27.0084H224.937H224.957ZM193.816 16.1643L198.587 23.1763V16.1643H193.816ZM203.257 27.0084V30.066L213.201 44.7219H225.682L213.664 27.0084H203.257ZM203.257 16.1643V25.9077H212.919L206.297 16.1643H203.257ZM233.734 56.5648V70.9761H243.518L233.734 56.5648ZM188.32 16.1643L194.943 25.9077H198.566L191.944 16.1643H188.32ZM195.688 27.0084L198.587 31.2686V27.0084H195.688ZM203.257 32.8178V38.1583L207.726 44.7219H211.349L203.277 32.8178H203.257ZM153.132 16.4293V17.6931L168.109 39.7686V21.3825L164.747 16.4293H153.132ZM173.021 28.6187V44.7219H183.952L173.021 28.6187ZM153.132 20.4653V25.8058L168.109 47.8609V42.5408L153.132 20.4653ZM146.751 16.4293L150.475 21.8921V16.5516L150.394 16.4293H146.771H146.751ZM135.498 29.006V47.3921L140.249 54.3837H150.475V51.0612L135.498 29.006ZM121.688 27.0084L130.586 40.1355V27.0084H121.688ZM114.321 16.1643L114.743 16.7758V16.1643H114.321ZM115.851 16.1643V18.4269L120.923 25.9077H130.586V21.7494L126.802 16.1643H115.851ZM141.134 55.6679L150.475 69.4269V55.6679H141.134ZM153.132 55.6679V70.9761H164.003L153.615 55.6679H153.132ZM108.805 16.1643L114.743 24.9089V19.548L112.449 16.1643H108.825H108.805ZM115.851 21.1991V25.9281H119.071L115.851 21.1991ZM116.173 27.0084L128.211 44.7219H130.586V42.8669L119.796 27.0084H116.173ZM135.498 50.1235V54.3633H138.376L135.498 50.1235ZM135.659 55.6679L146.046 70.9761H149.67L139.282 55.6679H135.659ZM105.02 33.4089V44.7219H112.69L105.02 33.4089ZM88.1914 27.0084L100.209 44.7219H100.35V27.0084H88.1914ZM85.6147 16.1643V23.2171L87.4465 25.9077H99.9274L93.3045 16.1643H85.6147ZM80.8236 16.1643L84.5075 21.5864V16.1643H80.8236ZM82.6957 27.0084L94.7337 44.7219H98.3572L86.3192 27.0084H82.6957ZM75.328 16.1643L81.9509 25.9077H84.5075V24.3586L78.9515 16.1847H75.328V16.1643ZM54.8956 16.4293V34.3873L68.4635 54.3633H69.8727V38.036L55.1976 16.4293H54.8956ZM42.7167 16.4293L52.2384 30.4533V16.4293H42.7167ZM69.3694 55.6679L69.8727 56.4221V55.6679H69.3694ZM37.2614 16.4293V16.5108L52.2384 38.5456L54.9158 42.4797L62.9881 54.3633H66.6115L54.9158 37.1391L52.2384 33.2051L40.8446 16.4293H37.2815H37.2614ZM63.8738 55.6679L69.8727 64.494V59.1739L67.4973 55.6883H63.8738V55.6679ZM54.8956 57.4617V62.7818L60.4718 70.9761H64.0952L54.9158 57.4617H54.8956ZM50.0845 55.6679L52.2384 58.8478V55.6679H50.0845ZM23.2305 16.1643L29.8534 25.9077H32.3496V24.2566L26.854 16.1643H23.2305ZM30.5982 27.0084L32.3496 29.5768V27.0084H30.5982ZM37.2614 31.5132V36.813L49.1786 54.3633H52.2183V53.5276L37.2413 31.5132H37.2614ZM12.2594 16.1643V21.3418L15.3595 25.9077H18.983L12.3601 16.1643H12.2594ZM19.7278 27.0084H16.1043L28.1423 44.7219H31.7658L19.7278 27.0084ZM37.2614 55.6679V58.1139L45.998 70.9761H49.6215L39.2342 55.6679H37.2815H37.2614ZM37.2614 52.7938V54.343H38.3283L37.2614 52.7938Z" fill="white"/>
<path d="M270.633 5.42212H13.3464L12.038 7.15473H271.821L270.633 5.42212Z" fill="#B40100"/>
<g style="mix-blend-mode:multiply" opacity="0.18">
<path d="M0.825306 64.5144L5.69687 70.9557L12.2594 73.8502H75.2877C75.2072 73.1571 75.1267 72.4437 75.1267 71.7099C75.1267 70.6092 75.2475 69.5084 75.489 68.4893C75.9319 66.349 76.8579 64.3514 78.106 62.6595C80.8236 58.9701 85.1718 56.5852 90.0635 56.5852C94.9552 56.5852 99.3436 58.9701 102.041 62.6595C103.229 64.2698 104.115 66.1451 104.577 68.2039C104.859 69.325 105.02 70.5072 105.02 71.7099C105.02 72.4437 104.94 73.1367 104.859 73.8502H199.533C199.452 73.1571 199.372 72.4437 199.372 71.7099C199.372 70.6092 199.472 69.5084 199.714 68.4893C200.177 66.349 201.083 64.3514 202.331 62.6595C205.069 58.9701 209.417 56.5852 214.288 56.5852C219.16 56.5852 223.548 58.9701 226.266 62.6595C227.454 64.2698 228.339 66.1451 228.802 68.2039C229.084 69.325 229.225 70.5072 229.225 71.7099C229.225 72.4437 229.165 73.1367 229.064 73.8502H251.972C238.767 64.6979 232.204 46.9233 205.592 49.8993C165.673 54.3634 164.526 83.0432 114.321 58.4197C64.1154 33.8166 48.9974 73.2998 23.9552 57.8897C7.85082 47.9833 14.7153 22.4221 21.6603 5.42212H13.3464L3.46239 13.1679L2.89874 37.2207C2.29483 37.2207 1.8117 37.7099 1.77144 38.301L0.885697 62.4353V62.6799L0.805176 64.5348L0.825306 64.5144Z" fill="#303030"/>
</g>
<path d="M263.386 17.6931C263.105 20.7303 263.024 23.7471 263.004 26.7842C263.004 29.8214 263.084 32.8382 263.386 35.8754C263.688 32.8382 263.749 29.8214 263.769 26.7842C263.769 23.7471 263.688 20.7303 263.386 17.6931Z" fill="white"/>
<path d="M226.89 28.4148C226.608 30.5551 226.528 32.6954 226.508 34.8357C226.508 36.9759 226.588 39.1162 226.89 41.2565C227.192 39.1162 227.252 36.9759 227.273 34.8357C227.273 32.6954 227.192 30.5551 226.89 28.4148Z" fill="white"/>
<path d="M196.413 17.2649C196.131 18.4268 196.05 19.5682 196.03 20.7301C196.03 21.892 196.111 23.0335 196.413 24.1953C196.714 23.0335 196.775 21.892 196.795 20.7301C196.795 19.5682 196.714 18.4268 196.413 17.2649Z" fill="white"/>
<path d="M127.607 28.4148C127.325 30.5551 127.244 32.6954 127.224 34.8357C127.224 36.9759 127.305 39.1162 127.607 41.2565C127.909 39.1162 127.969 36.9759 127.989 34.8357C127.989 32.6954 127.909 30.5551 127.607 28.4148Z" fill="white"/>
<path d="M164.949 17.6931C164.667 20.7303 164.586 23.7471 164.566 26.7842C164.566 29.8214 164.647 32.8382 164.949 35.8754C165.251 32.8382 165.311 29.8214 165.331 26.7842C165.331 23.7471 165.251 20.7303 164.949 17.6931Z" fill="white"/>
<path d="M67.1752 17.6931C66.8934 20.7303 66.8129 23.7471 66.7927 26.7842C66.7927 29.8214 66.8732 32.8382 67.1752 35.8754C67.4772 32.8382 67.5376 29.8214 67.5577 26.7842C67.5577 23.7471 67.4772 20.7303 67.1752 17.6931Z" fill="white"/>
<path d="M258.958 22.2997C259.558 22.2997 260.045 21.524 260.045 20.5671C260.045 19.6102 259.558 18.8345 258.958 18.8345C258.357 18.8345 257.871 19.6102 257.871 20.5671C257.871 21.524 258.357 22.2997 258.958 22.2997Z" fill="white"/>
<path d="M260.347 24.3993C260.347 25.0108 260.629 25.5 260.971 25.5C261.313 25.5 261.595 25.0108 261.595 24.3993C261.595 23.7878 261.313 23.2986 260.971 23.2986C260.629 23.2986 260.347 23.7878 260.347 24.3993Z" fill="white"/>
<path d="M227.152 22.891C227.152 23.584 226.669 24.1548 226.065 24.1548C225.461 24.1548 224.978 23.584 224.978 22.891C224.978 22.1979 225.461 21.6272 226.065 21.6272C226.669 21.6272 227.152 22.1979 227.152 22.891Z" fill="white"/>
<path d="M126.318 21.5659C126.318 21.9328 126.6 22.2181 126.963 22.2181C127.325 22.2181 127.607 21.9328 127.607 21.5659C127.607 21.1989 127.325 20.9136 126.963 20.9136C126.6 20.9136 126.318 21.1989 126.318 21.5659Z" fill="white"/>
</svg>
