<svg width="542" height="182" viewBox="0 0 542 182" fill="none" xmlns="http://www.w3.org/2000/svg">
<path d="M199.03 166.626H145.027V178.227H199.03V166.626Z" fill="#2B2A2A"/>
<path d="M155.392 172.862C155.392 177.517 151.61 181.299 146.955 181.299C142.3 181.299 138.518 177.517 138.518 172.862C138.518 168.208 142.3 164.426 146.955 164.426C151.61 164.426 155.392 168.208 155.392 172.862Z" fill="#0C0B0A"/>
<path d="M206.104 172.862C206.104 177.517 202.322 181.299 197.667 181.299C193.012 181.299 189.23 177.517 189.23 172.862C189.23 168.208 193.012 164.426 197.667 164.426C202.322 164.426 206.104 168.208 206.104 172.862Z" fill="#0C0B0A"/>
<path d="M157.41 181.299H187.193C188.066 181.299 188.63 180.372 188.23 179.608L186.702 176.572C186.502 176.172 186.102 175.935 185.666 175.935H159.119C158.701 175.935 158.301 176.172 158.101 176.535L156.41 179.572C155.973 180.354 156.537 181.318 157.428 181.318L157.41 181.299Z" fill="#0C0B0A"/>
<path d="M395.914 166.626H341.911V178.227H395.914V166.626Z" fill="#2B2A2A"/>
<path d="M352.276 172.862C352.276 177.517 348.494 181.299 343.839 181.299C339.184 181.299 335.402 177.517 335.402 172.862C335.402 168.208 339.184 164.426 343.839 164.426C348.494 164.426 352.276 168.208 352.276 172.862Z" fill="#0C0B0A"/>
<path d="M402.969 172.862C402.969 177.517 399.187 181.299 394.532 181.299C389.878 181.299 386.096 177.517 386.096 172.862C386.096 168.208 389.878 164.426 394.532 164.426C399.187 164.426 402.969 168.208 402.969 172.862Z" fill="#0C0B0A"/>
<path d="M354.294 181.299H384.077C384.95 181.299 385.514 180.372 385.114 179.608L383.586 176.572C383.386 176.172 382.986 175.935 382.55 175.935H356.003C355.585 175.935 355.185 176.172 354.985 176.535L353.294 179.572C352.857 180.354 353.421 181.318 354.312 181.318L354.294 181.299Z" fill="#0C0B0A"/>
<path d="M512.412 77.1102C509.83 73.9646 505.957 72.1462 501.884 72.1462H39.7305C35.6575 72.1462 31.7846 73.9646 29.2026 77.1102C19.9476 88.3474 -0.471788 118.368 0.400989 163.535C0.510086 169.244 5.21944 173.79 10.9289 173.79H530.668C536.377 173.79 541.086 169.244 541.195 163.535C542.068 118.368 521.649 88.3474 512.394 77.1102H512.412Z" fill="#E27113"/>
<path d="M5.474 172.244C7.07409 173.208 8.94692 173.79 10.947 173.79H530.686C532.686 173.79 534.559 173.226 536.159 172.244H5.474Z" fill="#2B2A2A"/>
<path d="M26.8025 80.165C26.0752 81.1106 25.3297 82.1288 24.5296 83.238H517.085C516.303 82.1288 515.539 81.1106 514.812 80.165H26.8025Z" fill="#2B2A2A"/>
<path d="M540.886 150.843C539.068 124.786 530.322 104.621 522.303 91.2385H19.3111C11.2925 104.621 2.54656 124.768 0.728271 150.843H540.886Z" fill="#2B2A2A"/>
<path d="M100.789 94.7114H73.0779V173.717H100.789V94.7114Z" fill="#110D0A"/>
<path d="M99.4794 96.0933H74.387V172.481H99.4794V96.0933Z" fill="#E27113"/>
<path d="M98.1338 100.112H75.7326V145.388H98.1338V100.112Z" fill="#110D0A"/>
<path d="M97.0974 101.275H76.769V144.242H97.0974V101.275Z" fill="#468FB7"/>
<path d="M93.5699 101.275C89.4606 107.676 81.8965 119.513 76.769 127.659V119.568C79.6964 113.622 83.0421 105.821 85.2786 101.257H93.5699V101.275Z" fill="#61B4D8"/>
<path d="M97.0974 105.749V118.513L76.769 143.751V140.206C86.4059 124.15 91.3698 116.004 97.0974 105.749Z" fill="#61B4D8"/>
<path d="M73.0779 94.7114H45.3672V173.717H73.0779V94.7114Z" fill="#110D0A"/>
<path d="M71.7687 96.0933H46.6764V172.481H71.7687V96.0933Z" fill="#E27113"/>
<path d="M70.4232 100.112H48.0219V145.388H70.4232V100.112Z" fill="#110D0A"/>
<path d="M69.3867 101.275H49.0583V144.242H69.3867V101.275Z" fill="#468FB7"/>
<path d="M65.8593 101.275C61.7499 107.676 54.1859 119.513 49.0583 127.659V118.658C51.9857 112.713 55.3314 105.839 57.5679 101.275H65.8593Z" fill="#61B4D8"/>
<path d="M69.3867 108.531V118.531L49.0583 143.769V140.224C56.0405 129.896 63.6409 117.768 69.3867 108.531Z" fill="#61B4D8"/>
<path d="M239.142 98.7661H105.48V144.806H239.142V98.7661Z" fill="#110D0A"/>
<path d="M140.736 99.8572H106.552V143.715H140.736V99.8572Z" fill="#468FB7"/>
<path d="M238.069 99.8572H203.885V143.715H238.069V99.8572Z" fill="#468FB7"/>
<path d="M202.831 99.8572H141.773V107.021H202.831V99.8572Z" fill="#468FB7"/>
<path d="M202.831 107.84H141.773V143.697H202.831V107.84Z" fill="#468FB7"/>
<path d="M138.172 99.8572L106.552 137.387V131.932L128.208 99.8572H138.172Z" fill="#61B4D8"/>
<path d="M176.884 99.8572L169.483 107.021H160.665L167.12 99.8572H176.884Z" fill="#61B4D8"/>
<path d="M168.629 107.84L141.773 133.896V127.932L159.919 107.84H168.629Z" fill="#61B4D8"/>
<path d="M201.431 99.8572L194.194 107.021H180.448L186.484 99.8572H201.431Z" fill="#61B4D8"/>
<path d="M193.357 107.84L157.083 143.715H149.537L179.757 107.84H193.357Z" fill="#61B4D8"/>
<path d="M235.396 99.857L203.885 142.551V131.896C210.849 120.786 219.541 106.967 224.086 99.8389H235.396V99.857Z" fill="#61B4D8"/>
<path d="M298.745 94.7842H271.035V173.79H298.745V94.7842Z" fill="#110D0A"/>
<path d="M297.436 96.166H272.344V172.553H297.436V96.166Z" fill="#E27113"/>
<path d="M296.091 100.185H273.689V145.461H296.091V100.185Z" fill="#110D0A"/>
<path d="M295.072 101.348H274.744V144.315H295.072V101.348Z" fill="#468FB7"/>
<path d="M291.545 101.348C287.436 107.749 279.871 119.586 274.744 127.732V119.64C277.671 113.695 281.017 105.894 283.253 101.33H291.545V101.348Z" fill="#61B4D8"/>
<path d="M295.054 105.84V118.604L274.726 143.842V140.297C284.363 124.241 289.327 116.095 295.054 105.84Z" fill="#61B4D8"/>
<path d="M271.035 94.7842H243.324V173.79H271.035V94.7842Z" fill="#110D0A"/>
<path d="M269.725 96.166H244.633V172.553H269.725V96.166Z" fill="#E27113"/>
<path d="M268.38 100.185H245.979V145.461H268.38V100.185Z" fill="#110D0A"/>
<path d="M267.343 101.348H247.015V144.315H267.343V101.348Z" fill="#468FB7"/>
<path d="M263.816 101.348C259.707 107.749 252.143 119.586 247.015 127.732V118.731C249.942 112.786 253.288 105.912 255.525 101.348H263.816Z" fill="#61B4D8"/>
<path d="M267.343 108.603V118.604L247.015 143.842V140.296C253.997 129.968 261.598 117.84 267.343 108.603Z" fill="#61B4D8"/>
<path d="M436.88 98.7661H303.218V144.806H436.88V98.7661Z" fill="#110D0A"/>
<path d="M338.475 99.8572H304.291V143.715H338.475V99.8572Z" fill="#468FB7"/>
<path d="M435.789 99.8572H401.606V143.715H435.789V99.8572Z" fill="#468FB7"/>
<path d="M400.551 99.8572H339.493V107.021H400.551V99.8572Z" fill="#468FB7"/>
<path d="M400.551 107.84H339.493V143.697H400.551V107.84Z" fill="#468FB7"/>
<path d="M335.893 99.8572L304.291 137.387V131.932L325.947 99.8572H335.893Z" fill="#61B4D8"/>
<path d="M374.604 99.8572L367.222 107.021H358.385L364.858 99.8572H374.604Z" fill="#61B4D8"/>
<path d="M366.367 107.84L339.511 133.896V127.932L357.639 107.84H366.367Z" fill="#61B4D8"/>
<path d="M399.151 99.8572L391.914 107.021H378.186L384.223 99.8572H399.151Z" fill="#61B4D8"/>
<path d="M391.078 107.84L354.821 143.715H347.275L377.495 107.84H391.078Z" fill="#61B4D8"/>
<path d="M433.117 99.857L401.606 142.551V131.896C408.57 120.786 417.261 106.967 421.807 99.8389H433.117V99.857Z" fill="#61B4D8"/>
<path d="M496.247 94.7114H468.537V173.717H496.247V94.7114Z" fill="#110D0A"/>
<path d="M494.938 96.0933H469.846V172.481H494.938V96.0933Z" fill="#E27113"/>
<path d="M493.593 100.112H471.191V145.388H493.593V100.112Z" fill="#110D0A"/>
<path d="M492.556 101.275H472.228V144.242H492.556V101.275Z" fill="#468FB7"/>
<path d="M489.029 101.275C484.919 107.676 477.355 119.513 472.228 127.659V119.568C475.155 113.622 478.501 105.821 480.737 101.257H489.029V101.275Z" fill="#61B4D8"/>
<path d="M492.556 105.749V118.513L472.228 143.751V140.206C481.865 124.15 486.829 116.004 492.556 105.749Z" fill="#61B4D8"/>
<path d="M468.537 94.7114H440.826V173.717H468.537V94.7114Z" fill="#110D0A"/>
<path d="M467.228 96.0933H442.135V172.481H467.228V96.0933Z" fill="#E27113"/>
<path d="M465.882 100.112H443.481V145.388H465.882V100.112Z" fill="#110D0A"/>
<path d="M464.846 101.275H444.517V144.242H464.846V101.275Z" fill="#468FB7"/>
<path d="M461.318 101.275C457.209 107.676 449.645 119.513 444.517 127.659V118.658C447.445 112.713 450.79 105.839 453.027 101.275H461.318Z" fill="#61B4D8"/>
<path d="M464.846 108.531V118.531L444.517 143.769V140.224C451.499 129.896 459.1 117.768 464.846 108.531Z" fill="#61B4D8"/>
<path d="M540.341 144.806L507.793 135.351C505.612 134.714 504.102 132.714 504.102 130.441V102.185C504.102 101.076 504.993 100.185 506.102 100.185H527.213C532.959 111.749 538.286 126.732 540.341 144.806Z" fill="#468FB7"/>
<path d="M1.27376 144.806L33.8211 135.351C36.003 134.714 37.5122 132.714 37.5122 130.441V102.185C37.5122 101.076 36.6212 100.185 35.5121 100.185H14.4018C8.656 111.749 3.32842 126.732 1.27376 144.806Z" fill="#468FB7"/>
<path d="M230.687 173.026H111.953V156.625H230.687V173.026ZM112.88 172.099H229.76V157.552H112.88V172.099Z" fill="#2B2A2A"/>
<path d="M428.189 173.026H309.455V156.625H428.189V173.026ZM310.382 172.099H427.262V157.552H310.382V172.099Z" fill="#2B2A2A"/>
<path d="M358.694 72.1463V67.5278C358.694 66.5095 357.858 65.6731 356.839 65.6731H323.528C322.51 65.6731 321.674 66.5095 321.674 67.5278V72.1463H358.676H358.694Z" fill="#2B2A2A"/>
<path d="M350.185 53.363H342.184C341.16 53.363 340.329 54.1934 340.329 55.2178V59.1999C340.329 60.2242 341.16 61.0545 342.184 61.0545H350.185C351.209 61.0545 352.039 60.2242 352.039 59.1999V55.2178C352.039 54.1934 351.209 53.363 350.185 53.363Z" fill="#2B2A2A"/>
<path d="M325.565 61.4545L323.456 59.6726C323.692 59.3271 364.04 29.7068 368.531 26.2702C361.967 23.1791 341.548 13.4148 324.001 5.03235L325.201 2.52307C340.82 9.99633 374.622 25.7975 374.622 25.7975C374.622 25.7975 326.165 60.9272 325.565 61.4545Z" fill="#2B2A2A"/>
<path d="M324.474 13.3239C323.547 13.3239 322.783 12.5602 322.783 11.6328V2.23218C322.783 1.30484 323.547 0.541138 324.474 0.541138C325.401 0.541138 326.165 1.30484 326.165 2.23218V11.6328C326.165 12.5602 325.401 13.3239 324.474 13.3239Z" fill="#E27113"/>
<path d="M374.622 26.6884C374.622 29.0704 372.695 31.016 370.295 31.016C367.895 31.016 365.967 29.0886 365.967 26.6884C365.967 24.2883 367.895 22.3608 370.295 22.3608C372.695 22.3608 374.622 24.2883 374.622 26.6884Z" fill="#E27113"/>
<path d="M352.039 60.4363H323.474V65.673H352.039V60.4363Z" fill="#E27113"/>
<path d="M329.401 60.4363C329.401 62.2182 327.947 63.6729 326.165 63.6729C324.383 63.6729 322.928 62.2182 322.928 60.4363C322.928 58.6544 324.383 57.1997 326.165 57.1997C327.947 57.1997 329.401 58.6544 329.401 60.4363Z" fill="#E27113"/>
</svg>
