<svg width="520" height="145" viewBox="0 0 520 145" fill="none" xmlns="http://www.w3.org/2000/svg">
<path d="M431.621 137.04C431.621 140.984 428.432 144.18 424.495 144.18C420.559 144.18 417.369 140.984 417.369 137.04C417.369 133.096 420.559 129.901 424.495 129.901C428.432 129.901 431.621 133.096 431.621 137.04Z" fill="#3A3A3A"/>
<path d="M426.211 137.04C426.211 137.991 425.444 138.78 424.475 138.78C423.506 138.78 422.739 138.011 422.739 137.04C422.739 136.069 423.506 135.301 424.475 135.301C425.444 135.301 426.211 136.069 426.211 137.04Z" fill="#89857F"/>
<path d="M394.82 137.04C394.82 140.984 398.01 144.18 401.946 144.18C405.882 144.18 409.072 140.984 409.072 137.04C409.072 133.096 405.882 129.901 401.946 129.901C398.01 129.901 394.82 133.096 394.82 137.04Z" fill="#3A3A3A"/>
<path d="M400.23 137.04C400.23 137.991 400.997 138.78 401.966 138.78C402.935 138.78 403.702 138.011 403.702 137.04C403.702 136.069 402.935 135.301 401.966 135.301C400.997 135.301 400.23 136.069 400.23 137.04Z" fill="#89857F"/>
<path d="M438.828 26.1872C438.828 27.0164 438.162 27.6839 437.334 27.6839C436.506 27.6839 435.84 27.0164 435.84 26.1872C435.84 25.358 436.506 24.6906 437.334 24.6906C438.162 24.6906 438.828 25.358 438.828 26.1872Z" fill="#3A3A3A"/>
<path d="M411.65 7.58803L411.134 8.33691L437.246 26.4045L437.762 25.6556L411.65 7.58803Z" fill="#3A3A3A"/>
<path d="M420.618 53.0419L421.396 53.5117L437.778 26.2821L437 25.8123L420.618 53.0419Z" fill="#3A3A3A"/>
<path d="M413.594 10.897C415.211 10.897 416.521 9.584 416.521 7.96436C416.521 6.34472 415.211 5.03174 413.594 5.03174C411.977 5.03174 410.667 6.34472 410.667 7.96436C410.667 9.584 411.977 10.897 413.594 10.897Z" fill="#3A3A3A"/>
<path d="M417.571 3.17102L414.623 7.96434H412.564L409.617 3.17102H417.571Z" fill="#3A3A3A"/>
<path d="M420.458 2.625H406.751V3.71715H420.458V2.625Z" fill="#3A3A3A"/>
<path d="M418.055 2.625H415.613V1.4115C415.613 0.744072 416.158 0.197998 416.824 0.197998C417.49 0.197998 418.035 0.744072 418.035 1.4115V2.625H418.055Z" fill="#3A3A3A"/>
<path d="M409.133 2.625H411.575V1.4115C411.575 0.744072 411.03 0.197998 410.364 0.197998C409.698 0.197998 409.153 0.744072 409.153 1.4115V2.625H409.133Z" fill="#3A3A3A"/>
<path d="M420.437 3.71716H419.872V5.73966H420.437V3.71716Z" fill="#3A3A3A"/>
<path d="M406.73 5.73962H407.296V3.71713H406.73V5.73962Z" fill="#3A3A3A"/>
<path d="M419.267 3.71716H418.701V5.73966H419.267V3.71716Z" fill="#3A3A3A"/>
<path d="M407.901 5.73962H408.466V3.71713H407.901V5.73962Z" fill="#3A3A3A"/>
<path d="M441.048 26.1871C441.048 27.0163 440.382 27.6837 439.555 27.6837C438.727 27.6837 438.061 27.0163 438.061 26.1871C438.061 25.3579 438.727 24.6904 439.555 24.6904C440.382 24.6904 441.048 25.3579 441.048 26.1871Z" fill="#494949"/>
<path d="M413.849 7.59423L413.333 8.34314L439.445 26.4107L439.961 25.6618L413.849 7.59423Z" fill="#494949"/>
<path d="M422.831 53.0567L423.609 53.5265L439.991 26.2969L439.213 25.827L422.831 53.0567Z" fill="#494949"/>
<path d="M418.257 135.483L420.013 133.359H428.048L426.574 130.993H399.867L398.393 133.359H406.428L408.184 135.483H418.257Z" fill="black"/>
<path d="M519.536 124.076V130.993H480.131L477.083 136.717H430.168L426.574 130.993H399.867L396.294 136.717H270.003V55.2909H476.982L501.307 71.7743L512.733 114.105L507.908 119.242L519.536 124.076Z" fill="#DADCDC"/>
<path d="M477.769 135.463H517.336V130.993H480.131L477.769 135.463Z" fill="#B40100"/>
<path d="M510.311 130.993C510.311 132.227 511.3 133.218 512.531 133.218H517.336V130.993H510.311Z" fill="#FF9C01"/>
<path d="M518.305 123.55V118.696L507.484 78.2058L502.074 74.6664L512.713 114.105L507.908 119.242L518.305 123.55Z" fill="#F72322"/>
<path d="M519.536 126.968V130.993H480.131L478.536 133.986L477.083 136.717H430.168L428.452 133.986L426.574 130.993H399.867L397.989 133.986L396.294 136.717H270.003V66.2124H472.48L500.096 77.9024L509.301 112.548L501.671 119.161L519.536 126.968Z" fill="#D0D3D3"/>
<path d="M270.003 133.986H397.989L396.273 136.717H270.003V133.986ZM428.452 133.986L430.168 136.717H477.083L478.536 133.986H428.452Z" fill="#B8B5B6"/>
<path d="M509.301 112.548L501.67 119.161L494.282 115.824L490.83 114.267L486.025 112.103L482.573 110.525L481.181 109.898L481.059 109.292L477.668 91.3722L475.73 81.1182H500.944L501.448 83.0193V83.0395L502.72 87.7924L504.476 94.3858L505.728 99.1589V99.1791L509.301 112.548Z" fill="#13A6E2"/>
<path d="M453.645 81.1182H436.345V135.301H453.645V81.1182Z" fill="#3A3A3A"/>
<path d="M451.425 85.143V115.905C451.425 116.896 450.617 117.705 449.628 117.705H440.342C439.353 117.705 438.566 116.896 438.566 115.905V85.143C438.566 84.1722 439.353 83.3632 440.342 83.3632H449.628C450.254 83.3632 450.799 83.6665 451.102 84.1519C451.304 84.4351 451.405 84.7789 451.405 85.143H451.425Z" fill="#13A6E2"/>
<path d="M452.818 121.851H437.173V126.018H452.818V121.851Z" fill="#F72322"/>
<path d="M470.946 81.1182H453.645V135.301H470.946V81.1182Z" fill="#3A3A3A"/>
<path d="M468.705 85.143V115.905C468.705 116.896 467.897 117.705 466.908 117.705H457.622C456.633 117.705 455.846 116.896 455.846 115.905V85.143C455.846 84.1722 456.633 83.3632 457.622 83.3632H466.908C467.736 83.3632 468.442 83.9295 468.624 84.7182C468.665 84.8598 468.685 85.0014 468.685 85.143H468.705Z" fill="#13A6E2"/>
<path d="M470.118 121.851H454.473V126.018H470.118V121.851Z" fill="#F72322"/>
<path d="M373.502 81.1182H356.202V135.301H373.502V81.1182Z" fill="#3A3A3A"/>
<path d="M371.262 85.143V115.905C371.262 116.896 370.454 117.705 369.465 117.705H360.179C359.19 117.705 358.402 116.896 358.402 115.905V85.143C358.402 84.1722 359.19 83.3632 360.179 83.3632H369.465C370.454 83.3632 371.262 84.1722 371.262 85.143Z" fill="#13A6E2"/>
<path d="M372.675 121.851H357.03V126.018H372.675V121.851Z" fill="#F72322"/>
<path d="M390.783 81.1182H373.482V135.301H390.783V81.1182Z" fill="#3A3A3A"/>
<path d="M388.562 85.143V115.905C388.562 116.896 387.754 117.705 386.765 117.705H377.499C377.035 117.705 376.611 117.523 376.308 117.24C375.945 116.916 375.723 116.431 375.723 115.905V85.143C375.723 84.1722 376.53 83.3632 377.52 83.3632H386.785C387.775 83.3632 388.582 84.1722 388.582 85.143H388.562Z" fill="#13A6E2"/>
<path d="M389.955 121.851H374.31V126.018H389.955V121.851Z" fill="#F72322"/>
<path d="M310.64 81.1182H293.339V135.301H310.64V81.1182Z" fill="#3A3A3A"/>
<path d="M308.399 85.143V115.905C308.399 116.896 307.612 117.705 306.622 117.705H297.336C296.67 117.705 296.085 117.341 295.802 116.795C295.62 116.532 295.54 116.229 295.54 115.905V85.143C295.54 84.1722 296.347 83.3632 297.336 83.3632H306.622C306.945 83.3632 307.268 83.4643 307.531 83.6261C308.056 83.9295 308.399 84.4958 308.399 85.143Z" fill="#13A6E2"/>
<path d="M309.812 121.851H294.167V126.018H309.812V121.851Z" fill="#F72322"/>
<path d="M430.652 83.3632H396.475C395.974 83.3632 395.567 83.7706 395.567 84.2733V113.822C395.567 114.325 395.974 114.732 396.475 114.732H430.652C431.154 114.732 431.561 114.325 431.561 113.822V84.2733C431.561 83.7706 431.154 83.3632 430.652 83.3632Z" fill="#3A3A3A"/>
<path d="M412.968 84.5564H396.758V95.1341H412.968V84.5564Z" fill="#13A6E2"/>
<path d="M430.37 84.5564H414.159V95.1341H430.37V84.5564Z" fill="#13A6E2"/>
<path d="M430.37 96.3475H396.758V113.519H430.37V96.3475Z" fill="#13A6E2"/>
<path d="M350.469 83.3632H316.373C315.849 83.3632 315.424 83.7887 315.424 84.3137V113.782C315.424 114.307 315.849 114.732 316.373 114.732H350.469C350.993 114.732 351.418 114.307 351.418 113.782V84.3137C351.418 83.7887 350.993 83.3632 350.469 83.3632Z" fill="#3A3A3A"/>
<path d="M332.825 84.5564H316.615V95.1341H332.825V84.5564Z" fill="#13A6E2"/>
<path d="M350.227 84.5564H334.016V95.1341H350.227V84.5564Z" fill="#13A6E2"/>
<path d="M350.227 96.3475H316.615V113.519H350.227V96.3475Z" fill="#13A6E2"/>
<path d="M287.667 83.3632H274.383C273.893 83.3632 273.495 83.7616 273.495 84.2531V113.842C273.495 114.334 273.893 114.732 274.383 114.732H287.667C288.157 114.732 288.555 114.334 288.555 113.842V84.2531C288.555 83.7616 288.157 83.3632 287.667 83.3632Z" fill="#3A3A3A"/>
<path d="M287.303 84.5564H274.747V95.1341H287.303V84.5564Z" fill="#13A6E2"/>
<path d="M287.303 96.3475H274.747V113.519H287.303V96.3475Z" fill="#13A6E2"/>
<path d="M500.096 77.9024H270.003V66.2124H472.48L500.096 77.9024Z" fill="#F72322"/>
<path d="M463.779 55.2909L460.004 47.5852H400.735L379.982 55.2909H463.779Z" fill="#B40100"/>
<path opacity="0.26" d="M287.162 84.5564H287.303V95.1341H279.895L287.162 84.5564Z" fill="white"/>
<path opacity="0.26" d="M287.303 96.3475V98.3903L276.907 113.519H274.747V102.658L279.067 96.3475H287.303Z" fill="white"/>
<path opacity="0.26" d="M297.619 83.3632L295.56 86.3565V85.143C295.56 84.1722 296.367 83.3632 297.356 83.3632H297.619Z" fill="white"/>
<path opacity="0.26" d="M287.303 100.474V104.539L281.126 113.519H278.34L287.303 100.474Z" fill="white"/>
<path opacity="0.26" d="M301.858 83.3632L295.56 92.5251V88.4599L299.072 83.3632H301.858Z" fill="white"/>
<path opacity="0.26" d="M287 113.519L287.303 113.074V113.519H287Z" fill="white"/>
<path opacity="0.26" d="M308.399 85.1429V96.388L295.56 115.096V101.08L307.531 83.6462C308.056 83.9496 308.399 84.5159 308.399 85.1631V85.1429Z" fill="white"/>
<path opacity="0.26" d="M308.399 98.4509V102.516L297.982 117.685H297.336C296.67 117.685 296.085 117.321 295.802 116.775L308.379 98.4509H308.399Z" fill="white"/>
<path opacity="0.26" d="M321.702 84.5564L316.615 91.979V84.5564H321.702Z" fill="white"/>
<path opacity="0.26" d="M371.262 89.1475V103.184L361.309 117.685H360.199C359.21 117.685 358.423 116.876 358.423 115.885V107.856L371.262 89.1273V89.1475Z" fill="white"/>
<path opacity="0.26" d="M384.868 83.3632L375.723 96.7117V85.143C375.723 84.1722 376.53 83.3632 377.52 83.3632H384.868Z" fill="white"/>
<path opacity="0.26" d="M366.376 117.685L371.262 110.566V115.905C371.262 116.896 370.454 117.705 369.465 117.705H366.356L366.376 117.685Z" fill="white"/>
<path opacity="0.26" d="M388.562 85.3654V99.3814L376.308 117.22C375.945 116.896 375.723 116.411 375.723 115.885V104.053L388.562 85.3452V85.3654Z" fill="white"/>
<path opacity="0.26" d="M404.57 84.5564L397.303 95.1341H396.758V84.5564H404.57Z" fill="white"/>
<path opacity="0.26" d="M316.615 96.3475H318.169L316.615 98.633V96.3475Z" fill="white"/>
<path opacity="0.26" d="M326.285 84.5564L318.997 95.1341H316.615V94.5678L323.479 84.5564H326.285Z" fill="white"/>
<path opacity="0.26" d="M412.968 95.134H407.8L412.968 87.6104V95.134Z" fill="white"/>
<path opacity="0.26" d="M406.952 96.3475H416.582L404.813 113.519H396.758V111.233L406.952 96.3475Z" fill="white"/>
<path opacity="0.26" d="M424.677 84.5564L417.409 95.1341H414.159V85.8508L415.048 84.5564H424.677Z" fill="white"/>
<path opacity="0.26" d="M438.586 114.489L451.425 95.7812V109.797L446.015 117.685H440.342C439.353 117.685 438.566 116.876 438.566 115.885V114.489H438.586Z" fill="white"/>
<path opacity="0.26" d="M468.644 84.7182L455.866 103.345V89.3093L459.944 83.3632H466.929C467.756 83.3632 468.463 83.9295 468.644 84.7182Z" fill="white"/>
<path opacity="0.26" d="M418.358 96.3475H421.144L409.355 113.519H406.569L418.358 96.3475Z" fill="white"/>
<path opacity="0.26" d="M429.259 84.5564L421.992 95.1341H419.186L426.473 84.5564H429.259Z" fill="white"/>
<path opacity="0.26" d="M430.369 93.0105V95.1341H428.916L430.369 93.0105Z" fill="white"/>
<path opacity="0.26" d="M430.37 96.3475V97.0756L419.085 113.519H416.279L428.068 96.3475H430.37Z" fill="white"/>
<path opacity="0.26" d="M444.501 83.3632L438.586 91.9588V87.8936L441.695 83.3632H444.501Z" fill="white"/>
<path opacity="0.26" d="M451.425 85.143V87.752L438.586 106.46V102.395L451.122 84.152C451.324 84.4351 451.425 84.779 451.425 85.143Z" fill="white"/>
<path opacity="0.26" d="M468.705 107.714V111.759L464.647 117.685H461.841L468.705 107.714Z" fill="white"/>
<path opacity="0.26" d="M332.805 95.1341H331.251L332.805 92.8689V95.1341Z" fill="white"/>
<path opacity="0.26" d="M340.052 96.3475L328.263 113.519H318.634L330.423 96.3475H340.052Z" fill="white"/>
<path opacity="0.26" d="M348.147 84.5564L340.9 95.1341H334.016V91.1295L338.518 84.5564H348.147Z" fill="white"/>
<path opacity="0.26" d="M350.227 84.5564V95.1341H342.899L350.126 84.5564H350.227Z" fill="white"/>
<path opacity="0.26" d="M350.227 96.3475V98.4914L339.911 113.519H330.262L342.051 96.3475H350.227Z" fill="white"/>
<path opacity="0.26" d="M364.822 83.3632L358.423 92.6869V88.6014L362.036 83.3632H364.822Z" fill="white"/>
<path opacity="0.26" d="M368.516 83.3632L358.423 98.0667V93.9813L365.73 83.3632H368.516Z" fill="white"/>
<path opacity="0.26" d="M500.399 81.1182L481.059 109.292L477.668 91.3722L484.693 81.1182H500.399Z" fill="white"/>
<path opacity="0.26" d="M502.72 87.7924L486.025 112.103L482.573 110.525L501.448 83.0396L502.72 87.7924Z" fill="white"/>
<path opacity="0.26" d="M505.728 99.1588V99.1791L494.282 115.824L490.83 114.267L504.476 94.3857L505.728 99.1588Z" fill="white"/>
<path d="M481.019 58.0213H270.003V55.2909H476.982L481.019 58.0213Z" fill="#B8B5B6"/>
<path d="M426.554 128.424H399.887V129.314H426.554V128.424Z" fill="#B8B5B6"/>
<g style="mix-blend-mode:multiply" opacity="0.14">
<path d="M450.173 136.717H430.168L426.595 130.993H399.887L396.314 136.717H270.043V55.2909H302.02C274.04 74.2013 274.807 121.912 293.38 128.424C315.929 136.312 370.454 98.6128 450.214 136.717H450.173Z" fill="#303030"/>
</g>
<path d="M87.915 137.04C87.915 140.984 91.1046 144.18 95.0411 144.18C98.9776 144.18 102.167 140.984 102.167 137.04C102.167 133.096 98.9776 129.901 95.0411 129.901C91.1046 129.901 87.915 133.096 87.915 137.04Z" fill="#3A3A3A"/>
<path d="M95.0411 138.78C96 138.78 96.7772 138.001 96.7772 137.04C96.7772 136.08 96 135.301 95.0411 135.301C94.0823 135.301 93.3051 136.08 93.3051 137.04C93.3051 138.001 94.0823 138.78 95.0411 138.78Z" fill="#89857F"/>
<path d="M124.696 137.04C124.696 140.984 121.506 144.18 117.57 144.18C113.633 144.18 110.444 140.984 110.444 137.04C110.444 133.096 113.633 129.901 117.57 129.901C121.506 129.901 124.696 133.096 124.696 137.04Z" fill="#3A3A3A"/>
<path d="M117.57 138.78C118.529 138.78 119.306 138.001 119.306 137.04C119.306 136.08 118.529 135.301 117.57 135.301C116.611 135.301 115.834 136.08 115.834 137.04C115.834 138.001 116.611 138.78 117.57 138.78Z" fill="#89857F"/>
<path d="M101.279 135.483L99.5024 133.359H91.4679L92.9416 130.993H119.669L121.143 133.359H113.109L111.332 135.483H101.279Z" fill="black"/>
<path d="M249.513 55.2909V136.717H123.242L119.669 130.993H92.9618L89.3685 136.717H42.4536L39.4053 130.993H0V124.076L11.6278 119.242L6.80306 114.105L18.229 71.7743L42.5545 55.2909H249.513Z" fill="#DADCDC"/>
<path d="M41.7672 135.463H2.20044V130.993H39.4053L41.7672 135.463Z" fill="#B40100"/>
<path d="M9.20538 130.993C9.20538 132.227 8.21621 133.218 6.98479 133.218H2.20044V130.993H9.22556H9.20538Z" fill="#FF9C01"/>
<path d="M1.23145 123.55V118.696L12.0518 78.2059L17.4417 74.6665L6.8031 114.105L11.6278 119.242L1.23145 123.55Z" fill="#F72322"/>
<path d="M0 126.968V130.993H39.4053L42.4334 136.717H89.3685L92.9416 130.993H119.669L123.242 136.717H249.513V66.2124H47.0562L19.4402 77.9024L10.2349 112.548L17.8656 119.161L0 126.968Z" fill="#D0D3D3"/>
<path d="M43.7859 81.1183L38.3354 109.898L17.8656 119.161L16.9976 118.413L14.6962 116.431L13.5254 115.379L10.2349 112.548L14.9385 94.7904L18.5722 81.1183H43.7859Z" fill="#13A6E2"/>
<path d="M249.513 136.717H123.243L121.527 133.986H249.513V136.717ZM41.0001 133.986L42.4536 136.717H89.3685L91.0844 133.986H41.0001Z" fill="#B8B5B6"/>
<path d="M83.1912 81.1183H65.8909V135.301H83.1912V81.1183Z" fill="#3A3A3A"/>
<path d="M80.9504 85.143V115.905C80.9504 116.896 80.1429 117.705 79.1537 117.705H69.8878C69.2419 117.705 68.6968 117.382 68.3738 116.876C68.1921 116.593 68.0912 116.269 68.0912 115.925V85.1632C68.0912 84.1924 68.8987 83.3834 69.8878 83.3834H79.1537C80.1429 83.3834 80.9504 84.1924 80.9504 85.1632V85.143Z" fill="#13A6E2"/>
<path d="M66.6984 126.038H82.3434V121.872H66.6984V126.038Z" fill="#F72322"/>
<path d="M65.8908 81.1183H48.5905V135.301H65.8908V81.1183Z" fill="#3A3A3A"/>
<path d="M63.6702 85.143V115.905C63.6702 116.896 62.8628 117.705 61.8736 117.705H52.5875C51.5983 117.705 50.811 116.896 50.811 115.905V85.143C50.811 84.1722 51.5983 83.3632 52.5875 83.3632H61.8736C62.8628 83.3632 63.6702 84.1722 63.6702 85.143Z" fill="#13A6E2"/>
<path d="M49.4181 126.038H65.0631V121.872H49.4181V126.038Z" fill="#F72322"/>
<path d="M163.334 81.1183H146.034V135.301H163.334V81.1183Z" fill="#3A3A3A"/>
<path d="M161.114 85.143V115.905C161.114 116.896 160.306 117.705 159.317 117.705H150.031C149.042 117.705 148.254 116.896 148.254 115.905V85.143C148.254 84.1722 149.042 83.3632 150.031 83.3632H159.317C159.902 83.3632 160.407 83.6463 160.75 84.0913C160.972 84.3946 161.114 84.7587 161.114 85.143Z" fill="#13A6E2"/>
<path d="M146.861 126.038H162.506V121.872H146.861V126.038Z" fill="#F72322"/>
<path d="M146.054 81.1183H128.754V135.301H146.054V81.1183Z" fill="#3A3A3A"/>
<path d="M143.813 85.143V115.905C143.813 116.896 143.006 117.705 142.017 117.705H132.73C131.741 117.705 130.954 116.896 130.954 115.905V85.143C130.954 84.1722 131.741 83.3632 132.73 83.3632H142.017C142.844 83.3632 143.551 83.9295 143.732 84.698C143.773 84.8396 143.793 85.0014 143.793 85.143H143.813Z" fill="#13A6E2"/>
<path d="M129.581 126.038H145.226V121.872H129.581V126.038Z" fill="#F72322"/>
<path d="M226.197 81.1183H208.896V135.301H226.197V81.1183Z" fill="#3A3A3A"/>
<path d="M223.956 85.143V115.905C223.956 116.896 223.169 117.705 222.18 117.705H212.894C212.672 117.705 212.47 117.665 212.268 117.584C211.581 117.341 211.097 116.674 211.097 115.925V85.1632C211.097 84.1924 211.904 83.3834 212.894 83.3834H222.18C223.169 83.3834 223.956 84.1924 223.956 85.1632V85.143Z" fill="#13A6E2"/>
<path d="M209.724 126.038H225.369V121.872H209.724V126.038Z" fill="#F72322"/>
<path d="M122.718 83.3632H89.1867C88.5066 83.3632 87.9553 83.9155 87.9553 84.5969V113.498C87.9553 114.18 88.5066 114.732 89.1867 114.732H122.718C123.398 114.732 123.949 114.18 123.949 113.498V84.5969C123.949 83.9155 123.398 83.3632 122.718 83.3632Z" fill="#3A3A3A"/>
<path d="M122.778 84.5565H106.568V95.1342H122.778V84.5565Z" fill="#13A6E2"/>
<path d="M105.377 84.5565H89.1666V95.1342H105.377V84.5565Z" fill="#13A6E2"/>
<path d="M122.778 96.3477H89.1666V113.519H122.778V96.3477Z" fill="#13A6E2"/>
<path d="M203.183 83.3632H169.047C168.534 83.3632 168.118 83.7797 168.118 84.2935V113.802C168.118 114.316 168.534 114.732 169.047 114.732H203.183C203.696 114.732 204.112 114.316 204.112 113.802V84.2935C204.112 83.7797 203.696 83.3632 203.183 83.3632Z" fill="#3A3A3A"/>
<path d="M202.921 84.5565H186.711V95.1342H202.921V84.5565Z" fill="#13A6E2"/>
<path d="M185.52 84.5565H169.31V95.1342H185.52V84.5565Z" fill="#13A6E2"/>
<path d="M202.941 96.3477H169.31V113.519H202.941V96.3477Z" fill="#13A6E2"/>
<path d="M245.153 83.3632H231.869C231.379 83.3632 230.981 83.7616 230.981 84.2531V113.842C230.981 114.334 231.379 114.732 231.869 114.732H245.153C245.643 114.732 246.041 114.334 246.041 113.842V84.2531C246.041 83.7616 245.643 83.3632 245.153 83.3632Z" fill="#3A3A3A"/>
<path d="M244.789 84.5565H232.213V95.1342H244.789V84.5565Z" fill="#13A6E2"/>
<path d="M244.789 96.3477H232.233V113.519H244.789V96.3477Z" fill="#13A6E2"/>
<path d="M19.4402 77.9024H249.513V66.2124H47.0562L19.4402 77.9024Z" fill="#F72322"/>
<path d="M55.7367 55.2909L59.5117 47.5852H118.781L139.534 55.2909H55.7367Z" fill="#B40100"/>
<path opacity="0.26" d="M63.6702 85.143V86.8621L50.8312 105.59V91.5745L56.4634 83.3632H61.8735C62.8627 83.3632 63.6702 84.1722 63.6702 85.143Z" fill="white"/>
<path opacity="0.26" d="M63.6702 89.006V93.0712L50.8312 111.759V107.694L63.6702 89.006Z" fill="white"/>
<path opacity="0.26" d="M53.9803 117.685L63.6702 103.548V115.885C63.6702 116.876 62.8627 117.685 61.8735 117.685H53.9803Z" fill="white"/>
<path opacity="0.26" d="M80.9505 85.143V92.3835L68.1115 111.112V97.096L77.5187 83.3834H79.1538C80.143 83.3834 80.9505 84.1924 80.9505 85.1632V85.143Z" fill="white"/>
<path opacity="0.26" d="M80.9505 94.5072V98.5724L68.3941 116.856C68.2124 116.573 68.1115 116.249 68.1115 115.905V113.215L80.9505 94.5274V94.5072Z" fill="white"/>
<path opacity="0.26" d="M91.8717 96.3477H101.501L89.7117 113.519H89.1666V100.312L91.8717 96.3477Z" fill="white"/>
<path opacity="0.26" d="M105.357 84.5565V90.7049L102.329 95.1342H92.6993L99.9465 84.5565H105.357Z" fill="white"/>
<path opacity="0.26" d="M105.72 96.3477L93.9307 113.519H91.1449L102.934 96.3477H105.72Z" fill="white"/>
<path opacity="0.26" d="M113.815 84.5565L106.568 95.1342V91.069L111.029 84.5565H113.815Z" fill="white"/>
<path opacity="0.26" d="M122.778 96.3477V98.1679L112.22 113.519H102.631L114.4 96.3477H122.778Z" fill="white"/>
<path opacity="0.26" d="M143.813 94.7094V108.746L137.676 117.685H132.751C131.761 117.685 130.974 116.876 130.974 115.885V113.397L143.813 94.6892V94.7094Z" fill="white"/>
<path opacity="0.26" d="M160.75 84.0913L148.275 102.253V88.2374L151.605 83.3632H159.317C159.902 83.3632 160.407 83.6463 160.75 84.0913Z" fill="white"/>
<path opacity="0.26" d="M172.62 96.3477H182.229L170.44 113.519H169.31V101.181L172.62 96.3477Z" fill="white"/>
<path opacity="0.26" d="M185.5 84.5565V91.5746L183.077 95.1342H173.448L180.715 84.5565H185.5Z" fill="white"/>
<path opacity="0.26" d="M190.324 84.5565L186.711 89.815V84.5565H190.324Z" fill="white"/>
<path opacity="0.26" d="M221.816 117.685L223.976 114.55V115.905C223.976 116.896 223.189 117.705 222.2 117.705H221.816V117.685Z" fill="white"/>
<path opacity="0.26" d="M244.789 84.5565V95.1342H237.28L244.527 84.5565H244.789Z" fill="white"/>
<path opacity="0.26" d="M143.813 85.143V88.6621L130.974 107.35V103.285L143.753 84.698C143.793 84.8396 143.813 85.0014 143.813 85.143Z" fill="white"/>
<path opacity="0.26" d="M190.223 96.3477H193.009L181.2 113.519H178.414L190.223 96.3477Z" fill="white"/>
<path opacity="0.26" d="M201.104 84.5565L193.837 95.1342H191.051L198.318 84.5565H201.104Z" fill="white"/>
<path opacity="0.26" d="M195.048 96.3477H197.834L186.024 113.519H183.239L195.048 96.3477Z" fill="white"/>
<path opacity="0.26" d="M202.921 84.8801V88.9454L198.682 95.1342H195.876L202.921 84.8801Z" fill="white"/>
<path opacity="0.26" d="M223.956 85.6688V89.7341L211.117 108.422V104.357L223.956 85.6688Z" fill="white"/>
<path opacity="0.26" d="M223.956 96.5094V100.575L212.288 117.564C211.602 117.321 211.117 116.653 211.117 115.905V115.218L223.956 96.5094Z" fill="white"/>
<path opacity="0.26" d="M234.938 84.5565L232.213 88.5408V84.5565H234.938Z" fill="white"/>
<path opacity="0.26" d="M143.813 110.485V114.55L141.673 117.685H138.867L143.813 110.485Z" fill="white"/>
<path opacity="0.26" d="M161.114 85.3251V89.3701L148.275 108.078V104.013L161.114 85.3251Z" fill="white"/>
<path opacity="0.26" d="M37.0232 81.1183L13.5254 115.379L10.2349 112.548L14.9385 94.7904L24.3255 81.1183H37.0232Z" fill="white"/>
<path opacity="0.26" d="M42.6151 81.1183L16.9976 118.413L14.6963 116.431L38.941 81.1183H42.6151Z" fill="white"/>
<path d="M38.5171 58.0213H249.513V55.2909H42.5343L38.5171 58.0213Z" fill="#B8B5B6"/>
<path d="M119.73 128.424H93.0627V129.314H119.73V128.424Z" fill="#B8B5B6"/>
<g style="mix-blend-mode:multiply" opacity="0.14">
<path d="M249.513 55.2909V136.717H123.242L119.669 130.993H92.9618L89.3886 136.717H42.4737L39.4457 130.993H0V124.076L11.6278 119.242L6.80306 114.105L18.229 71.7743L42.5545 55.2909H45.4211C31.1891 85.0014 57.8563 76.7698 55.7569 104.579C53.4354 135.119 79.1336 106.197 162.506 126.018C218.465 139.326 231.264 110.262 239.52 55.2909H249.513Z" fill="#303030"/>
</g>
<path d="M252.925 55.2909L249.513 60.2258V131.782L252.925 136.717L256.356 131.782V60.2258L252.925 55.2909Z" fill="#494949"/>
<path d="M259.768 55.2909L256.356 60.2258V131.782L259.768 136.717L263.18 131.782V60.2258L259.768 55.2909Z" fill="#3A3A3A"/>
<path d="M266.591 55.2909L263.18 60.2258V131.782L266.591 136.717L270.003 131.782V60.2258L266.591 55.2909Z" fill="#494949"/>
<path d="M466.303 85.4261C466.626 88.7228 466.686 92.0195 466.706 95.3162C466.706 98.6128 466.626 101.91 466.303 105.206C465.98 101.91 465.899 98.6128 465.899 95.3162C465.899 92.0195 465.98 88.7228 466.303 85.4261Z" fill="white"/>
<path d="M385.958 85.4261C386.281 88.7228 386.341 92.0195 386.362 95.3162C386.362 98.6128 386.281 101.91 385.958 105.206C385.635 101.91 385.554 98.6128 385.554 95.3162C385.554 92.0195 385.635 88.7228 385.958 85.4261Z" fill="white"/>
<path d="M158.489 85.4261C158.812 88.7228 158.893 92.0195 158.893 95.3162C158.893 98.6128 158.812 101.91 158.489 105.206C158.166 101.91 158.085 98.6128 158.085 95.3162C158.085 92.0195 158.166 88.7228 158.489 85.4261Z" fill="white"/>
<path d="M201.104 98.1072C201.427 100.453 201.488 102.779 201.508 105.125C201.508 107.471 201.427 109.797 201.104 112.143C200.781 109.797 200.7 107.471 200.7 105.125C200.7 102.779 200.781 100.453 201.104 98.1072Z" fill="white"/>
<path d="M348.147 98.1072C348.47 100.453 348.531 102.779 348.551 105.125C348.551 107.471 348.47 109.797 348.147 112.143C347.824 109.797 347.744 107.471 347.744 105.125C347.744 102.779 347.824 100.453 348.147 98.1072Z" fill="white"/>
<path d="M499.147 83.3632C500.5 87.4284 501.549 91.5543 502.619 95.7004C503.588 99.8465 504.598 103.993 505.284 108.22C503.931 104.154 502.882 100.029 501.812 95.8824C500.843 91.7363 499.833 87.5902 499.147 83.3632Z" fill="white"/>
<path d="M503.225 110.121C503.77 112.689 503.79 114.853 503.285 114.975C502.781 115.076 501.913 113.094 501.388 110.525C500.843 107.957 500.823 105.793 501.327 105.671C501.832 105.57 502.7 107.552 503.225 110.121Z" fill="white"/>
<path d="M464.486 87.0846C464.486 88.0149 464.203 88.7632 463.86 88.7632C463.517 88.7632 463.234 88.0149 463.234 87.0846C463.234 86.1542 463.517 85.4059 463.86 85.4059C464.203 85.4059 464.486 86.1542 464.486 87.0846Z" fill="white"/>
<path d="M306.885 86.6599C306.885 87.3678 306.602 87.9543 306.259 87.9543C305.916 87.9543 305.633 87.388 305.633 86.6599C305.633 85.9318 305.916 85.3655 306.259 85.3655C306.602 85.3655 306.885 85.9318 306.885 86.6599Z" fill="white"/>
<path d="M201.326 87.5497C201.326 88.0351 201.024 88.4194 200.64 88.4194C200.256 88.4194 199.954 88.0351 199.954 87.5497C199.954 87.0643 200.256 86.6801 200.64 86.6801C201.024 86.6801 201.326 87.0643 201.326 87.5497Z" fill="white"/>
</svg>
