<svg width="152" height="171" viewBox="0 0 152 171" fill="none" xmlns="http://www.w3.org/2000/svg">
<g clip-path="url(#clip0_1023_8881)">
<path d="M79.6523 0V26.9209L128.741 54.8743V114.58L79.6523 143.546V170.389L152 129.17V40.5372L79.6523 0Z" fill="#008339"/>
<path d="M72.2696 0L0 40.5372V129.17L72.2696 170.389V143.546L23.1808 114.58V54.8743L72.2696 26.9209V0Z" fill="#52AE32"/>
<path d="M34.0312 70.9814H41.4335L48.7384 90.3053H48.8163L56.2381 70.9814H63.1923L51.037 100.474H45.8165L34.0312 70.9814Z" fill="#008339"/>
<path d="M72.7757 83.2011H76.6132C78.9897 83.2011 82.0675 83.1232 82.0675 79.909C82.0675 76.9481 79.3988 76.5001 77.0223 76.5001H72.7757V83.2011ZM66.2695 70.9873H77.6846C83.7233 70.9873 88.8075 73.0716 88.8075 79.948C88.8075 84.0777 86.6063 87.2918 82.4376 88.032L89.9373 100.499H82.1454L75.9704 88.7138H72.7562V100.499H66.25V70.9873H66.2695Z" fill="#008339"/>
<path d="M99.7757 83.2011H103.613C105.99 83.2011 109.068 83.1232 109.068 79.909C109.068 76.9481 106.399 76.5001 104.022 76.5001H99.7757V83.2011ZM93.2695 70.9873H104.685C110.723 70.9873 115.807 73.0716 115.807 79.948C115.807 84.0777 113.606 87.2918 109.438 88.032L116.937 100.499H109.145L102.97 88.7138H99.7562V100.499H93.25V70.9873H93.2695Z" fill="#008339"/>
</g>
<defs>
<clipPath id="clip0_1023_8881">
<rect width="152" height="170.389" fill="white"/>
</clipPath>
</defs>
</svg>
