<svg width="507" height="94" viewBox="0 0 507 94" fill="none" xmlns="http://www.w3.org/2000/svg">
<rect width="507" height="93.4762" fill="url(#paint0_radial_1023_10549)"/>
<path d="M41.791 7.37012C43.3483 2.57792 50.1283 2.57785 51.6855 7.37012L58.917 29.6279C58.9634 29.7708 59.0968 29.8682 59.2471 29.8682H82.6504C87.6894 29.8682 89.7847 36.3164 85.708 39.2783L66.7744 53.0342C66.6529 53.1225 66.602 53.279 66.6484 53.4219L73.8799 75.6797C75.4368 80.472 69.9526 84.4566 65.876 81.4951L46.9424 67.7393C46.8208 67.6509 46.6557 67.651 46.5342 67.7393L27.6006 81.4951C23.524 84.4569 18.0389 80.472 19.5957 75.6797L26.8281 53.4219C26.8745 53.2791 26.8235 53.1225 26.7021 53.0342L7.76855 39.2783C3.69185 36.3164 5.78709 29.8682 10.8262 29.8682H34.2295C34.3796 29.868 34.5122 29.7707 34.5586 29.6279L41.791 7.37012Z" fill="#52AE32" stroke="white" stroke-width="4.85499"/>
<path d="M145.172 7.37012C146.729 2.57792 153.509 2.57785 155.066 7.37012L162.298 29.6279C162.344 29.7708 162.478 29.8682 162.628 29.8682H186.031C191.07 29.8682 193.166 36.3164 189.089 39.2783L170.155 53.0342C170.034 53.1225 169.983 53.279 170.029 53.4219L177.261 75.6797C178.818 80.472 173.333 84.4566 169.257 81.4951L150.323 67.7393C150.202 67.6509 150.037 67.651 149.915 67.7393L130.981 81.4951C126.905 84.4569 121.42 80.472 122.977 75.6797L130.209 53.4219C130.255 53.2791 130.204 53.1225 130.083 53.0342L111.149 39.2783C107.073 36.3164 109.168 29.8682 114.207 29.8682H137.61C137.76 29.868 137.893 29.7707 137.939 29.6279L145.172 7.37012Z" fill="#52AE32" stroke="white" stroke-width="4.85499"/>
<path d="M248.553 7.37012C250.11 2.57792 256.89 2.57785 258.447 7.37012L265.679 29.6279C265.725 29.7708 265.859 29.8682 266.009 29.8682H289.412C294.451 29.8682 296.546 36.3164 292.47 39.2783L273.536 53.0342C273.415 53.1225 273.364 53.279 273.41 53.4219L280.642 75.6797C282.199 80.472 276.714 84.4566 272.638 81.4951L253.704 67.7393C253.583 67.6509 253.417 67.651 253.296 67.7393L234.362 81.4951C230.286 84.4569 224.801 80.472 226.357 75.6797L233.59 53.4219C233.636 53.2791 233.585 53.1225 233.464 53.0342L214.53 39.2783C210.454 36.3164 212.549 29.8682 217.588 29.8682H240.991C241.141 29.868 241.274 29.7707 241.32 29.6279L248.553 7.37012Z" fill="#52AE32" stroke="white" stroke-width="4.85499"/>
<path d="M351.934 7.37012C353.491 2.57792 360.271 2.57785 361.828 7.37012L369.06 29.6279C369.106 29.7708 369.239 29.8682 369.39 29.8682H392.793C397.832 29.8682 399.927 36.3164 395.851 39.2783L376.917 53.0342C376.795 53.1225 376.745 53.279 376.791 53.4219L384.022 75.6797C385.579 80.472 380.095 84.4566 376.019 81.4951L357.085 67.7393C356.963 67.6509 356.798 67.651 356.677 67.7393L337.743 81.4951C333.667 84.4569 328.181 80.472 329.738 75.6797L336.971 53.4219C337.017 53.2791 336.966 53.1225 336.845 53.0342L317.911 39.2783C313.834 36.3164 315.93 29.8682 320.969 29.8682H344.372C344.522 29.868 344.655 29.7707 344.701 29.6279L351.934 7.37012Z" fill="#52AE32" stroke="white" stroke-width="4.85499"/>
<path d="M455.315 7.37012C456.872 2.57792 463.652 2.57785 465.209 7.37012L472.441 29.6279C472.487 29.7708 472.621 29.8682 472.771 29.8682H496.174C501.213 29.8682 503.309 36.3164 499.232 39.2783L480.298 53.0342C480.177 53.1225 480.126 53.279 480.172 53.4219L487.404 75.6797C488.961 80.472 483.477 84.4566 479.4 81.4951L460.466 67.7393C460.345 67.6509 460.18 67.651 460.058 67.7393L441.125 81.4951C437.048 84.4569 431.563 80.472 433.12 75.6797L440.352 53.4219C440.398 53.2791 440.347 53.1225 440.226 53.0342L421.292 39.2783C417.216 36.3164 419.311 29.8682 424.35 29.8682H447.753C447.903 29.868 448.036 29.7707 448.083 29.6279L455.315 7.37012Z" fill="#053038" stroke="white" stroke-width="4.85499"/>
<defs>
<radialGradient id="paint0_radial_1023_10549" cx="0" cy="0" r="1" gradientUnits="userSpaceOnUse" gradientTransform="translate(253.5 46.7381) rotate(90) scale(46.7381 253.5)">
<stop offset="0.00863799" stop-color="white"/>
<stop offset="0.517334" stop-color="white" stop-opacity="0.535484"/>
<stop offset="1" stop-color="white" stop-opacity="0"/>
</radialGradient>
</defs>
</svg>
