<svg width="469" height="479" viewBox="0 0 469 479" fill="none" xmlns="http://www.w3.org/2000/svg">
<g clip-path="url(#clip0_381_1900)">
<path d="M303.104 176.342C304.838 177.154 306.607 178.13 308.389 178.809C316.193 181.882 322.532 187.015 325.913 194.833C327.173 197.744 328.708 202.581 328.171 205.745C327.987 206.831 327.256 208.159 327.386 209.223L327.328 209.816C325.971 209.127 325.25 207.259 324.298 206.088C320.83 201.818 315.43 198.028 309.879 197.419C309.185 198.888 308.131 200.234 307.033 201.426C305.932 193.031 304.118 184.753 303.102 176.347L303.104 176.342Z" fill="#DDDFDF"/>
<path d="M0.905273 474.848L384.821 474.984C390.359 475.194 395.924 475.098 401.464 475.101L401.895 478.126C392.551 478.39 383.082 477.738 373.722 477.634L326.889 477.581L136.317 477.283L29.5708 477.373C22.8785 477.36 16.1863 477.384 9.49402 477.445C7.05491 477.466 3.77262 477.996 1.43193 477.453C0.860056 476.617 0.961131 475.835 0.905273 474.848Z" fill="#DDDFDF"/>
<path d="M207.256 39.9253C204.176 35.7343 202.599 30.4365 203.423 25.2344C203.881 22.342 205.078 20.4634 207.458 18.7711C224.34 6.75441 237.887 -2.73172 259.802 1.02016C260.509 1.13724 261.214 1.26762 261.919 1.41397C262.621 1.55766 263.321 1.71731 264.018 1.89027C264.715 2.06323 265.406 2.24949 266.095 2.44906C266.784 2.64863 267.47 2.8615 268.151 3.08768C268.832 3.31386 269.508 3.55334 270.181 3.80613C270.851 4.05891 271.519 4.325 272.181 4.6044C272.843 4.88379 273.498 5.17649 274.147 5.47984C274.796 5.78584 275.439 6.10249 276.075 6.43244C276.713 6.76239 277.344 7.10565 277.966 7.45955C278.589 7.81345 279.206 8.18066 279.815 8.56117C280.424 8.94168 281.025 9.33283 281.618 9.73463C282.211 10.1364 282.797 10.5515 283.376 10.9773C283.954 11.403 284.523 11.8394 285.084 12.2891C285.645 12.7361 286.196 13.1965 286.738 13.6674C287.281 14.1384 287.813 14.6174 288.337 15.1097C288.861 15.6019 289.374 16.1022 289.877 16.6131C292.678 19.4336 295.061 22.672 298.37 24.939C301.916 27.3658 305.868 28.8799 309.778 30.5882C317.694 34.0473 323.862 39.904 328.799 46.9181C335.872 56.9657 339.689 69.323 340.532 81.5392C340.729 84.3864 340.918 87.5156 340.42 90.3362C340.112 114.234 329.812 140.199 312.598 156.955C309.329 160.137 306.222 162.455 302.166 164.538C302.139 160.307 301.626 154.97 302.988 150.97C307.94 149.658 313.837 142.317 316.633 138.28C322.902 129.217 325.767 121.753 323.74 110.612C322.301 107.632 320.668 105.136 317.415 103.917C314.133 102.688 309.725 102.952 306.616 104.49C299.527 107.994 296.958 116.748 294.492 123.611C292.082 110.966 284.557 91.5815 288.832 79.7191C291.375 72.6624 295.614 66.5769 297.213 59.0971C298.554 52.8227 298.418 46.1412 294.785 40.6544C292.947 37.879 289.984 34.6753 286.624 33.9835C286.478 33.9808 286.332 33.9835 286.185 33.9755C283.876 33.8717 278.95 31.0192 275.769 30.4551C260.634 27.7782 249.777 33.6961 236.826 40.1355L236.169 40.657C233.474 41.9981 230.862 42.6314 227.921 43.2142L227.083 43.2966C223.215 44.1428 218.417 44.1535 214.525 43.5574L212.549 42.9241C210.783 42.1312 209.206 41.3169 207.783 39.9678L207.261 39.9173L207.256 39.9253Z" fill="#DDDFDF"/>
<path d="M236.161 40.6649C236.427 38.0892 237.496 35.218 238.528 32.8418C242.385 23.973 248.909 17.1585 257.876 13.5742C248.569 19.226 242.999 27.4721 238.456 37.1419C237.674 37.69 237.209 39.2679 236.818 40.1434L236.161 40.6649Z" fill="#78B1AF"/>
<path d="M227.077 43.3045C227.099 40.484 226.992 37.5623 227.333 34.7603C228.274 27.0437 232.158 18.8295 237.725 13.372C239.515 11.6184 241.653 10.2028 243.699 8.77393C242.792 10.3838 240.624 11.8792 239.334 13.2735C238.089 14.6173 237.023 16.2005 236.02 17.7279C232.373 23.2839 229.264 30.298 228.381 36.9529C228.12 38.914 228.463 41.37 227.913 43.222L227.075 43.3045H227.077Z" fill="#78B1AF"/>
<path d="M216.653 13.8616C214.039 21.0114 212.342 28.2464 213.294 35.9045C213.608 38.435 214.371 41.0374 214.52 43.5653L212.544 42.932C210.778 42.139 209.2 41.3248 207.777 39.9757C208.019 38.8901 207.942 37.6448 207.972 36.5325C206.096 32.8817 205.357 30.0372 205.447 25.9527C205.466 25.08 205.397 24.0236 205.655 23.1881C205.681 23.1029 205.721 23.0231 205.756 22.9379C205.937 23.1295 206.61 28.1586 206.881 29.1166C207.12 29.976 207.4 30.8222 207.714 31.6577C208.03 32.4932 208.381 33.3101 208.769 34.1137C209.158 34.9173 209.578 35.7023 210.036 36.4686C210.493 37.235 210.982 37.98 211.504 38.7038C210.004 29.0341 212.041 22.3073 216.653 13.8642V13.8616Z" fill="#78B1AF"/>
<path d="M207.972 36.5327C210.006 38.5044 212.281 39.9147 212.544 42.9322C210.778 42.1392 209.2 41.325 207.777 39.9759C208.019 38.8903 207.942 37.645 207.972 36.5327Z" fill="#78B1AF"/>
<path d="M238.459 37.142C240.515 36.6125 244.023 33.289 245.904 31.9452C254.434 25.8518 266.805 22.1904 277.224 23.6246C281.99 24.2818 286.35 25.9476 289.332 29.8751C288.613 31.5142 287.823 32.6823 286.619 33.9915C286.472 33.9888 286.326 33.9915 286.18 33.9835C283.871 33.8797 278.945 31.0272 275.764 30.4631C260.629 27.7862 249.771 33.7041 236.82 40.1435C237.211 39.2681 237.679 37.6928 238.459 37.142Z" fill="#78B1AF"/>
<path d="M332.451 95.6978C331.467 83.91 328.147 71.0552 320.896 61.5451C319.795 60.1002 314.616 55.1616 314.382 54.6294L314.898 54.8343L314.435 54.8423L314.491 54.9301L314.959 54.8103C315.499 55.598 319.798 58.5782 320.979 59.6106C323.032 61.3854 324.969 63.2827 326.783 65.3023C328.599 67.3219 330.28 69.4453 331.831 71.6752C333.898 74.6501 335.826 77.742 337.268 81.0708C337.906 82.545 338.449 84.0457 338.84 85.605C339.14 86.7944 339.3 88.7076 339.829 89.748C339.954 89.9955 340.22 90.1419 340.414 90.3388C340.106 114.236 329.807 140.202 312.592 156.957C309.323 160.14 306.216 162.457 302.16 164.541C302.133 160.31 301.62 154.972 302.982 150.973C307.935 149.661 313.832 142.32 316.627 138.283C322.896 129.22 325.761 121.756 323.734 110.615C325.04 111.783 326.054 113.747 327.538 114.659C328.033 114.965 328.184 114.91 328.716 114.8C330.107 113.332 330.185 109.625 330.248 107.648C330.618 95.8868 324.341 86.7598 315.068 80.1235C313.465 78.9767 310.105 77.899 308.969 76.7016C309.137 76.6883 309.302 76.6537 309.469 76.6644C310.265 76.7123 311.778 77.4786 312.568 77.7686C321.17 80.9484 327.501 88.2739 332.451 95.6952V95.6978Z" fill="#78B1AF"/>
<path d="M236.817 40.1436C249.768 33.7042 260.626 27.7863 275.761 30.4632C278.942 31.0273 283.868 33.8798 286.177 33.9836C286.323 33.9889 286.469 33.9889 286.616 33.9916C289.975 34.6834 292.938 37.8871 294.776 40.6624C298.412 46.1492 298.548 52.8308 297.205 59.1052C295.606 66.585 291.366 72.6705 288.823 79.7272C284.552 91.5869 292.074 110.974 294.484 123.619C296.949 116.756 299.516 108.002 306.607 104.498C309.719 102.96 314.124 102.696 317.406 103.926C320.659 105.144 322.29 107.637 323.732 110.62C325.758 121.762 322.896 129.225 316.624 138.288C313.831 142.328 307.932 149.666 302.979 150.978C299.997 150.353 298.617 149.012 296.965 146.519L296.689 146.096C294.577 160.919 285.145 175.919 273.25 184.833C262.161 193.146 246.872 199.056 233.008 199.896C230.769 200.032 222.624 199.516 221.233 200.021L221.066 201.402C219.855 203.555 216.927 205.907 215.28 207.839C214.328 208.957 212.352 212.278 211.152 212.812C194.781 216.594 179.561 222.645 164.916 230.861C160.7 233.227 155.989 237.083 151.989 238.977C150.1 242.165 149.347 246.228 148.068 249.695C147.533 249.227 146.983 248.78 146.416 248.352C143.02 245.731 139.245 243.211 135.434 241.258C129.385 238.155 117.043 233.591 110.407 234.454C109.274 234.15 108.178 233.778 107.071 233.395C108.63 226.09 113.811 219.864 117.977 213.829C119.331 211.871 120.857 209.893 121.725 207.658C123.291 203.632 122.961 198.055 123.289 193.768C123.746 187.792 124.206 181.821 125.14 175.898C125.169 175.706 125.201 175.517 125.236 175.328C126.305 169.49 128.135 163.735 131.292 158.674C132.641 156.513 134.271 154.467 135.399 152.181C136.144 150.67 136.5 148.887 136.95 147.269C138.511 141.657 140.043 136.575 145.068 133.18C146.56 132.171 147.547 130.875 148.685 129.51C151.584 126.035 154.311 124.329 158.447 122.507C159.654 120.663 161.147 118.827 162.881 117.451C168.602 112.914 173.8 116.03 179.971 116.709C180.08 116.722 180.189 116.73 180.298 116.74C181.394 116.019 181.824 114.801 182.364 113.659C183.676 109.617 185.548 106.443 188.062 103.023C188.876 101.996 189.711 100.985 190.565 99.9927C191.392 98.1274 190.591 92.2627 190.517 90.0382C190.48 86.9223 190.655 83.5243 191.453 80.5069C193.762 66.7792 198.342 50.8537 207.253 39.928L207.774 39.9786C209.197 41.3277 210.775 42.1419 212.541 42.9349L214.517 43.5682C218.408 44.1642 223.207 44.1536 227.074 43.3074L227.912 43.2249C230.851 42.6422 233.466 42.0089 236.16 40.6678L236.817 40.1462V40.1436Z" fill="#FE9D76"/>
<path d="M214.368 149.459C214.546 147.327 214.658 144.121 215.999 142.41L216.368 142.399C216.863 144.241 215.741 147.838 215.025 149.581L214.368 149.456V149.459Z" fill="#FE4F5A"/>
<path d="M144.427 159.82C144.999 159.884 145.438 160.073 145.967 160.281C146.382 160.134 146.762 159.964 147.161 159.781C146.451 160.943 146.116 162.92 146.332 164.28C146.353 164.416 146.395 164.546 146.427 164.679C146.856 165.201 147.262 165.504 147.164 166.239C147.14 166.427 147.002 166.664 146.911 166.835C144.31 167.383 141.884 168.144 139.347 167.013C139.935 166.965 140.525 166.917 141.108 166.824C142.922 166.531 144.448 165.581 145.459 164.027C146.002 163.192 146.244 162.276 145.919 161.292C145.656 160.494 145.1 160.217 144.427 159.823V159.82Z" fill="#BC333D"/>
<path d="M200.691 97.0708C202.452 96.8739 204.649 96.7781 206.131 97.933C206.687 98.364 207.067 98.6754 207.176 99.3725C205.631 99.8435 203.029 98.5663 201.213 98.5343L200.795 98.529C199.053 99.1304 197.037 101.028 195.212 100.857C195.239 100.78 195.254 100.703 195.289 100.628C196.167 98.7419 198.909 97.8159 200.694 97.0708H200.691Z" fill="#375963"/>
<path d="M216.385 199.194C212.889 193.239 211.408 186.781 213.227 179.953C213.451 179.138 213.698 178.335 213.977 177.537C213.741 181.382 213.605 185.229 214.227 189.053C214.581 191.219 216.986 197.597 216.621 199.228L216.39 199.194H216.385Z" fill="#BC333D"/>
<path d="M149.529 216.548L149.832 216.838C148.012 219.55 146.318 222.232 143.89 224.451C141.56 222.671 139.437 220.654 137.314 218.637C139.195 219.316 141.315 220.244 143.336 220.22C146.057 220.188 147.802 218.419 149.526 216.551L149.529 216.548Z" fill="#FE4F5A"/>
<path d="M196.425 105.511C196.584 104.319 196.906 103.635 197.864 102.874C197.983 102.778 198.109 102.688 198.239 102.605C198.369 102.523 198.502 102.446 198.64 102.377C198.779 102.307 198.92 102.246 199.063 102.19C199.207 102.135 199.353 102.089 199.502 102.049C199.651 102.009 199.803 101.98 199.954 101.956C200.106 101.932 200.26 101.916 200.415 101.908C200.569 101.9 200.723 101.9 200.877 101.908C201.032 101.916 201.183 101.932 201.338 101.956C202.37 102.116 203.364 102.629 203.936 103.529C204.386 104.234 204.593 105.088 204.631 105.916L203.989 106.166L203.739 106.975C203.402 107.291 203.258 107.35 202.838 107.504C202.207 106.956 202.29 106.411 202.154 105.604C201.098 105.777 200.51 107.278 199.252 107.366C198.765 106.871 198.808 106.661 198.694 105.966C198.625 105.487 198.691 105.378 198.348 105.011L197.749 105.642L197.454 105.325L196.571 105.764L196.43 105.509L196.425 105.511Z" fill="#375963"/>
<path d="M198.688 105.966L199.662 105.86C199.476 105.49 199.274 105.144 199.053 104.793C199.335 104.173 199.638 103.755 200.306 103.497C200.838 103.292 201.819 103.375 202.335 103.659C202.982 104.016 203.383 104.58 203.54 105.296C203.66 105.839 203.705 106.419 203.737 106.975C203.399 107.292 203.255 107.35 202.835 107.504C202.205 106.956 202.287 106.411 202.152 105.605C201.096 105.777 200.508 107.278 199.25 107.366C198.763 106.871 198.806 106.661 198.691 105.966H198.688Z" fill="#FEFEFE"/>
<path d="M242.712 96.2726C246.295 95.972 249.66 97.3876 252.474 99.5083C254.019 100.671 256.634 102.861 256.902 104.817L256.562 104.953C255.275 104.394 254.344 103.194 253.386 102.196C252.984 101.871 252.577 101.555 252.162 101.246C249.449 99.2342 245.582 97.2731 242.127 97.8798C240.786 98.114 239.491 98.8298 238.148 98.9602C237.664 99.0081 237.48 99.032 237.1 98.718C237.137 98.6462 237.166 98.569 237.211 98.4998C238.209 97.007 241.055 96.6079 242.712 96.2753V96.2726Z" fill="#192E35"/>
<path d="M197.744 105.642L198.343 105.011C198.686 105.376 198.622 105.485 198.688 105.966C198.805 106.663 198.763 106.871 199.247 107.366C200.505 107.278 201.096 105.777 202.149 105.604C202.285 106.411 202.202 106.956 202.833 107.504C203.253 107.35 203.396 107.291 203.734 106.975L203.984 106.166L204.625 105.916C204.668 106.392 204.694 106.868 204.705 107.347C204.729 108.899 204.362 110.418 203.205 111.528C202.559 112.148 201.678 112.523 200.774 112.456C199.843 112.387 199.053 111.876 198.492 111.147C197.186 109.452 197.484 107.608 197.739 105.644L197.744 105.642Z" fill="#192E35"/>
<path d="M253.285 143.719C253.844 144.347 254.397 145.092 254.847 145.805C259.017 152.442 257.323 162.335 255.706 169.501L255.389 170.259C255.017 170.044 255.142 168.463 255.16 167.997C255.453 160.084 256.147 151.242 253.285 143.722V143.719Z" fill="#FE4F5A"/>
<path d="M208.761 50.5635C217.403 51.4575 225.976 52.6789 234.66 53.2137C242.217 53.6794 249.891 53.4053 257.405 54.2701C254.256 54.5575 251.008 54.4431 247.845 54.467C237.773 54.5442 228.394 53.9801 218.406 52.5858C215.283 52.1494 211.615 51.9365 208.764 50.5635H208.761Z" fill="#FE4F5A"/>
<path d="M156.54 140.013C156.253 140.87 155.846 141.702 156.067 142.612C157.293 143.368 158.875 142.612 160.248 143.326C161.064 143.749 161.477 144.76 162.269 145.319L162.237 145.726C154.827 143.536 146.1 144.406 139.051 147.397C139.807 146.561 140.621 145.768 141.408 144.959C146.536 143.171 151.976 143.294 156.54 140.013Z" fill="#BC333D"/>
<path d="M245.268 107.358C245.428 108.055 245.321 108.449 245.132 109.13C244.818 110.277 244.108 111.174 243.031 111.698C241.954 112.225 240.813 112.326 239.706 111.839C238.903 111.485 238.347 110.679 238.065 109.875C237.562 108.444 237.607 106.685 238.328 105.336C238.985 104.106 240.267 103.124 241.608 102.757C242.597 102.486 243.534 102.528 244.43 103.039C244.776 103.524 245.042 103.864 245.151 104.458C245.473 105.543 245.842 106.296 245.268 107.361V107.358Z" fill="#192E35"/>
<path d="M245.268 107.358C245.037 106.562 244.811 105.384 244.201 104.788C243.499 104.101 242.563 104.093 241.661 104.218L241.696 104.351C242.14 104.631 242.459 104.907 242.821 105.288C242.821 105.485 242.834 105.652 242.76 105.849C242.542 106.429 242.097 106.706 241.589 106.993C240.922 106.946 240.472 106.948 239.98 106.403C239.456 105.825 239.515 105.346 239.525 104.633C239.956 104.016 240.049 103.822 240.821 103.622C242.252 103.25 243.967 103.646 245.154 104.458C245.475 105.543 245.845 106.296 245.271 107.361L245.268 107.358Z" fill="#FEFEFE"/>
<path d="M156.54 140.013L156.758 139.781C157.314 140.473 172.435 146.375 173.286 146.5C175.414 146.808 178.944 145.92 180.657 144.549C179.207 147.21 177.391 148.956 174.608 150.177L171.97 149.355C168.719 148.025 165.682 146.226 162.269 145.318C161.479 144.76 161.067 143.748 160.248 143.325C158.873 142.612 157.293 143.368 156.066 142.612C155.843 141.702 156.25 140.869 156.54 140.013Z" fill="#FE4F5A"/>
<path d="M141.775 157.13L143.812 157.426C148.278 158.046 151.047 155.754 154.404 153.232C158.859 154.906 163.658 156.497 168.39 157.186L170.26 157.471C165.325 160.068 160.543 156.973 155.542 156.172C155.441 156.156 155.34 156.143 155.239 156.127C153.391 156.465 151.973 157.183 150.414 158.205C150.276 160.201 150.196 162.13 150.475 164.12C149.364 165.036 148.308 166.172 147.092 166.933L146.911 166.837C146.999 166.667 147.137 166.43 147.164 166.241C147.262 165.504 146.855 165.201 146.427 164.682C146.395 164.549 146.353 164.418 146.331 164.283C146.116 162.923 146.451 160.943 147.161 159.783C146.762 159.967 146.382 160.137 145.967 160.283C145.438 160.076 144.999 159.887 144.427 159.823C143.153 159.304 142.525 158.213 141.775 157.133V157.13Z" fill="#FE4F5A"/>
<path d="M159.144 129.129C162.176 129.276 165.038 129.486 167.996 130.239C174.385 131.867 179.859 134.701 186.634 134.576C186.817 136.279 186.977 137.985 187.12 139.693C185.269 139.685 183.62 139.565 181.83 139.007C179.218 138.192 175.332 135.265 172.728 135.992C171.693 133.868 165.881 131.279 163.575 130.494C162.107 130.01 160.628 129.555 159.141 129.135L159.144 129.129Z" fill="#FE4F5A"/>
<path d="M215.028 149.581C218.73 148.693 222.563 148.259 226.303 147.498C230.242 146.694 234.115 145.598 238.054 144.786C238.972 145.593 240.039 146.484 240.448 147.663C229.585 152.25 219.036 156.266 207.176 152.796L205.242 151.399C204.88 151.042 204.692 150.795 204.5 150.324C207.327 149.443 211.057 149.887 214.062 149.499L214.373 149.456L215.03 149.581H215.028Z" fill="#FEFEFE"/>
<path d="M190.567 99.9873C190.748 103.476 191.07 107.025 190.573 110.501C190.091 113.853 189.043 117.102 188.45 120.428C187.948 122.331 187.416 124.276 187.216 126.24C186.727 126.258 177.59 122.698 175.829 122.201C176.015 121.652 176.348 121.253 176.683 120.788C177.859 119.58 178.875 117.597 180.303 116.74C181.399 116.019 181.83 114.801 182.37 113.659C183.681 109.617 185.554 106.443 188.067 103.023C188.881 101.996 189.716 100.985 190.57 99.9926L190.567 99.9873Z" fill="url(#paint0_linear_381_1900)"/>
<path d="M182.37 113.656C183.681 109.614 185.554 106.44 188.068 103.021C188.445 103.931 188.616 104.508 188.232 105.458C187.49 107.299 184.011 112.605 182.37 113.656Z" fill="#192E35"/>
<path d="M191.456 80.5041L191.805 80.8234C193.191 80.0837 194.385 78.998 195.755 78.2024C199.205 76.1987 206.046 73.0562 210.078 74.4106C211.014 74.7246 211.743 75.3606 212.142 76.2732C212.709 77.5718 213.02 79.0911 212.445 80.4429C211.852 81.8372 210.52 82.545 209.163 83.0373C206.229 84.099 203.064 84.4555 200.159 85.6263C196.896 86.9435 194.108 89.7561 190.523 90.0328C190.485 86.9169 190.661 83.5189 191.459 80.5014L191.456 80.5041Z" fill="#DDDFDF"/>
<path d="M207.301 120.064C210.277 113.784 215.432 107.164 215.589 100.027L215.839 100.365L215.464 100.099C216.068 100.756 215.892 101.328 215.852 102.212C215.589 107.725 205.003 128.672 207.822 131.987C209.538 134.004 213.985 134.268 216.488 134.361C218.882 134.451 224.226 133.533 226.127 134.936C226.266 136.048 225.327 137.471 224.683 138.336C223.101 140.465 220.38 141.452 217.826 141.737C214.001 142.16 208.548 141.186 205.577 138.655C204.168 137.453 203.09 135.734 203.024 133.845C202.997 133.137 203.048 132.421 203.12 131.716C203.987 127.77 205.721 123.784 207.301 120.069V120.064Z" fill="#BC333D"/>
<path d="M312.611 109.817C313.414 109.809 314.26 109.926 315.042 110.109C317.574 110.705 319.104 112.589 320.45 114.659C316.369 119.273 311.582 123.539 307.219 127.905C308.387 129.441 309.347 131.027 310.3 132.703C310.313 133.217 310.31 133.727 310.286 134.241C310.073 138.129 308.712 140.569 305.858 143.083C305.748 143.118 305.639 143.163 305.528 143.19C303.98 143.538 302.738 142.846 301.408 142.136C300.862 141.247 300.434 140.273 299.977 139.337C300.788 139.454 301.737 139.635 302.557 139.518C303.546 139.377 304.655 138.453 305.195 137.65C306.174 136.191 306.235 134.095 305.839 132.437C305.206 129.789 303.488 128.674 301.299 127.392C302.216 123.68 303.599 119.955 305.36 116.559C307.062 113.276 309.002 110.985 312.616 109.817H312.611Z" fill="#FE4F5A"/>
<path d="M234.554 74.5091C238.512 74.259 242.361 74.8444 246.156 75.9699C251.173 77.46 259.65 80.5786 262.203 85.5944C262.725 86.6189 263.145 88.0132 262.68 89.1334C262.11 90.5011 260.592 90.9721 259.315 91.3952C255.735 91.0865 248.489 87.0606 244.374 85.7355C240.93 84.6259 236.975 84.3598 233.679 82.9335C232.525 82.4359 231.49 81.5445 231.032 80.3471C230.631 79.2907 230.756 78.1944 231.234 77.186C231.942 75.6932 233.07 75.0652 234.557 74.5064L234.554 74.5091Z" fill="#DDDFDF"/>
<path d="M191.411 159.443L192.281 162.093C192.065 165.51 187.349 176.954 186.027 181.009C184.306 186.291 183.064 191.818 180.992 196.967C180.37 198.513 179.556 200.437 178.263 201.525C177.364 202.283 176.236 202.201 175.135 202.052C171.148 201.512 169.203 199.801 166.924 196.709C162.828 191.153 159.019 185.275 155.319 179.453C153.077 175.924 150.645 172.353 148.81 168.591C148.706 172.183 148.416 175.938 147.587 179.445C147.627 179.535 147.664 179.628 147.706 179.719C148.903 182.302 150.959 184.386 152.374 186.845C156.093 193.305 156.931 201.943 154.46 208.981C153.425 211.924 151.723 214.39 149.829 216.838L149.526 216.548C149.712 216.226 149.887 215.907 150.052 215.574C153.747 208.081 153.454 198.593 150.842 190.812C147.85 181.898 143.405 179.112 135.362 175.07C138.833 175.911 142.349 176.669 145.738 177.803C146.395 174.211 146.722 170.563 147.092 166.933C148.305 166.172 149.361 165.036 150.475 164.121C151.013 166.215 151.848 168.008 152.893 169.897C154.994 173.692 168.868 195.66 171.502 197.118C172.616 197.736 173.919 197.863 175.172 197.776C176.162 197.406 177.037 197.023 177.694 196.155C179.441 193.851 180.239 190.469 181.234 187.771C183.567 181.494 185.868 175.206 188.136 168.907C189.214 165.853 190.02 162.346 191.408 159.445L191.411 159.443Z" fill="#BC333D"/>
<path d="M240.443 147.663L241.603 148.464C242.746 149.61 242.901 150.715 242.93 152.301C243.002 155.882 240.544 159.472 238.068 161.904C234.022 165.879 228.285 167.896 222.651 167.798C217.754 167.713 212.985 166.049 209.538 162.487C207.274 160.148 204.859 156.159 204.907 152.851C204.915 152.306 204.997 151.899 205.234 151.401L207.168 152.798C219.028 156.265 229.577 152.253 240.44 147.665L240.443 147.663Z" fill="#FE4F5A"/>
<path d="M240.443 147.663L241.603 148.464C238.967 153.91 233.996 158.163 228.296 160.172C224.011 161.68 219.513 161.584 215.393 159.573C212.334 158.08 209.051 155.664 207.171 152.798C219.031 156.265 229.58 152.253 240.443 147.665V147.663Z" fill="#BC333D"/>
<path d="M196.88 177.188C199.59 185.043 202.721 193.955 210.815 197.808C212.459 198.59 214.56 199.119 216.382 199.197L216.613 199.231C218.135 199.628 219.68 199.814 221.236 200.021L221.069 201.402C219.858 203.555 216.93 205.907 215.283 207.839C214.331 208.957 212.355 212.278 211.155 212.812C194.784 216.594 179.564 222.644 164.919 230.861C160.703 233.227 155.992 237.083 151.992 238.977C152.59 237 153.763 234.925 154.683 233.065C155.923 230.566 157.189 228.009 159.163 225.997C161.623 223.496 164.959 222.328 167.994 220.71C171.917 218.619 175.63 215.923 178.646 212.639C183.091 207.802 185.527 201.304 188.432 195.493C191.677 189 194.406 184.173 196.88 177.186V177.188Z" fill="#FEFEFE"/>
<path d="M172.731 135.989C175.335 135.266 179.218 138.19 181.833 139.004C183.623 139.563 185.272 139.683 187.123 139.691C187.844 146.002 188.924 153.583 191.411 159.443C190.025 162.343 189.219 165.85 188.139 168.905C185.871 175.203 183.57 181.491 181.237 187.768C180.242 190.466 179.444 193.848 177.697 196.152C177.04 197.02 176.165 197.403 175.175 197.773C173.922 197.858 172.619 197.733 171.505 197.116C168.871 195.658 154.997 173.689 152.896 169.895C151.848 168.005 151.016 166.212 150.478 164.118C150.199 162.127 150.279 160.201 150.417 158.203C151.976 157.178 153.391 156.462 155.242 156.124C155.343 156.14 155.444 156.154 155.545 156.17C160.546 156.971 165.331 160.065 170.262 157.468C170.717 157.13 171.159 156.784 171.55 156.375C172.154 155.744 172.733 155.025 172.582 154.086C172.356 152.676 170.683 151.471 169.688 150.555C167.334 148.791 164.725 147.298 162.238 145.723L162.27 145.316C165.679 146.221 168.72 148.022 171.97 149.352L174.609 150.175C177.391 148.953 179.208 147.208 180.657 144.547C180.756 144.102 180.798 143.663 180.851 143.214C179.835 140.593 175.066 138.203 172.984 136.231L172.731 135.989Z" fill="#192E35"/>
<path d="M296.694 146.09L296.971 146.513C298.622 149.009 300.003 150.348 302.985 150.973C301.623 154.97 302.139 160.31 302.163 164.541C302.2 168.335 302.37 172.617 303.104 176.342C304.12 184.745 305.934 193.026 307.036 201.421C308.137 200.229 309.187 198.882 309.882 197.414C315.43 198.023 320.832 201.812 324.301 206.083C325.253 207.256 325.974 209.124 327.33 209.811L327.389 209.217C332.395 210.726 337.193 212.828 342.146 214.497C363.683 221.75 384.911 228.842 404.943 239.765C408.196 241.537 412.021 243.232 414.859 245.624C420.724 250.568 426.35 259.886 429.988 266.672C437.524 280.721 443.221 295.489 448.501 310.505C451.105 317.913 453.217 325.869 456.51 332.984L461.816 349.013C461.816 349.013 463.652 353.383 463.444 356.263C463.189 359.841 464.048 362.571 463.444 366.099L461.816 381.987L458.777 405.84L452.331 474.978C452.331 474.978 389.465 474.869 384.826 474.978L0.910443 474.843C0.639136 474.427 0.32527 473.885 0.264093 473.387C0.178977 472.695 0.410386 472.469 0.822667 471.995C3.6714 471.532 6.93506 471.854 9.83965 471.86L27.9268 471.876L94.5354 471.82C96.1314 471.453 97.8762 471.578 99.5068 471.564C96.0436 455.21 94.1099 438.63 90.7823 422.268C80.4035 427.51 68.3569 432.699 56.7865 434.461C46.4954 436.025 36.2708 434.051 27.8204 427.768C18.8912 421.127 14.2391 411.023 12.707 400.185C11.6537 392.74 12.2681 385.002 14.1061 377.727C17.7501 363.308 24.2881 350.341 31.3368 337.361C37.8269 325.403 44.7425 313.695 52.0838 302.24C61.9466 286.676 72.1872 271.153 83.3108 256.459C82.4968 256.004 81.4941 255.754 80.611 255.451C82.4197 251.302 84.8402 247.359 86.9974 243.378C89.3966 238.945 91.6229 234.406 93.9263 229.922C98.355 230.784 102.741 232.17 107.085 233.392C108.191 233.775 109.29 234.147 110.42 234.451C117.057 233.589 129.396 238.15 135.447 241.255C139.256 243.211 143.033 245.728 146.43 248.349C146.996 248.777 147.547 249.227 148.081 249.693C149.363 246.225 150.114 242.159 152.002 238.974C156.005 237.08 160.713 233.224 164.929 230.859C179.574 222.644 194.794 216.591 211.166 212.81C212.365 212.272 214.342 208.954 215.294 207.836C216.94 205.905 219.869 203.55 221.079 201.4L221.247 200.019C222.638 199.513 230.782 200.029 233.022 199.894C246.885 199.05 262.174 193.14 273.263 184.83C285.158 175.914 294.59 160.914 296.702 146.093L296.694 146.09Z" fill="#192E35"/>
<path d="M110.412 234.453C117.049 233.591 129.388 238.152 135.439 241.257C139.248 243.213 143.025 245.73 146.422 248.351C146.988 248.78 147.539 249.229 148.073 249.695L147.669 250.77C144.927 249.961 139.11 245.991 135.91 244.477C127.6 240.547 119.115 237.375 110.412 234.456V234.453Z" fill="#FE4F5A"/>
<path d="M135.072 395.154C134.524 402.272 133.178 409.403 132.191 416.481C130.218 430.632 128.204 444.852 126.709 459.061C126.486 461.176 126.156 470.356 125.332 471.604C124.621 471.753 123.972 471.735 123.257 471.711C116.889 471.652 110.521 471.644 104.151 471.684C100.962 471.711 97.7087 471.979 94.5275 471.82C96.1234 471.453 97.8683 471.578 99.4988 471.564C96.0357 455.21 94.1019 438.63 90.7744 422.268C94.7004 420.424 98.5732 418.474 102.393 416.417C106.212 414.36 109.971 412.2 113.671 409.932C117.371 407.668 121.004 405.302 124.573 402.836C128.143 400.369 131.641 397.807 135.069 395.148L135.072 395.154Z" fill="#DDDFDF"/>
<path d="M296.694 146.09L296.971 146.513C298.623 149.009 300.003 150.348 302.985 150.973C301.623 154.97 302.139 160.31 302.163 164.541C302.2 168.335 302.37 172.617 303.105 176.342C304.121 184.745 305.935 193.026 307.036 201.421C308.137 200.229 309.188 198.882 309.882 197.414C315.43 198.023 320.833 201.812 324.301 206.083C325.253 207.256 325.974 209.124 327.331 209.811C324.03 219.97 320.109 229.911 316.372 239.916C314.545 246.106 312.292 252.164 310.454 258.354C307.092 269.665 304.267 281.251 301.705 292.773C296.958 314.11 293.787 335.906 291.122 357.592C288.459 378.244 286.403 398.959 284.954 419.73C284.129 430.091 283.419 440.464 282.82 450.841C282.371 457.818 281.823 464.835 281.674 471.822C276.809 471.399 271.705 471.671 266.816 471.66L238.164 471.639L198.255 471.681C189.882 471.671 181.471 471.492 173.1 471.735C173.034 471.647 172.943 471.532 172.904 471.447C172.457 470.508 173.037 454.356 173.058 452.073C173.167 440.748 173.614 429.447 173.991 418.128C175.385 376.203 178.598 334.57 186.227 293.268C187.684 285.383 189.674 272.771 192.85 265.687C193.839 262.09 194.592 258.428 195.574 254.825C198.271 244.937 201.471 234.932 205.389 225.46C206.527 222.852 207.572 220.018 209.115 217.626C209.783 216.402 211.344 214.121 211.158 212.81C212.358 212.272 214.334 208.954 215.286 207.836C216.932 205.905 219.861 203.55 221.071 201.4L221.239 200.019C222.63 199.513 230.775 200.029 233.014 199.894C246.877 199.05 262.166 193.14 273.255 184.83C285.15 175.914 294.582 160.914 296.694 146.093V146.09Z" fill="#FE4F5A"/>
<path d="M224.072 362.943C234.578 371.714 245.353 379.353 257.61 385.519C260.911 387.179 264.422 388.336 267.723 389.992C266.076 389.736 264.371 388.962 262.783 388.419C258.716 387.057 254.719 385.519 250.79 383.8C246.861 382.083 243.015 380.194 239.252 378.135C234.02 375.293 228.466 371.892 223.888 368.074C216.129 361.6 208.447 351.933 205.562 342.119L205.793 341.776C205.809 341.922 205.806 342.069 205.841 342.212C206.024 342.973 206.79 344.038 207.181 344.737C211.07 351.701 217.441 357.704 223.638 362.64L224.072 362.938V362.943Z" fill="#BC333D"/>
<path d="M296.694 146.09L296.971 146.513C298.623 149.009 300.003 150.348 302.985 150.973C301.623 154.97 302.139 160.31 302.163 164.541C302.2 168.335 302.371 172.617 303.105 176.342C304.121 184.745 305.935 193.026 307.036 201.421C308.137 200.229 309.188 198.882 309.882 197.414C315.431 198.023 320.833 201.812 324.301 206.083C325.253 207.256 325.974 209.124 327.331 209.811C324.03 219.97 320.109 229.911 316.372 239.916C316.306 239.978 316.239 240.041 316.175 240.105C313.215 243.032 310.313 248.687 306.993 252.412C296.923 263.71 285.552 268.721 272.585 275.604C272.327 273.718 272.149 271.834 271.997 269.934L269.173 271.227C266.092 272.805 262.938 274.205 259.703 275.434C255.538 276.988 239.398 281.916 235.608 281.235C235.358 281.19 235.27 281.115 235.078 280.995C232.575 280.208 230.144 279.311 227.742 278.247C220.374 274.984 208.73 268.021 205.644 260.105C204.559 257.313 205.293 254.221 204.28 251.638C201.668 254.33 199.545 257.492 197.478 260.616C196.515 262.071 195.545 263.934 194.321 265.163C193.887 265.599 193.435 265.663 192.85 265.687C193.84 262.09 194.592 258.428 195.574 254.825C198.271 244.937 201.471 234.932 205.389 225.46C206.527 222.852 207.573 220.018 209.115 217.626C209.783 216.402 211.344 214.121 211.158 212.81C212.358 212.272 214.334 208.954 215.286 207.836C216.933 205.905 219.861 203.55 221.071 201.4L221.239 200.019C222.63 199.513 230.775 200.029 233.014 199.894C246.878 199.05 262.166 193.14 273.256 184.83C285.15 175.914 294.582 160.914 296.694 146.093V146.09Z" fill="#FE9D76"/>
<path d="M268.093 198.007C268.321 201.852 263.486 211.221 261.382 214.465C257.445 220.529 251.341 226.391 244.007 227.823C237.743 229.047 232.785 225.247 227.904 221.971L227.593 221.636C227.904 221.604 235.15 225.577 236.991 226.149C241.59 227.583 245.25 226.974 249.441 224.696C259.666 219.148 264.911 208.765 268.093 198.004V198.007Z" fill="#FE4F5A"/>
<path d="M296.694 146.09L296.971 146.513C298.623 149.009 300.003 150.348 302.985 150.973C301.623 154.97 302.139 160.31 302.163 164.541C302.2 168.335 302.37 172.617 303.105 176.342C304.121 184.745 305.935 193.026 307.036 201.421C305.299 203.329 303.517 205.189 301.684 207.004C299.985 200.734 299.705 192.073 299.091 185.501C298.41 178.519 297.835 171.528 297.367 164.528C297.146 161.635 296.729 158.727 296.644 155.829C294.018 162.577 291.67 169.44 287.848 175.637C278.929 190.093 258.27 206.235 242.664 213.065C235.461 216.218 231.362 217.046 223.627 216.474C223.167 211.556 222.585 206.115 221.071 201.402L221.239 200.021C222.63 199.516 230.775 200.032 233.014 199.896C246.877 199.053 262.166 193.143 273.255 184.833C285.15 175.916 294.582 160.917 296.694 146.095V146.09Z" fill="#FE4F5A"/>
<path d="M221.074 201.402C222.585 206.115 223.167 211.556 223.63 216.474C223.572 221.231 223.609 226.013 223.447 230.768C223.566 243.072 227.575 260.514 231.942 271.847C233.163 275.016 234.879 277.951 236.23 281.062C241.699 278.063 243.672 268.814 245.316 263.154C247.46 255.775 248.79 247.228 252.312 240.406C256.442 241.563 258.376 242.726 260.533 246.542C264.324 253.253 267.159 263.646 269.173 271.227C266.092 272.805 262.938 274.205 259.703 275.434C255.538 276.988 239.398 281.916 235.608 281.235C235.358 281.19 235.27 281.115 235.078 280.995C232.575 280.208 230.144 279.311 227.742 278.247C220.375 274.984 208.73 268.021 205.644 260.105C204.559 257.313 205.293 254.221 204.28 251.638C201.668 254.33 199.545 257.492 197.478 260.615C196.515 262.071 195.545 263.934 194.321 265.163C193.887 265.599 193.435 265.663 192.85 265.687C193.84 262.09 194.592 258.428 195.574 254.825C198.271 244.937 201.471 234.932 205.389 225.46C206.527 222.852 207.573 220.018 209.115 217.626C209.783 216.402 211.344 214.121 211.158 212.81C212.358 212.272 214.334 208.954 215.286 207.836C216.933 205.905 219.861 203.55 221.071 201.4L221.074 201.402Z" fill="#FEFEFE"/>
<path d="M221.074 201.402C222.585 206.115 223.167 211.556 223.63 216.474C223.571 221.231 223.609 226.013 223.446 230.768C222.303 229.839 221.406 228.557 220.473 227.423C217.395 223.687 213.916 219.121 209.118 217.626C209.785 216.402 211.347 214.121 211.16 212.81C212.36 212.272 214.336 208.954 215.289 207.836C216.935 205.905 219.864 203.55 221.074 201.4V201.402Z" fill="#DDDFDF"/>
<path d="M204.28 251.64C204.314 251.601 204.343 251.555 204.381 251.518C205.506 250.454 207.61 248.602 209.224 248.729C209.695 248.767 209.969 249.232 210.286 249.549C215.69 255.634 220.436 262.332 225.479 268.716C228.695 272.784 232.551 276.445 235.076 280.998C232.573 280.211 230.141 279.314 227.74 278.25C220.372 274.987 208.727 268.024 205.641 260.107C204.556 257.316 205.29 254.224 204.277 251.64H204.28Z" fill="#DDDFDF"/>
<path d="M204.279 251.64C204.314 251.601 204.343 251.555 204.38 251.518C205.506 250.454 207.609 248.602 209.224 248.729C209.695 248.767 209.969 249.232 210.285 249.549C209.918 253.402 207.165 256.614 205.644 260.11C204.559 257.319 205.293 254.227 204.279 251.643V251.64Z" fill="#C58486"/>
<path d="M309.882 197.414C315.43 198.023 320.833 201.812 324.301 206.083C325.253 207.256 325.974 209.124 327.331 209.811C324.03 219.97 320.109 229.911 316.372 239.916C316.306 239.978 316.239 240.042 316.175 240.105C313.215 243.032 310.313 248.687 306.993 252.412C296.923 263.71 285.552 268.721 272.585 275.605C272.327 273.718 272.149 271.834 271.997 269.934L269.172 271.227C267.159 263.646 264.324 253.253 260.533 246.542C258.379 242.726 256.445 241.564 252.312 240.406C253.453 237.961 254.644 236.904 256.998 235.704C272.66 228.288 289.372 219.422 301.684 207.001C303.517 205.186 305.299 203.326 307.036 201.418C308.137 200.226 309.188 198.88 309.882 197.411V197.414Z" fill="#FEFEFE"/>
<path d="M252.311 240.409C253.452 237.963 254.644 236.907 256.998 235.707C257.123 235.757 257.245 235.813 257.37 235.861C257.777 236.018 258.038 236.071 258.442 236.159C260.44 236.59 262.711 240.185 263.743 241.867C267.51 248.003 271.864 262.579 271.994 269.937L269.17 271.23C267.156 263.649 264.321 253.255 260.53 246.545C258.376 242.729 256.442 241.566 252.309 240.409H252.311Z" fill="#DDDFDF"/>
</g>
<defs>
<linearGradient id="paint0_linear_381_1900" x1="191.689" y1="116.502" x2="182.403" y2="111.538" gradientUnits="userSpaceOnUse">
<stop stop-color="#142F35"/>
<stop offset="1" stop-color="#22484C"/>
</linearGradient>
<clipPath id="clip0_381_1900">
<rect width="468" height="478" fill="white" transform="translate(0.240234 0.189941)"/>
</clipPath>
</defs>
</svg>
