<svg width="454" height="807" viewBox="0 0 454 807" fill="none" xmlns="http://www.w3.org/2000/svg">
<path d="M12.2717 717.442C8.24203 754.393 1.88228 783.26 -3.29874 802H383.826C378.645 783.765 372.86 755.427 370.558 717.442C367.104 678.471 368.255 628.843 376.89 569.616C384.401 507.335 434.018 361.529 327.849 327.105C221.706 292.175 62.4647 299.248 13.9988 358.498C-34.4672 417.22 7.63893 484.553 14.5744 596.968C17.4527 643.036 15.7257 683.547 12.2717 717.466V717.442Z" fill="#9DBBD7"/>
<path d="M268.655 33.004C317.243 43.2169 281.015 117.974 281.015 117.974C281.015 117.974 253.686 97.5754 234.212 68.5842C214.71 39.593 237.398 26.4426 268.655 33.004Z" fill="#5C3E3E"/>
<path d="M226.028 228.202C230.063 278.622 246.498 343.673 247.213 346.061C247.927 348.45 245.202 340.061 204.908 341.489C164.615 342.917 132.565 316.44 136.877 302.054C141.189 287.668 145.004 270.351 124.871 216.898C104.711 163.418 234.68 172.114 226.056 228.202H226.028Z" fill="#FFBA8A"/>
<g style="mix-blend-mode:multiply" opacity="0.3">
<path d="M225.951 221.176C220.943 248.909 232.35 284.337 236.352 304.912C230.111 301.419 164.318 286.051 140.394 259.762C138.02 240.902 126.015 224.328 126.015 206.611C105.926 161.25 234.573 173.603 225.979 221.176H225.951Z" fill="#FFBA8A"/>
</g>
<path d="M206.58 20.487C266.128 13.7334 283.023 83.7354 291.804 138.601C296.377 167.177 296.169 168.891 291.804 190.038C284.371 226.044 278.143 267.967 273.51 276.908C267.245 289 246.068 286.624 246.068 286.624C246.068 286.624 194.083 280.776 167.746 262.62C144.836 246.827 142.714 227.315 130.015 198.61C99.0011 128.504 92.8898 33.3817 206.58 20.487Z" fill="#FFBA8A"/>
<g style="mix-blend-mode:multiply" opacity="0.3">
<path d="M206.584 20.4873C243.746 16.2594 269.098 46.1566 281.32 76.1636C274.866 82.1485 263.412 86.0744 244.158 85.7725C232.21 85.6077 210.621 75.8067 201.53 89.8631C192.466 103.919 190.653 117.042 160.714 123.851C130.803 130.659 126.244 133.377 126.244 133.377C126.244 133.377 131.682 151.964 129.43 176.425C127.15 200.886 126.244 219.757 126.244 219.757C126.244 219.757 124.788 215.811 121.711 209.469C83.5603 84.582 52.3032 37.9479 206.556 20.4598L206.584 20.4873Z" fill="#FFBA8A"/>
</g>
<path d="M240.775 78.3033C318.643 79.4564 270.246 12.6063 270.246 12.6063C270.246 12.6063 248.207 20.4349 231.203 12.6063C208.543 2.17386 155.985 -14.1337 112.011 28.9139C68.0368 71.9615 73.9421 118.633 89.7904 154.433C105.666 190.233 122.86 213.468 122.86 213.468C122.86 213.468 123.794 193.417 126.046 168.956C128.299 144.494 122.86 125.908 122.86 125.908C122.86 125.908 127.392 123.19 157.304 116.382C187.215 109.573 189.027 96.4503 198.119 82.3939C207.183 68.3376 228.772 78.1386 240.747 78.3033H240.775Z" fill="#5C3E3E"/>
<path d="M117.943 208.605C99.8614 208.605 85.2031 189.897 85.2031 166.82C85.2031 143.743 99.8614 125.035 117.943 125.035C136.025 125.035 150.684 143.743 150.684 166.82C150.684 189.897 136.025 208.605 117.943 208.605Z" fill="#656B70"/>
<path d="M72.3203 168.414C72.3203 191.502 86.9875 210.198 105.061 210.198C123.134 210.198 137.801 191.475 137.801 168.414C137.801 145.352 123.134 126.629 105.061 126.629C86.9875 126.629 72.3203 145.352 72.3203 168.414Z" fill="#053038"/>
<path d="M118.819 158.777C120.055 2.4549 233.438 15.8798 233.438 15.8798C233.438 15.8798 224.456 6.51805 210.393 2.89415C196.33 -0.729757 140.353 -5.94598 117.006 51.3776C93.6596 108.701 102.724 167.425 102.724 168.413C102.724 169.402 118.792 163.526 118.819 158.777Z" fill="#053038"/>
<g style="mix-blend-mode:multiply" opacity="0.4">
<path d="M248.929 136.885C252.358 157.459 262.783 193.909 265.508 204.324C262.782 210.483 236.352 210.039 236.352 210.039C236.352 210.039 261.981 207.067 260.934 204.324C258.105 196.911 248.929 136.885 248.929 136.885Z" fill="#A10303"/>
</g>
<path d="M274.08 223.756C271.087 224.069 278.082 228.9 251.373 228.439C234.062 230.043 219.198 224.899 219.198 224.899C219.198 224.899 219.198 233.925 256.619 232.686C277.562 231.993 274.08 223.756 274.08 223.756Z" fill="#5C0202"/>
<path d="M208.91 170.033C208.91 175.048 211.446 179.177 214.627 179.177C217.808 179.177 220.344 175.048 220.344 170.033C220.344 165.018 217.808 160.889 214.627 160.889C211.446 160.889 208.91 165.018 208.91 170.033Z" fill="#5C0202"/>
<path d="M262.649 164.316C262.649 168.703 264.424 172.317 266.65 172.317C268.877 172.317 270.652 168.703 270.652 164.316C270.652 159.928 268.877 156.314 266.65 156.314C264.424 156.314 262.649 159.928 262.649 164.316Z" fill="#5C0202"/>
<path d="M192.877 154.079C211.702 146.886 226.124 144.447 233.341 143.922C240.557 143.398 238.85 139.51 237.33 135.396C235.814 131.308 224.762 135.071 208.54 140.599C192.354 146.121 192.872 154.052 192.872 154.052L192.877 154.079Z" fill="#5C3E3E"/>
<path d="M281.657 141.527C269.627 137.015 260.629 136.639 256.153 137.147C251.677 137.656 252.502 133.515 253.179 129.174C253.854 124.861 260.901 127.048 271.187 130.262C281.473 133.476 281.658 141.499 281.658 141.499L281.657 141.527Z" fill="#5C3E3E"/>
<path d="M232.781 258.461L233.688 244.02C232.561 243.966 120.799 236.278 120.799 170.225H106.352C106.352 249.841 227.672 258.132 232.809 258.461H232.781Z" fill="#053038"/>
<path d="M209.244 237.927C224.076 239.575 236.272 238.888 238.991 241.387C241.682 243.885 245.5 260.604 235.695 261.181C225.889 261.757 213.145 257.529 210.233 256.568C207.322 255.608 195.374 236.39 209.244 237.927Z" fill="#52575C"/>
<g style="mix-blend-mode:multiply" opacity="0.6">
<path d="M144.944 318.104C153.349 336.196 205.398 342.236 205.398 342.236C205.398 342.236 190.924 348.303 182.738 360.548C174.581 372.792 175.707 381.165 175.707 381.165C175.707 381.165 137.885 371.886 129.151 352.174C120.417 332.462 111.27 329.552 120.142 320.465C129.014 311.378 141.758 311.268 144.944 318.104Z" fill="#D8D8E6"/>
</g>
<path d="M139.158 304.339C147.563 322.431 205.367 342.235 205.367 342.235C205.367 342.235 192.458 340.368 184.3 352.612C176.143 364.857 176.89 378.064 176.89 378.064C176.89 378.064 134.172 361.947 125.437 342.235C116.703 322.523 111.992 315.712 120.864 306.624C129.736 297.537 135.972 297.503 139.158 304.339Z" fill="#9DBBD7"/>
<path d="M300.064 494.845C306.202 580.542 362.47 772.592 370.55 798.536C378.658 824.453 444.292 766.695 442.002 724.001C439.739 681.307 417.708 514.383 402.35 458.757C386.99 403.159 362.043 380.631 319.735 360.577C277.428 340.523 294.785 421.473 300.064 494.845Z" fill="#9DBBD7"/>
<g style="mix-blend-mode:multiply" opacity="0.6">
<path d="M198.767 342.949C238.868 345.804 244.994 379.792 244.994 379.792C244.994 379.792 269.878 360.519 267.297 336.497C264.715 312.475 253.838 311.789 245.433 310.663C237.056 309.537 233.567 313.875 233.567 313.875C233.567 313.875 233.87 323.347 223.899 333.56C213.929 343.745 198.74 342.976 198.74 342.976L198.767 342.949Z" fill="#D8D8E6"/>
</g>
<path d="M196.274 342.759C236.375 345.614 246.812 369.389 246.812 369.389C246.812 369.389 269.884 354.921 267.302 330.871C265.927 318.057 257.907 306.163 249.502 305.037C241.125 303.912 237.497 305.037 237.497 305.037C237.497 305.037 233.875 317.721 223.905 327.934C213.935 338.119 196.274 342.759 196.274 342.759Z" fill="#9DBBD7"/>
<path d="M201.62 364.796L189.971 626.212L209.132 784.167L235.845 626.201L215.621 363.562L201.62 364.796Z" fill="#52AE32" stroke="#326B1E"/>
<path d="M209.134 345.811C200.345 345.811 193.264 352.505 193.264 360.739C193.264 368.946 200.345 375.669 209.134 375.669C217.923 375.669 225.004 368.973 225.004 360.739C225.004 352.505 217.923 345.811 209.134 345.811Z" fill="#52AE32" stroke="#326B1E"/>
<path d="M73.6129 460.477C62.3516 541.301 -5.27137 719.888 -14.9122 743.965C-24.553 768.042 -102.229 774.055 -97.3946 733.725C-92.5879 693.395 -45.0156 471.926 -26.3383 420.148C-7.66098 368.397 18.5697 348.548 61.9945 332.076C105.447 315.603 83.2537 391.266 73.6129 460.477Z" fill="#9DBBD7"/>
</svg>
