<svg width="270" height="559" viewBox="0 0 270 559" fill="none" xmlns="http://www.w3.org/2000/svg">
<g clip-path="url(#clip0_665_868)">
<path d="M202.284 59.2065C206.591 61.2409 210.205 64.7083 212.416 68.932C214.014 61.838 213.966 54.3769 212.275 47.3006C211.755 45.129 208.308 45.6686 206.375 46.7831C204.442 47.8977 203.286 50.0515 202.853 52.2452C202.421 54.4388 202.076 56.9819 202.275 59.2065H202.284Z" fill="#733B44"/>
<path d="M239.333 207.146L257.758 195.7L256.549 194.201L241.707 191.467L215.96 210.029L225.749 217.973L232.731 215.385L239.333 207.146Z" fill="#242D42"/>
<path d="M240.542 208.645L257.758 195.7L242.921 192.967L216.168 211.936L226.962 219.472L233.944 216.885L240.542 208.645Z" fill="#3F5175"/>
<path d="M192.738 148.39C192.99 159.659 194.803 170.778 193.329 178.447C191.86 186.116 195.108 199.724 195.108 199.724C195.108 199.724 207.54 203.749 210.603 212.758C213.665 221.772 208.692 230.781 205.819 231.736C202.95 232.696 177.892 222.342 177.892 222.342L176.934 178.442L192.734 148.386L192.738 148.39Z" fill="#DF674E"/>
<path d="M122.396 542.214C124.528 524.196 127.462 506.275 131.187 488.522C138.778 488.819 146.011 489.699 153.522 490.853C153.244 496.174 153.443 501.508 153.558 506.832C153.58 507.854 158.289 511.145 159.145 511.927C161.206 513.82 163.258 515.722 165.31 517.619C168.743 520.795 171.952 524.797 175.641 527.544C180.527 531.179 185.831 534.236 191.388 536.717C193.674 537.738 197.006 538.278 199 539.649C201.119 541.104 202.099 544.677 202.041 547.083C193.934 549.653 184.94 549.339 176.502 548.304C168.064 547.269 159.657 545.602 151.157 545.686C146.346 545.734 141.545 546.34 136.735 546.305C131.92 546.27 126.558 544.633 122.396 542.21V542.214Z" fill="#2E2528"/>
<path d="M84.3939 551.144C99.0987 554.616 113.87 558.096 128.923 559.321C130.627 559.458 132.357 559.569 134.025 559.22C135.697 558.875 137.211 558.171 138.226 556.796C139.082 555.637 140.133 554.169 139.418 552.917C136.633 548.03 132.502 544.019 127.952 540.719C123.402 537.42 117.074 537.234 113.596 532.816C108.839 526.766 104.112 520.808 99.3503 514.758C99.0987 508.199 98.8207 501.096 98.5691 494.538C96.389 494.401 73.8331 493.671 73.8375 493.547C72.9814 510.402 73.0211 527.305 73.9523 544.156C74.0538 545.965 73.8022 547.38 75.0997 548.64C76.3972 549.901 78.2022 550.498 79.9763 550.847C81.7504 551.201 82.6242 550.724 84.3851 551.139L84.3939 551.144Z" fill="#2E2528"/>
<path d="M87.9906 260.687C88.754 272.571 89.9015 314.746 90.2854 331.999C90.6694 349.252 94.4956 374.846 92.5803 382.559C90.6694 390.277 83.7804 407.529 80.722 423.633C77.6592 439.736 69.6272 496.864 69.6272 496.864C69.6272 496.864 76.5118 506.832 84.5482 506.067C92.5803 505.302 106.447 498.783 106.447 498.783C106.447 498.783 113.243 448.939 117.833 434.371C122.422 419.802 130.075 404.465 131.222 400.25C132.37 396.03 135.812 359.994 135.812 359.994C135.812 359.994 143.081 393.735 143.081 399.869C143.081 406.004 127.012 488.527 127.012 488.527C127.012 488.527 135.428 495.718 143.081 498.403C150.733 501.087 164.123 499.937 164.123 499.937C164.123 499.937 183.634 411.753 184.781 405.619C185.928 399.485 172.539 260.691 172.539 260.691H87.9906V260.687Z" fill="#4D4749"/>
<path d="M135.812 360.808C135.812 360.808 135.786 360.808 135.772 360.808C135.322 360.786 134.974 360.401 134.996 359.95C135.591 348.128 138.164 315.829 142.869 308.461C147.428 301.323 158.01 287.551 158.116 287.409C158.39 287.051 158.906 286.985 159.264 287.259C159.621 287.533 159.688 288.05 159.414 288.409C159.308 288.546 148.765 302.265 144.246 309.341C139.753 316.373 137.176 349.115 136.624 360.03C136.602 360.468 136.24 360.808 135.808 360.808H135.812Z" fill="#1F1C1D"/>
<path d="M85.8854 247.079L83.3037 265.194C83.3037 265.194 97.3642 275.26 115.154 275.548C132.943 275.835 163.072 273.823 170.818 266.056C178.563 258.295 99.6591 242.926 99.6591 242.926L85.8854 247.079Z" fill="#DF674E"/>
<path d="M88.1804 199.919C86.1724 209.41 83.8775 229.538 83.3038 236.15C82.7301 242.762 83.3038 250.816 83.3038 250.816C83.3038 250.816 106.508 259.153 127.33 264.907C148.151 270.656 167.375 270.943 176.272 264.907C178.567 250.816 181.149 199.919 181.149 199.919C181.149 199.919 192.341 160.044 192.628 151.513C192.915 142.982 194.062 118.542 192.628 115.667C191.193 112.792 168.814 91.1829 168.814 91.1829L116.593 77.0303C116.593 77.0303 90.7666 98.7059 87.6111 102.872C84.4557 107.043 89.0454 137.259 89.0454 137.259L88.1848 199.924L88.1804 199.919Z" fill="#3F5175"/>
<path d="M86.8388 105.061C83.5245 105.393 81.1016 116.525 79.3805 125.343C77.6593 134.162 75.1703 180.831 75.1703 189.795C75.1703 198.76 73.3697 208.835 79.5703 211.798C85.7708 214.762 141.355 220.042 146.903 220.427C152.45 220.812 161.44 216.557 161.44 216.557L167.371 210.189L160.866 191.286C160.866 191.286 155.892 186.315 151.876 186.403C147.86 186.492 123.376 187.261 114.382 181.317C113.808 173.171 115.339 156.78 114.766 149.496C114.192 142.212 107.493 102.987 86.8344 105.057L86.8388 105.061Z" fill="#DF674E"/>
<path d="M86.0752 194.793C85.9693 194.793 85.8634 194.771 85.7619 194.731C85.347 194.559 85.1485 194.077 85.3206 193.661C86.2782 191.357 91.9271 183.475 97.6334 179.137C103.3 174.829 110.396 176.819 114.92 180.702C115.264 180.999 115.304 181.512 115.008 181.857C114.717 182.202 114.201 182.242 113.856 181.945C109.836 178.491 103.565 176.687 98.622 180.441C93.1319 184.612 87.739 192.109 86.8299 194.289C86.6975 194.603 86.3974 194.793 86.0752 194.793Z" fill="#9C3A26"/>
<path d="M217.633 196.461C215.599 191.989 212.218 187.699 208.012 185.316C203.851 182.954 199.389 181.105 194.759 179.911C192.341 179.287 189.755 179.752 187.734 181.225C183.091 184.608 178.881 188.593 175.244 193.042L174.896 211.936C178.55 211.255 182.199 210.574 185.854 209.893C187.363 209.61 189.124 209.127 189.649 207.681C189.87 207.071 189.852 206.319 190.62 206.049C191.167 205.859 191.78 206.036 192.195 206.443C193.131 207.358 193.524 207.911 194.631 207.805C201.463 207.15 208.087 201.158 209.861 194.515C211.093 195.709 212.395 196.823 213.763 197.854C214.425 198.354 215.144 198.849 215.974 198.898C217.253 198.973 218.158 197.628 217.624 196.461H217.633Z" fill="#FFA383"/>
<path d="M209.65 195.558C209.442 195.558 209.235 195.479 209.076 195.324C205.576 191.888 201.617 188.96 197.315 186.62C196.917 186.403 196.772 185.908 196.988 185.51C197.204 185.112 197.699 184.966 198.096 185.178C202.535 187.589 206.613 190.609 210.223 194.152C210.545 194.47 210.55 194.988 210.236 195.311C210.078 195.474 209.866 195.558 209.654 195.558H209.65Z" fill="#C76D4F"/>
<path d="M207.469 200.428C207.271 200.428 207.068 200.353 206.913 200.207C203.524 197.031 199.662 194.453 195.439 192.538C195.028 192.352 194.843 191.866 195.033 191.454C195.218 191.043 195.704 190.857 196.114 191.047C200.505 193.038 204.512 195.718 208.034 199.013C208.365 199.322 208.383 199.84 208.074 200.171C207.915 200.344 207.694 200.432 207.478 200.432L207.469 200.428Z" fill="#C76D4F"/>
<path d="M202.513 205.541C202.244 205.541 201.979 205.408 201.825 205.16C200.099 202.44 197.5 200.295 194.499 199.128C194.08 198.964 193.868 198.491 194.036 198.066C194.199 197.646 194.671 197.438 195.095 197.602C198.414 198.898 201.295 201.268 203.206 204.284C203.449 204.665 203.334 205.173 202.955 205.417C202.818 205.505 202.668 205.545 202.518 205.545L202.513 205.541Z" fill="#C76D4F"/>
<path d="M160.186 190.654L161.444 216.562L179.141 215.735L176.939 191.291L160.186 190.654Z" fill="#DF674E"/>
<path d="M207.469 211.613C205.196 211.781 202.134 211.998 200.196 213.209C198.259 214.421 196.705 216.336 196.229 218.574C195.796 220.609 196.295 222.807 197.482 224.514C198.669 226.221 200.505 227.442 202.513 227.972C205.717 228.822 209.093 227.977 212.297 227.132C216.966 225.903 221.64 224.673 226.309 223.444C228.269 222.926 230.259 222.4 232.02 221.396C233.701 220.436 235.105 219.087 236.513 217.782C238.062 216.345 239.363 215.438 240.228 213.475C241.95 209.578 242.872 205.328 242.912 201.069C241.897 200.282 240.383 200.773 239.333 201.516C238.282 202.259 237.647 203.457 237.241 204.678C236.835 205.899 236.623 207.177 236.208 208.393C235.122 211.591 232.611 214.271 229.5 215.553C228.829 213.501 228.326 211.339 227.655 209.291C227.28 208.137 226.892 206.965 226.194 205.974C225.497 204.983 224.425 204.183 223.216 204.108C222.006 204.037 220.722 204.868 220.554 206.071C220.109 209.309 221.133 212.095 221.424 215.35C220.634 212.944 219.707 210.83 218.917 208.424C218.635 207.57 218.29 206.633 217.5 206.204C216.044 205.412 214.407 206.637 213.529 208.048C212.668 207.46 211.318 207.442 210.303 207.668C209.287 207.898 208.374 208.561 207.849 209.463C207.482 210.087 207.571 210.896 207.46 211.613H207.469Z" fill="#FFA383"/>
<path d="M206.507 222.4C206.476 222.4 206.446 222.4 206.415 222.395C205.964 222.347 205.642 221.94 205.691 221.493L206.724 212.099C206.772 211.648 207.174 211.325 207.624 211.374C208.074 211.423 208.396 211.83 208.348 212.276L207.315 221.67C207.271 222.09 206.913 222.4 206.503 222.4H206.507Z" fill="#C76D4F"/>
<path d="M216.097 221.626C215.722 221.626 215.382 221.365 215.298 220.98L212.659 208.818C212.562 208.376 212.845 207.938 213.286 207.845C213.727 207.752 214.164 208.031 214.257 208.473L216.892 220.635C216.989 221.078 216.706 221.516 216.265 221.608C216.207 221.622 216.15 221.626 216.088 221.626H216.097Z" fill="#C76D4F"/>
<path d="M222.558 221.825C222.179 221.825 221.834 221.555 221.759 221.166L220.612 215.416C220.524 214.974 220.81 214.54 221.252 214.452C221.693 214.364 222.126 214.651 222.214 215.093L223.361 220.843C223.45 221.285 223.163 221.719 222.721 221.807C222.668 221.816 222.615 221.825 222.558 221.825Z" fill="#C76D4F"/>
<path d="M148.73 101.041L164.71 85.8179C164.71 85.8179 171.903 96.2112 171.135 97.998C170.372 99.7892 158.002 105.026 151.241 104.132C144.48 103.239 148.73 101.041 148.73 101.041Z" fill="#DF674E"/>
<path d="M156.943 64.2793L150.226 56.8447L132.882 75.3758L149.462 102.213L151.576 100.258C148.006 88.9005 152.243 75.4864 156.943 64.2793Z" fill="#FFA383"/>
<path d="M168.461 77.0255L156.942 64.2793C152.242 75.4864 148.001 88.9005 151.576 100.258L163.086 89.6258L168.461 77.0255Z" fill="#C96F50"/>
<path d="M151.241 104.133C151.241 104.133 141.421 78.5738 137.211 73.0764C133.001 67.5789 129.686 62.8511 125.732 62.8511C121.778 62.8511 115.273 65.4074 113.746 68.3485C112.219 71.2896 110.493 82.1827 110.493 82.1827C110.493 82.1827 118.08 78.4455 122.669 82.9169C127.259 87.3882 140.777 101.833 151.236 104.133H151.241Z" fill="#DF674E"/>
<path d="M210.435 43.5589C209.248 48.6937 207.906 53.7886 206.41 58.8394C205.792 60.9225 205.417 63.4301 204.371 65.3054C203.096 67.5919 200.863 69.2018 199.914 71.5944C198.625 74.8318 197.769 77.9056 195.443 80.5062C189.097 87.5913 181.537 93.4337 173.739 98.8338C170.341 101.187 165.954 98.7321 162.38 96.6579C159.131 94.7694 158.227 91.8592 156.898 88.5201C152.794 78.1975 151.739 67.101 153.134 56.0796C154.33 46.6195 165.707 41.4272 174.542 37.8846C183.373 34.342 193.422 33.9219 202.518 36.7214C204.226 37.2478 205.929 37.8979 207.328 39.0124C208.727 40.1269 210.845 41.8208 210.439 43.5634L210.435 43.5589Z" fill="#FFA383"/>
<path d="M220.475 55.5712C219.235 52.7009 217.876 49.375 216.247 46.7081C212.964 50.1932 208.537 52.8512 203.895 54.0012C205.965 51.5996 207.244 48.2693 207.425 45.1027C197.946 50.1092 187.001 52.3028 176.321 51.4625C176.745 50.0782 177.08 48.6364 177.221 47.1946C177.332 46.0889 177.182 45.116 177.393 43.9882C170.579 46.8098 165.297 53.0812 163.664 60.2814C162.261 57.2563 161.802 53.8021 162.353 50.5116C160.098 52.0242 157.896 53.581 155.676 55.1334C154.118 56.2258 152.56 57.3138 150.998 58.4062C149.643 59.3526 148.306 60.1664 147.269 61.418C146.249 62.652 145.248 63.8461 144.047 64.9164C143.478 65.4206 142.736 65.9336 142.017 65.6859C141.527 65.5179 141.205 65.0269 141.104 64.5228C140.856 63.333 141.337 61.7453 141.333 60.4937C141.324 58.7998 141.324 57.1059 141.333 55.412C141.351 52.1304 141.399 48.8531 141.479 45.5715C141.607 40.2819 141.823 34.9924 142.119 29.7117C142.251 27.3234 142.207 25.5809 143.473 23.5376C144.528 21.8349 145.729 20.2206 147.053 18.7169C152.34 12.6931 159.577 8.37659 167.415 6.70039C168.435 6.48368 169.463 6.31119 170.496 6.18293C173.196 3.18877 176.97 1.11894 180.84 0C179.918 1.28701 179.825 2.99417 179.94 4.57307C181.798 3.29933 183.682 3.0207 185.933 3.18434C199.261 4.16176 208.127 18.8893 215.316 30.1761C217.774 34.0371 219.994 38.1148 221.177 42.5375C222.364 46.9602 222.187 51.321 220.48 55.5712H220.475Z" fill="#733B44"/>
<path d="M154.321 63.3685C153.161 65.1199 150.424 65.1951 148.708 63.9788C146.991 62.767 146.13 60.6707 145.654 58.623C144.647 54.2976 144.321 47.8271 148.906 45.3549C150.601 44.4438 152.896 44.572 154.259 45.9298C155.098 46.7657 155.504 47.9333 155.831 49.0743C156.545 51.5643 157.009 54.1295 157.207 56.7123C157.393 59.1006 155.641 61.3783 154.321 63.3685Z" fill="#FFA383"/>
<path d="M184.357 85.4242C184.159 85.4242 183.956 85.411 183.753 85.3888C182.46 85.234 181.308 84.637 180.288 84.1151C179.887 83.9072 179.728 83.4163 179.935 83.0138C180.143 82.6114 180.633 82.4522 181.034 82.66C181.974 83.1421 182.95 83.6463 183.951 83.7657C184.918 83.8807 185.823 83.5711 186.259 82.974C186.701 82.3681 186.718 81.4747 186.741 80.5327C186.741 80.3823 186.745 80.2364 186.749 80.0904C186.93 74.5223 190.227 69.2548 195.157 66.672C195.554 66.4641 196.048 66.6189 196.26 67.0169C196.467 67.4194 196.313 67.9148 195.916 68.1226C191.569 70.4003 188.541 75.2299 188.382 80.1435C188.378 80.285 188.373 80.4266 188.373 80.5681C188.351 81.6693 188.325 82.9165 187.579 83.9382C186.891 84.8846 185.695 85.4286 184.362 85.4286L184.357 85.4242Z" fill="#C76D4F"/>
<path d="M179.309 89.7455C176.18 89.7455 173.059 88.6752 170.597 86.7248C170.244 86.4461 170.182 85.9287 170.465 85.5749C170.743 85.2211 171.259 85.1591 171.612 85.4422C174.048 87.3705 177.217 88.3258 180.31 88.0693C180.761 88.0339 181.153 88.3656 181.193 88.8167C181.233 89.2678 180.897 89.6615 180.447 89.7013C180.068 89.7322 179.688 89.7499 179.309 89.7499V89.7455Z" fill="#C76D4F"/>
<path d="M177.062 60.8652C178.113 60.1709 179.322 59.8082 180.549 59.6446C181.78 59.4853 183.038 59.5428 184.252 59.8038C185.465 60.0603 186.639 60.5114 187.703 61.1483C188.762 61.7896 189.724 62.6033 190.421 63.6471C190.668 64.0142 190.567 64.5095 190.201 64.7572C190.006 64.8855 189.781 64.9208 189.569 64.8722L189.539 64.8633C188.426 64.5936 187.429 64.2972 186.44 64.0407C185.456 63.7798 184.485 63.5498 183.51 63.3552C182.535 63.1606 181.555 62.9881 180.549 62.8333C179.538 62.6741 178.51 62.5458 177.38 62.3336H177.354C176.917 62.2451 176.63 61.8294 176.714 61.3915C176.753 61.1704 176.886 60.9846 177.062 60.8652Z" fill="#733B44"/>
<path d="M194.781 66.7299C195.562 66.1328 196.436 65.6773 197.35 65.3279C198.263 64.9785 199.225 64.7397 200.201 64.6026C201.176 64.4655 202.169 64.4301 203.149 64.5097C203.396 64.5406 203.639 64.5849 203.877 64.6424C204.115 64.7131 204.354 64.7883 204.588 64.89C205.051 65.0979 205.497 65.3809 205.885 65.8144C206.225 66.1947 206.194 66.7829 205.814 67.1235C205.761 67.1721 205.704 67.2119 205.642 67.2473L205.576 67.2827C205.325 67.4198 205.091 67.5038 204.866 67.5746C204.636 67.6498 204.415 67.7073 204.199 67.7427C203.983 67.7913 203.771 67.8134 203.559 67.8311C203.347 67.8532 203.14 67.8577 202.937 67.8577C202.112 67.8223 201.291 67.8046 200.457 67.8134C199.627 67.8223 198.789 67.8621 197.941 67.9196L195.324 68.123H195.311C194.883 68.1584 194.508 67.8355 194.472 67.4065C194.45 67.1368 194.578 66.8802 194.777 66.7254L194.781 66.7299Z" fill="#733B44"/>
<path d="M181.462 69.9274C180.103 71.2896 178.519 71.9088 177.919 71.3073C177.323 70.7102 177.936 69.1181 179.295 67.7559C180.655 66.3937 182.239 65.7745 182.839 66.376C183.439 66.9775 182.822 68.5652 181.462 69.9274Z" fill="#4A1C23"/>
<path d="M195.143 73.6159C193.784 74.9781 192.2 75.5973 191.599 74.9958C191.004 74.3987 191.617 72.8065 192.976 71.4444C194.336 70.0822 195.92 69.463 196.52 70.0645C197.12 70.666 196.503 72.2537 195.143 73.6159Z" fill="#4A1C23"/>
<path d="M150.707 138.435C150.283 138.435 149.921 138.108 149.89 137.674C149.158 127.281 147.988 116.786 146.426 106.485C146.36 106.039 146.664 105.618 147.11 105.552C147.556 105.481 147.975 105.791 148.041 106.238C149.612 116.582 150.782 127.122 151.523 137.559C151.554 138.01 151.214 138.404 150.764 138.435C150.746 138.435 150.724 138.435 150.707 138.435Z" fill="#FFE0BA"/>
<path d="M165.478 134.786C165.102 134.786 164.767 134.53 164.683 134.149L159.573 111.514C159.471 111.072 159.749 110.634 160.191 110.537C160.632 110.435 161.069 110.713 161.166 111.156L166.276 133.791C166.378 134.233 166.1 134.671 165.658 134.769C165.597 134.782 165.535 134.791 165.478 134.791V134.786Z" fill="#FFE0BA"/>
</g>
<defs>
<clipPath id="clip0_665_868">
<rect width="270" height="559" fill="white"/>
</clipPath>
</defs>
</svg>
