<svg width="557" height="608" viewBox="0 0 557 608" fill="none" xmlns="http://www.w3.org/2000/svg">
<g clip-path="url(#clip0_1276_9)">
<rect width="556.065" height="606.765" transform="translate(0.103516 0.910156)" fill="url(#paint0_radial_1276_9)"/>
<path d="M230.633 399.477H181.75V581.844H230.633V399.477Z" fill="#053038"/>
<path d="M222.514 455.448C211.225 456.577 199.841 456.078 188.714 453.838C185.352 453.162 183.912 458.315 187.29 458.995C198.886 461.325 210.741 461.971 222.514 460.795C223.954 460.651 225.19 459.669 225.19 458.122C225.19 456.786 223.96 455.302 222.514 455.448Z" fill="#66686D"/>
<path d="M223.429 475.046C212.14 476.175 200.756 475.676 189.629 473.436C186.267 472.759 184.827 477.913 188.205 478.593C199.801 480.923 211.656 481.569 223.429 480.393C224.869 480.249 226.105 479.267 226.105 477.719C226.105 476.384 224.875 474.899 223.429 475.046Z" fill="#66686D"/>
<path d="M227.751 596.565C227.726 596.519 227.704 596.469 227.683 596.422H144.084C143.488 598.468 143.042 600.561 142.764 602.68C142.614 603.825 142.592 605.185 143.497 605.902C144.056 606.342 144.815 606.404 145.524 606.445C174.263 608.129 203.099 608.08 231.835 606.333C230.717 602.97 229.347 599.704 227.751 596.565Z" fill="#2F333F"/>
<path d="M175.83 560.667C175.758 561.391 175.624 562.102 175.346 562.776C174.047 565.97 170.428 567.399 167.313 568.884C156.132 574.209 147.54 584.566 144.084 596.423H219.655V584.057C208.821 570.662 193.267 561.553 175.83 560.664V560.667Z" fill="#E1EFFC"/>
<path d="M219.654 584.061V596.426H227.681C225.43 592.018 222.733 587.866 219.654 584.061Z" fill="#E1EFFC"/>
<path d="M243.895 596.426C243.183 583.976 242.244 571.541 241.079 559.126C240.798 556.15 240.477 553.177 240.171 550.204C238.563 534.541 236.593 518.918 234.273 503.346C229.861 499.805 224.9 496.979 219.658 494.904V571.772C226.087 578.723 231.438 587.283 235.659 596.423H243.898L243.895 596.426Z" fill="#63BEDD"/>
<path d="M195.602 490.946C189.989 491.507 184.641 493.635 179.901 496.823C176.576 514.398 175.118 532.323 175.555 550.201C175.599 552.004 175.677 553.807 175.758 555.61C193.557 552.207 208.288 559.478 219.652 571.772V494.904C211.981 491.872 203.701 490.472 195.602 490.949V490.946Z" fill="#E1EFFC"/>
<path d="M243.896 596.426H235.656C237.039 599.421 238.304 602.481 239.44 605.566C240.723 605.21 241.885 604.618 242.709 603.579C244.114 601.81 244.061 599.33 243.933 597.075C243.921 596.859 243.908 596.641 243.896 596.426Z" fill="#2F333F"/>
<path d="M175.762 555.613C175.79 556.215 175.797 556.82 175.831 557.422C175.862 557.987 175.89 558.558 175.896 559.125C175.903 559.643 175.881 560.158 175.834 560.669C198.276 561.811 217.596 576.573 227.749 596.569H235.723C224.049 571.198 203.68 550.278 175.762 555.613Z" fill="#F7A70D"/>
<path d="M227.745 596.566C229.34 599.704 230.714 602.967 231.831 606.333C233.093 606.255 234.357 606.196 235.622 606.111C236.883 606.027 238.216 605.899 239.437 605.559C238.316 602.524 237.077 599.514 235.719 596.562H227.745V596.566Z" fill="#2F333F"/>
<path d="M278.582 581.844H327.465V399.477H278.582V581.844Z" fill="#053038"/>
<path d="M286.7 455.448C297.989 456.577 309.372 456.078 320.5 453.838C323.862 453.162 325.302 458.315 321.923 458.995C310.328 461.325 298.473 461.971 286.7 460.795C285.26 460.651 284.024 459.669 284.024 458.122C284.024 456.786 285.254 455.302 286.7 455.448Z" fill="#66686D"/>
<path d="M285.787 475.046C297.077 476.175 308.46 475.676 319.588 473.436C322.95 472.759 324.389 477.913 321.011 478.593C309.416 480.923 297.561 481.569 285.787 480.393C284.348 480.249 283.112 479.267 283.112 477.719C283.112 476.384 284.342 474.899 285.787 475.046Z" fill="#66686D"/>
<path d="M366.452 602.684C366.174 600.565 365.727 598.472 365.131 596.426H281.533C281.508 596.473 281.486 596.522 281.464 596.569C279.872 599.708 278.498 602.974 277.38 606.336C306.113 608.08 334.952 608.13 363.692 606.449C364.4 606.408 365.159 606.346 365.718 605.906C366.623 605.189 366.601 603.828 366.452 602.684Z" fill="#2F333F"/>
<path d="M333.384 560.667C333.456 561.391 333.59 562.102 333.868 562.776C335.167 565.97 338.785 567.399 341.901 568.884C353.081 574.209 361.673 584.566 365.13 596.423H289.559V584.057C300.392 570.662 315.947 561.553 333.384 560.664V560.667Z" fill="#E1EFFC"/>
<path d="M289.56 584.061V596.426H281.533C283.784 592.018 286.482 587.866 289.56 584.061Z" fill="#E1EFFC"/>
<path d="M265.319 596.426C266.031 583.976 266.971 571.541 268.135 559.126C268.416 556.15 268.738 553.177 269.044 550.204C270.652 534.541 272.622 518.918 274.941 503.346C279.353 499.805 284.314 496.979 289.556 494.904V571.772C283.128 578.723 277.776 587.283 273.555 596.423H265.316L265.319 596.426Z" fill="#63BEDD"/>
<path d="M313.611 490.946C319.225 491.507 324.573 493.635 329.312 496.823C332.638 514.398 334.096 532.323 333.658 550.201C333.615 552.004 333.537 553.807 333.455 555.61C315.656 552.207 300.926 559.478 289.562 571.772V494.904C297.233 491.872 305.512 490.472 313.611 490.949V490.946Z" fill="#E1EFFC"/>
<path d="M272.101 596.565H273.496C273.518 596.519 273.54 596.469 273.562 596.422H265.322C265.31 596.637 265.297 596.856 265.285 597.071C265.157 599.326 265.104 601.806 266.509 603.575C267.333 604.611 268.495 605.203 269.778 605.562C270.899 602.527 272.141 599.516 273.499 596.565H272.104H272.101Z" fill="#2F333F"/>
<path d="M333.457 555.614C305.538 550.276 285.17 571.196 273.496 596.57H281.47C291.623 576.574 310.943 561.812 333.385 560.67C333.335 560.162 333.313 559.644 333.322 559.126C333.329 558.558 333.357 557.988 333.388 557.423C333.419 556.821 333.428 556.216 333.457 555.614Z" fill="#F7A70D"/>
<path d="M269.775 605.562C270.999 605.902 272.332 606.03 273.59 606.114C274.851 606.198 276.116 606.258 277.38 606.336C278.498 602.97 279.875 599.707 281.467 596.568H273.493C272.135 599.519 270.896 602.53 269.775 605.565V605.562Z" fill="#2F333F"/>
<path d="M484.961 267.548C479.723 259.089 468.777 255.363 459.818 260.473C453.813 263.897 447.617 266.943 441.249 269.616C429.465 274.125 417.227 277.315 404.737 279.127C400.961 279.552 397.174 279.862 393.375 280.039C388.592 280.264 383.968 281.859 380.476 285.257C377.191 288.451 374.689 293.801 374.886 298.463C375.295 308.051 383.01 317.441 393.331 316.957C422.975 315.565 452.105 307.391 477.902 292.676C486.291 287.89 490.236 276.067 484.961 267.548Z" fill="#053038"/>
<path d="M391.074 268.496C389.014 268.043 386.872 267.797 384.674 267.797C368.289 267.797 355.004 281.07 355.004 297.442C355.004 313.813 368.289 327.086 384.674 327.086C389.601 327.086 394.24 325.879 398.33 323.758C400.072 304.963 398.62 285.784 391.074 268.496Z" fill="#F34137"/>
<path d="M414.343 297.442C414.343 283.267 404.381 271.422 391.074 268.496C398.62 285.784 400.072 304.963 398.33 323.758C407.843 318.82 414.343 308.894 414.343 297.442Z" fill="#F7A70D"/>
<path d="M515.024 145.458L494.008 143.654L492.595 160.087L513.611 161.891L515.024 145.458Z" fill="#053038"/>
<path d="M515.537 122.833C509.175 121.872 502.372 126.517 501.617 133.098C501.554 133.629 501.503 134.159 501.468 134.683C501.463 134.703 501.46 134.72 501.461 134.739C500.861 142.322 502.137 149.567 503.35 156.984C503.556 158.224 503.757 159.464 503.945 160.721C504.264 162.818 504.524 164.926 504.636 167.042L492.513 169.412C491.296 166.616 491.401 166.755 491.031 164.269C490.76 162.459 490.591 160.638 490.481 158.816C490.05 151.497 490.626 144.114 489.4 136.848C489.339 136.503 489.268 136.154 489.18 135.816L489.178 135.807C487.69 129.818 482.357 125.33 475.896 126.047C469.608 126.75 463.979 133.006 465.082 139.545C466.915 150.443 465.292 161.446 467.782 172.204L467.824 172.387C467.943 172.904 468.079 173.42 468.221 173.925C468.408 174.605 468.613 175.285 468.84 175.962C470.88 182.092 474.6 187.434 480.062 190.736C480.061 190.8 480.054 190.866 480.053 190.93C479.992 193.535 479.788 196.118 479.445 198.691C479.132 200.15 478.782 201.602 478.382 203.045C475.801 212.346 480.684 223.546 490.529 226.148C499.956 228.638 510.895 223.936 513.653 214.003C515.592 207.022 516.796 199.709 516.962 192.46C516.981 191.616 516.939 190.768 516.845 189.922C523.841 184.602 528.325 176.491 528.999 167.658C528.999 167.658 529.003 167.65 529.003 167.647C529.002 167.49 529.006 167.329 529.005 167.173C529.01 164.216 528.713 161.301 528.295 158.397L528.293 158.391C527.937 155.938 527.488 153.486 527.056 151.038C526.578 148.321 526.111 145.595 525.843 142.843C525.724 141.679 525.672 140.513 525.604 139.347C525.602 139.187 525.598 139.044 525.601 138.919C525.643 138.185 525.712 137.459 525.807 136.735C526.56 130.183 522.236 123.838 515.539 122.829L515.537 122.833Z" fill="#053038"/>
<path d="M516.663 223.333C516.663 223.333 516.663 225.008 516.582 227.787C516.52 230.124 516.401 233.246 516.183 236.796C515.311 251.099 512.845 272.431 505.895 278.255C495.333 287.105 459.475 279.094 451.782 267.661C446.178 259.341 454.136 234.731 459.094 221.461C460.565 217.518 461.773 214.579 462.282 213.36C462.454 212.96 462.544 212.745 462.544 212.745C464.592 202.295 474.727 195.485 485.183 197.531L501.437 200.71C511.896 202.756 518.711 212.885 516.663 223.33V223.333Z" fill="#E1EFFC"/>
<path d="M40.2946 214.848C49.0927 210.203 60.4198 212.527 65.5619 221.468C69.0088 227.46 72.8115 233.222 76.9515 238.75C84.8348 248.601 93.7766 257.545 103.633 265.428C106.674 267.705 109.784 269.889 112.971 271.963C116.983 274.578 120.165 278.293 121.457 282.991C122.675 287.408 122.126 293.288 119.597 297.21C114.392 305.274 102.987 309.469 94.3292 303.829C69.4646 287.63 48.4745 265.84 33.6694 240.094C28.8551 231.722 31.434 219.527 40.2946 214.848Z" fill="#053038"/>
<path d="M128.233 332.812C126.687 332.812 125.167 332.694 123.684 332.466C116.456 315.34 112.119 295.506 114.358 276.964C118.498 274.771 123.218 273.523 128.233 273.523C144.617 273.523 157.902 286.796 157.902 303.168C157.902 319.539 144.617 332.812 128.233 332.812Z" fill="#F34137"/>
<path d="M123.684 332.465C109.456 330.278 98.563 317.993 98.563 303.166C98.563 291.802 104.963 281.938 114.358 276.962C112.119 295.502 116.456 315.339 123.684 332.465Z" fill="#F7A70D"/>
<path d="M29.6489 147.927L50.6646 146.123L52.0774 162.555L31.0617 164.359L29.6489 147.927Z" fill="#053038"/>
<path d="M12.6325 117.184C18.6145 114.814 26.2887 117.805 28.5085 124.047C28.6896 124.55 28.8582 125.055 29.0112 125.557C29.0205 125.576 29.0268 125.591 29.0299 125.61C31.3247 132.863 31.7149 140.21 32.2051 147.709C32.2832 148.963 32.3675 150.217 32.4674 151.483C32.6297 153.598 32.8514 155.71 33.2198 157.797L45.5647 157.373C46.1204 154.375 46.0486 154.534 45.8488 152.029C45.7052 150.204 45.4585 148.392 45.1557 146.592C43.9256 139.364 41.6995 132.302 41.2562 124.946C41.2374 124.596 41.2281 124.241 41.2374 123.891V123.882C41.3373 117.712 45.521 112.137 51.9775 111.379C58.2624 110.646 65.156 115.472 65.5557 122.091C66.2269 133.122 70.2888 143.476 70.2888 154.519V154.706C70.2888 155.236 70.2732 155.77 70.2482 156.294C70.2201 156.999 70.1733 157.707 70.1046 158.418C69.4989 164.851 67.0793 170.893 62.5022 175.342C62.5178 175.404 62.5397 175.466 62.5553 175.529C63.2016 178.052 63.9821 180.523 64.8969 182.953C65.5307 184.304 66.1988 185.639 66.9138 186.956C71.5252 195.434 69.2929 207.448 60.2886 212.202C51.6653 216.753 39.948 214.638 35.0213 205.582C31.5588 199.218 28.7364 192.365 26.9412 185.34C26.732 184.522 26.5822 183.686 26.4822 182.841C18.4677 179.235 12.2703 172.344 9.62276 163.89C9.62276 163.89 9.61652 163.884 9.61652 163.88C9.58217 163.728 9.54159 163.572 9.50724 163.419C8.83598 160.539 8.46757 157.632 8.22093 154.709V154.703C8.01487 152.232 7.89935 149.743 7.76822 147.26C7.62148 144.505 7.46225 141.744 7.1032 139.002C6.95646 137.842 6.74416 136.694 6.54747 135.543C6.51312 135.387 6.48502 135.246 6.4538 135.125C6.24774 134.42 6.0167 133.727 5.76069 133.044C3.55022 126.83 6.33204 119.674 12.6294 117.181L12.6325 117.184Z" fill="#053038"/>
<path d="M78.8653 201.631C77.7414 198.771 77.0014 197.04 77.0014 197.04C76.7267 195.639 76.3052 194.304 75.7588 193.05C72.2339 184.93 63.417 180.057 54.3629 181.829L38.1091 185.008C27.65 187.054 20.8344 197.18 22.8825 207.627C22.8825 207.627 22.8825 208.728 22.9293 210.619C22.9793 213.033 23.101 216.749 23.3695 221.119C24.2375 235.416 26.7008 256.725 33.6507 262.543C44.2128 271.399 80.0705 263.385 87.7634 251.956C94.0139 242.662 83.3737 213.077 78.8684 201.625L78.8653 201.631Z" fill="#E1EFFC"/>
<path d="M325.455 282.348C325.761 282.479 326.063 282.616 326.372 282.75C326.947 282.984 327.521 283.221 328.093 283.461C327.215 283.09 326.335 282.722 325.458 282.351L325.455 282.348Z" fill="#2F333F"/>
<path d="M350.653 296.817C350.722 296.873 350.79 296.929 350.862 296.985C351.093 297.16 351.324 297.338 351.558 297.513C352.508 298.221 349.026 295.519 350.653 296.817Z" fill="#2F333F"/>
<path d="M257.218 449.896C316.643 449.896 364.816 425.849 364.816 396.184C364.816 366.52 316.643 342.473 257.218 342.473C197.793 342.473 149.62 366.52 149.62 396.184C149.62 425.849 197.793 449.896 257.218 449.896Z" fill="#053038"/>
<path d="M364.815 271.98C331.002 230.169 187.659 233.968 149.616 271.98C129.047 292.531 149.616 388.241 149.616 388.241C149.616 389.211 149.681 390.162 149.806 391.101C149.731 391.401 149.697 391.704 149.697 392.003C149.697 392.867 149.987 393.712 150.555 394.549C155.214 401.424 178.511 407.214 210.697 410.099C224.775 411.36 240.554 412.071 257.22 412.071C273.886 412.071 289.665 411.363 303.739 410.099C335.907 407.214 359.198 401.43 363.878 394.561C364.443 393.725 364.736 392.87 364.736 392.006C364.736 391.704 364.699 391.404 364.627 391.105C364.752 390.169 364.815 389.217 364.815 388.244C364.815 388.244 383.098 294.59 364.815 271.983V271.98Z" fill="#E1EFFC"/>
<path d="M372.748 326.645C371.546 318.175 369.379 311.169 365.854 306.811C332.039 265.003 188.699 268.8 150.656 306.811C145.317 312.145 142.75 322.552 141.876 335.024C139.572 309.31 139.922 281.892 149.844 271.978C187.887 233.967 331.23 230.171 365.043 271.978C372.814 281.583 373.981 304.022 372.748 326.645Z" fill="#63BEDD"/>
<path d="M367.786 313.683C367.817 313.726 367.849 313.77 367.88 313.814C368.023 313.995 368.167 314.176 368.314 314.357C369.444 315.776 366.637 312.123 367.789 313.683H367.786Z" fill="#2F333F"/>
<path d="M401.868 287.801C401.868 287.801 401.89 287.792 401.899 287.789C401.89 287.795 401.884 287.798 401.878 287.798C401.856 287.808 401.837 287.817 401.822 287.823C401.828 287.817 401.834 287.814 401.84 287.814C401.85 287.814 401.859 287.805 401.865 287.805L401.868 287.801Z" fill="#2F333F"/>
<path d="M210.813 229.939V258.729C210.813 262.336 233.311 265.262 261.061 265.262C288.81 265.262 311.308 262.339 311.308 258.729V229.939H210.81H210.813Z" fill="#1F222B"/>
<path d="M77.7542 197.987C78.2553 201.019 78.5031 201.633 78.5031 201.633C78.9851 202.976 79.6604 203.989 79.834 205.346C63.5075 214.921 41.8258 222.22 23.001 220.476C23.001 222.929 23.001 206.573 23.001 206.573C42.9301 209.954 60.7089 208.739 77.7542 197.987Z" fill="#F7A70D"/>
<path d="M515.182 236.298C515.119 238.634 515.001 241.757 514.782 245.307C513.021 244.527 511.217 243.866 509.518 243.226C503.468 240.952 497.326 238.918 491.116 237.131C480.161 233.974 468.984 231.559 457.691 229.974C459.161 226.031 460.37 223.093 460.879 221.873C472.565 223.617 484.117 226.119 495.453 229.497C502.109 231.475 508.747 233.68 515.179 236.301L515.182 236.298Z" fill="#F7A70D"/>
<path d="M300.89 379.362C320.239 360.028 320.239 328.682 300.89 309.349C281.54 290.015 250.168 290.015 230.818 309.349C211.468 328.683 211.468 360.028 230.818 379.362C250.168 398.696 281.54 398.696 300.89 379.362Z" fill="#C7D6E2" fill-opacity="0.1"/>
<path d="M294.992 375.596C314.342 356.263 314.342 324.917 294.992 305.583C275.643 286.25 244.27 286.25 224.921 305.583C205.571 324.917 205.571 356.263 224.921 375.596C244.27 394.93 275.643 394.93 294.992 375.596Z" fill="#63BEDD" fill-opacity="0.1"/>
<path d="M259.958 384.209C284.067 384.209 303.611 364.681 303.611 340.592C303.611 316.503 284.067 296.975 259.958 296.975C235.849 296.975 216.304 316.503 216.304 340.592C216.304 364.681 235.849 384.209 259.958 384.209Z" fill="white"/>
<path d="M261.8 384.21C284.89 384.21 303.608 365.095 303.608 341.516C303.608 317.937 284.89 298.822 261.8 298.822C238.71 298.822 219.992 317.937 219.992 341.516C219.992 365.095 238.71 384.21 261.8 384.21Z" fill="white"/>
<g clip-path="url(#clip1_1276_9)">
<path d="M261.485 300.207V313.127L284.989 326.543V355.197L261.485 369.099V381.981L296.126 362.199V319.662L261.485 300.207Z" fill="#008339"/>
<path d="M257.951 300.207L223.347 319.662V362.199L257.951 381.981V369.099L234.446 355.197V326.543L257.951 313.127V300.207Z" fill="#52AE32"/>
<path d="M239.642 334.271H243.186L246.684 343.546H246.721L250.274 334.271H253.604L247.784 348.426H245.284L239.642 334.271Z" fill="#008339"/>
<path d="M258.193 340.135H260.031C261.169 340.135 262.642 340.098 262.642 338.555C262.642 337.134 261.365 336.919 260.227 336.919H258.193V340.135ZM255.078 334.273H260.544C263.435 334.273 265.87 335.274 265.87 338.574C265.87 340.556 264.816 342.098 262.82 342.454L266.411 348.437H262.68L259.723 342.781H258.184V348.437H255.069V334.273H255.078Z" fill="#008339"/>
<path d="M271.12 340.135H272.957C274.095 340.135 275.569 340.098 275.569 338.555C275.569 337.134 274.291 336.919 273.153 336.919H271.12V340.135ZM268.004 334.273H273.47C276.361 334.273 278.796 335.274 278.796 338.574C278.796 340.556 277.742 342.098 275.746 342.454L279.337 348.437H275.606L272.649 342.781H271.11V348.437H267.995V334.273H268.004Z" fill="#008339"/>
</g>
<path d="M255.74 87.9112V31.9751C248.512 30.3623 243.126 24.1139 243.126 16.6489C243.126 7.95793 250.423 0.914062 259.421 0.914062C268.419 0.914062 275.718 7.95793 275.718 16.6489C275.718 24.117 270.33 30.3654 263.105 31.9751V87.9112" fill="#D1D2D3"/>
<path d="M279.352 20.7472C279.352 31.7029 270.463 40.5842 259.498 40.5842C248.533 40.5842 239.645 31.7029 239.645 20.7472C239.645 9.79142 248.533 0.910156 259.498 0.910156C270.463 0.910156 279.352 9.79142 279.352 20.7472Z" fill="#42454C"/>
<path d="M239.645 20.7471C239.645 31.7059 248.533 40.581 259.495 40.581C268.527 40.581 276.148 34.5572 278.552 26.3029C274.931 31.1226 269.164 34.2421 262.667 34.2421C251.705 34.2421 242.817 25.364 242.817 14.4082C242.817 12.4835 243.091 10.6149 243.607 8.85547C241.118 12.1684 239.645 16.2862 239.645 20.7502V20.7471Z" fill="#053038"/>
<path d="M260.754 5.32545C266.258 5.58125 271.687 8.29211 273.111 13.9946C273.854 16.9644 269.264 18.2309 268.521 15.258C267.625 11.6643 264.172 10.2387 260.754 10.0796C257.703 9.93921 257.688 5.18195 260.754 5.32545Z" fill="white"/>
<path d="M280.466 68.6602H240.031V89.642H280.466V68.6602Z" fill="#053038"/>
<path d="M276.656 56.7969H243.836V73.8294H276.656V56.7969Z" fill="#053038"/>
<path d="M274.094 52.7227H246.401V67.0943H274.094V52.7227Z" fill="#053038"/>
<path d="M407.13 183.752C408.341 183.35 409.553 182.779 410.705 182.074C408.257 197.388 401.573 208.384 393.705 208.384C385.837 208.384 379.112 197.322 376.683 181.934C386.177 187.037 397.298 188.313 407.127 183.755L407.13 183.752Z" fill="#F34137"/>
<path d="M375.862 164.099C377.011 144.864 384.557 130.006 393.705 130.006C400.53 130.006 406.468 138.276 409.519 150.464C406.478 153.171 402.956 155.352 399.715 156.971C392.747 160.452 384.202 164.193 375.862 164.099Z" fill="#FEBB38"/>
<path d="M399.715 156.97C402.956 155.351 406.478 153.171 409.519 150.463C410.911 156.028 411.704 162.408 411.704 169.192C411.704 173.706 411.348 178.036 410.705 182.073C409.553 182.781 408.341 183.349 407.13 183.751C397.302 188.312 386.181 187.036 376.686 181.929C376.056 177.933 375.709 173.653 375.709 169.192C375.709 167.464 375.765 165.767 375.865 164.098C384.204 164.192 392.75 160.452 399.718 156.97H399.715Z" fill="#F7A70D"/>
<path d="M374.448 208.385H393.708V130.007H374.448V208.385Z" fill="#364667"/>
<path d="M112.981 183.752C111.769 183.35 110.558 182.779 109.406 182.074C111.854 197.388 118.538 208.384 126.406 208.384C134.273 208.384 140.999 197.322 143.428 181.934C133.933 187.037 122.812 188.313 112.984 183.755L112.981 183.752Z" fill="#F34137"/>
<path d="M144.244 164.099C143.095 144.864 135.549 130.006 126.401 130.006C119.577 130.006 113.638 138.276 110.588 150.464C113.629 153.171 117.151 155.352 120.391 156.971C127.36 160.452 135.905 164.193 144.244 164.099Z" fill="#FEBB38"/>
<path d="M120.395 156.97C117.154 155.351 113.633 153.171 110.592 150.463C109.199 156.028 108.406 162.408 108.406 169.192C108.406 173.706 108.762 178.036 109.405 182.073C110.557 182.781 111.769 183.349 112.98 183.751C122.809 188.312 133.93 187.036 143.424 181.929C144.055 177.933 144.401 173.653 144.401 169.192C144.401 167.464 144.345 165.767 144.245 164.098C135.906 164.192 127.361 160.452 120.392 156.97H120.395Z" fill="#F7A70D"/>
<path d="M145.664 130.002H126.403V208.38H145.664V130.002Z" fill="#364667"/>
<path d="M133.718 140.215V238.33C133.718 242.092 136.796 245.168 140.561 245.168H378.877C382.642 245.168 385.72 242.092 385.72 238.33V140.215H133.718Z" fill="#63BEDD"/>
<path d="M134.398 123.274V227.36C134.398 231.122 137.476 234.198 141.242 234.198H379.557C383.322 234.198 386.4 231.122 386.4 227.36V123.274C386.4 102.573 369.606 85.793 348.888 85.793H171.91C151.192 85.793 134.398 102.573 134.398 123.274Z" fill="#E1EFFC"/>
<path d="M358.674 109.43H162.121C160.051 109.43 158.374 111.106 158.374 113.173V190.247C158.374 192.314 160.051 193.99 162.121 193.99H358.674C360.743 193.99 362.421 192.314 362.421 190.247V113.173C362.421 111.106 360.743 109.43 358.674 109.43Z" fill="#52AE32"/>
<path d="M239.83 213.825C242.852 215.553 246.252 216.81 249.577 217.805C256.811 219.973 264.407 220.519 271.853 219.25C276.786 218.407 281.604 216.473 285.837 213.825C288.426 212.206 289.677 208.543 287.932 205.839C286.259 203.246 282.712 202.014 279.94 203.746C278.363 204.731 276.721 205.595 275.013 206.335C275.478 206.138 275.943 205.942 276.408 205.745C273.564 206.94 270.595 207.748 267.542 208.178C268.06 208.11 268.578 208.038 269.093 207.969C265.515 208.44 261.909 208.394 258.338 207.916C258.856 207.985 259.374 208.057 259.889 208.125C255.687 207.539 251.572 206.391 247.663 204.75C248.128 204.947 248.593 205.143 249.059 205.34C247.928 204.859 246.792 204.357 245.724 203.749C243.07 202.233 239.215 203.037 237.732 205.842C236.264 208.618 236.995 212.209 239.826 213.828L239.83 213.825Z" fill="#364667"/>
<path d="M321.987 178.962C337.711 178.962 350.457 166.226 350.457 150.515C350.457 134.804 337.711 122.068 321.987 122.068C306.263 122.068 293.516 134.804 293.516 150.515C293.516 166.226 306.263 178.962 321.987 178.962Z" fill="white"/>
<path d="M343.207 154.109C345.138 142.481 337.269 131.492 325.632 129.563C313.995 127.634 302.997 135.496 301.066 147.123C299.135 158.75 307.004 169.74 318.641 171.669C330.278 173.598 341.276 165.736 343.207 154.109Z" fill="#005180"/>
<path d="M335.74 157.518C342.601 157.518 348.163 151.961 348.163 145.106C348.163 138.251 342.601 132.693 335.74 132.693C328.879 132.693 323.317 138.251 323.317 145.106C323.317 151.961 328.879 157.518 335.74 157.518Z" fill="white"/>
<path d="M203.749 178.962C219.473 178.962 232.22 166.226 232.22 150.515C232.22 134.804 219.473 122.068 203.749 122.068C188.026 122.068 175.279 134.804 175.279 150.515C175.279 166.226 188.026 178.962 203.749 178.962Z" fill="white"/>
<path d="M225.002 153.93C226.833 142.287 218.871 131.365 207.218 129.535C195.565 127.706 184.634 135.662 182.803 147.305C180.972 158.948 188.934 169.87 200.587 171.699C212.24 173.529 223.171 165.573 225.002 153.93Z" fill="#005180"/>
<path d="M217.503 157.518C224.364 157.518 229.926 151.961 229.926 145.106C229.926 138.251 224.364 132.693 217.503 132.693C210.642 132.693 205.08 138.251 205.08 145.106C205.08 151.961 210.642 157.518 217.503 157.518Z" fill="white"/>
</g>
<defs>
<radialGradient id="paint0_radial_1276_9" cx="0" cy="0" r="1" gradientUnits="userSpaceOnUse" gradientTransform="translate(278.032 303.382) rotate(90) scale(303.382 278.032)">
<stop offset="0.225" stop-color="white"/>
<stop offset="0.81" stop-color="white" stop-opacity="0.535484"/>
<stop offset="1" stop-color="white" stop-opacity="0"/>
</radialGradient>
<clipPath id="clip0_1276_9">
<rect width="556.065" height="606.765" fill="white" transform="translate(0.103516 0.910156)"/>
</clipPath>
<clipPath id="clip1_1276_9">
<rect width="72.7791" height="81.7742" fill="white" transform="translate(223.347 300.207)"/>
</clipPath>
</defs>
</svg>
