<svg width="557" height="607" viewBox="0 0 557 607" fill="none" xmlns="http://www.w3.org/2000/svg">
<g clip-path="url(#clip0_2903_541)">
<rect width="556.065" height="606.765" fill="url(#paint0_radial_2903_541)"/>
<path d="M230.529 398.564H181.646V580.931H230.529V398.564Z" fill="#053038"/>
<path d="M222.41 454.536C211.121 455.665 199.737 455.166 188.61 452.926C185.248 452.249 183.808 457.403 187.186 458.083C198.782 460.413 210.637 461.059 222.41 459.883C223.85 459.739 225.086 458.757 225.086 457.209C225.086 455.874 223.856 454.389 222.41 454.536Z" fill="#66686D"/>
<path d="M223.325 474.132C212.036 475.261 200.652 474.762 189.525 472.522C186.163 471.845 184.723 476.999 188.101 477.679C199.697 480.009 211.552 480.655 223.325 479.479C224.765 479.335 226.001 478.352 226.001 476.805C226.001 475.47 224.771 473.985 223.325 474.132Z" fill="#66686D"/>
<path d="M227.648 595.653C227.623 595.606 227.601 595.557 227.579 595.51H143.981C143.385 597.556 142.938 599.649 142.66 601.768C142.51 602.912 142.489 604.272 143.394 604.99C143.953 605.43 144.712 605.492 145.42 605.533C174.159 607.217 202.995 607.167 231.731 605.42C230.614 602.058 229.243 598.791 227.648 595.653Z" fill="#2F333F"/>
<path d="M175.726 559.753C175.654 560.477 175.52 561.188 175.242 561.862C173.944 565.056 170.325 566.485 167.209 567.97C156.029 573.295 147.437 583.652 143.98 595.509H219.552V583.143C208.718 569.748 193.163 560.639 175.726 559.75V559.753Z" fill="#E1EFFC"/>
<path d="M219.55 583.146V595.512H227.577C225.326 591.104 222.629 586.952 219.55 583.146Z" fill="#E1EFFC"/>
<path d="M243.792 595.512C243.08 583.062 242.14 570.627 240.976 558.212C240.695 555.236 240.373 552.263 240.067 549.29C238.459 533.627 236.489 518.004 234.169 502.432C229.758 498.891 224.797 496.065 219.555 493.99V570.858C225.983 577.809 231.334 586.368 235.556 595.509H243.795L243.792 595.512Z" fill="#63BEDD"/>
<path d="M195.499 490.032C189.885 490.593 184.537 492.721 179.798 495.909C176.473 513.484 175.015 531.409 175.452 549.287C175.495 551.09 175.573 552.893 175.655 554.696C193.454 551.293 208.184 558.564 219.549 570.858V493.99C211.877 490.958 203.598 489.558 195.499 490.035V490.032Z" fill="#E1EFFC"/>
<path d="M243.792 595.512H235.553C236.936 598.506 238.2 601.567 239.337 604.652C240.62 604.296 241.781 603.704 242.606 602.665C244.011 600.896 243.958 598.416 243.829 596.161C243.817 595.945 243.805 595.727 243.792 595.512Z" fill="#2F333F"/>
<path d="M175.659 554.699C175.687 555.301 175.693 555.906 175.727 556.508C175.759 557.073 175.787 557.643 175.793 558.211C175.799 558.729 175.777 559.244 175.73 559.755C198.172 560.897 217.492 575.659 227.645 595.655H235.619C223.946 570.284 203.577 549.364 175.659 554.699Z" fill="#F7A70D"/>
<path d="M227.641 595.653C229.236 598.792 230.61 602.055 231.727 605.421C232.989 605.343 234.253 605.283 235.518 605.199C236.779 605.115 238.112 604.987 239.333 604.647C238.212 601.612 236.973 598.601 235.615 595.65H227.641V595.653Z" fill="#2F333F"/>
<path d="M278.479 580.932H327.362V398.565H278.479V580.932Z" fill="#053038"/>
<path d="M286.597 454.536C297.886 455.665 309.269 455.166 320.397 452.926C323.759 452.249 325.199 457.403 321.82 458.083C310.225 460.413 298.37 461.059 286.597 459.883C285.157 459.739 283.921 458.757 283.921 457.209C283.921 455.874 285.151 454.389 286.597 454.536Z" fill="#66686D"/>
<path d="M285.684 474.132C296.974 475.261 308.357 474.762 319.485 472.522C322.847 471.845 324.286 476.999 320.908 477.679C309.313 480.009 297.458 480.655 285.684 479.479C284.245 479.335 283.009 478.352 283.009 476.805C283.009 475.47 284.239 473.985 285.684 474.132Z" fill="#66686D"/>
<path d="M366.348 601.769C366.07 599.651 365.624 597.558 365.027 595.512H281.429C281.404 595.559 281.382 595.608 281.361 595.655C279.768 598.793 278.395 602.06 277.277 605.422C306.01 607.166 334.849 607.216 363.588 605.535C364.297 605.494 365.055 605.432 365.614 604.992C366.52 604.274 366.498 602.914 366.348 601.769Z" fill="#2F333F"/>
<path d="M333.281 559.753C333.353 560.477 333.487 561.188 333.765 561.862C335.064 565.056 338.682 566.485 341.798 567.97C352.978 573.295 361.57 583.652 365.027 595.509H289.456V583.143C300.289 569.748 315.844 560.639 333.281 559.75V559.753Z" fill="#E1EFFC"/>
<path d="M289.457 583.146V595.512H281.43C283.681 591.104 286.378 586.952 289.457 583.146Z" fill="#E1EFFC"/>
<path d="M265.216 595.512C265.927 583.062 266.867 570.627 268.032 558.212C268.313 555.236 268.634 552.263 268.94 549.29C270.548 533.627 272.518 518.004 274.838 502.432C279.249 498.891 284.211 496.065 289.453 493.99V570.858C283.024 577.809 277.673 586.368 273.452 595.509H265.212L265.216 595.512Z" fill="#63BEDD"/>
<path d="M313.508 490.032C319.122 490.593 324.47 492.721 329.209 495.909C332.534 513.484 333.993 531.409 333.555 549.287C333.512 551.09 333.434 552.893 333.352 554.696C315.553 551.293 300.823 558.564 289.458 570.858V493.99C297.13 490.958 305.409 489.558 313.508 490.035V490.032Z" fill="#E1EFFC"/>
<path d="M271.997 595.653H273.393C273.415 595.606 273.436 595.557 273.458 595.51H265.219C265.206 595.725 265.194 595.943 265.181 596.159C265.053 598.414 265 600.894 266.405 602.663C267.23 603.699 268.391 604.291 269.674 604.65C270.795 601.615 272.038 598.604 273.396 595.653H272H271.997Z" fill="#2F333F"/>
<path d="M333.353 554.7C305.435 549.362 285.066 570.282 273.393 595.656H281.367C291.52 575.66 310.839 560.898 333.281 559.756C333.231 559.248 333.209 558.73 333.219 558.212C333.225 557.644 333.253 557.073 333.284 556.509C333.316 555.907 333.325 555.302 333.353 554.7Z" fill="#F7A70D"/>
<path d="M269.672 604.648C270.896 604.988 272.229 605.116 273.487 605.2C274.748 605.284 276.013 605.344 277.277 605.422C278.395 602.056 279.772 598.793 281.364 595.654H273.39C272.032 598.605 270.793 601.616 269.672 604.651V604.648Z" fill="#2F333F"/>
<path d="M484.858 266.636C479.62 258.177 468.674 254.451 459.715 259.56C453.71 262.985 447.514 266.031 441.146 268.704C429.362 273.213 417.124 276.402 404.634 278.215C400.858 278.64 397.071 278.95 393.272 279.127C388.489 279.352 383.865 280.946 380.373 284.345C377.088 287.539 374.586 292.889 374.783 297.55C375.192 307.139 382.907 316.529 393.228 316.045C422.872 314.653 452.002 306.479 477.799 291.764C486.188 286.978 490.133 275.155 484.858 266.636Z" fill="#053038"/>
<path d="M390.971 267.584C388.91 267.131 386.768 266.885 384.57 266.885C368.186 266.885 354.901 280.158 354.901 296.53C354.901 312.901 368.186 326.174 384.57 326.174C389.497 326.174 394.137 324.967 398.227 322.846C399.969 304.051 398.517 284.872 390.971 267.584Z" fill="#F34137"/>
<path d="M414.24 296.53C414.24 282.355 404.277 270.51 390.971 267.584C398.517 284.872 399.969 304.051 398.227 322.846C407.74 317.908 414.24 307.982 414.24 296.53Z" fill="#F7A70D"/>
<path d="M514.92 144.546L493.905 142.742L492.492 159.175L513.508 160.978L514.92 144.546Z" fill="#053038"/>
<path d="M515.433 121.921C509.071 120.96 502.269 125.604 501.513 132.186C501.45 132.716 501.4 133.247 501.364 133.771C501.359 133.791 501.357 133.808 501.358 133.827C500.757 141.41 502.033 148.655 503.246 156.072C503.453 157.311 503.653 158.552 503.842 159.809C504.16 161.906 504.42 164.013 504.532 166.13L492.409 168.499C491.192 165.704 491.298 165.843 490.928 163.357C490.656 161.547 490.488 159.726 490.377 157.904C489.946 150.585 490.523 143.202 489.296 135.935C489.236 135.591 489.165 135.242 489.077 134.904L489.075 134.895C487.586 128.906 482.254 124.418 475.793 125.135C469.504 125.838 463.876 132.093 464.979 138.633C466.812 149.531 465.189 160.534 467.678 171.292L467.72 171.475C467.84 171.991 467.975 172.508 468.118 173.013C468.304 173.693 468.509 174.372 468.737 175.05C470.777 181.18 474.497 186.522 479.959 189.824C479.957 189.888 479.95 189.954 479.949 190.018C479.888 192.622 479.685 195.205 479.342 197.779C479.029 199.238 478.679 200.689 478.279 202.133C475.698 211.433 480.581 222.634 490.425 225.236C499.852 227.726 510.791 223.024 513.55 213.09C515.488 206.11 516.693 198.796 516.858 191.547C516.878 190.704 516.835 189.856 516.742 189.01C523.737 183.689 528.222 175.579 528.895 166.746C528.895 166.746 528.9 166.738 528.899 166.735C528.898 166.578 528.902 166.417 528.901 166.261C528.906 163.304 528.61 160.388 528.191 157.485L528.19 157.479C527.833 155.026 527.385 152.574 526.953 150.125C526.475 147.409 526.007 144.683 525.739 141.931C525.62 140.767 525.568 139.601 525.501 138.435C525.499 138.275 525.495 138.132 525.498 138.007C525.539 137.273 525.608 136.546 525.704 135.823C526.456 129.271 522.133 122.926 515.436 121.917L515.433 121.921Z" fill="#053038"/>
<path d="M516.56 222.421C516.56 222.421 516.56 224.096 516.479 226.875C516.416 229.212 516.298 232.334 516.079 235.884C515.208 250.187 512.741 271.519 505.792 277.343C495.229 286.193 459.372 278.182 451.679 266.749C446.075 258.429 454.033 233.819 458.991 220.549C460.461 216.606 461.67 213.667 462.179 212.447C462.35 212.048 462.441 211.833 462.441 211.833C464.489 201.382 474.623 194.573 485.079 196.619L501.333 199.798C511.792 201.844 518.608 211.973 516.56 222.417V222.421Z" fill="#E1EFFC"/>
<path d="M40.1911 213.936C48.9892 209.291 60.3163 211.615 65.4584 220.556C68.9053 226.548 72.708 232.31 76.8479 237.838C84.7313 247.689 93.6731 256.633 103.53 264.516C106.571 266.793 109.68 268.977 112.868 271.051C116.88 273.666 120.061 277.381 121.354 282.079C122.571 286.496 122.022 292.376 119.493 296.298C114.288 304.362 102.883 308.557 94.2257 302.917C69.3611 286.718 48.371 264.928 33.5659 239.182C28.7516 230.81 31.3305 218.615 40.1911 213.936Z" fill="#053038"/>
<path d="M128.129 331.9C126.584 331.9 125.063 331.782 123.58 331.554C116.352 314.428 112.016 294.594 114.254 276.052C118.394 273.859 123.115 272.611 128.129 272.611C144.514 272.611 157.799 285.884 157.799 302.256C157.799 318.627 144.514 331.9 128.129 331.9Z" fill="#F34137"/>
<path d="M123.58 331.553C109.353 329.366 98.4595 317.081 98.4595 302.254C98.4595 290.89 104.86 281.026 114.254 276.05C112.016 294.59 116.352 314.427 123.58 331.553Z" fill="#F7A70D"/>
<path d="M29.5453 147.015L50.561 145.211L51.9739 161.643L30.9582 163.447L29.5453 147.015Z" fill="#053038"/>
<path d="M12.529 116.272C18.511 113.901 26.1852 116.893 28.405 123.135C28.5861 123.637 28.7547 124.143 28.9077 124.645C28.917 124.664 28.9233 124.679 28.9264 124.698C31.2211 131.951 31.6114 139.297 32.1016 146.797C32.1796 148.051 32.2639 149.305 32.3638 150.571C32.5262 152.686 32.7479 154.798 33.1163 156.885L45.4612 156.461C46.0169 153.463 45.9451 153.622 45.7453 151.117C45.6017 149.292 45.355 147.48 45.0522 145.68C43.8221 138.452 41.596 131.389 41.1526 124.034C41.1339 123.684 41.1245 123.329 41.1339 122.979V122.97C41.2338 116.799 45.4175 111.225 51.874 110.467C58.1589 109.734 65.0525 114.56 65.4522 121.179C66.1234 132.21 70.1853 142.564 70.1853 153.607V153.794C70.1853 154.324 70.1697 154.858 70.1447 155.382C70.1166 156.087 70.0698 156.795 70.0011 157.506C69.3954 163.939 66.9758 169.981 62.3987 174.429C62.4143 174.492 62.4362 174.554 62.4518 174.617C63.0981 177.14 63.8786 179.611 64.7934 182.041C65.4272 183.392 66.0953 184.727 66.8103 186.043C71.4217 194.522 69.1893 206.536 60.1851 211.29C51.5618 215.841 39.8445 213.726 34.9177 204.67C31.4553 198.306 28.6329 191.453 26.8377 184.427C26.6285 183.61 26.4786 182.774 26.3787 181.929C18.3642 178.323 12.1668 171.432 9.51925 162.978C9.51925 162.978 9.513 162.971 9.513 162.968C9.47866 162.815 9.43807 162.659 9.40373 162.507C8.73247 159.627 8.36406 156.72 8.11741 153.797V153.791C7.91135 151.32 7.79583 148.831 7.6647 146.348C7.51796 143.593 7.35873 140.832 6.99969 138.09C6.85295 136.93 6.64064 135.782 6.44395 134.631C6.40961 134.475 6.38151 134.334 6.35029 134.213C6.14423 133.508 5.91319 132.815 5.65717 132.132C3.44671 125.918 6.22852 118.762 12.5259 116.269L12.529 116.272Z" fill="#053038"/>
<path d="M78.7618 200.717C77.6378 197.857 76.8979 196.125 76.8979 196.125C76.6232 194.725 76.2017 193.39 75.6553 192.136C72.1304 184.016 63.3135 179.143 54.2594 180.915L38.0056 184.093C27.5464 186.14 20.7308 196.266 22.779 206.713C22.779 206.713 22.779 207.814 22.8258 209.705C22.8757 212.119 22.9975 215.835 23.266 220.205C24.134 234.502 26.5973 255.811 33.5472 261.629C44.1093 270.485 79.9669 262.471 87.6599 251.041C93.9104 241.748 83.2702 212.163 78.7649 200.711L78.7618 200.717Z" fill="#E1EFFC"/>
<path d="M325.351 281.436C325.657 281.567 325.96 281.704 326.269 281.838C326.843 282.072 327.418 282.309 327.989 282.549C327.112 282.178 326.232 281.81 325.354 281.439L325.351 281.436Z" fill="#2F333F"/>
<path d="M350.549 295.905C350.618 295.961 350.687 296.017 350.759 296.073C350.99 296.248 351.221 296.426 351.455 296.601C352.404 297.309 348.923 294.607 350.549 295.905Z" fill="#2F333F"/>
<path d="M257.114 448.984C316.539 448.984 364.712 424.937 364.712 395.272C364.712 365.608 316.539 341.561 257.114 341.561C197.689 341.561 149.516 365.608 149.516 395.272C149.516 424.937 197.689 448.984 257.114 448.984Z" fill="#053038"/>
<path d="M364.711 271.069C330.898 229.259 187.555 233.058 149.512 271.069C128.943 291.621 149.512 387.331 149.512 387.331C149.512 388.301 149.577 389.252 149.702 390.191C149.627 390.491 149.593 390.793 149.593 391.093C149.593 391.957 149.883 392.802 150.451 393.638C155.11 400.514 178.407 406.304 210.593 409.189C224.671 410.449 240.45 411.161 257.116 411.161C273.782 411.161 289.561 410.453 303.635 409.189C335.803 406.304 359.094 400.52 363.774 393.651C364.339 392.815 364.632 391.96 364.632 391.096C364.632 390.793 364.595 390.494 364.523 390.194C364.648 389.259 364.711 388.307 364.711 387.334C364.711 387.334 382.994 293.68 364.711 271.073V271.069Z" fill="#E1EFFC"/>
<path d="M372.644 325.733C371.442 317.263 369.275 310.257 365.75 305.899C331.935 264.091 188.595 267.887 150.552 305.899C145.213 311.233 142.646 321.64 141.772 334.112C139.468 308.398 139.818 280.98 149.74 271.066C187.783 233.055 331.126 229.258 364.939 271.066C372.71 280.671 373.877 303.11 372.644 325.733Z" fill="#63BEDD"/>
<path d="M367.683 312.771C367.714 312.814 367.745 312.858 367.776 312.902C367.92 313.083 368.064 313.264 368.21 313.444C369.341 314.864 366.534 311.211 367.686 312.771H367.683Z" fill="#2F333F"/>
<path d="M401.765 286.889C401.765 286.889 401.786 286.88 401.796 286.877C401.786 286.883 401.78 286.886 401.774 286.886C401.752 286.896 401.734 286.905 401.718 286.911C401.724 286.905 401.731 286.902 401.737 286.902C401.746 286.902 401.755 286.892 401.762 286.892L401.765 286.889Z" fill="#2F333F"/>
<path d="M210.71 229.027V257.817C210.71 261.424 233.208 264.35 260.957 264.35C288.707 264.35 311.205 261.427 311.205 257.817V229.027H210.707H210.71Z" fill="#1F222B"/>
<path d="M77.6507 197.074C78.1518 200.107 78.3996 200.721 78.3996 200.721C78.8815 202.064 79.5569 203.077 79.7305 204.434C63.404 214.009 41.7223 221.308 22.8974 219.564C22.8974 222.017 22.8975 205.661 22.8975 205.661C42.8266 209.042 60.6054 207.827 77.6507 197.074Z" fill="#F7A70D"/>
<path d="M515.078 235.386C515.016 237.722 514.897 240.845 514.679 244.395C512.918 243.615 511.113 242.954 509.415 242.314C503.364 240.04 497.223 238.006 491.013 236.218C480.057 233.062 468.88 230.647 457.587 229.062C459.058 225.119 460.266 222.181 460.775 220.961C472.461 222.705 484.013 225.207 495.35 228.585C502.006 230.563 508.644 232.768 515.075 235.389L515.078 235.386Z" fill="#F7A70D"/>
<path d="M255.636 86.9991V31.063C248.409 29.4502 243.023 23.2018 243.023 15.7368C243.023 7.04582 250.319 0.00195312 259.317 0.00195312C268.315 0.00195312 275.615 7.04582 275.615 15.7368C275.615 23.2049 270.226 29.4533 263.001 31.063V86.9991" fill="#D1D2D3"/>
<path d="M279.248 19.837C279.248 30.7928 270.36 39.674 259.395 39.674C248.43 39.674 239.541 30.7928 239.541 19.837C239.541 8.88127 248.43 0 259.395 0C270.36 0 279.248 8.88127 279.248 19.837Z" fill="#42454C"/>
<path d="M239.541 19.8369C239.541 30.7958 248.43 39.6708 259.392 39.6708C268.424 39.6708 276.045 33.647 278.449 25.3928C274.827 30.2124 269.061 33.3319 262.564 33.3319C251.602 33.3319 242.713 24.4538 242.713 13.4981C242.713 11.5733 242.988 9.70472 243.503 7.94531C241.015 11.2582 239.541 15.376 239.541 19.84V19.8369Z" fill="#053038"/>
<path d="M260.65 4.41529C266.154 4.67109 271.584 7.38195 273.007 13.0844C273.75 16.0542 269.161 17.3207 268.418 14.3478C267.522 10.7542 264.069 9.32853 260.65 9.16944C257.6 9.02906 257.584 4.27179 260.65 4.41529Z" fill="white"/>
<path d="M280.362 67.75H239.928V88.7319H280.362V67.75Z" fill="#053038"/>
<path d="M276.553 55.8867H243.733V72.9193H276.553V55.8867Z" fill="#053038"/>
<path d="M273.991 51.8125H246.297V66.1841H273.991V51.8125Z" fill="#053038"/>
<path d="M407.027 182.842C408.238 182.44 409.449 181.869 410.601 181.164C408.154 196.478 401.469 207.474 393.601 207.474C385.734 207.474 379.009 196.412 376.58 181.023C386.074 186.127 397.195 187.403 407.023 182.845L407.027 182.842Z" fill="#F34137"/>
<path d="M375.759 163.187C376.908 143.952 384.454 129.094 393.602 129.094C400.427 129.094 406.365 137.364 409.415 149.552C406.374 152.259 402.853 154.44 399.612 156.059C392.643 159.54 384.098 163.281 375.759 163.187Z" fill="#FEBB38"/>
<path d="M399.612 156.06C402.852 154.441 406.374 152.26 409.415 149.553C410.807 155.118 411.6 161.497 411.6 168.282C411.6 172.796 411.245 177.126 410.601 181.163C409.449 181.871 408.238 182.439 407.027 182.841C397.198 187.402 386.077 186.126 376.583 181.019C375.952 177.023 375.605 172.743 375.605 168.282C375.605 166.554 375.662 164.857 375.762 163.188C384.101 163.282 392.646 159.541 399.615 156.06H399.612Z" fill="#F7A70D"/>
<path d="M374.345 207.473H393.605V129.095H374.345V207.473Z" fill="#364667"/>
<path d="M112.877 182.842C111.666 182.44 110.454 181.869 109.302 181.164C111.75 196.478 118.434 207.474 126.302 207.474C134.17 207.474 140.895 196.412 143.324 181.023C133.83 186.127 122.709 187.403 112.88 182.845L112.877 182.842Z" fill="#F34137"/>
<path d="M144.141 163.187C142.992 143.952 135.446 129.094 126.298 129.094C119.473 129.094 113.535 137.364 110.484 149.552C113.525 152.259 117.047 154.44 120.288 156.059C127.256 159.54 135.802 163.281 144.141 163.187Z" fill="#FEBB38"/>
<path d="M120.292 156.06C117.051 154.441 113.529 152.26 110.488 149.553C109.096 155.118 108.303 161.497 108.303 168.282C108.303 172.796 108.659 177.126 109.302 181.163C110.454 181.871 111.665 182.439 112.877 182.841C122.705 187.402 133.826 186.126 143.321 181.019C143.951 177.023 144.298 172.743 144.298 168.282C144.298 166.554 144.242 164.857 144.142 163.188C135.802 163.282 127.257 159.541 120.289 156.06H120.292Z" fill="#F7A70D"/>
<path d="M145.56 129.092H126.3V207.47H145.56V129.092Z" fill="#364667"/>
<path d="M133.614 139.305V237.42C133.614 241.182 136.693 244.258 140.458 244.258H378.773C382.538 244.258 385.617 241.182 385.617 237.42V139.305H133.614Z" fill="#63BEDD"/>
<path d="M134.294 122.364V226.45C134.294 230.212 137.373 233.288 141.138 233.288H379.453C383.218 233.288 386.297 230.212 386.297 226.45V122.364C386.297 101.663 369.503 84.8828 348.785 84.8828H171.807C151.088 84.8828 134.294 101.663 134.294 122.364Z" fill="#E1EFFC"/>
<path d="M358.571 108.52H162.017C159.948 108.52 158.271 110.196 158.271 112.263V189.337C158.271 191.404 159.948 193.08 162.017 193.08H358.571C360.64 193.08 362.317 191.404 362.317 189.337V112.263C362.317 110.196 360.64 108.52 358.571 108.52Z" fill="#52AE32"/>
<path d="M239.726 212.915C242.748 214.643 246.148 215.9 249.473 216.895C256.707 219.063 264.303 219.609 271.75 218.339C276.683 217.497 281.5 215.563 285.734 212.915C288.322 211.296 289.574 207.633 287.829 204.929C286.155 202.336 282.609 201.104 279.836 202.835C278.259 203.821 276.617 204.685 274.909 205.425C275.375 205.228 275.84 205.032 276.305 204.835C273.461 206.03 270.492 206.838 267.438 207.268C267.956 207.2 268.475 207.128 268.99 207.059C265.412 207.53 261.806 207.484 258.234 207.006C258.752 207.075 259.271 207.147 259.786 207.215C255.583 206.629 251.468 205.481 247.56 203.84C248.025 204.036 248.49 204.233 248.955 204.43C247.825 203.949 246.688 203.447 245.621 202.839C242.967 201.322 239.111 202.127 237.628 204.932C236.161 207.708 236.891 211.299 239.723 212.918L239.726 212.915Z" fill="#364667"/>
<path d="M321.883 178.052C337.607 178.052 350.354 165.316 350.354 149.605C350.354 133.894 337.607 121.158 321.883 121.158C306.159 121.158 293.413 133.894 293.413 149.605C293.413 165.316 306.159 178.052 321.883 178.052Z" fill="white"/>
<path d="M343.103 153.198C345.034 141.571 337.166 130.582 325.529 128.653C313.892 126.724 302.893 134.586 300.963 146.213C299.032 157.84 306.9 168.829 318.537 170.758C330.174 172.687 341.173 164.826 343.103 153.198Z" fill="#005180"/>
<path d="M335.637 156.608C342.498 156.608 348.06 151.051 348.06 144.196C348.06 137.34 342.498 131.783 335.637 131.783C328.776 131.783 323.214 137.34 323.214 144.196C323.214 151.051 328.776 156.608 335.637 156.608Z" fill="white"/>
<path d="M203.646 178.052C219.37 178.052 232.117 165.316 232.117 149.605C232.117 133.894 219.37 121.158 203.646 121.158C187.922 121.158 175.175 133.894 175.175 149.605C175.175 165.316 187.922 178.052 203.646 178.052Z" fill="white"/>
<path d="M224.899 153.022C226.73 141.379 218.768 130.457 207.115 128.627C195.462 126.798 184.531 134.753 182.7 146.397C180.869 158.04 188.831 168.962 200.484 170.791C212.137 172.621 223.068 164.665 224.899 153.022Z" fill="#005180"/>
<path d="M217.4 156.608C224.261 156.608 229.822 151.051 229.822 144.196C229.822 137.34 224.261 131.783 217.4 131.783C210.539 131.783 204.977 137.34 204.977 144.196C204.977 151.051 210.539 156.608 217.4 156.608Z" fill="white"/>
</g>
<defs>
<radialGradient id="paint0_radial_2903_541" cx="0" cy="0" r="1" gradientUnits="userSpaceOnUse" gradientTransform="translate(278.032 303.382) rotate(90) scale(303.382 278.032)">
<stop offset="0.225" stop-color="white"/>
<stop offset="0.81" stop-color="white" stop-opacity="0.535484"/>
<stop offset="1" stop-color="white" stop-opacity="0"/>
</radialGradient>
<clipPath id="clip0_2903_541">
<rect width="556.065" height="606.765" fill="white"/>
</clipPath>
</defs>
</svg>
