<svg width="661" height="742" viewBox="0 0 661 742" fill="none" xmlns="http://www.w3.org/2000/svg">
<path d="M275.909 487.396H216.131V710.409H275.909V487.396Z" fill="#053038"/>
<path d="M265.981 555.842C252.176 557.223 238.255 556.613 224.648 553.874C220.536 553.046 218.776 559.348 222.907 560.179C237.087 563.029 251.584 563.819 265.981 562.381C267.741 562.205 269.253 561.003 269.253 559.111C269.253 557.479 267.749 555.663 265.981 555.842Z" fill="#66686D"/>
<path d="M267.1 579.807C253.295 581.188 239.374 580.577 225.767 577.838C221.655 577.011 219.895 583.313 224.026 584.144C238.206 586.994 252.703 587.784 267.1 586.345C268.861 586.17 270.372 584.968 270.372 583.076C270.372 581.443 268.868 579.628 267.1 579.807Z" fill="#66686D"/>
<path d="M272.385 728.412C272.354 728.355 272.328 728.294 272.301 728.236H170.071C169.341 730.739 168.795 733.299 168.456 735.889C168.272 737.289 168.246 738.952 169.353 739.829C170.036 740.367 170.964 740.444 171.831 740.493C206.975 742.553 242.238 742.492 277.379 740.356C276.012 736.244 274.336 732.249 272.385 728.412Z" fill="#2F333F"/>
<path d="M208.892 684.512C208.804 685.397 208.64 686.266 208.3 687.09C206.711 690.997 202.286 692.744 198.476 694.56C184.804 701.072 174.297 713.737 170.07 728.237H262.485V713.115C249.236 696.734 230.215 685.595 208.892 684.508V684.512Z" fill="#E1EFFC"/>
<path d="M262.484 713.119V728.241H272.3C269.548 722.851 266.249 717.773 262.484 713.119Z" fill="#E1EFFC"/>
<path d="M292.127 728.24C291.257 713.016 290.108 697.81 288.683 682.627C288.34 678.988 287.947 675.352 287.572 671.717C285.606 652.563 283.197 633.458 280.36 614.415C274.965 610.085 268.899 606.629 262.488 604.092V698.092C270.35 706.591 276.894 717.059 282.055 728.237H292.131L292.127 728.24Z" fill="#63BEDD"/>
<path d="M233.071 599.251C226.206 599.937 219.666 602.539 213.87 606.438C209.804 627.93 208.021 649.85 208.555 671.713C208.609 673.918 208.704 676.123 208.804 678.327C230.57 674.166 248.583 683.058 262.481 698.092V604.092C253.1 600.384 242.975 598.671 233.071 599.254V599.251Z" fill="#E1EFFC"/>
<path d="M292.128 728.24H282.053C283.744 731.902 285.29 735.645 286.68 739.418C288.249 738.983 289.67 738.258 290.678 736.988C292.396 734.825 292.331 731.792 292.174 729.034C292.159 728.77 292.144 728.503 292.128 728.24Z" fill="#2F333F"/>
<path d="M208.809 678.331C208.843 679.067 208.851 679.807 208.893 680.543C208.931 681.234 208.965 681.932 208.973 682.626C208.98 683.259 208.954 683.889 208.896 684.514C236.34 685.911 259.966 703.962 272.382 728.415H282.133C267.858 697.389 242.949 671.807 208.809 678.331Z" fill="#F7A70D"/>
<path d="M272.377 728.412C274.328 732.25 276.008 736.24 277.375 740.356C278.917 740.261 280.463 740.188 282.01 740.085C283.552 739.982 285.182 739.826 286.675 739.41C285.305 735.698 283.789 732.017 282.128 728.408H272.377V728.412Z" fill="#2F333F"/>
<path d="M334.546 710.41H394.324V487.397H334.546V710.41Z" fill="#053038"/>
<path d="M344.473 555.842C358.279 557.223 372.199 556.613 385.807 553.874C389.919 553.046 391.679 559.348 387.548 560.179C373.368 563.029 358.871 563.819 344.473 562.381C342.713 562.205 341.201 561.003 341.201 559.111C341.201 557.479 342.705 555.663 344.473 555.842Z" fill="#66686D"/>
<path d="M343.358 579.807C357.164 581.188 371.084 580.577 384.691 577.838C388.803 577.011 390.563 583.313 386.432 584.144C372.252 586.994 357.756 587.784 343.358 586.345C341.598 586.17 340.086 584.968 340.086 583.076C340.086 581.443 341.59 579.628 343.358 579.807Z" fill="#66686D"/>
<path d="M441.999 735.893C441.66 733.302 441.114 730.743 440.384 728.24H338.154C338.124 728.297 338.097 728.358 338.07 728.416C336.123 732.253 334.443 736.247 333.076 740.36C368.213 742.492 403.48 742.553 438.624 740.497C439.491 740.448 440.419 740.371 441.102 739.833C442.209 738.956 442.183 737.293 441.999 735.893Z" fill="#2F333F"/>
<path d="M401.562 684.512C401.65 685.397 401.814 686.266 402.154 687.09C403.742 690.997 408.167 692.744 411.977 694.56C425.649 701.072 436.157 713.737 440.383 728.237H347.969V713.115C361.217 696.734 380.238 685.595 401.562 684.508V684.512Z" fill="#E1EFFC"/>
<path d="M347.97 713.119V728.241H338.154C340.907 722.851 344.206 717.773 347.97 713.119Z" fill="#E1EFFC"/>
<path d="M318.326 728.24C319.197 713.016 320.346 697.81 321.77 682.627C322.114 678.988 322.507 675.352 322.881 671.717C324.847 652.563 327.256 633.458 330.093 614.415C335.488 610.085 341.555 606.629 347.965 604.092V698.092C340.104 706.591 333.56 717.059 328.398 728.237H318.322L318.326 728.24Z" fill="#63BEDD"/>
<path d="M377.383 599.251C384.247 599.937 390.788 602.539 396.583 606.438C400.649 627.93 402.432 649.85 401.898 671.713C401.844 673.918 401.749 676.123 401.65 678.327C379.883 674.166 361.87 683.058 347.973 698.092V604.092C357.353 600.384 367.479 598.671 377.383 599.254V599.251Z" fill="#E1EFFC"/>
<path d="M326.619 728.412H328.326C328.353 728.355 328.38 728.294 328.406 728.236H318.331C318.315 728.5 318.3 728.767 318.285 729.03C318.128 731.788 318.063 734.821 319.781 736.984C320.789 738.25 322.21 738.975 323.779 739.414C325.15 735.702 326.669 732.021 328.33 728.412H326.623H326.619Z" fill="#2F333F"/>
<path d="M401.651 678.332C367.51 671.805 342.602 697.387 328.326 728.416H338.077C350.493 703.963 374.119 685.912 401.563 684.515C401.502 683.894 401.475 683.26 401.486 682.627C401.494 681.933 401.528 681.235 401.567 680.544C401.605 679.808 401.616 679.068 401.651 678.332Z" fill="#F7A70D"/>
<path d="M323.775 739.414C325.272 739.83 326.902 739.986 328.441 740.089C329.983 740.192 331.53 740.265 333.076 740.36C334.443 736.244 336.127 732.254 338.074 728.416H328.323C326.662 732.025 325.146 735.706 323.775 739.418V739.414Z" fill="#2F333F"/>
<path d="M586.923 326.067C580.517 315.724 567.131 311.167 556.175 317.415C548.832 321.603 541.255 325.328 533.468 328.597C519.057 334.11 504.092 338.011 488.818 340.227C484.201 340.747 479.57 341.127 474.924 341.342C469.075 341.617 463.42 343.568 459.15 347.723C455.132 351.629 452.073 358.172 452.314 363.872C452.815 375.598 462.248 387.081 474.87 386.489C511.121 384.787 546.743 374.791 578.29 356.796C588.548 350.943 593.374 336.485 586.923 326.067Z" fill="#053038"/>
<path d="M472.109 327.226C469.589 326.672 466.97 326.371 464.282 326.371C444.246 326.371 428 342.603 428 362.623C428 382.643 444.246 398.875 464.282 398.875C470.307 398.875 475.981 397.399 480.982 394.805C483.113 371.821 481.337 348.367 472.109 327.226Z" fill="#F34137"/>
<path d="M500.565 362.624C500.565 345.29 488.382 330.805 472.109 327.227C481.337 348.368 483.113 371.821 480.982 394.806C492.616 388.767 500.565 376.628 500.565 362.624Z" fill="#F7A70D"/>
<path d="M623.686 176.766L597.986 174.561L596.259 194.655L621.958 196.861L623.686 176.766Z" fill="#053038"/>
<path d="M624.312 149.099C616.532 147.924 608.214 153.604 607.29 161.653C607.213 162.301 607.151 162.95 607.107 163.59C607.101 163.615 607.098 163.635 607.099 163.658C606.365 172.932 607.925 181.792 609.409 190.862C609.662 192.378 609.907 193.895 610.137 195.431C610.527 197.996 610.845 200.573 610.981 203.161L596.157 206.059C594.668 202.641 594.797 202.81 594.345 199.771C594.013 197.557 593.807 195.33 593.672 193.102C593.145 184.151 593.85 175.123 592.35 166.237C592.276 165.816 592.189 165.39 592.082 164.976L592.079 164.965C590.259 157.641 583.738 152.153 575.836 153.03C568.146 153.889 561.264 161.539 562.613 169.536C564.854 182.863 562.869 196.318 565.913 209.475L565.965 209.698C566.111 210.329 566.277 210.961 566.451 211.578C566.679 212.41 566.93 213.241 567.208 214.07C569.703 221.566 574.251 228.098 580.931 232.136C580.93 232.215 580.921 232.295 580.919 232.374C580.845 235.559 580.596 238.717 580.176 241.865C579.794 243.649 579.366 245.424 578.877 247.189C575.72 258.562 581.692 272.259 593.73 275.441C605.259 278.486 618.636 272.736 622.009 260.589C624.379 252.052 625.853 243.109 626.055 234.244C626.079 233.213 626.027 232.175 625.913 231.141C634.467 224.635 639.951 214.716 640.774 203.914C640.774 203.914 640.78 203.905 640.779 203.901C640.778 203.71 640.783 203.513 640.782 203.321C640.788 199.706 640.425 196.14 639.913 192.59L639.912 192.583C639.476 189.582 638.927 186.585 638.399 183.59C637.815 180.268 637.243 176.935 636.915 173.569C636.77 172.146 636.706 170.72 636.623 169.294C636.621 169.099 636.616 168.924 636.62 168.77C636.671 167.873 636.755 166.985 636.872 166.1C637.792 158.087 632.505 150.328 624.315 149.095L624.312 149.099Z" fill="#053038"/>
<path d="M625.69 271.996C625.69 271.996 625.69 274.045 625.591 277.444C625.515 280.301 625.369 284.12 625.102 288.461C624.037 305.952 621.021 332.037 612.522 339.159C599.606 349.982 555.756 340.186 546.349 326.204C539.495 316.03 549.227 285.935 555.29 269.707C557.089 264.885 558.566 261.292 559.189 259.8C559.399 259.312 559.509 259.049 559.509 259.049C562.014 246.269 574.407 237.942 587.193 240.444L607.07 244.331C619.86 246.834 628.195 259.22 625.69 271.992V271.996Z" fill="#E1EFFC"/>
<path d="M43.1488 261.619C53.9079 255.939 67.7595 258.781 74.0478 269.714C78.2628 277.042 82.9131 284.088 87.9758 290.848C97.6162 302.895 108.551 313.832 120.604 323.472C124.323 326.257 128.126 328.927 132.024 331.464C136.93 334.661 140.82 339.204 142.401 344.949C143.89 350.351 143.218 357.542 140.126 362.337C133.761 372.198 119.814 377.329 109.227 370.432C78.8202 350.622 53.1519 323.976 35.0471 292.492C29.1597 282.253 32.3134 267.341 43.1488 261.619Z" fill="#053038"/>
<path d="M150.686 405.875C148.796 405.875 146.937 405.73 145.123 405.452C136.285 384.508 130.982 360.254 133.719 337.579C138.782 334.897 144.555 333.371 150.686 333.371C170.723 333.371 186.968 349.603 186.968 369.623C186.968 389.643 170.723 405.875 150.686 405.875Z" fill="#F34137"/>
<path d="M145.124 405.451C127.725 402.777 114.404 387.754 114.404 369.623C114.404 355.725 122.231 343.663 133.719 337.578C130.982 360.25 136.285 384.508 145.124 405.451Z" fill="#F7A70D"/>
<path d="M30.1304 179.782L55.8301 177.576L57.5578 197.671L31.8581 199.877L30.1304 179.782Z" fill="#053038"/>
<path d="M9.32167 142.189C16.6369 139.29 26.0215 142.948 28.7361 150.582C28.9576 151.196 29.1637 151.814 29.3508 152.428C29.3623 152.451 29.3699 152.47 29.3737 152.493C32.1799 161.362 32.6572 170.346 33.2566 179.517C33.3521 181.05 33.4551 182.584 33.5773 184.133C33.7759 186.719 34.0469 189.302 34.4974 191.854L49.5938 191.335C50.2734 187.669 50.1855 187.864 49.9412 184.8C49.7656 182.569 49.4639 180.352 49.0936 178.151C47.5893 169.312 44.8671 160.676 44.3249 151.68C44.302 151.253 44.2906 150.818 44.302 150.391V150.38C44.4242 142.834 49.5403 136.017 57.4359 135.09C65.1215 134.193 73.5516 140.095 74.0403 148.19C74.8612 161.679 79.8284 174.34 79.8284 187.845V188.074C79.8284 188.722 79.8093 189.374 79.7787 190.015C79.7444 190.877 79.6871 191.743 79.6031 192.613C78.8624 200.479 75.9035 207.869 70.3063 213.308C70.3254 213.385 70.3521 213.461 70.3712 213.537C71.1615 216.623 72.116 219.645 73.2347 222.616C74.0098 224.268 74.8268 225.901 75.7011 227.511C81.3403 237.879 78.6104 252.57 67.5994 258.384C57.0541 263.95 42.7252 261.363 36.7004 250.289C32.4663 242.507 29.0148 234.126 26.8195 225.535C26.5637 224.535 26.3804 223.513 26.2582 222.479C16.4575 218.069 8.87878 209.642 5.64113 199.304C5.64113 199.304 5.6335 199.297 5.6335 199.293C5.5915 199.106 5.54187 198.915 5.49987 198.728C4.679 195.207 4.22848 191.652 3.92686 188.077V188.07C3.67487 185.048 3.53361 182.004 3.37325 178.968C3.19381 175.599 2.99909 172.223 2.56002 168.87C2.38058 167.451 2.12095 166.047 1.88042 164.639C1.83842 164.449 1.80406 164.277 1.76588 164.128C1.51389 163.266 1.23136 162.419 0.918289 161.584C-1.78484 153.985 1.61698 145.233 9.31785 142.185L9.32167 142.189Z" fill="#053038"/>
<path d="M90.3168 245.455C88.9423 241.957 88.0375 239.84 88.0375 239.84C87.7015 238.127 87.186 236.494 86.5179 234.961C82.2074 225.031 71.4254 219.072 60.3533 221.239L40.4768 225.126C27.6866 227.629 19.3519 240.012 21.8565 252.787C21.8565 252.787 21.8565 254.134 21.9138 256.446C21.9749 259.398 22.1238 263.942 22.4521 269.286C23.5135 286.77 26.5259 312.828 35.0248 319.943C47.941 330.773 91.7905 320.973 101.198 306.996C108.842 295.631 95.83 259.452 90.3206 245.448L90.3168 245.455Z" fill="#E1EFFC"/>
<path d="M391.865 344.164C392.239 344.324 392.61 344.492 392.988 344.656C393.69 344.942 394.393 345.232 395.091 345.526C394.019 345.072 392.942 344.622 391.869 344.168L391.865 344.164Z" fill="#2F333F"/>
<path d="M422.68 361.856C422.764 361.924 422.848 361.993 422.936 362.062C423.219 362.275 423.501 362.493 423.787 362.706C424.948 363.572 420.691 360.269 422.68 361.856Z" fill="#2F333F"/>
<path d="M308.419 549.056C381.088 549.056 439.998 519.648 439.998 483.373C439.998 447.097 381.088 417.689 308.419 417.689C235.75 417.689 176.84 447.097 176.84 483.373C176.84 519.648 235.75 549.056 308.419 549.056Z" fill="#053038"/>
<path d="M439.997 331.487C398.649 280.357 223.357 285.004 176.835 331.487C151.682 356.619 176.835 473.66 176.835 473.66C176.835 474.847 176.915 476.01 177.068 477.159C176.977 477.525 176.935 477.895 176.935 478.261C176.935 479.318 177.29 480.352 177.985 481.374C183.681 489.782 212.171 496.862 251.53 500.391C268.746 501.932 288.042 502.802 308.422 502.802C328.802 502.802 348.099 501.936 365.31 500.391C404.647 496.862 433.129 489.789 438.852 481.389C439.543 480.367 439.902 479.322 439.902 478.265C439.902 477.895 439.856 477.529 439.768 477.162C439.921 476.018 439.997 474.854 439.997 473.664C439.997 473.664 462.356 359.136 439.997 331.491V331.487Z" fill="#E1EFFC"/>
<path d="M449.699 398.334C448.229 387.977 445.579 379.409 441.269 374.079C399.916 322.954 224.629 327.596 178.106 374.079C171.578 380.603 168.439 393.329 167.37 408.58C164.553 377.135 164.98 343.607 177.114 331.483C223.636 285 398.927 280.358 440.276 331.483C449.779 343.229 451.207 370.669 449.699 398.334Z" fill="#63BEDD"/>
<path d="M443.632 382.482C443.67 382.535 443.708 382.589 443.746 382.642C443.922 382.863 444.098 383.085 444.277 383.306C445.659 385.042 442.227 380.574 443.636 382.482H443.632Z" fill="#2F333F"/>
<path d="M485.309 350.832C485.309 350.832 485.335 350.82 485.347 350.816C485.335 350.824 485.328 350.828 485.32 350.828C485.294 350.839 485.271 350.85 485.252 350.858C485.26 350.85 485.267 350.847 485.275 350.847C485.286 350.847 485.297 350.835 485.305 350.835L485.309 350.832Z" fill="#2F333F"/>
<path d="M251.672 280.074V315.281C251.672 319.691 279.184 323.269 313.118 323.269C347.053 323.269 374.565 319.695 374.565 315.281V280.074H251.668H251.672Z" fill="#1F222B"/>
<path d="M88.9567 241C89.5695 244.708 89.8725 245.459 89.8725 245.459C90.4619 247.102 91.2877 248.341 91.5 250C71.5347 261.709 45.0206 270.634 22.0001 268.502C22.0001 271.501 22.0001 251.5 22.0001 251.5C46.3711 255.634 68.1124 254.149 88.9567 241Z" fill="#F7A70D"/>
<path d="M623.879 287.849C623.802 290.706 623.657 294.524 623.39 298.866C621.237 297.912 619.03 297.103 616.953 296.321C609.553 293.54 602.043 291.053 594.45 288.867C581.052 285.007 567.384 282.054 553.574 280.116C555.372 275.294 556.85 271.701 557.472 270.209C571.763 272.341 585.89 275.401 599.753 279.532C607.893 281.951 616.01 284.648 623.875 287.852L623.879 287.849Z" fill="#F7A70D"/>
<path d="M306.612 106.391V37.9878C297.774 36.0155 291.188 28.3745 291.188 19.2457C291.188 8.61771 300.11 0.00390625 311.114 0.00390625C322.117 0.00390625 331.043 8.61771 331.043 19.2457C331.043 28.3783 324.454 36.0194 315.619 37.9878V106.391" fill="#D1D2D3"/>
<path d="M335.487 24.2583C335.487 37.6558 324.617 48.5165 311.208 48.5165C297.799 48.5165 286.93 37.6558 286.93 24.2583C286.93 10.8607 297.799 0 311.208 0C324.617 0 335.487 10.8607 335.487 24.2583Z" fill="#42454C"/>
<path d="M286.93 24.2588C286.93 37.6602 297.799 48.5132 311.204 48.5132C322.25 48.5132 331.57 41.1469 334.509 31.0529C330.081 36.9468 323.029 40.7616 315.083 40.7616C301.679 40.7616 290.809 29.9047 290.809 16.5071C290.809 14.1534 291.145 11.8683 291.775 9.7168C288.732 13.7681 286.93 18.8036 286.93 24.2626V24.2588Z" fill="#053038"/>
<path d="M312.742 5.39842C319.473 5.71124 326.113 9.02629 327.854 15.9997C328.763 19.6314 323.15 21.1802 322.241 17.5447C321.146 13.1501 316.923 11.4067 312.742 11.2122C309.012 11.0405 308.993 5.22294 312.742 5.39842Z" fill="white"/>
<path d="M336.849 82.8496H287.402V108.508H336.849V82.8496Z" fill="#053038"/>
<path d="M332.191 68.3418H292.057V89.1706H332.191V68.3418Z" fill="#053038"/>
<path d="M329.057 63.3594H295.191V80.9341H329.057V63.3594Z" fill="#053038"/>
<path d="M491.746 223.593C493.227 223.101 494.708 222.403 496.117 221.541C493.124 240.268 484.95 253.715 475.328 253.715C465.707 253.715 457.483 240.188 454.513 221.369C466.123 227.61 479.723 229.17 491.742 223.597L491.746 223.593Z" fill="#F34137"/>
<path d="M453.509 199.559C454.914 176.037 464.142 157.867 475.329 157.867C483.675 157.867 490.936 167.98 494.667 182.885C490.948 186.196 486.641 188.862 482.678 190.842C474.156 195.1 463.707 199.673 453.509 199.559Z" fill="#FEBB38"/>
<path d="M482.678 190.842C486.641 188.863 490.948 186.196 494.666 182.885C496.369 189.69 497.339 197.492 497.339 205.789C497.339 211.309 496.904 216.604 496.117 221.54C494.708 222.406 493.227 223.1 491.745 223.592C479.726 229.17 466.127 227.609 454.516 221.365C453.745 216.478 453.321 211.244 453.321 205.789C453.321 203.675 453.39 201.6 453.512 199.559C463.71 199.674 474.16 195.1 482.682 190.842H482.678Z" fill="#F7A70D"/>
<path d="M451.78 253.715H475.333V157.868H451.78V253.715Z" fill="#364667"/>
<path d="M132.036 223.593C130.554 223.101 129.073 222.403 127.664 221.541C130.657 240.268 138.832 253.715 148.453 253.715C158.074 253.715 166.298 240.188 169.269 221.369C157.658 227.61 144.058 229.17 132.039 223.597L132.036 223.593Z" fill="#F34137"/>
<path d="M170.267 199.559C168.862 176.037 159.634 157.867 148.447 157.867C140.101 157.867 132.84 167.98 129.109 182.885C132.828 186.196 137.135 188.862 141.098 190.842C149.62 195.1 160.069 199.673 170.267 199.559Z" fill="#FEBB38"/>
<path d="M141.102 190.842C137.139 188.863 132.833 186.196 129.114 182.885C127.411 189.69 126.441 197.492 126.441 205.789C126.441 211.309 126.877 216.604 127.663 221.54C129.072 222.406 130.553 223.1 132.035 223.592C144.054 229.17 157.653 227.609 169.264 221.365C170.035 216.478 170.459 211.244 170.459 205.789C170.459 203.675 170.39 201.6 170.268 199.559C160.07 199.674 149.62 195.1 141.099 190.842H141.102Z" fill="#F7A70D"/>
<path d="M172.002 157.863H148.449V253.71H172.002V157.863Z" fill="#364667"/>
<path d="M157.395 170.354V290.336C157.395 294.937 161.159 298.698 165.764 298.698H457.194C461.798 298.698 465.563 294.937 465.563 290.336V170.354H157.395Z" fill="#63BEDD"/>
<path d="M158.227 149.636V276.92C158.227 281.52 161.991 285.282 166.596 285.282H458.026C462.63 285.282 466.395 281.52 466.395 276.92V149.636C466.395 124.321 445.858 103.801 420.522 103.801H204.1C178.763 103.801 158.227 124.321 158.227 149.636Z" fill="#E1EFFC"/>
<path d="M432.488 132.705H192.127C189.596 132.705 187.545 134.755 187.545 137.283V231.535C187.545 234.063 189.596 236.113 192.127 236.113H432.488C435.018 236.113 437.069 234.063 437.069 231.535V137.283C437.069 134.755 435.018 132.705 432.488 132.705Z" fill="#52AE32"/>
<path d="M287.156 260.368C290.852 262.481 295.01 264.018 299.076 265.235C307.922 267.887 317.211 268.554 326.317 267.002C332.35 265.972 338.241 263.606 343.418 260.368C346.583 258.388 348.114 253.909 345.98 250.602C343.933 247.432 339.596 245.925 336.206 248.042C334.278 249.248 332.269 250.304 330.181 251.208C330.75 250.968 331.319 250.728 331.888 250.487C328.409 251.948 324.779 252.936 321.045 253.463C321.678 253.379 322.312 253.291 322.942 253.207C318.567 253.783 314.157 253.726 309.789 253.142C310.423 253.226 311.057 253.314 311.687 253.398C306.548 252.681 301.516 251.277 296.735 249.27C297.304 249.511 297.873 249.751 298.442 249.991C297.06 249.404 295.67 248.79 294.364 248.046C291.119 246.192 286.404 247.176 284.59 250.606C282.796 254.001 283.689 258.392 287.152 260.371L287.156 260.368Z" fill="#364667"/>
<path d="M387.625 217.734C406.853 217.734 422.441 202.16 422.441 182.947C422.441 163.735 406.853 148.16 387.625 148.16C368.396 148.16 352.809 163.735 352.809 182.947C352.809 202.16 368.396 217.734 387.625 217.734Z" fill="white"/>
<path d="M243.035 217.734C262.263 217.734 277.851 202.16 277.851 182.947C277.851 163.735 262.263 148.16 243.035 148.16C223.806 148.16 208.219 163.735 208.219 182.947C208.219 202.16 223.806 217.734 243.035 217.734Z" fill="white"/>
<path d="M230.621 204.236C242.795 211.952 258.921 208.329 266.64 196.143C274.359 183.957 270.748 167.824 258.574 160.108C246.4 152.392 230.274 156.015 222.555 168.201C214.835 180.386 218.447 196.52 230.621 204.236Z" fill="#005180"/>
<path d="M374.043 204.236C386.217 211.952 402.343 208.329 410.062 196.143C417.781 183.957 414.17 167.824 401.996 160.108C389.822 152.392 373.696 156.015 365.976 168.201C358.257 180.386 361.869 196.52 374.043 204.236Z" fill="#005180"/>
<path d="M216.131 194.789C216.124 203.654 228.335 210.849 243.404 210.86C258.473 210.871 270.694 203.694 270.701 194.83C270.708 185.965 258.497 178.77 243.428 178.759C228.359 178.748 216.138 185.925 216.131 194.789Z" fill="white"/>
<path d="M361.012 195.051C361.005 203.915 373.216 211.11 388.285 211.121C403.354 211.132 415.575 203.956 415.582 195.091C415.588 186.227 403.378 179.032 388.309 179.021C373.24 179.01 361.018 186.187 361.012 195.051Z" fill="white"/>
</svg>
