<svg width="680" height="969" viewBox="0 0 680 969" fill="none" xmlns="http://www.w3.org/2000/svg">
<g clip-path="url(#clip0_1023_10178)">
<rect width="680" height="969" fill="url(#paint0_radial_1023_10178)"/>
<path d="M281.909 714.396H222.131V937.409H281.909V714.396Z" fill="#053038"/>
<path d="M271.981 782.842C258.176 784.223 244.255 783.613 230.648 780.874C226.536 780.046 224.776 786.348 228.907 787.179C243.087 790.029 257.584 790.819 271.981 789.381C273.741 789.205 275.253 788.003 275.253 786.111C275.253 784.479 273.749 782.663 271.981 782.842Z" fill="#66686D"/>
<path d="M273.1 806.807C259.295 808.188 245.374 807.577 231.767 804.838C227.655 804.011 225.895 810.313 230.026 811.144C244.206 813.994 258.703 814.784 273.1 813.345C274.861 813.17 276.372 811.968 276.372 810.076C276.372 808.443 274.868 806.628 273.1 806.807Z" fill="#66686D"/>
<path d="M278.385 955.412C278.354 955.355 278.328 955.294 278.301 955.236H176.071C175.341 957.739 174.795 960.299 174.456 962.889C174.272 964.289 174.246 965.952 175.353 966.829C176.036 967.367 176.964 967.444 177.831 967.493C212.975 969.553 248.238 969.492 283.379 967.356C282.012 963.244 280.336 959.249 278.385 955.412Z" fill="#2F333F"/>
<path d="M214.892 911.512C214.804 912.397 214.64 913.266 214.3 914.09C212.711 917.997 208.286 919.744 204.476 921.56C190.804 928.072 180.297 940.737 176.07 955.237H268.485V940.115C255.236 923.734 236.215 912.595 214.892 911.508V911.512Z" fill="#E1EFFC"/>
<path d="M268.484 940.119V955.241H278.3C275.548 949.851 272.249 944.773 268.484 940.119Z" fill="#E1EFFC"/>
<path d="M298.127 955.24C297.257 940.016 296.108 924.81 294.683 909.627C294.34 905.988 293.947 902.352 293.572 898.717C291.606 879.563 289.197 860.458 286.36 841.415C280.965 837.085 274.899 833.629 268.488 831.092V925.092C276.35 933.591 282.894 944.059 288.055 955.237H298.131L298.127 955.24Z" fill="#63BEDD"/>
<path d="M239.071 826.251C232.206 826.937 225.666 829.539 219.87 833.438C215.804 854.93 214.021 876.85 214.555 898.713C214.609 900.918 214.704 903.123 214.804 905.327C236.57 901.166 254.583 910.058 268.481 925.092V831.092C259.1 827.384 248.975 825.671 239.071 826.254V826.251Z" fill="#E1EFFC"/>
<path d="M298.128 955.24H288.053C289.744 958.902 291.29 962.645 292.68 966.418C294.249 965.983 295.67 965.258 296.678 963.988C298.396 961.825 298.331 958.792 298.174 956.034C298.159 955.77 298.144 955.503 298.128 955.24Z" fill="#2F333F"/>
<path d="M214.809 905.331C214.843 906.067 214.851 906.807 214.893 907.543C214.931 908.234 214.965 908.932 214.973 909.626C214.98 910.259 214.954 910.889 214.896 911.514C242.34 912.911 265.966 930.962 278.382 955.415H288.133C273.858 924.389 248.949 898.807 214.809 905.331Z" fill="#F7A70D"/>
<path d="M278.377 955.412C280.328 959.25 282.008 963.24 283.375 967.356C284.917 967.261 286.463 967.188 288.01 967.085C289.552 966.982 291.182 966.826 292.675 966.41C291.305 962.698 289.789 959.017 288.128 955.408H278.377V955.412Z" fill="#2F333F"/>
<path d="M340.546 937.41H400.324V714.397H340.546V937.41Z" fill="#053038"/>
<path d="M350.473 782.842C364.279 784.223 378.199 783.613 391.807 780.874C395.919 780.046 397.679 786.348 393.548 787.179C379.368 790.029 364.871 790.819 350.473 789.381C348.713 789.205 347.201 788.003 347.201 786.111C347.201 784.479 348.705 782.663 350.473 782.842Z" fill="#66686D"/>
<path d="M349.358 806.807C363.164 808.188 377.084 807.577 390.691 804.838C394.803 804.011 396.563 810.313 392.432 811.144C378.252 813.994 363.756 814.784 349.358 813.345C347.598 813.17 346.086 811.968 346.086 810.076C346.086 808.443 347.59 806.628 349.358 806.807Z" fill="#66686D"/>
<path d="M447.999 962.893C447.66 960.302 447.114 957.743 446.384 955.24H344.154C344.124 955.297 344.097 955.358 344.07 955.416C342.123 959.253 340.443 963.247 339.076 967.36C374.213 969.492 409.48 969.553 444.624 967.497C445.491 967.448 446.419 967.371 447.102 966.833C448.209 965.956 448.183 964.293 447.999 962.893Z" fill="#2F333F"/>
<path d="M407.562 911.512C407.65 912.397 407.814 913.266 408.154 914.09C409.742 917.997 414.167 919.744 417.977 921.56C431.649 928.072 442.157 940.737 446.383 955.237H353.969V940.115C367.217 923.734 386.238 912.595 407.562 911.508V911.512Z" fill="#E1EFFC"/>
<path d="M353.97 940.119V955.241H344.154C346.907 949.851 350.206 944.773 353.97 940.119Z" fill="#E1EFFC"/>
<path d="M324.326 955.24C325.197 940.016 326.346 924.81 327.77 909.627C328.114 905.988 328.507 902.352 328.881 898.717C330.847 879.563 333.256 860.458 336.093 841.415C341.488 837.085 347.555 833.629 353.965 831.092V925.092C346.104 933.591 339.56 944.059 334.398 955.237H324.322L324.326 955.24Z" fill="#63BEDD"/>
<path d="M383.383 826.251C390.247 826.937 396.788 829.539 402.583 833.438C406.649 854.93 408.432 876.85 407.898 898.713C407.844 900.918 407.749 903.123 407.65 905.327C385.883 901.166 367.87 910.058 353.973 925.092V831.092C363.353 827.384 373.479 825.671 383.383 826.254V826.251Z" fill="#E1EFFC"/>
<path d="M332.619 955.412H334.326C334.353 955.355 334.38 955.294 334.406 955.236H324.331C324.315 955.5 324.3 955.767 324.285 956.03C324.128 958.788 324.063 961.821 325.781 963.984C326.789 965.25 328.21 965.975 329.779 966.414C331.15 962.702 332.669 959.021 334.33 955.412H332.623H332.619Z" fill="#2F333F"/>
<path d="M407.651 905.332C373.51 898.805 348.602 924.387 334.326 955.416H344.077C356.493 930.963 380.119 912.912 407.563 911.515C407.502 910.894 407.475 910.26 407.486 909.627C407.494 908.933 407.528 908.235 407.567 907.544C407.605 906.808 407.616 906.068 407.651 905.332Z" fill="#F7A70D"/>
<path d="M329.775 966.414C331.272 966.83 332.902 966.986 334.441 967.089C335.983 967.192 337.53 967.265 339.076 967.36C340.443 963.244 342.127 959.254 344.074 955.416H334.323C332.662 959.025 331.146 962.706 329.775 966.418V966.414Z" fill="#2F333F"/>
<path d="M592.923 553.067C586.517 542.724 573.131 538.167 562.175 544.415C554.832 548.603 547.255 552.328 539.468 555.597C525.057 561.11 510.092 565.011 494.818 567.227C490.201 567.747 485.57 568.127 480.924 568.342C475.075 568.617 469.42 570.568 465.15 574.723C461.132 578.629 458.073 585.172 458.314 590.872C458.815 602.598 468.248 614.081 480.87 613.489C517.121 611.787 552.743 601.791 584.29 583.796C594.548 577.943 599.374 563.485 592.923 553.067Z" fill="#053038"/>
<path d="M478.109 554.226C475.589 553.672 472.97 553.371 470.282 553.371C450.246 553.371 434 569.603 434 589.623C434 609.643 450.246 625.875 470.282 625.875C476.307 625.875 481.981 624.399 486.982 621.805C489.113 598.821 487.337 575.367 478.109 554.226Z" fill="#F34137"/>
<path d="M506.565 589.624C506.565 572.29 494.382 557.805 478.109 554.227C487.337 575.368 489.113 598.821 486.982 621.806C498.616 615.767 506.565 603.628 506.565 589.624Z" fill="#F7A70D"/>
<path d="M629.686 403.766L603.986 401.561L602.259 421.655L627.958 423.861L629.686 403.766Z" fill="#053038"/>
<path d="M630.312 376.099C622.532 374.924 614.214 380.604 613.29 388.653C613.213 389.301 613.151 389.95 613.107 390.59C613.101 390.615 613.098 390.635 613.099 390.658C612.365 399.932 613.925 408.792 615.409 417.862C615.662 419.378 615.907 420.895 616.137 422.431C616.527 424.996 616.845 427.573 616.981 430.161L602.157 433.059C600.668 429.641 600.797 429.81 600.345 426.771C600.013 424.557 599.807 422.33 599.672 420.102C599.145 411.151 599.85 402.123 598.35 393.237C598.276 392.816 598.189 392.39 598.082 391.976L598.079 391.965C596.259 384.641 589.738 379.153 581.836 380.03C574.146 380.889 567.264 388.539 568.613 396.536C570.854 409.863 568.869 423.318 571.913 436.475L571.965 436.698C572.111 437.329 572.277 437.961 572.451 438.578C572.679 439.41 572.93 440.241 573.208 441.07C575.703 448.566 580.251 455.098 586.931 459.136C586.93 459.215 586.921 459.295 586.919 459.374C586.845 462.559 586.596 465.717 586.176 468.865C585.794 470.649 585.366 472.424 584.877 474.189C581.72 485.562 587.692 499.259 599.73 502.441C611.259 505.486 624.636 499.736 628.009 487.589C630.379 479.052 631.853 470.109 632.055 461.244C632.079 460.213 632.027 459.175 631.913 458.141C640.467 451.635 645.951 441.716 646.774 430.914C646.774 430.914 646.78 430.905 646.779 430.901C646.778 430.71 646.783 430.513 646.782 430.321C646.788 426.706 646.425 423.14 645.913 419.59L645.912 419.583C645.476 416.582 644.927 413.585 644.399 410.59C643.815 407.268 643.243 403.935 642.915 400.569C642.77 399.146 642.706 397.72 642.623 396.294C642.621 396.099 642.616 395.924 642.62 395.77C642.671 394.873 642.755 393.985 642.872 393.1C643.792 385.087 638.505 377.328 630.315 376.095L630.312 376.099Z" fill="#053038"/>
<path d="M631.69 498.996C631.69 498.996 631.69 501.045 631.591 504.444C631.515 507.301 631.369 511.12 631.102 515.461C630.037 532.952 627.021 559.037 618.522 566.159C605.606 576.982 561.756 567.186 552.349 553.204C545.495 543.03 555.227 512.935 561.29 496.707C563.089 491.885 564.566 488.292 565.189 486.8C565.399 486.312 565.509 486.049 565.509 486.049C568.014 473.269 580.407 464.942 593.193 467.444L613.07 471.331C625.86 473.834 634.195 486.22 631.69 498.992V498.996Z" fill="#E1EFFC"/>
<path d="M49.1488 488.619C59.9079 482.939 73.7595 485.781 80.0478 496.714C84.2628 504.042 88.9131 511.088 93.9758 517.848C103.616 529.895 114.551 540.832 126.604 550.472C130.323 553.257 134.126 555.927 138.024 558.464C142.93 561.661 146.82 566.204 148.401 571.949C149.89 577.351 149.218 584.542 146.126 589.337C139.761 599.198 125.814 604.329 115.227 597.432C84.8202 577.622 59.1519 550.976 41.0471 519.492C35.1597 509.253 38.3134 494.341 49.1488 488.619Z" fill="#053038"/>
<path d="M156.686 632.875C154.796 632.875 152.937 632.73 151.123 632.452C142.285 611.508 136.982 587.254 139.719 564.579C144.782 561.897 150.555 560.371 156.686 560.371C176.723 560.371 192.968 576.603 192.968 596.623C192.968 616.643 176.723 632.875 156.686 632.875Z" fill="#F34137"/>
<path d="M151.124 632.451C133.725 629.777 120.404 614.754 120.404 596.623C120.404 582.725 128.231 570.663 139.719 564.578C136.982 587.25 142.285 611.508 151.124 632.451Z" fill="#F7A70D"/>
<path d="M36.1304 406.782L61.8301 404.576L63.5578 424.671L37.8581 426.877L36.1304 406.782Z" fill="#053038"/>
<path d="M15.3217 369.189C22.6369 366.29 32.0215 369.948 34.7361 377.582C34.9576 378.196 35.1637 378.814 35.3508 379.428C35.3623 379.451 35.3699 379.47 35.3737 379.493C38.1799 388.362 38.6572 397.346 39.2566 406.517C39.3521 408.05 39.4551 409.584 39.5773 411.133C39.7759 413.719 40.0469 416.302 40.4974 418.854L55.5938 418.335C56.2734 414.669 56.1855 414.864 55.9412 411.8C55.7656 409.569 55.4639 407.352 55.0936 405.151C53.5893 396.312 50.8671 387.676 50.3249 378.68C50.302 378.253 50.2906 377.818 50.302 377.391V377.38C50.4242 369.834 55.5403 363.017 63.4359 362.09C71.1215 361.193 79.5516 367.095 80.0403 375.19C80.8612 388.679 85.8284 401.34 85.8284 414.845V415.074C85.8284 415.722 85.8093 416.374 85.7787 417.015C85.7444 417.877 85.6871 418.743 85.6031 419.613C84.8624 427.479 81.9035 434.869 76.3063 440.308C76.3254 440.385 76.3521 440.461 76.3712 440.537C77.1615 443.623 78.116 446.645 79.2347 449.616C80.0098 451.268 80.8268 452.901 81.7011 454.511C87.3403 464.879 84.6104 479.57 73.5994 485.384C63.0541 490.95 48.7252 488.363 42.7004 477.289C38.4663 469.507 35.0148 461.126 32.8195 452.535C32.5637 451.535 32.3804 450.513 32.2582 449.479C22.4575 445.069 14.8788 436.642 11.6411 426.304C11.6411 426.304 11.6335 426.297 11.6335 426.293C11.5915 426.106 11.5419 425.915 11.4999 425.728C10.679 422.207 10.2285 418.652 9.92686 415.077V415.07C9.67487 412.048 9.53361 409.004 9.37325 405.968C9.19381 402.599 8.99909 399.223 8.56002 395.87C8.38058 394.451 8.12095 393.047 7.88042 391.639C7.83842 391.449 7.80406 391.277 7.76588 391.128C7.51389 390.266 7.23136 389.419 6.91829 388.584C4.21516 380.985 7.61698 372.233 15.3179 369.185L15.3217 369.189Z" fill="#053038"/>
<path d="M96.3168 472.455C94.9423 468.957 94.0375 466.84 94.0375 466.84C93.7015 465.127 93.1861 463.494 92.5179 461.961C88.2074 452.031 77.4254 446.072 66.3533 448.239L46.4768 452.126C33.6866 454.629 25.3519 467.012 27.8565 479.787C27.8565 479.787 27.8565 481.134 27.9138 483.446C27.9749 486.398 28.1238 490.942 28.4521 496.286C29.5135 513.77 32.5259 539.828 41.0248 546.943C53.941 557.773 97.7905 547.973 107.198 533.996C114.842 522.631 101.83 486.452 96.3206 472.448L96.3168 472.455Z" fill="#E1EFFC"/>
<path d="M397.865 571.164C398.239 571.324 398.61 571.492 398.988 571.656C399.69 571.942 400.393 572.232 401.091 572.526C400.019 572.072 398.942 571.622 397.869 571.168L397.865 571.164Z" fill="#2F333F"/>
<path d="M428.68 588.856C428.764 588.924 428.848 588.993 428.936 589.062C429.219 589.275 429.501 589.493 429.787 589.706C430.948 590.572 426.691 587.269 428.68 588.856Z" fill="#2F333F"/>
<path d="M314.419 776.056C387.088 776.056 445.998 746.648 445.998 710.373C445.998 674.097 387.088 644.689 314.419 644.689C241.75 644.689 182.84 674.097 182.84 710.373C182.84 746.648 241.75 776.056 314.419 776.056Z" fill="#053038"/>
<path d="M445.997 558.487C404.649 507.357 229.357 512.004 182.835 558.487C157.682 583.619 182.835 700.66 182.835 700.66C182.835 701.847 182.915 703.01 183.068 704.159C182.977 704.525 182.935 704.895 182.935 705.261C182.935 706.318 183.29 707.352 183.985 708.374C189.681 716.782 218.171 723.862 257.53 727.391C274.746 728.932 294.042 729.802 314.422 729.802C334.802 729.802 354.099 728.936 371.31 727.391C410.647 723.862 439.129 716.789 444.852 708.389C445.543 707.367 445.902 706.322 445.902 705.265C445.902 704.895 445.856 704.529 445.768 704.162C445.921 703.018 445.997 701.854 445.997 700.664C445.997 700.664 468.356 586.136 445.997 558.491V558.487Z" fill="#E1EFFC"/>
<path d="M455.699 625.334C454.229 614.977 451.579 606.409 447.269 601.079C405.916 549.954 230.629 554.596 184.106 601.079C177.578 607.603 174.439 620.329 173.37 635.58C170.553 604.135 170.98 570.607 183.114 558.483C229.636 512 404.927 507.358 446.276 558.483C455.779 570.229 457.207 597.669 455.699 625.334Z" fill="#63BEDD"/>
<path d="M449.632 609.482C449.67 609.535 449.708 609.589 449.746 609.642C449.922 609.863 450.098 610.085 450.277 610.306C451.659 612.042 448.227 607.574 449.636 609.482H449.632Z" fill="#2F333F"/>
<path d="M491.309 577.832C491.309 577.832 491.335 577.82 491.347 577.816C491.335 577.824 491.328 577.828 491.32 577.828C491.294 577.839 491.271 577.85 491.252 577.858C491.26 577.85 491.267 577.847 491.275 577.847C491.286 577.847 491.297 577.835 491.305 577.835L491.309 577.832Z" fill="#2F333F"/>
<path d="M257.672 507.074V542.281C257.672 546.691 285.184 550.269 319.118 550.269C353.053 550.269 380.565 546.695 380.565 542.281V507.074H257.668H257.672Z" fill="#1F222B"/>
<path d="M94.9567 468C95.5695 471.708 95.8725 472.459 95.8725 472.459C96.4619 474.102 97.2877 475.341 97.5 477C77.5347 488.709 51.0206 497.634 28.0001 495.502C28.0001 498.501 28.0001 478.5 28.0001 478.5C52.3711 482.634 74.1124 481.149 94.9567 468Z" fill="#F7A70D"/>
<path d="M629.879 514.849C629.802 517.706 629.657 521.524 629.39 525.866C627.237 524.912 625.03 524.103 622.953 523.321C615.553 520.54 608.043 518.053 600.45 515.867C587.052 512.007 573.384 509.054 559.574 507.116C561.372 502.294 562.85 498.701 563.472 497.209C577.763 499.341 591.89 502.401 605.753 506.532C613.893 508.951 622.01 511.648 629.875 514.852L629.879 514.849Z" fill="#F7A70D"/>
<path d="M322.868 646.905C335.954 632.235 337.725 612.474 326.824 602.766C315.923 593.059 296.479 597.081 283.393 611.751C270.307 626.42 268.536 646.182 279.437 655.89C290.338 665.597 309.783 661.575 322.868 646.905Z" fill="white"/>
<path d="M347.413 683.433C353.195 678.948 356.532 673.576 354.866 671.432C353.201 669.288 347.164 671.186 341.383 675.67C335.601 680.154 332.264 685.527 333.929 687.67C335.595 689.814 341.632 687.917 347.413 683.433Z" fill="white"/>
<path d="M312.612 333.391V264.988C303.774 263.016 297.188 255.375 297.188 246.246C297.188 235.618 306.11 227.004 317.114 227.004C328.117 227.004 337.043 235.618 337.043 246.246C337.043 255.378 330.454 263.019 321.619 264.988V333.391" fill="#D1D2D3"/>
<path d="M341.487 251.258C341.487 264.656 330.617 275.517 317.208 275.517C303.799 275.517 292.93 264.656 292.93 251.258C292.93 237.861 303.799 227 317.208 227C330.617 227 341.487 237.861 341.487 251.258Z" fill="#42454C"/>
<path d="M292.93 251.259C292.93 264.66 303.799 275.513 317.204 275.513C328.25 275.513 337.57 268.147 340.509 258.053C336.081 263.947 329.029 267.762 321.083 267.762C307.679 267.762 296.809 256.905 296.809 243.507C296.809 241.153 297.145 238.868 297.775 236.717C294.732 240.768 292.93 245.804 292.93 251.263V251.259Z" fill="#053038"/>
<path d="M318.742 232.398C325.473 232.711 332.113 236.026 333.854 243C334.763 246.631 329.15 248.18 328.241 244.545C327.146 240.15 322.923 238.407 318.742 238.212C315.012 238.041 314.993 232.223 318.742 232.398Z" fill="white"/>
<path d="M342.849 309.85H293.402V335.508H342.849V309.85Z" fill="#053038"/>
<path d="M338.191 295.342H298.057V316.171H338.191V295.342Z" fill="#053038"/>
<path d="M335.057 290.359H301.191V307.934H335.057V290.359Z" fill="#053038"/>
<path d="M497.745 450.593C499.226 450.101 500.707 449.403 502.116 448.541C499.123 467.268 490.949 480.715 481.327 480.715C471.706 480.715 463.482 467.188 460.512 448.369C472.122 454.61 485.722 456.17 497.741 450.597L497.745 450.593Z" fill="#F34137"/>
<path d="M459.508 426.559C460.913 403.037 470.141 384.867 481.328 384.867C489.674 384.867 496.935 394.98 500.666 409.885C496.947 413.196 492.64 415.862 488.677 417.842C480.155 422.1 469.706 426.673 459.508 426.559Z" fill="#FEBB38"/>
<path d="M488.677 417.842C492.64 415.863 496.947 413.196 500.665 409.885C502.368 416.69 503.338 424.492 503.338 432.789C503.338 438.309 502.903 443.604 502.116 448.54C500.707 449.406 499.226 450.1 497.744 450.592C485.725 456.17 472.126 454.609 460.515 448.365C459.744 443.478 459.32 438.244 459.32 432.789C459.32 430.675 459.389 428.6 459.511 426.559C469.709 426.674 480.159 422.1 488.681 417.842H488.677Z" fill="#F7A70D"/>
<path d="M457.779 480.715H481.332V384.868H457.779V480.715Z" fill="#364667"/>
<path d="M138.036 450.593C136.554 450.101 135.073 449.403 133.664 448.541C136.657 467.268 144.832 480.715 154.453 480.715C164.074 480.715 172.298 467.188 175.269 448.369C163.658 454.61 150.058 456.17 138.039 450.597L138.036 450.593Z" fill="#F34137"/>
<path d="M176.267 426.559C174.862 403.037 165.634 384.867 154.447 384.867C146.101 384.867 138.84 394.98 135.109 409.885C138.828 413.196 143.135 415.862 147.098 417.842C155.62 422.1 166.069 426.673 176.267 426.559Z" fill="#FEBB38"/>
<path d="M147.102 417.842C143.139 415.863 138.833 413.196 135.114 409.885C133.411 416.69 132.441 424.492 132.441 432.789C132.441 438.309 132.877 443.604 133.663 448.54C135.072 449.406 136.553 450.1 138.035 450.592C150.054 456.17 163.653 454.609 175.264 448.365C176.035 443.478 176.459 438.244 176.459 432.789C176.459 430.675 176.39 428.6 176.268 426.559C166.07 426.674 155.62 422.1 147.099 417.842H147.102Z" fill="#F7A70D"/>
<path d="M178.002 384.863H154.449V480.71H178.002V384.863Z" fill="#364667"/>
<path d="M163.395 397.354V517.336C163.395 521.937 167.159 525.698 171.764 525.698H463.194C467.798 525.698 471.563 521.937 471.563 517.336V397.354H163.395Z" fill="#63BEDD"/>
<path d="M164.227 376.636V503.92C164.227 508.52 167.991 512.282 172.596 512.282H464.026C468.63 512.282 472.395 508.52 472.395 503.92V376.636C472.395 351.321 451.858 330.801 426.522 330.801H210.1C184.763 330.801 164.227 351.321 164.227 376.636Z" fill="#E1EFFC"/>
<path d="M438.488 359.705H198.127C195.596 359.705 193.545 361.755 193.545 364.283V458.535C193.545 461.063 195.596 463.113 198.127 463.113H438.488C441.018 463.113 443.069 461.063 443.069 458.535V364.283C443.069 361.755 441.018 359.705 438.488 359.705Z" fill="#52AE32"/>
<path d="M293.156 487.368C296.852 489.481 301.01 491.018 305.076 492.235C313.922 494.887 323.211 495.554 332.317 494.002C338.35 492.972 344.241 490.606 349.418 487.368C352.583 485.388 354.114 480.909 351.98 477.602C349.933 474.432 345.596 472.925 342.206 475.042C340.278 476.248 338.269 477.304 336.181 478.208C336.75 477.968 337.319 477.728 337.888 477.487C334.409 478.948 330.779 479.936 327.045 480.463C327.678 480.379 328.312 480.291 328.942 480.207C324.567 480.783 320.157 480.726 315.789 480.142C316.423 480.226 317.057 480.314 317.687 480.398C312.548 479.681 307.516 478.277 302.735 476.27C303.304 476.511 303.873 476.751 304.442 476.991C303.06 476.404 301.67 475.79 300.364 475.046C297.119 473.192 292.404 474.176 290.59 477.606C288.796 481.001 289.689 485.392 293.152 487.371L293.156 487.368Z" fill="#364667"/>
<path d="M393.625 444.734C412.853 444.734 428.441 429.16 428.441 409.947C428.441 390.735 412.853 375.16 393.625 375.16C374.396 375.16 358.809 390.735 358.809 409.947C358.809 429.16 374.396 444.734 393.625 444.734Z" fill="white"/>
<path d="M249.035 444.734C268.263 444.734 283.851 429.16 283.851 409.947C283.851 390.735 268.263 375.16 249.035 375.16C229.806 375.16 214.219 390.735 214.219 409.947C214.219 429.16 229.806 444.734 249.035 444.734Z" fill="white"/>
<path d="M236.621 431.236C248.795 438.952 264.921 435.329 272.64 423.143C280.359 410.957 276.748 394.824 264.574 387.108C252.4 379.392 236.274 383.015 228.555 395.201C220.835 407.386 224.447 423.52 236.621 431.236Z" fill="#005180"/>
<path d="M380.043 431.236C392.217 438.952 408.343 435.329 416.062 423.143C423.781 410.957 420.17 394.824 407.996 387.108C395.822 379.392 379.696 383.015 371.976 395.201C364.257 407.386 367.869 423.52 380.043 431.236Z" fill="#005180"/>
<path d="M222.131 421.789C222.124 430.654 234.335 437.849 249.404 437.86C264.473 437.871 276.694 430.694 276.701 421.83C276.708 412.965 264.497 405.77 249.428 405.759C234.359 405.748 222.138 412.925 222.131 421.789Z" fill="white"/>
<path d="M367.012 422.051C367.005 430.915 379.216 438.11 394.285 438.121C409.354 438.132 421.575 430.956 421.582 422.091C421.588 413.227 409.378 406.032 394.309 406.021C379.24 406.01 367.018 413.187 367.012 422.051Z" fill="white"/>
<path d="M367.825 689.797C391.487 666.154 391.487 627.822 367.825 604.179C344.162 580.537 305.798 580.537 282.136 604.18C258.473 627.822 258.473 666.154 282.136 689.797C305.798 713.44 344.162 713.44 367.825 689.797Z" fill="#C7D6E2" fill-opacity="0.1"/>
<path d="M360.614 685.194C384.276 661.551 384.276 623.219 360.614 599.576C336.951 575.933 298.587 575.933 274.925 599.576C251.262 623.219 251.262 661.551 274.925 685.194C298.587 708.836 336.951 708.836 360.614 685.194Z" fill="#63BEDD" fill-opacity="0.1"/>
<path d="M317.77 695.726C347.252 695.726 371.153 671.845 371.153 642.387C371.153 612.929 347.252 589.049 317.77 589.049C288.287 589.049 264.387 612.929 264.387 642.387C264.387 671.845 288.287 695.726 317.77 695.726Z" fill="white"/>
<path d="M320.023 695.725C348.26 695.725 371.15 672.35 371.15 643.516C371.15 614.682 348.26 591.307 320.023 591.307C291.787 591.307 268.896 614.682 268.896 643.516C268.896 672.35 291.787 695.725 320.023 695.725Z" fill="white"/>
<g clip-path="url(#clip1_1023_10178)">
<path d="M319.639 593V608.8L348.381 625.205V660.246L319.639 677.246V693L362 668.809V616.791L319.639 593Z" fill="#008339"/>
<path d="M315.316 593L273 616.791V668.809L315.316 693V677.246L286.573 660.246V625.205L315.316 608.8V593Z" fill="#52AE32"/>
<path d="M292.926 634.658H297.26L301.537 645.999H301.583L305.928 634.658H310L302.883 651.967H299.826L292.926 634.658Z" fill="#008339"/>
<path d="M315.612 641.828H317.859C319.25 641.828 321.053 641.783 321.053 639.896C321.053 638.159 319.49 637.896 318.098 637.896H315.612V641.828ZM311.802 634.66H318.486C322.022 634.66 324.999 635.883 324.999 639.919C324.999 642.343 323.71 644.229 321.269 644.664L325.661 651.98H321.098L317.483 645.064H315.601V651.98H311.791V634.66H311.802Z" fill="#008339"/>
<path d="M331.421 641.828H333.668C335.059 641.828 336.861 641.783 336.861 639.896C336.861 638.159 335.299 637.896 333.907 637.896H331.421V641.828ZM327.611 634.66H334.295C337.831 634.66 340.808 635.883 340.808 639.919C340.808 642.343 339.519 644.229 337.078 644.664L341.469 651.98H336.907L333.291 645.064H331.409V651.98H327.6V634.66H327.611Z" fill="#008339"/>
</g>
</g>
<defs>
<radialGradient id="paint0_radial_1023_10178" cx="0" cy="0" r="1" gradientUnits="userSpaceOnUse" gradientTransform="translate(340 484.5) rotate(90) scale(484.5 340)">
<stop offset="0.225" stop-color="white"/>
<stop offset="0.81" stop-color="white" stop-opacity="0.535484"/>
<stop offset="1" stop-color="white" stop-opacity="0"/>
</radialGradient>
<clipPath id="clip0_1023_10178">
<rect width="680" height="969" fill="white"/>
</clipPath>
<clipPath id="clip1_1023_10178">
<rect width="89" height="100" fill="white" transform="translate(273 593)"/>
</clipPath>
</defs>
</svg>
