<svg width="236" height="304" viewBox="0 0 236 304" fill="none" xmlns="http://www.w3.org/2000/svg">
<path d="M105.622 199.607H81.1406V290.94H105.622V199.607Z" fill="#053038"/>
<path d="M101.559 227.639C95.9047 228.205 90.2037 227.955 84.631 226.833C82.947 226.494 82.2262 229.075 83.918 229.416C89.7253 230.583 95.6623 230.906 101.559 230.317C102.28 230.245 102.899 229.753 102.899 228.978C102.899 228.31 102.283 227.566 101.559 227.639Z" fill="#66686D"/>
<path d="M102.012 237.454C96.3578 238.02 90.6569 237.77 85.0842 236.648C83.4001 236.309 82.6793 238.89 84.3712 239.23C90.1784 240.397 96.1154 240.721 102.012 240.132C102.733 240.06 103.352 239.568 103.352 238.793C103.352 238.124 102.736 237.381 102.012 237.454Z" fill="#66686D"/>
<path d="M104.181 298.314C104.168 298.291 104.157 298.266 104.146 298.242H62.279C61.9803 299.267 61.7567 300.315 61.6176 301.376C61.5425 301.95 61.5316 302.631 61.985 302.99C62.2649 303.21 62.6448 303.242 62.9998 303.262C77.3928 304.106 91.8344 304.081 106.226 303.206C105.666 301.521 104.98 299.886 104.181 298.314Z" fill="#2F333F"/>
<path d="M78.1762 280.334C78.1402 280.696 78.073 281.052 77.9338 281.39C77.2833 282.99 75.4711 283.705 73.9106 284.449C68.3113 287.116 64.0083 292.302 62.2773 298.241H100.125V292.048C94.6988 285.339 86.9089 280.777 78.1762 280.332V280.334Z" fill="#E1EFFC"/>
<path d="M100.125 292.049V298.242H104.145C103.018 296.034 101.667 293.955 100.125 292.049Z" fill="#E1EFFC"/>
<path d="M112.263 298.244C111.907 292.009 111.436 285.782 110.853 279.564C110.712 278.073 110.551 276.584 110.398 275.095C109.593 267.251 108.606 259.427 107.444 251.628C105.235 249.855 102.75 248.439 100.125 247.4V285.897C103.344 289.378 106.025 293.665 108.139 298.242H112.265L112.263 298.244Z" fill="#63BEDD"/>
<path d="M88.0778 245.415C85.2665 245.697 82.588 246.762 80.2144 248.359C78.5492 257.161 77.819 266.138 78.0379 275.091C78.0598 275.994 78.0989 276.897 78.1395 277.8C87.0537 276.096 94.4308 279.738 100.122 285.895V247.398C96.2806 245.879 92.1338 245.178 88.0778 245.417V245.415Z" fill="#E1EFFC"/>
<path d="M112.267 298.242H108.141C108.833 299.742 109.467 301.275 110.036 302.82C110.678 302.642 111.26 302.345 111.673 301.825C112.376 300.939 112.35 299.697 112.286 298.567C112.28 298.459 112.273 298.35 112.267 298.242Z" fill="#2F333F"/>
<path d="M78.1445 277.804C78.1586 278.106 78.1617 278.409 78.1789 278.71C78.1946 278.993 78.2086 279.279 78.2118 279.563C78.2149 279.823 78.2039 280.08 78.1805 280.337C89.4197 280.908 99.0954 288.301 104.18 298.316H108.174C102.327 285.609 92.1263 275.133 78.1445 277.804Z" fill="#F7A70D"/>
<path d="M104.18 298.314C104.979 299.886 105.667 301.52 106.226 303.206C106.858 303.167 107.491 303.137 108.125 303.095C108.756 303.053 109.424 302.988 110.035 302.818C109.474 301.298 108.853 299.79 108.173 298.312H104.18V298.314Z" fill="#2F333F"/>
<path d="M129.636 290.941H154.117V199.609H129.636V290.941Z" fill="#053038"/>
<path d="M133.703 227.639C139.357 228.205 145.058 227.955 150.631 226.833C152.315 226.494 153.036 229.075 151.344 229.416C145.537 230.583 139.6 230.906 133.703 230.317C132.982 230.245 132.363 229.753 132.363 228.978C132.363 228.31 132.979 227.566 133.703 227.639Z" fill="#66686D"/>
<path d="M133.246 237.454C138.9 238.02 144.601 237.77 150.174 236.648C151.858 236.309 152.579 238.89 150.887 239.23C145.08 240.397 139.143 240.721 133.246 240.132C132.525 240.06 131.906 239.568 131.906 238.793C131.906 238.124 132.522 237.381 133.246 237.454Z" fill="#66686D"/>
<path d="M173.643 301.376C173.504 300.315 173.281 299.267 172.982 298.242H131.115C131.102 298.266 131.091 298.291 131.08 298.314C130.283 299.886 129.595 301.521 129.035 303.206C143.425 304.079 157.868 304.104 172.261 303.262C172.616 303.242 172.996 303.21 173.276 302.99C173.729 302.631 173.719 301.95 173.643 301.376Z" fill="#2F333F"/>
<path d="M157.081 280.334C157.117 280.696 157.184 281.052 157.324 281.39C157.974 282.99 159.786 283.705 161.347 284.449C166.946 287.116 171.249 292.302 172.98 298.241H135.133V292.048C140.559 285.339 148.348 280.777 157.081 280.332V280.334Z" fill="#E1EFFC"/>
<path d="M135.137 292.049V298.242H131.117C132.245 296.034 133.596 293.955 135.137 292.049Z" fill="#E1EFFC"/>
<path d="M122.994 298.244C123.35 292.009 123.821 285.782 124.404 279.564C124.545 278.073 124.706 276.584 124.859 275.095C125.664 267.251 126.651 259.427 127.813 251.628C130.022 249.855 132.507 248.439 135.132 247.4V285.897C131.913 289.378 129.233 293.665 127.119 298.242H122.992L122.994 298.244Z" fill="#63BEDD"/>
<path d="M147.181 245.415C149.993 245.697 152.671 246.762 155.045 248.359C156.71 257.161 157.44 266.138 157.221 275.091C157.199 275.994 157.16 276.897 157.12 277.8C148.205 276.096 140.828 279.738 135.137 285.895V247.398C138.979 245.879 143.125 245.178 147.181 245.417V245.415Z" fill="#E1EFFC"/>
<path d="M126.393 298.314H127.092C127.103 298.291 127.114 298.266 127.125 298.242H122.998C122.992 298.35 122.986 298.459 122.979 298.567C122.915 299.697 122.889 300.939 123.592 301.825C124.005 302.343 124.587 302.64 125.229 302.82C125.791 301.3 126.413 299.792 127.093 298.314H126.394H126.393Z" fill="#2F333F"/>
<path d="M157.123 277.805C143.141 275.131 132.94 285.608 127.094 298.316H131.087C136.172 288.302 145.848 280.909 157.087 280.337C157.062 280.082 157.051 279.823 157.056 279.564C157.059 279.279 157.073 278.993 157.089 278.711C157.104 278.409 157.109 278.106 157.123 277.805Z" fill="#F7A70D"/>
<path d="M125.227 302.819C125.839 302.989 126.507 303.053 127.137 303.095C127.769 303.137 128.402 303.167 129.036 303.206C129.595 301.52 130.285 299.886 131.082 298.314H127.089C126.409 299.792 125.788 301.3 125.227 302.82V302.819Z" fill="#2F333F"/>
<path d="M217.591 196.522C213.185 198.848 207.512 197.684 204.937 193.207C203.211 190.206 201.306 187.32 199.233 184.552C195.285 179.618 190.807 175.139 185.87 171.191C184.347 170.05 182.79 168.957 181.194 167.918C179.184 166.608 177.591 164.748 176.944 162.395C176.334 160.183 176.609 157.238 177.876 155.274C180.482 151.235 186.194 149.134 190.53 151.959C202.983 160.072 213.495 170.984 220.909 183.878C223.32 188.071 222.029 194.178 217.591 196.522Z" fill="#053038"/>
<path d="M176.76 166.787C175.728 167.013 174.655 167.137 173.554 167.137C165.348 167.137 158.695 160.489 158.695 152.29C158.695 144.091 165.348 137.444 173.554 137.444C176.022 137.444 178.345 138.048 180.394 139.111C181.266 148.523 180.539 158.128 176.76 166.787Z" fill="#F34137"/>
<path d="M188.411 152.289C188.411 159.388 183.422 165.32 176.758 166.785C180.537 158.127 181.264 148.522 180.392 139.109C185.156 141.582 188.411 146.553 188.411 152.289Z" fill="#F7A70D"/>
<path d="M222.923 230.044L212.398 230.947L211.691 222.718L222.216 221.814L222.923 230.044Z" fill="#053038"/>
<path d="M231.449 245.433C228.454 246.62 224.61 245.122 223.498 241.996C223.408 241.744 223.323 241.491 223.247 241.239C223.242 241.23 223.239 241.222 223.237 241.213C222.088 237.58 221.893 233.901 221.647 230.145C221.608 229.517 221.566 228.889 221.516 228.255C221.435 227.196 221.324 226.138 221.139 225.093L214.956 225.305C214.678 226.807 214.714 226.727 214.814 227.982C214.886 228.896 215.01 229.803 215.161 230.705C215.777 234.325 216.892 237.862 217.114 241.546C217.124 241.721 217.128 241.899 217.124 242.074V242.078C217.074 245.169 214.978 247.96 211.745 248.34C208.597 248.707 205.145 246.29 204.945 242.975C204.608 237.451 202.574 232.266 202.574 226.735V226.641C202.574 226.376 202.582 226.108 202.595 225.846C202.609 225.493 202.632 225.138 202.666 224.782C202.97 221.561 204.182 218.534 206.474 216.307C206.466 216.275 206.455 216.244 206.447 216.213C206.124 214.949 205.733 213.712 205.275 212.495C204.957 211.818 204.623 211.149 204.264 210.49C201.955 206.244 203.073 200.227 207.582 197.846C211.901 195.567 217.769 196.626 220.237 201.162C221.971 204.349 223.384 207.781 224.283 211.299C224.388 211.709 224.463 212.127 224.513 212.551C228.527 214.357 231.631 217.808 232.957 222.042C232.957 222.042 232.96 222.045 232.96 222.046C232.977 222.123 232.997 222.201 233.015 222.278C233.351 223.72 233.535 225.176 233.659 226.64V226.643C233.762 227.88 233.82 229.127 233.886 230.37C233.959 231.75 234.039 233.133 234.219 234.506C234.292 235.087 234.398 235.662 234.497 236.238C234.514 236.317 234.528 236.387 234.544 236.448C234.647 236.801 234.763 237.148 234.891 237.49C235.998 240.602 234.605 244.186 231.451 245.434L231.449 245.433Z" fill="#053038"/>
<path d="M226.319 200.14C226.319 200.14 226.319 199.301 226.278 197.909C226.247 196.739 226.187 195.175 226.078 193.398C225.642 186.234 224.406 175.551 220.926 172.635C215.636 168.202 197.678 172.214 193.825 177.94C191.018 182.107 195.004 194.432 197.487 201.078C198.224 203.053 198.829 204.524 199.084 205.135C199.17 205.335 199.215 205.443 199.215 205.443C200.241 210.677 205.316 214.087 210.553 213.062L218.693 211.47C223.931 210.445 227.344 205.373 226.319 200.142V200.14Z" fill="#E1EFFC"/>
<path d="M17.6717 198.188C22.078 200.514 27.7508 199.35 30.326 194.873C32.0523 191.871 33.9567 188.986 36.0301 186.217C39.9782 181.284 44.4564 176.804 49.3927 172.857C50.9157 171.716 52.473 170.622 54.0695 169.584C56.0787 168.274 57.672 166.414 58.3194 164.061C58.9292 161.849 58.654 158.904 57.3875 156.94C54.7809 152.901 49.0691 150.8 44.7332 153.625C32.2806 161.738 21.7684 172.65 14.3537 185.544C11.9427 189.737 13.2342 195.844 17.6717 198.188Z" fill="#053038"/>
<path d="M61.7135 139.109C60.9395 139.109 60.1781 139.169 59.4353 139.283C55.8156 147.86 53.6437 157.793 54.7648 167.079C56.8382 168.178 59.2024 168.803 61.7135 168.803C69.9194 168.803 76.5725 162.155 76.5725 153.956C76.5725 145.757 69.9194 139.109 61.7135 139.109Z" fill="#F34137"/>
<path d="M59.4324 139.283C52.307 140.378 46.8516 146.531 46.8516 153.956C46.8516 159.648 50.057 164.588 54.7619 167.08C53.6408 157.795 55.8126 147.86 59.4324 139.283Z" fill="#F7A70D"/>
<path d="M12.3383 231.702L22.8633 232.605L23.5708 224.376L13.0458 223.472L12.3383 231.702Z" fill="#053038"/>
<path d="M3.81758 247.1C6.81347 248.287 10.6568 246.789 11.7686 243.662C11.8592 243.411 11.9437 243.158 12.0203 242.906C12.025 242.897 12.0281 242.889 12.0297 242.88C13.1789 239.247 13.3744 235.568 13.6199 231.812C13.659 231.184 13.7012 230.556 13.7512 229.922C13.8325 228.863 13.9435 227.805 14.128 226.76L20.3106 226.972C20.5889 228.474 20.5529 228.394 20.4529 229.649C20.3809 230.563 20.2574 231.47 20.1057 232.372C19.4897 235.992 18.3748 239.529 18.1528 243.213C18.1434 243.388 18.1387 243.566 18.1434 243.741V243.745C18.1934 246.836 20.2887 249.627 23.5222 250.007C26.6698 250.374 30.1222 247.957 30.3224 244.642C30.6585 239.118 32.6928 233.932 32.6928 228.402V228.308C32.6928 228.043 32.685 227.775 32.6725 227.513C32.6584 227.16 32.635 226.805 32.6006 226.449C32.2972 223.228 31.0854 220.201 28.7932 217.974C28.801 217.942 28.8119 217.911 28.8197 217.88C29.1434 216.616 29.5343 215.379 29.9924 214.161C30.3099 213.485 30.6445 212.816 31.0025 212.157C33.312 207.911 32.194 201.894 27.6846 199.513C23.3659 197.234 17.4976 198.293 15.0302 202.829C13.2962 206.016 11.8827 209.448 10.9836 212.966C10.8789 213.376 10.8038 213.794 10.7538 214.218C6.73997 216.024 3.63621 219.475 2.31026 223.709C2.31026 223.709 2.30714 223.712 2.30714 223.713C2.28994 223.79 2.26961 223.868 2.25241 223.945C1.91623 225.387 1.73173 226.843 1.6082 228.307V228.31C1.505 229.547 1.44715 230.794 1.38148 232.037C1.30799 233.417 1.22824 234.8 1.04843 236.173C0.974938 236.754 0.868613 237.329 0.770105 237.905C0.752906 237.984 0.738833 238.054 0.723197 238.115C0.619999 238.468 0.504291 238.815 0.376075 239.157C-0.730962 242.269 0.662216 245.853 3.81602 247.101L3.81758 247.1Z" fill="#053038"/>
<path d="M36.9887 204.808C36.4258 206.241 36.0552 207.108 36.0552 207.108C35.9176 207.81 35.7065 208.478 35.4329 209.106C33.6676 213.173 29.2519 215.613 24.7174 214.726L16.5773 213.134C11.3392 212.109 7.92581 207.038 8.95154 201.806C8.95154 201.806 8.95154 201.254 8.975 200.307C9.00001 199.098 9.061 197.237 9.19547 195.049C9.63015 187.889 10.8638 177.217 14.3444 174.303C19.6341 169.867 37.5922 173.881 41.445 179.605C44.5753 184.259 39.2465 199.076 36.9902 204.811L36.9887 204.808Z" fill="#E1EFFC"/>
<path d="M153.109 140.949C153.263 141.015 153.414 141.084 153.569 141.151C153.857 141.268 154.144 141.387 154.431 141.507C153.991 141.321 153.55 141.137 153.111 140.951L153.109 140.949Z" fill="#2F333F"/>
<path d="M165.732 148.193C165.766 148.221 165.801 148.249 165.837 148.277C165.952 148.365 166.068 148.454 166.185 148.541C166.661 148.896 164.917 147.543 165.732 148.193Z" fill="#2F333F"/>
<path d="M118.934 224.86C148.694 224.86 172.82 212.817 172.82 197.96C172.82 183.104 148.694 171.061 118.934 171.061C89.1728 171.061 65.0469 183.104 65.0469 197.96C65.0469 212.817 89.1728 224.86 118.934 224.86Z" fill="#053038"/>
<path d="M172.822 135.755C155.888 114.816 84.0996 116.719 65.047 135.755C54.7459 146.048 65.047 193.981 65.047 193.981C65.047 194.467 65.0798 194.943 65.1424 195.414C65.1049 195.564 65.0877 195.715 65.0877 195.865C65.0877 196.298 65.2331 196.721 65.5177 197.14C67.8506 200.583 79.5182 203.483 95.6375 204.928C102.688 205.559 110.59 205.915 118.937 205.915C127.283 205.915 135.186 205.561 142.235 204.928C158.345 203.483 170.009 200.586 172.353 197.146C172.636 196.728 172.783 196.299 172.783 195.867C172.783 195.715 172.764 195.565 172.728 195.415C172.791 194.946 172.822 194.47 172.822 193.983C172.822 193.983 181.979 147.079 172.822 135.757V135.755Z" fill="#E1EFFC"/>
<path d="M176.797 163.133C176.195 158.891 175.11 155.382 173.345 153.2C156.409 132.262 84.6222 134.163 65.5696 153.2C62.8958 155.871 61.6105 161.083 61.1727 167.329C60.0188 154.451 60.1939 140.72 65.1631 135.755C84.2157 116.718 156.004 114.817 172.938 135.755C176.83 140.565 177.415 151.803 176.797 163.133Z" fill="#63BEDD"/>
<path d="M174.312 156.642C174.328 156.663 174.344 156.685 174.359 156.707C174.431 156.798 174.503 156.888 174.577 156.979C175.143 157.69 173.737 155.86 174.314 156.642H174.312Z" fill="#2F333F"/>
<path d="M191.383 143.678C191.383 143.678 191.394 143.673 191.399 143.672C191.394 143.675 191.391 143.677 191.388 143.677C191.377 143.681 191.367 143.686 191.359 143.689C191.363 143.686 191.366 143.684 191.369 143.684C191.374 143.684 191.378 143.68 191.381 143.68L191.383 143.678Z" fill="#2F333F"/>
<path d="M95.6969 114.703V129.122C95.6969 130.928 106.964 132.393 120.862 132.393C134.759 132.393 146.026 130.929 146.026 129.122V114.703H95.6953H95.6969Z" fill="#1F222B"/>
<path d="M36.9863 204.806C36.4234 206.239 36.0529 207.106 36.0529 207.106C35.9153 207.807 35.7042 208.476 35.4305 209.104C25.9519 209.031 16.6203 205.886 8.97266 200.304C8.99767 199.094 9.05865 197.234 9.19313 195.045C16.8955 201.614 26.8979 205.056 36.9879 204.808L36.9863 204.806Z" fill="#F7A70D"/>
<path d="M226.488 198.956C226.456 197.785 226.397 196.222 226.288 194.444C225.406 194.834 224.502 195.165 223.651 195.486C220.621 196.625 217.545 197.643 214.435 198.538C208.949 200.12 203.351 201.329 197.695 202.122C198.432 204.097 199.037 205.569 199.292 206.18C205.144 205.306 210.93 204.053 216.607 202.361C219.941 201.371 223.265 200.266 226.486 198.954L226.488 198.956Z" fill="#F7A70D"/>
<path d="M118.2 43.5715V15.5578C114.58 14.7501 111.883 11.6208 111.883 7.88222C111.883 3.52964 115.537 0.00195312 120.043 0.00195312C124.55 0.00195312 128.205 3.52964 128.205 7.88222C128.205 11.6224 125.507 14.7517 121.888 15.5578V43.5715" fill="#D1D2D3"/>
<path d="M130.027 9.9347C130.027 15.4215 125.575 19.8694 120.084 19.8694C114.592 19.8694 110.141 15.4215 110.141 9.9347C110.141 4.44788 114.592 0 120.084 0C125.575 0 130.027 4.44788 130.027 9.9347Z" fill="#42454C"/>
<path d="M110.141 9.93598C110.141 15.4244 114.592 19.8691 120.082 19.8691C124.606 19.8691 128.422 16.8523 129.626 12.7184C127.813 15.1322 124.925 16.6945 121.671 16.6945C116.181 16.6945 111.729 12.2482 111.729 6.76137C111.729 5.79743 111.867 4.86161 112.125 3.98047C110.879 5.63964 110.141 7.70188 110.141 9.93754V9.93598Z" fill="#053038"/>
<path d="M120.711 2.21058C123.468 2.33869 126.187 3.69633 126.9 6.55222C127.272 8.03954 124.974 8.67384 124.601 7.18496C124.153 5.38518 122.423 4.67121 120.711 4.59153C119.184 4.52123 119.176 2.13871 120.711 2.21058Z" fill="white"/>
<path d="M130.582 33.9297H110.332V44.4378H130.582V33.9297Z" fill="#053038"/>
<path d="M128.675 27.9902H112.238V36.5204H128.675V27.9902Z" fill="#053038"/>
<path d="M127.393 25.9492H113.523V33.1468H127.393V25.9492Z" fill="#053038"/>
<path d="M194.021 91.569C194.628 91.3675 195.235 91.0816 195.812 90.7285C194.586 98.3979 191.238 103.905 187.298 103.905C183.357 103.905 179.989 98.3651 178.773 90.6582C183.528 93.2141 189.097 93.8531 194.02 91.5706L194.021 91.569Z" fill="#F34137"/>
<path d="M178.359 81.7268C178.934 72.0936 182.714 64.6523 187.295 64.6523C190.713 64.6523 193.687 68.794 195.215 74.8979C193.692 76.254 191.928 77.3461 190.305 78.1569C186.815 79.9004 182.535 81.7736 178.359 81.7268Z" fill="#FEBB38"/>
<path d="M190.303 78.1574C191.926 77.3466 193.69 76.2545 195.213 74.8984C195.91 77.6856 196.308 80.8805 196.308 84.2785C196.308 86.5392 196.129 88.7077 195.807 90.7293C195.23 91.0839 194.624 91.3683 194.017 91.5698C189.095 93.8539 183.525 93.2149 178.77 90.6574C178.454 88.6561 178.281 86.5126 178.281 84.2785C178.281 83.413 178.309 82.5631 178.359 81.7273C182.535 81.7741 186.815 79.9009 190.305 78.1574H190.303Z" fill="#F7A70D"/>
<path d="M177.65 103.906H187.296V64.6533H177.65V103.906Z" fill="#364667"/>
<path d="M46.7044 91.569C46.0977 91.3675 45.491 91.0816 44.9141 90.7285C46.1399 98.3979 49.4876 103.905 53.4279 103.905C57.3682 103.905 60.7363 98.3651 61.9527 90.6582C57.1978 93.2141 51.6282 93.8531 46.706 91.5706L46.7044 91.569Z" fill="#F34137"/>
<path d="M62.3636 81.7268C61.7881 72.0936 58.0089 64.6523 53.4275 64.6523C50.0095 64.6523 47.0355 68.794 45.5078 74.8979C47.0308 76.254 48.7945 77.3461 50.4176 78.1569C53.9075 79.9004 58.1871 81.7736 62.3636 81.7268Z" fill="#FEBB38"/>
<path d="M50.4183 78.1574C48.7953 77.3466 47.0315 76.2545 45.5086 74.8984C44.8112 77.6856 44.4141 80.8805 44.4141 84.2785C44.4141 86.5392 44.5923 88.7077 44.9144 90.7293C45.4914 91.0839 46.0981 91.3683 46.7048 91.5698C51.627 93.8539 57.1966 93.2149 61.9515 90.6574C62.2674 88.6561 62.4409 86.5126 62.4409 84.2785C62.4409 83.413 62.4128 82.5631 62.3628 81.7273C58.1864 81.7741 53.9068 79.9009 50.4168 78.1574H50.4183Z" fill="#F7A70D"/>
<path d="M63.0717 64.6523H53.4258V103.905H63.0717V64.6523Z" fill="#364667"/>
<path d="M57.0898 69.7676V118.905C57.0898 120.789 58.6316 122.33 60.5173 122.33H179.869C181.755 122.33 183.297 120.789 183.297 118.905V69.7676H57.0898Z" fill="#63BEDD"/>
<path d="M57.4297 61.2809V113.409C57.4297 115.293 58.9714 116.833 60.8571 116.833H180.209C182.095 116.833 183.637 115.293 183.637 113.409V61.2809C183.637 50.9134 175.226 42.5098 164.85 42.5098H76.2165C65.8404 42.5098 57.4297 50.9134 57.4297 61.2809Z" fill="#E1EFFC"/>
<path d="M169.751 54.3477H71.3138C70.2776 54.3477 69.4375 55.187 69.4375 56.2224V94.8223C69.4375 95.8577 70.2776 96.6971 71.3138 96.6971H169.751C170.787 96.6971 171.627 95.8577 171.627 94.8223V56.2224C171.627 55.187 170.787 54.3477 169.751 54.3477Z" fill="#52AE32"/>
<path d="M110.233 106.63C111.747 107.496 113.449 108.125 115.115 108.624C118.738 109.71 122.542 109.983 126.271 109.347C128.742 108.925 131.154 107.957 133.274 106.63C134.571 105.819 135.198 103.985 134.324 102.631C133.486 101.332 131.709 100.715 130.321 101.582C129.531 102.076 128.709 102.509 127.853 102.879C128.086 102.781 128.319 102.682 128.552 102.584C127.128 103.182 125.641 103.587 124.112 103.802C124.371 103.768 124.631 103.732 124.889 103.698C123.097 103.934 121.291 103.91 119.502 103.671C119.762 103.706 120.021 103.742 120.279 103.776C118.175 103.482 116.114 102.907 114.156 102.086C114.389 102.184 114.622 102.282 114.855 102.381C114.289 102.14 113.72 101.889 113.185 101.584C111.856 100.825 109.925 101.228 109.182 102.632C108.447 104.023 108.813 105.821 110.231 106.632L110.233 106.63Z" fill="#364667"/>
<path d="M151.38 89.1711C159.254 89.1711 165.638 82.7926 165.638 74.9244C165.638 67.0562 159.254 60.6777 151.38 60.6777C143.505 60.6777 137.121 67.0562 137.121 74.9244C137.121 82.7926 143.505 89.1711 151.38 89.1711Z" fill="white"/>
<path d="M162.004 76.7245C162.971 70.9014 159.03 65.3977 153.202 64.4316C147.374 63.4655 141.866 67.4029 140.899 73.2259C139.932 79.049 143.873 84.5527 149.701 85.5188C155.529 86.4849 161.037 82.5475 162.004 76.7245Z" fill="#005180"/>
<path d="M158.268 78.4309C161.705 78.4309 164.49 75.6477 164.49 72.2145C164.49 68.7812 161.705 65.998 158.268 65.998C154.832 65.998 152.047 68.7812 152.047 72.2145C152.047 75.6477 154.832 78.4309 158.268 78.4309Z" fill="white"/>
<path d="M92.1648 89.1711C100.04 89.1711 106.423 82.7926 106.423 74.9244C106.423 67.0562 100.04 60.6777 92.1648 60.6777C84.29 60.6777 77.9062 67.0562 77.9062 74.9244C77.9062 82.7926 84.29 89.1711 92.1648 89.1711Z" fill="white"/>
<path d="M102.81 76.6349C103.727 70.8038 99.7395 65.3339 93.9035 64.4177C88.0675 63.5014 82.5931 67.4857 81.676 73.3168C80.759 79.1479 84.7466 84.6178 90.5826 85.534C96.4186 86.4503 101.893 82.466 102.81 76.6349Z" fill="#005180"/>
<path d="M99.0497 78.4309C102.486 78.4309 105.271 75.6477 105.271 72.2145C105.271 68.7812 102.486 65.998 99.0497 65.998C95.6136 65.998 92.8281 68.7812 92.8281 72.2145C92.8281 75.6477 95.6136 78.4309 99.0497 78.4309Z" fill="white"/>
</svg>
