<svg width="237" height="305" viewBox="0 0 237 305" fill="none" xmlns="http://www.w3.org/2000/svg">
<path d="M105.927 200.164H81.4453V291.496H105.927V200.164Z" fill="#053038"/>
<path d="M101.863 228.196C96.2094 228.762 90.5084 228.512 84.9357 227.39C83.2517 227.051 82.5309 229.632 84.2227 229.972C90.03 231.14 95.967 231.463 101.863 230.874C102.584 230.802 103.203 230.31 103.203 229.535C103.203 228.866 102.587 228.123 101.863 228.196Z" fill="#66686D"/>
<path d="M102.317 238.011C96.6625 238.576 90.9616 238.326 85.3888 237.204C83.7048 236.865 82.984 239.446 84.6758 239.787C90.4831 240.954 96.4201 241.277 102.317 240.688C103.037 240.617 103.657 240.124 103.657 239.349C103.657 238.681 103.04 237.937 102.317 238.011Z" fill="#66686D"/>
<path d="M104.485 298.871C104.473 298.847 104.462 298.822 104.451 298.799H62.5836C62.285 299.824 62.0614 300.872 61.9222 301.933C61.8472 302.506 61.8362 303.187 62.2897 303.547C62.5696 303.767 62.9495 303.798 63.3045 303.819C77.6975 304.662 92.139 304.637 106.531 303.762C105.971 302.078 105.284 300.442 104.485 298.871Z" fill="#2F333F"/>
<path d="M78.4808 280.89C78.4449 281.253 78.3776 281.609 78.2385 281.946C77.588 283.546 75.7758 284.262 74.2153 285.005C68.616 287.672 64.3129 292.859 62.582 298.797H100.429V292.604C95.0035 285.896 87.2136 281.334 78.4808 280.889V280.89Z" fill="#E1EFFC"/>
<path d="M100.43 292.605V298.798H104.45C103.322 296.591 101.971 294.511 100.43 292.605Z" fill="#E1EFFC"/>
<path d="M112.568 298.801C112.212 292.566 111.741 286.338 111.158 280.12C111.017 278.63 110.856 277.141 110.703 275.652C109.897 267.808 108.911 259.984 107.749 252.185C105.54 250.411 103.055 248.996 100.43 247.957V286.454C103.649 289.935 106.329 294.222 108.443 298.799H112.57L112.568 298.801Z" fill="#63BEDD"/>
<path d="M88.3825 245.972C85.5712 246.253 82.8927 247.319 80.5191 248.915C78.8539 257.717 78.1237 266.694 78.3426 275.648C78.3645 276.551 78.4036 277.454 78.4442 278.357C87.3584 276.653 94.7355 280.294 100.427 286.451V247.955C96.5852 246.436 92.4385 245.735 88.3825 245.974V245.972Z" fill="#E1EFFC"/>
<path d="M112.572 298.799H108.445C109.138 300.299 109.771 301.831 110.34 303.376C110.983 303.198 111.565 302.901 111.978 302.381C112.681 301.495 112.655 300.253 112.59 299.124C112.584 299.016 112.578 298.907 112.572 298.799Z" fill="#2F333F"/>
<path d="M78.4492 278.361C78.4633 278.662 78.4664 278.965 78.4836 279.267C78.4993 279.55 78.5133 279.836 78.5165 280.12C78.5196 280.379 78.5086 280.637 78.4852 280.893C89.7244 281.465 99.4001 288.858 104.485 298.872H108.478C102.632 286.166 92.431 275.689 78.4492 278.361Z" fill="#F7A70D"/>
<path d="M104.484 298.871C105.283 300.442 105.971 302.077 106.531 303.762C107.163 303.723 107.796 303.694 108.429 303.651C109.061 303.609 109.729 303.545 110.34 303.375C109.779 301.855 109.158 300.347 108.478 298.869H104.484V298.871Z" fill="#2F333F"/>
<path d="M129.94 291.498H154.422V200.166H129.94V291.498Z" fill="#053038"/>
<path d="M134.008 228.196C139.662 228.762 145.363 228.512 150.936 227.39C152.62 227.051 153.34 229.632 151.649 229.972C145.841 231.14 139.904 231.463 134.008 230.874C133.287 230.802 132.668 230.31 132.668 229.535C132.668 228.866 133.284 228.123 134.008 228.196Z" fill="#66686D"/>
<path d="M133.551 238.011C139.205 238.576 144.906 238.326 150.479 237.204C152.163 236.865 152.883 239.446 151.192 239.787C145.384 240.954 139.447 241.277 133.551 240.688C132.83 240.617 132.211 240.124 132.211 239.349C132.211 238.681 132.827 237.937 133.551 238.011Z" fill="#66686D"/>
<path d="M173.948 301.933C173.809 300.872 173.585 299.824 173.287 298.799H131.419C131.407 298.822 131.396 298.847 131.385 298.871C130.588 300.442 129.9 302.078 129.34 303.762C143.73 304.636 158.173 304.661 172.566 303.819C172.921 303.798 173.301 303.767 173.581 303.547C174.034 303.187 174.023 302.506 173.948 301.933Z" fill="#2F333F"/>
<path d="M157.386 280.89C157.422 281.253 157.489 281.609 157.628 281.946C158.279 283.546 160.091 284.262 161.651 285.005C167.251 287.672 171.554 292.859 173.285 298.797H135.438V292.604C140.863 285.896 148.653 281.334 157.386 280.889V280.89Z" fill="#E1EFFC"/>
<path d="M135.442 292.605V298.798H131.422C132.549 296.591 133.9 294.511 135.442 292.605Z" fill="#E1EFFC"/>
<path d="M123.298 298.801C123.655 292.566 124.126 286.338 124.709 280.12C124.85 278.63 125.011 277.141 125.164 275.652C125.969 267.808 126.956 259.984 128.117 252.185C130.327 250.411 132.811 248.996 135.437 247.957V286.454C132.217 289.935 129.537 294.222 127.423 298.799H123.297L123.298 298.801Z" fill="#63BEDD"/>
<path d="M147.486 245.972C150.297 246.253 152.976 247.319 155.349 248.915C157.015 257.717 157.745 266.694 157.526 275.648C157.504 276.551 157.465 277.454 157.424 278.357C148.51 276.653 141.133 280.294 135.441 286.451V247.955C139.283 246.436 143.43 245.735 147.486 245.974V245.972Z" fill="#E1EFFC"/>
<path d="M126.698 298.871H127.396C127.407 298.847 127.418 298.822 127.429 298.799H123.303C123.297 298.907 123.29 299.016 123.284 299.124C123.22 300.253 123.193 301.495 123.897 302.381C124.31 302.9 124.892 303.197 125.534 303.376C126.096 301.856 126.718 300.349 127.398 298.871H126.699H126.698Z" fill="#2F333F"/>
<path d="M157.428 278.361C143.446 275.688 133.245 286.165 127.398 298.873H131.392C136.477 288.858 146.152 281.465 157.392 280.894C157.367 280.639 157.356 280.38 157.36 280.12C157.363 279.836 157.378 279.55 157.393 279.267C157.409 278.966 157.414 278.663 157.428 278.361Z" fill="#F7A70D"/>
<path d="M125.531 303.375C126.144 303.546 126.812 303.61 127.442 303.652C128.074 303.694 128.707 303.724 129.34 303.763C129.9 302.077 130.59 300.443 131.387 298.871H127.394C126.713 300.349 126.093 301.857 125.531 303.377V303.375Z" fill="#2F333F"/>
<path d="M217.896 197.079C213.49 199.405 207.817 198.241 205.242 193.763C203.516 190.762 201.611 187.877 199.538 185.108C195.59 180.174 191.111 175.695 186.175 171.747C184.652 170.607 183.095 169.513 181.498 168.474C179.489 167.165 177.896 165.304 177.248 162.952C176.639 160.739 176.914 157.794 178.18 155.831C180.787 151.792 186.499 149.691 190.835 152.515C203.287 160.628 213.799 171.541 221.214 184.435C223.625 188.628 222.334 194.735 217.896 197.079Z" fill="#053038"/>
<path d="M177.064 167.343C176.032 167.57 174.96 167.693 173.859 167.693C165.653 167.693 159 161.046 159 152.847C159 144.648 165.653 138 173.859 138C176.326 138 178.65 138.605 180.698 139.667C181.571 149.08 180.844 158.685 177.064 167.343Z" fill="#F34137"/>
<path d="M188.716 152.845C188.716 159.944 183.727 165.876 177.062 167.342C180.842 158.684 181.569 149.078 180.696 139.666C185.461 142.139 188.716 147.11 188.716 152.845Z" fill="#F7A70D"/>
<path d="M223.228 230.601L212.703 231.504L211.996 223.274L222.521 222.371L223.228 230.601Z" fill="#053038"/>
<path d="M231.754 245.989C228.758 247.177 224.915 245.678 223.803 242.552C223.712 242.301 223.628 242.048 223.551 241.796C223.547 241.787 223.544 241.779 223.542 241.769C222.393 238.137 222.197 234.458 221.952 230.702C221.913 230.074 221.871 229.446 221.821 228.812C221.739 227.752 221.628 226.695 221.444 225.65L215.261 225.862C214.983 227.363 215.019 227.284 215.119 228.538C215.191 229.452 215.314 230.36 215.466 231.261C216.082 234.881 217.197 238.418 217.419 242.102C217.428 242.277 217.433 242.455 217.428 242.63V242.635C217.378 245.725 215.283 248.517 212.049 248.897C208.902 249.264 205.449 246.847 205.249 243.532C204.913 238.007 202.879 232.822 202.879 227.292V227.198C202.879 226.932 202.887 226.665 202.899 226.403C202.913 226.05 202.937 225.695 202.971 225.339C203.275 222.117 204.486 219.091 206.779 216.863C206.771 216.832 206.76 216.801 206.752 216.769C206.428 215.506 206.037 214.268 205.579 213.051C205.262 212.375 204.927 211.706 204.569 211.047C202.26 206.8 203.378 200.784 207.887 198.403C212.206 196.124 218.074 197.183 220.541 201.718C222.276 204.905 223.689 208.338 224.588 211.856C224.693 212.265 224.768 212.684 224.818 213.107C228.832 214.913 231.936 218.365 233.261 222.598C233.261 222.598 233.265 222.602 233.265 222.603C233.282 222.68 233.302 222.758 233.319 222.834C233.655 224.276 233.84 225.732 233.964 227.196V227.199C234.067 228.437 234.125 229.683 234.19 230.927C234.264 232.307 234.343 233.689 234.523 235.063C234.597 235.644 234.703 236.219 234.802 236.795C234.819 236.873 234.833 236.944 234.849 237.004C234.952 237.358 235.067 237.704 235.196 238.047C236.303 241.159 234.91 244.743 231.756 245.991L231.754 245.989Z" fill="#053038"/>
<path d="M226.623 200.697C226.623 200.697 226.623 199.858 226.583 198.466C226.551 197.296 226.492 195.732 226.382 193.954C225.946 186.791 224.711 176.108 221.23 173.191C215.941 168.759 197.983 172.771 194.13 178.497C191.323 182.663 195.309 194.988 197.792 201.634C198.528 203.609 199.133 205.081 199.388 205.692C199.474 205.892 199.52 206 199.52 206C200.545 211.233 205.621 214.644 210.857 213.619L218.998 212.027C224.236 211.002 227.649 205.929 226.623 200.699V200.697Z" fill="#E1EFFC"/>
<path d="M17.9764 198.744C22.3827 201.071 28.0555 199.907 30.6307 195.429C32.357 192.428 34.2614 189.542 36.3348 186.774C40.2829 181.84 44.7611 177.361 49.6974 173.413C51.2204 172.273 52.7777 171.179 54.3742 170.14C56.3834 168.831 57.9767 166.97 58.6241 164.617C59.2339 162.405 58.9587 159.46 57.6922 157.496C55.0856 153.458 49.3737 151.357 45.0378 154.181C32.5852 162.294 22.0731 173.207 14.6584 186.101C12.2473 190.294 13.5389 196.401 17.9764 198.744Z" fill="#053038"/>
<path d="M62.0182 139.666C61.2442 139.666 60.4827 139.725 59.74 139.839C56.1203 148.416 53.9484 158.35 55.0695 167.636C57.1429 168.734 59.5071 169.359 62.0182 169.359C70.2241 169.359 76.8772 162.712 76.8772 154.513C76.8772 146.314 70.2241 139.666 62.0182 139.666Z" fill="#F34137"/>
<path d="M59.7371 139.84C52.6117 140.935 47.1562 147.087 47.1562 154.513C47.1562 160.204 50.3617 165.144 55.0666 167.636C53.9455 158.352 56.1173 148.417 59.7371 139.84Z" fill="#F7A70D"/>
<path d="M12.643 232.259L23.168 233.162L23.8755 224.933L13.3505 224.029L12.643 232.259Z" fill="#053038"/>
<path d="M4.12227 247.656C7.11815 248.844 10.9615 247.345 12.0732 244.219C12.1639 243.968 12.2484 243.715 12.325 243.463C12.3297 243.454 12.3328 243.446 12.3344 243.436C13.4836 239.804 13.6791 236.125 13.9246 232.369C13.9636 231.741 14.0059 231.113 14.0559 230.479C14.1372 229.419 14.2482 228.362 14.4327 227.317L20.6153 227.529C20.8936 229.03 20.8576 228.951 20.7575 230.205C20.6856 231.119 20.5621 232.027 20.4104 232.928C19.7944 236.548 18.6795 240.085 18.4575 243.769C18.4481 243.944 18.4434 244.122 18.4481 244.297V244.302C18.4981 247.392 20.5934 250.184 23.8269 250.564C26.9745 250.931 30.4269 248.514 30.6271 245.199C30.9632 239.674 32.9975 234.489 32.9975 228.959V228.865C32.9975 228.599 32.9897 228.332 32.9772 228.07C32.9631 227.717 32.9396 227.362 32.9052 227.006C32.6019 223.784 31.3901 220.758 29.0978 218.53C29.1057 218.499 29.1166 218.468 29.1244 218.436C29.4481 217.173 29.839 215.935 30.2971 214.718C30.6145 214.042 30.9492 213.373 31.3072 212.714C33.6167 208.467 32.4987 202.451 27.9892 200.07C23.6705 197.791 17.8023 198.85 15.3349 203.385C13.6009 206.572 12.1874 210.005 11.2883 213.523C11.1835 213.932 11.1085 214.351 11.0585 214.774C7.04466 216.58 3.94089 220.032 2.61495 224.265C2.61495 224.265 2.61182 224.268 2.61182 224.27C2.59462 224.347 2.5743 224.425 2.5571 224.501C2.22092 225.943 2.03641 227.399 1.91289 228.863V228.866C1.80969 230.104 1.75184 231.35 1.68617 232.594C1.61268 233.974 1.53293 235.356 1.35312 236.729C1.27963 237.311 1.1733 237.886 1.07479 238.462C1.05759 238.54 1.04352 238.61 1.02788 238.671C0.924686 239.024 0.808979 239.371 0.680763 239.713C-0.426275 242.826 0.966904 246.409 4.12071 247.658L4.12227 247.656Z" fill="#053038"/>
<path d="M37.2934 205.365C36.7305 206.798 36.3599 207.665 36.3599 207.665C36.2223 208.366 36.0112 209.035 35.7376 209.663C33.9722 213.73 29.5566 216.17 25.0221 215.283L16.882 213.691C11.6439 212.666 8.2305 207.594 9.25623 202.362C9.25623 202.362 9.25623 201.811 9.27968 200.864C9.3047 199.655 9.36568 197.794 9.50015 195.605C9.93484 188.445 11.1685 177.773 14.6491 174.859C19.9388 170.424 37.8969 174.438 41.7496 180.162C44.88 184.816 39.5512 199.633 37.2949 205.368L37.2934 205.365Z" fill="#E1EFFC"/>
<path d="M153.414 141.506C153.567 141.571 153.719 141.64 153.874 141.707C154.161 141.825 154.449 141.943 154.735 142.064C154.296 141.878 153.855 141.693 153.416 141.507L153.414 141.506Z" fill="#2F333F"/>
<path d="M166.037 148.75C166.071 148.778 166.105 148.806 166.141 148.834C166.257 148.921 166.373 149.011 166.49 149.098C166.965 149.453 165.222 148.1 166.037 148.75Z" fill="#2F333F"/>
<path d="M119.238 225.417C148.999 225.417 173.125 213.373 173.125 198.517C173.125 183.661 148.999 171.617 119.238 171.617C89.4775 171.617 65.3516 183.661 65.3516 198.517C65.3516 213.373 89.4775 225.417 119.238 225.417Z" fill="#053038"/>
<path d="M173.127 136.312C156.193 115.373 84.4043 117.275 65.3517 136.312C55.0506 146.605 65.3517 194.538 65.3517 194.538C65.3517 195.024 65.3845 195.5 65.4471 195.97C65.4095 196.12 65.3923 196.272 65.3923 196.422C65.3923 196.855 65.5378 197.278 65.8223 197.697C68.1553 201.14 79.8229 204.04 95.9422 205.485C102.993 206.116 110.895 206.472 119.242 206.472C127.588 206.472 135.491 206.117 142.539 205.485C158.649 204.04 170.314 201.143 172.658 197.703C172.941 197.284 173.088 196.856 173.088 196.423C173.088 196.272 173.069 196.122 173.033 195.972C173.095 195.503 173.127 195.027 173.127 194.539C173.127 194.539 182.283 147.636 173.127 136.314V136.312Z" fill="#E1EFFC"/>
<path d="M177.102 163.689C176.5 159.448 175.415 155.939 173.649 153.756C156.714 132.818 84.9269 134.719 65.8743 153.756C63.2005 156.428 61.9152 161.64 61.4774 167.886C60.3235 155.008 60.4986 141.276 65.4677 136.311C84.5203 117.275 156.309 115.373 173.243 136.311C177.135 141.122 177.719 152.359 177.102 163.689Z" fill="#63BEDD"/>
<path d="M174.617 157.198C174.633 157.22 174.648 157.242 174.664 157.264C174.736 157.354 174.808 157.445 174.881 157.536C175.447 158.246 174.042 156.417 174.619 157.198H174.617Z" fill="#2F333F"/>
<path d="M191.688 144.235C191.688 144.235 191.699 144.23 191.703 144.229C191.699 144.232 191.696 144.233 191.692 144.233C191.681 144.238 191.672 144.243 191.664 144.246C191.667 144.243 191.67 144.241 191.674 144.241C191.678 144.241 191.683 144.236 191.686 144.236L191.688 144.235Z" fill="#2F333F"/>
<path d="M96.0016 115.26V129.678C96.0016 131.484 107.269 132.95 121.166 132.95C135.064 132.95 146.331 131.486 146.331 129.678V115.26H96H96.0016Z" fill="#1F222B"/>
<path d="M37.291 205.363C36.7281 206.795 36.3575 207.663 36.3575 207.663C36.2199 208.364 36.0089 209.033 35.7352 209.661C26.2566 209.587 16.925 206.442 9.27734 200.86C9.30236 199.651 9.36334 197.79 9.49781 195.602C17.2002 202.171 27.2026 205.613 37.2926 205.364L37.291 205.363Z" fill="#F7A70D"/>
<path d="M226.792 199.512C226.761 198.342 226.702 196.778 226.592 195C225.71 195.391 224.807 195.722 223.956 196.042C220.926 197.181 217.85 198.2 214.74 199.095C209.253 200.676 203.656 201.885 198 202.679C198.736 204.654 199.342 206.125 199.596 206.736C205.449 205.863 211.234 204.61 216.912 202.918C220.245 201.928 223.57 200.823 226.791 199.511L226.792 199.512Z" fill="#F7A70D"/>
<path d="M144.606 192.793C155.868 181.633 155.868 163.539 144.606 152.379C133.343 141.219 115.084 141.219 103.822 152.379C92.5595 163.539 92.5595 181.633 103.822 192.793C115.084 203.953 133.343 203.953 144.606 192.793Z" fill="#C7D6E2" fill-opacity="0.1"/>
<path d="M141.176 190.621C152.438 179.461 152.438 161.367 141.176 150.207C129.914 139.047 111.654 139.047 100.392 150.207C89.1298 161.367 89.1298 179.461 100.392 190.621C111.654 201.781 129.914 201.781 141.176 190.621Z" fill="#63BEDD" fill-opacity="0.1"/>
<path d="M120.783 195.592C134.815 195.592 146.191 184.32 146.191 170.415C146.191 156.51 134.815 145.238 120.783 145.238C106.75 145.238 95.375 156.51 95.375 170.415C95.375 184.32 106.75 195.592 120.783 195.592Z" fill="white"/>
<path d="M121.857 195.591C135.296 195.591 146.191 184.557 146.191 170.947C146.191 157.336 135.296 146.303 121.857 146.303C108.418 146.303 97.5234 157.336 97.5234 170.947C97.5234 184.557 108.418 195.591 121.857 195.591Z" fill="white"/>
<g clip-path="url(#clip0_1023_13527)">
<path d="M121.672 147.104V154.561L135.352 162.305V178.845L121.672 186.87V194.306L141.834 182.887V158.333L121.672 147.104Z" fill="#008339"/>
<path d="M119.617 147.104L99.4766 158.333V182.887L119.617 194.306V186.87L105.937 178.845V162.305L119.617 154.561V147.104Z" fill="#52AE32"/>
<path d="M108.961 166.768H111.024L113.06 172.121H113.081L115.15 166.768H117.088L113.7 174.938H112.245L108.961 166.768Z" fill="#008339"/>
<path d="M119.756 170.151H120.826C121.488 170.151 122.346 170.13 122.346 169.239C122.346 168.419 121.602 168.295 120.94 168.295H119.756V170.151ZM117.943 166.768H121.124C122.807 166.768 124.224 167.345 124.224 169.25C124.224 170.394 123.61 171.284 122.449 171.489L124.539 174.943H122.367L120.646 171.678H119.751V174.943H117.938V166.768H117.943Z" fill="#008339"/>
<path d="M127.28 170.151H128.349C129.011 170.151 129.869 170.13 129.869 169.239C129.869 168.419 129.125 168.295 128.463 168.295H127.28V170.151ZM125.466 166.768H128.648C130.33 166.768 131.747 167.345 131.747 169.25C131.747 170.394 131.134 171.284 129.972 171.489L132.062 174.943H129.891L128.17 171.678H127.274V174.943H125.461V166.768H125.466Z" fill="#008339"/>
</g>
<path d="M118.504 44.1282V16.1145C114.885 15.3068 112.188 12.1775 112.188 8.43886C112.188 4.08628 115.842 0.558594 120.348 0.558594C124.854 0.558594 128.51 4.08628 128.51 8.43886C128.51 12.179 125.811 15.3083 122.193 16.1145V44.1282" fill="#D1D2D3"/>
<path d="M130.331 10.4913C130.331 15.9782 125.88 20.426 120.388 20.426C114.897 20.426 110.445 15.9782 110.445 10.4913C110.445 5.00452 114.897 0.556641 120.388 0.556641C125.88 0.556641 130.331 5.00452 130.331 10.4913Z" fill="#42454C"/>
<path d="M110.445 10.4926C110.445 15.981 114.897 20.4258 120.387 20.4258C124.91 20.4258 128.727 17.4089 129.931 13.2751C128.117 15.6888 125.229 17.2512 121.975 17.2512C116.486 17.2512 112.034 12.8048 112.034 7.31801C112.034 6.35407 112.172 5.41825 112.43 4.53711C111.183 6.19628 110.445 8.25852 110.445 10.4942V10.4926Z" fill="#053038"/>
<path d="M121.016 2.76722C123.773 2.89533 126.492 4.25297 127.205 7.10886C127.577 8.59618 125.278 9.23048 124.906 7.7416C124.457 5.94182 122.728 5.22785 121.016 5.14817C119.488 5.07787 119.48 2.69535 121.016 2.76722Z" fill="white"/>
<path d="M130.887 34.4863H110.637V44.9944H130.887V34.4863Z" fill="#053038"/>
<path d="M128.98 28.5469H112.543V37.0771H128.98V28.5469Z" fill="#053038"/>
<path d="M127.697 26.5059H113.828V33.7034H127.697V26.5059Z" fill="#053038"/>
<path d="M194.326 92.1257C194.933 91.9241 195.54 91.6382 196.117 91.2851C194.891 98.9545 191.543 104.462 187.603 104.462C183.663 104.462 180.295 98.9217 179.078 91.2148C183.833 93.7708 189.403 94.4098 194.325 92.1272L194.326 92.1257Z" fill="#F34137"/>
<path d="M178.664 82.2834C179.239 72.6502 183.019 65.209 187.6 65.209C191.018 65.209 193.992 69.3507 195.52 75.4546C193.997 76.8107 192.233 77.9027 190.61 78.7135C187.12 80.4571 182.84 82.3303 178.664 82.2834Z" fill="#FEBB38"/>
<path d="M190.609 78.714C192.232 77.9032 193.995 76.8112 195.518 75.4551C196.216 78.2422 196.613 81.4371 196.613 84.8352C196.613 87.0958 196.435 89.2643 196.112 91.2859C195.536 91.6406 194.929 91.9249 194.322 92.1264C189.4 94.4105 183.83 93.7715 179.075 91.2141C178.759 89.2127 178.586 87.0693 178.586 84.8352C178.586 83.9696 178.614 83.1197 178.664 82.2839C182.841 82.3308 187.12 80.4576 190.61 78.714H190.609Z" fill="#F7A70D"/>
<path d="M177.956 104.463H187.602V65.21H177.956V104.463Z" fill="#364667"/>
<path d="M47.0091 92.1257C46.4024 91.9241 45.7957 91.6382 45.2188 91.2851C46.4446 98.9545 49.7923 104.462 53.7326 104.462C57.6729 104.462 61.0409 98.9217 62.2574 91.2148C57.5025 93.7708 51.9329 94.4098 47.0106 92.1272L47.0091 92.1257Z" fill="#F34137"/>
<path d="M62.6682 82.2834C62.0928 72.6502 58.3136 65.209 53.7322 65.209C50.3141 65.209 47.3401 69.3507 45.8125 75.4546C47.3355 76.8107 49.0992 77.9027 50.7222 78.7135C54.2122 80.4571 58.4918 82.3303 62.6682 82.2834Z" fill="#FEBB38"/>
<path d="M50.723 78.714C49.1 77.9032 47.3362 76.8112 45.8133 75.4551C45.1159 78.2422 44.7188 81.4371 44.7188 84.8352C44.7188 87.0958 44.897 89.2643 45.2191 91.2859C45.7961 91.6406 46.4028 91.9249 47.0094 92.1264C51.9317 94.4105 57.5013 93.7715 62.2562 91.2141C62.5721 89.2127 62.7456 87.0693 62.7456 84.8352C62.7456 83.9696 62.7175 83.1197 62.6675 82.2839C58.491 82.3308 54.2114 80.4576 50.7215 78.714H50.723Z" fill="#F7A70D"/>
<path d="M63.3764 65.209H53.7305V104.462H63.3764V65.209Z" fill="#364667"/>
<path d="M57.3945 70.3242V119.462C57.3945 121.346 58.9362 122.886 60.822 122.886H180.174C182.06 122.886 183.601 121.346 183.601 119.462V70.3242H57.3945Z" fill="#63BEDD"/>
<path d="M57.7344 61.8375V113.965C57.7344 115.85 59.2761 117.39 61.1618 117.39H180.514C182.4 117.39 183.941 115.85 183.941 113.965V61.8375C183.941 51.47 175.531 43.0664 165.155 43.0664H76.5212C66.145 43.0664 57.7344 51.47 57.7344 61.8375Z" fill="#E1EFFC"/>
<path d="M170.056 54.9043H71.6185C70.5823 54.9043 69.7422 55.7437 69.7422 56.7791V95.3789C69.7422 96.4143 70.5823 97.2537 71.6185 97.2537H170.056C171.092 97.2537 171.932 96.4143 171.932 95.3789V56.7791C171.932 55.7437 171.092 54.9043 170.056 54.9043Z" fill="#52AE32"/>
<path d="M110.538 107.187C112.051 108.052 113.754 108.682 115.419 109.18C119.042 110.266 122.846 110.54 126.576 109.904C129.046 109.482 131.459 108.513 133.579 107.187C134.875 106.376 135.502 104.542 134.628 103.187C133.79 101.889 132.014 101.272 130.625 102.139C129.836 102.633 129.013 103.066 128.158 103.436C128.391 103.337 128.624 103.239 128.857 103.141C127.433 103.739 125.946 104.144 124.416 104.359C124.676 104.325 124.935 104.289 125.193 104.254C123.402 104.49 121.596 104.467 119.807 104.228C120.066 104.262 120.326 104.298 120.584 104.333C118.479 104.039 116.418 103.464 114.461 102.642C114.694 102.741 114.927 102.839 115.16 102.937C114.594 102.697 114.025 102.445 113.49 102.141C112.161 101.381 110.23 101.784 109.487 103.189C108.752 104.579 109.118 106.378 110.536 107.188L110.538 107.187Z" fill="#364667"/>
<path d="M151.684 89.7277C159.559 89.7277 165.943 83.3493 165.943 75.481C165.943 67.6128 159.559 61.2344 151.684 61.2344C143.81 61.2344 137.426 67.6128 137.426 75.481C137.426 83.3493 143.81 89.7277 151.684 89.7277Z" fill="white"/>
<path d="M162.309 77.2811C163.276 71.458 159.335 65.9543 153.507 64.9882C147.679 64.0221 142.171 67.9595 141.204 73.7826C140.237 79.6056 144.178 85.1093 150.006 86.0754C155.833 87.0415 161.342 83.1042 162.309 77.2811Z" fill="#005180"/>
<path d="M158.573 78.9875C162.009 78.9875 164.795 76.2043 164.795 72.7711C164.795 69.3379 162.009 66.5547 158.573 66.5547C155.137 66.5547 152.352 69.3379 152.352 72.7711C152.352 76.2043 155.137 78.9875 158.573 78.9875Z" fill="white"/>
<path d="M92.4695 89.7277C100.344 89.7277 106.728 83.3493 106.728 75.481C106.728 67.6128 100.344 61.2344 92.4695 61.2344C84.5947 61.2344 78.2109 67.6128 78.2109 75.481C78.2109 83.3493 84.5947 89.7277 92.4695 89.7277Z" fill="white"/>
<path d="M103.115 77.1915C104.032 71.3604 100.044 65.8906 94.2082 64.9743C88.3722 64.0581 82.8978 68.0423 81.9807 73.8735C81.0637 79.7046 85.0513 85.1744 90.8873 86.0907C96.7233 87.0069 102.198 83.0226 103.115 77.1915Z" fill="#005180"/>
<path d="M99.3544 78.9875C102.791 78.9875 105.576 76.2043 105.576 72.7711C105.576 69.3379 102.791 66.5547 99.3544 66.5547C95.9183 66.5547 93.1328 69.3379 93.1328 72.7711C93.1328 76.2043 95.9183 78.9875 99.3544 78.9875Z" fill="white"/>
<defs>
<clipPath id="clip0_1023_13527">
<rect width="42.3598" height="47.2024" fill="white" transform="translate(99.4766 147.104)"/>
</clipPath>
</defs>
</svg>
