<svg width="458" height="590" viewBox="0 0 458 590" fill="none" xmlns="http://www.w3.org/2000/svg">
<g clip-path="url(#clip0_1023_10897)">
<path d="M204.957 387.092H157.512L157.512 564.094H204.957L204.957 387.092Z" fill="#053038"/>
<path d="M197.078 441.417C186.12 442.513 175.072 442.028 164.272 439.854C161.008 439.197 159.611 444.199 162.89 444.859C174.144 447.121 185.65 447.748 197.078 446.606C198.475 446.467 199.675 445.513 199.675 444.011C199.675 442.715 198.481 441.274 197.078 441.417Z" fill="#66686D"/>
<path d="M197.965 460.436C187.007 461.532 175.959 461.048 165.159 458.874C161.895 458.217 160.498 463.219 163.777 463.879C175.032 466.14 186.538 466.767 197.965 465.626C199.362 465.486 200.562 464.533 200.562 463.031C200.562 461.735 199.368 460.294 197.965 460.436Z" fill="#66686D"/>
<path d="M202.161 578.381C202.137 578.336 202.116 578.288 202.094 578.242H120.955C120.377 580.228 119.943 582.26 119.674 584.316C119.528 585.427 119.507 586.747 120.386 587.444C120.928 587.87 121.664 587.931 122.352 587.97C150.246 589.605 178.234 589.557 206.125 587.861C205.04 584.597 203.71 581.427 202.161 578.381Z" fill="#2F333F"/>
<path d="M151.767 543.538C151.697 544.241 151.567 544.931 151.297 545.585C150.036 548.685 146.524 550.072 143.5 551.513C132.648 556.682 124.309 566.734 120.955 578.242H194.303V566.24C183.788 553.239 168.691 544.398 151.767 543.535V543.538Z" fill="#E1EFFC"/>
<path d="M194.304 566.242V578.244H202.095C199.91 573.966 197.292 569.936 194.304 566.242Z" fill="#E1EFFC"/>
<path d="M217.83 578.246C217.139 566.162 216.227 554.094 215.097 542.043C214.824 539.155 214.512 536.269 214.215 533.384C212.655 518.182 210.742 503.019 208.491 487.904C204.209 484.468 199.394 481.724 194.306 479.711L194.306 554.318C200.546 561.064 205.739 569.372 209.836 578.243H217.833L217.83 578.246Z" fill="#63BEDD"/>
<path d="M170.957 475.869C165.509 476.414 160.318 478.479 155.718 481.573C152.491 498.632 151.075 516.029 151.5 533.381C151.542 535.131 151.618 536.881 151.697 538.631C168.972 535.328 183.269 542.386 194.299 554.318L194.299 479.711C186.854 476.768 178.818 475.409 170.957 475.872V475.869Z" fill="#E1EFFC"/>
<path d="M217.83 578.244H209.833C211.176 581.151 212.403 584.121 213.506 587.115C214.752 586.77 215.879 586.195 216.679 585.187C218.043 583.47 217.991 581.063 217.867 578.874C217.855 578.665 217.843 578.453 217.83 578.244Z" fill="#2F333F"/>
<path d="M151.7 538.633C151.727 539.217 151.734 539.805 151.767 540.389C151.797 540.937 151.824 541.491 151.83 542.042C151.837 542.545 151.815 543.044 151.77 543.541C173.552 544.649 192.303 558.976 202.158 578.384H209.897C198.567 553.76 178.797 533.456 151.7 538.633Z" fill="#F7A70D"/>
<path d="M202.154 578.38C203.703 581.426 205.036 584.593 206.121 587.86C207.345 587.784 208.572 587.727 209.8 587.645C211.024 587.563 212.318 587.439 213.503 587.109C212.415 584.163 211.212 581.241 209.894 578.377H202.154V578.38Z" fill="#2F333F"/>
<path d="M251.492 564.094H298.938L298.938 387.091H251.492L251.492 564.094Z" fill="#053038"/>
<path d="M259.372 441.415C270.329 442.511 281.378 442.026 292.178 439.852C295.441 439.195 296.838 444.197 293.56 444.857C282.305 447.119 270.799 447.746 259.372 446.604C257.975 446.465 256.775 445.511 256.775 444.009C256.775 442.714 257.969 441.272 259.372 441.415Z" fill="#66686D"/>
<path d="M258.485 460.434C269.443 461.53 280.491 461.046 291.291 458.872C294.555 458.215 295.952 463.217 292.673 463.877C281.418 466.138 269.912 466.765 258.485 465.624C257.088 465.484 255.888 464.531 255.888 463.029C255.888 461.733 257.082 460.292 258.485 460.434Z" fill="#66686D"/>
<path d="M336.779 584.324C336.509 582.268 336.076 580.236 335.497 578.25H254.358C254.334 578.295 254.312 578.344 254.291 578.389C252.746 581.435 251.412 584.605 250.328 587.869C278.215 589.562 306.206 589.61 334.1 587.978C334.788 587.939 335.524 587.878 336.067 587.451C336.945 586.755 336.924 585.435 336.779 584.324Z" fill="#2F333F"/>
<path d="M304.685 543.542C304.755 544.245 304.885 544.935 305.155 545.589C306.415 548.689 309.927 550.076 312.952 551.517C323.803 556.686 332.143 566.738 335.497 578.246H262.149V566.244C272.664 553.243 287.761 544.402 304.685 543.539V543.542Z" fill="#E1EFFC"/>
<path d="M262.149 566.248V578.25H254.358C256.543 573.972 259.161 569.942 262.149 566.248Z" fill="#E1EFFC"/>
<path d="M238.622 578.25C239.313 566.166 240.225 554.098 241.355 542.047C241.628 539.159 241.94 536.273 242.237 533.388C243.797 518.185 245.71 503.022 247.961 487.908C252.243 484.471 257.058 481.728 262.146 479.715V554.322C255.906 561.068 250.713 569.376 246.616 578.247H238.619L238.622 578.25Z" fill="#63BEDD"/>
<path d="M285.495 475.871C290.943 476.416 296.134 478.481 300.734 481.575C303.961 498.634 305.376 516.031 304.952 533.383C304.91 535.133 304.834 536.883 304.755 538.633C287.479 535.33 273.183 542.388 262.152 554.32V479.713C269.598 476.77 277.634 475.411 285.495 475.874V475.871Z" fill="#E1EFFC"/>
<path d="M245.204 578.383H246.558C246.579 578.338 246.6 578.29 246.622 578.244H238.625C238.613 578.453 238.601 578.665 238.588 578.874C238.464 581.063 238.413 583.47 239.776 585.187C240.576 586.192 241.704 586.767 242.949 587.115C244.037 584.169 245.243 581.248 246.561 578.383H245.207H245.204Z" fill="#2F333F"/>
<path d="M304.754 538.638C277.657 533.457 257.888 553.761 246.558 578.389H254.297C264.151 558.981 282.903 544.654 304.685 543.546C304.636 543.052 304.615 542.55 304.624 542.047C304.63 541.496 304.657 540.942 304.688 540.394C304.718 539.81 304.727 539.222 304.754 538.638Z" fill="#F7A70D"/>
<path d="M242.944 587.118C244.132 587.448 245.426 587.572 246.647 587.654C247.872 587.735 249.099 587.793 250.326 587.869C251.411 584.602 252.747 581.435 254.293 578.389H246.553C245.235 581.253 244.032 584.175 242.944 587.121V587.118Z" fill="#2F333F"/>
<path d="M423.169 208.007C414.63 203.498 403.636 205.754 398.645 214.432C395.3 220.248 391.609 225.84 387.591 231.205C379.939 240.767 371.261 249.448 361.694 257.099C358.742 259.309 355.724 261.428 352.63 263.442C348.736 265.979 345.649 269.585 344.394 274.145C343.212 278.432 343.746 284.14 346.2 287.946C351.252 295.772 362.321 299.845 370.724 294.37C394.857 278.647 415.23 257.498 429.6 232.51C434.272 224.384 431.769 212.548 423.169 208.007Z" fill="#053038"/>
<path d="M344.035 265.633C342.035 265.194 339.957 264.955 337.823 264.955C321.92 264.955 309.026 277.838 309.026 293.728C309.026 309.617 321.92 322.501 337.823 322.501C342.605 322.501 347.108 321.329 351.078 319.27C352.769 301.028 351.359 282.413 344.035 265.633Z" fill="#F34137"/>
<path d="M366.618 293.727C366.618 279.969 356.949 268.473 344.034 265.633C351.358 282.413 352.767 301.027 351.076 319.269C360.309 314.477 366.618 304.842 366.618 293.727Z" fill="#F7A70D"/>
<path d="M433.495 143.04L413.098 141.289L411.726 157.238L432.124 158.989L433.495 143.04Z" fill="#053038"/>
<path d="M450.02 113.216C444.214 110.915 436.766 113.818 434.611 119.877C434.436 120.364 434.272 120.855 434.124 121.342C434.114 121.361 434.108 121.376 434.105 121.394C431.878 128.433 431.499 135.564 431.024 142.842C430.948 144.06 430.866 145.277 430.769 146.506C430.611 148.559 430.396 150.609 430.039 152.634L418.057 152.222C417.518 149.313 417.587 149.467 417.781 147.036C417.921 145.265 418.16 143.506 418.454 141.759C419.648 134.743 421.808 127.888 422.239 120.749C422.257 120.41 422.266 120.065 422.257 119.726V119.716C422.16 113.728 418.099 108.317 411.833 107.581C405.733 106.87 399.042 111.554 398.654 117.979C398.002 128.685 394.06 138.734 394.06 149.452V149.634C394.06 150.148 394.075 150.666 394.099 151.175C394.127 151.859 394.172 152.546 394.239 153.237C394.827 159.48 397.175 165.345 401.618 169.662C401.602 169.723 401.581 169.783 401.566 169.844C400.939 172.293 400.181 174.691 399.293 177.05C398.678 178.361 398.03 179.657 397.336 180.935C392.86 189.164 395.027 200.824 403.766 205.438C412.136 209.856 423.508 207.803 428.29 199.013C431.651 192.837 434.39 186.185 436.133 179.366C436.336 178.573 436.481 177.762 436.578 176.941C444.357 173.441 450.372 166.753 452.942 158.547C452.942 158.547 452.948 158.541 452.948 158.538C452.981 158.39 453.02 158.239 453.054 158.09C453.705 155.296 454.063 152.474 454.302 149.637V149.631C454.502 147.233 454.614 144.817 454.742 142.406C454.884 139.733 455.039 137.053 455.387 134.392C455.529 133.266 455.736 132.151 455.926 131.034C455.96 130.883 455.987 130.747 456.017 130.628C456.217 129.944 456.442 129.272 456.69 128.609C458.836 122.578 456.136 115.632 450.023 113.213L450.02 113.216Z" fill="#053038"/>
<path d="M440.076 200.997C440.076 200.997 440.076 202.622 439.997 205.32C439.937 207.588 439.822 210.619 439.61 214.064C438.764 227.947 436.37 248.65 429.625 254.303C419.373 262.893 384.57 255.118 377.104 244.021C371.664 235.946 379.389 212.06 384.201 199.18C385.628 195.353 386.801 192.501 387.295 191.317C387.461 190.929 387.549 190.72 387.549 190.72C389.537 180.577 399.373 173.968 409.522 175.954L425.298 179.039C435.449 181.025 442.064 190.857 440.076 200.994V200.997Z" fill="#E1EFFC"/>
<path d="M34.4996 384.339C43.0389 388.847 54.0328 386.592 59.0237 377.914C62.3691 372.098 66.06 366.506 70.0782 361.14C77.7296 351.579 86.4084 342.898 95.975 335.247C98.9265 333.037 101.945 330.917 105.039 328.904C108.933 326.367 112.02 322.761 113.275 318.201C114.457 313.913 113.923 308.206 111.469 304.4C106.417 296.574 95.3477 292.501 86.9447 297.975C62.8115 313.699 42.4389 334.847 28.0693 359.835C23.3966 367.962 25.8996 379.797 34.4996 384.339Z" fill="#053038"/>
<path d="M119.85 269.844C118.35 269.844 116.874 269.959 115.435 270.18C108.42 286.802 104.211 306.053 106.383 324.05C110.402 326.178 114.983 327.389 119.85 327.389C135.753 327.389 148.647 314.506 148.647 298.617C148.647 282.727 135.753 269.844 119.85 269.844Z" fill="#F34137"/>
<path d="M115.436 270.18C101.627 272.302 91.0542 284.225 91.0542 298.616C91.0542 309.646 97.2663 319.22 106.384 324.049C104.212 306.056 108.421 286.802 115.436 270.18Z" fill="#F7A70D"/>
<path d="M24.167 449.294L44.5645 451.045L45.9357 435.096L25.5382 433.345L24.167 449.294Z" fill="#053038"/>
<path d="M7.65143 479.13C13.4575 481.431 20.9059 478.528 23.0604 472.469C23.2362 471.982 23.3998 471.491 23.5483 471.004C23.5574 470.985 23.5635 470.97 23.5665 470.952C25.7938 463.913 26.1725 456.782 26.6483 449.504C26.7241 448.286 26.8059 447.069 26.9028 445.84C27.0604 443.787 27.2756 441.737 27.6331 439.712L39.6149 440.124C40.1543 443.033 40.0846 442.879 39.8907 445.31C39.7513 447.081 39.5119 448.84 39.2179 450.587C38.024 457.603 35.8634 464.458 35.4331 471.597C35.4149 471.936 35.4058 472.281 35.4149 472.62V472.63C35.5119 478.618 39.5725 484.029 45.8391 484.765C51.9391 485.476 58.63 480.792 59.0178 474.367C59.6693 463.661 63.6117 453.612 63.6117 442.894V442.712C63.6117 442.198 63.5966 441.68 63.5723 441.171C63.5451 440.487 63.4996 439.8 63.433 439.109C62.8451 432.866 60.4966 427.001 56.0542 422.684C56.0694 422.623 56.0906 422.563 56.1057 422.502C56.733 420.053 57.4906 417.655 58.3784 415.296C58.9936 413.985 59.6421 412.689 60.336 411.411C64.8117 403.182 62.6451 391.522 53.9057 386.908C45.5361 382.49 34.1634 384.543 29.3816 393.333C26.021 399.509 23.2816 406.161 21.5392 412.98C21.3362 413.773 21.1907 414.584 21.0938 415.405C13.315 418.905 7.29991 425.593 4.73023 433.799C4.73023 433.799 4.72417 433.805 4.72417 433.808C4.69084 433.956 4.65144 434.107 4.61811 434.256C3.9666 437.05 3.60902 439.872 3.36963 442.709V442.715C3.16963 445.113 3.05751 447.529 2.93024 449.94C2.78782 452.613 2.63327 455.293 2.28479 457.954C2.14236 459.08 1.93631 460.195 1.7454 461.312C1.71206 461.463 1.68479 461.599 1.65449 461.717C1.45449 462.402 1.23025 463.074 0.981765 463.737C-1.16368 469.768 1.53631 476.714 7.6484 479.133L7.65143 479.13Z" fill="#053038"/>
<path d="M71.9359 397.169C70.845 399.945 70.1268 401.626 70.1268 401.626C69.8601 402.985 69.4511 404.281 68.9208 405.498C65.4996 413.379 56.942 418.109 48.1542 416.389L32.3785 413.304C22.2271 411.317 15.6119 401.489 17.5998 391.349C17.5998 391.349 17.5998 390.281 17.6453 388.446C17.6937 386.102 17.8119 382.496 18.0725 378.254C18.915 364.378 21.3059 343.696 28.0513 338.049C38.3027 329.453 73.1056 337.231 80.5722 348.325C86.6388 357.345 76.3116 386.06 71.9389 397.175L71.9359 397.169Z" fill="#E1EFFC"/>
<path d="M296.986 273.406C297.283 273.533 297.577 273.667 297.877 273.797C298.435 274.024 298.992 274.254 299.547 274.487C298.695 274.127 297.841 273.77 296.989 273.409L296.986 273.406Z" fill="#2F333F"/>
<path d="M321.443 287.449C321.509 287.504 321.576 287.558 321.646 287.613C321.87 287.782 322.094 287.955 322.322 288.124C323.243 288.812 319.864 286.189 321.443 287.449Z" fill="#2F333F"/>
<path d="M230.766 436.029C288.443 436.029 335.199 412.689 335.199 383.897C335.199 355.106 288.443 331.766 230.766 331.766C173.09 331.766 126.333 355.106 126.333 383.897C126.333 412.689 173.09 436.029 230.766 436.029Z" fill="#053038"/>
<path d="M335.199 263.349C302.381 222.768 163.254 226.455 126.33 263.349C106.367 283.295 126.33 376.19 126.33 376.19C126.33 377.132 126.394 378.055 126.515 378.966C126.442 379.257 126.409 379.551 126.409 379.841C126.409 380.68 126.691 381.501 127.242 382.312C131.764 388.985 154.376 394.605 185.615 397.405C199.278 398.629 214.593 399.319 230.769 399.319C246.945 399.319 262.26 398.632 275.92 397.405C307.141 394.605 329.747 388.991 334.29 382.324C334.838 381.513 335.123 380.683 335.123 379.844C335.123 379.551 335.087 379.26 335.017 378.969C335.138 378.061 335.199 377.138 335.199 376.193C335.199 376.193 352.944 285.294 335.199 263.352V263.349Z" fill="#E1EFFC"/>
<path d="M342.899 316.404C341.732 308.183 339.629 301.383 336.208 297.153C303.387 256.575 164.264 260.26 127.339 297.153C122.158 302.331 119.667 312.431 118.818 324.536C116.582 299.579 116.921 272.968 126.552 263.345C163.476 226.452 302.602 222.767 335.42 263.345C342.963 272.668 344.096 294.447 342.899 316.404Z" fill="#63BEDD"/>
<path d="M338.073 303.821C338.104 303.864 338.134 303.906 338.164 303.949C338.304 304.124 338.443 304.3 338.585 304.475C339.682 305.853 336.958 302.308 338.076 303.821H338.073Z" fill="#2F333F"/>
<path d="M371.151 278.698C371.151 278.698 371.173 278.689 371.182 278.686C371.173 278.692 371.167 278.695 371.161 278.695C371.139 278.704 371.121 278.713 371.106 278.719C371.112 278.713 371.118 278.71 371.124 278.71C371.133 278.71 371.142 278.701 371.148 278.701L371.151 278.698Z" fill="#2F333F"/>
<path d="M185.716 222.539V250.482C185.716 253.982 207.553 256.822 234.486 256.822C261.419 256.822 283.255 253.985 283.255 250.482V222.539L185.713 222.539H185.716Z" fill="#1F222B"/>
<path d="M71.9361 397.165C70.8452 399.942 70.1271 401.622 70.1271 401.622C69.8604 402.982 69.4513 404.278 68.921 405.495C50.5514 405.353 32.4666 399.258 17.6455 388.439C17.694 386.096 17.8122 382.49 18.0728 378.248C33 390.98 52.3847 397.65 71.9392 397.168L71.9361 397.165Z" fill="#F7A70D"/>
<path d="M439.996 205.325C439.936 207.592 439.821 210.623 439.609 214.069C437.9 213.312 436.148 212.67 434.5 212.049C428.627 209.842 422.666 207.868 416.639 206.133C406.006 203.069 395.157 200.725 384.197 199.187C385.624 195.36 386.797 192.508 387.291 191.324C398.633 193.017 409.845 195.445 420.848 198.724C427.309 200.644 433.751 202.784 439.993 205.328L439.996 205.325Z" fill="#F7A70D"/>
<path d="M273.144 367.567C291.925 348.802 291.925 318.378 273.144 299.613C254.364 280.848 223.914 280.848 205.134 299.613C186.353 318.378 186.353 348.802 205.134 367.567C223.914 386.332 254.364 386.332 273.144 367.567Z" fill="#C7D6E2"/>
<path d="M267.421 363.912C286.202 345.147 286.202 314.724 267.421 295.959C248.64 277.194 218.191 277.194 199.411 295.959C180.63 314.724 180.63 345.147 199.411 363.912C218.191 382.677 248.64 382.677 267.421 363.912Z" fill="#63BEDD"/>
<path d="M233.416 372.27C256.816 372.27 275.786 353.316 275.786 329.936C275.786 306.555 256.816 287.602 233.416 287.602C210.016 287.602 191.047 306.555 191.047 329.936C191.047 353.316 210.016 372.27 233.416 372.27Z" fill="#374B94"/>
<path d="M235.205 372.272C257.616 372.272 275.783 353.72 275.783 330.834C275.783 307.949 257.616 289.396 235.205 289.396C212.794 289.396 194.626 307.949 194.626 330.834C194.626 353.72 212.794 372.272 235.205 372.272Z" fill="#005180"/>
<path d="M237.464 333.523C247.85 321.88 249.255 306.195 240.604 298.49C231.952 290.786 216.519 293.978 206.133 305.621C195.747 317.265 194.341 332.949 202.993 340.654C211.645 348.359 227.078 345.166 237.464 333.523Z" fill="#64CFFD"/>
<path d="M256.942 362.514C261.531 358.955 264.18 354.691 262.858 352.989C261.536 351.288 256.745 352.794 252.156 356.353C247.567 359.912 244.919 364.176 246.24 365.877C247.562 367.579 252.354 366.073 256.942 362.514Z" fill="#64CFFD"/>
<path d="M229.323 84.69L229.323 30.3993C222.308 28.834 217.081 22.7694 217.081 15.524C217.081 7.08862 224.163 0.251953 232.896 0.251953C241.629 0.251953 248.714 7.08862 248.714 15.524C248.714 22.7724 243.484 28.837 236.472 30.3993L236.472 84.69" fill="#D1D2D3"/>
<path d="M252.241 19.5015C252.241 30.135 243.614 38.755 232.972 38.755C222.329 38.755 213.702 30.135 213.702 19.5015C213.702 8.86807 222.329 0.248047 232.972 0.248047C243.614 0.248047 252.241 8.86807 252.241 19.5015Z" fill="#42454C"/>
<path d="M213.704 19.5027C213.704 30.1392 222.331 38.7532 232.97 38.7532C241.737 38.7532 249.134 32.9066 251.467 24.8952C247.952 29.5731 242.355 32.6008 236.049 32.6008C225.41 32.6008 216.782 23.9838 216.782 13.3503C216.782 11.4822 217.049 9.66859 217.549 7.96094C215.134 11.1764 213.704 15.173 213.704 19.5058V19.5027Z" fill="#053038"/>
<path d="M234.191 4.53239C239.534 4.78066 244.804 7.41178 246.185 12.9465C246.907 15.8289 242.452 17.0582 241.731 14.1728C240.861 10.6848 237.51 9.3011 234.191 9.14668C231.231 9.01044 231.216 4.39311 234.191 4.53239Z" fill="white"/>
<path d="M253.322 66.0059L214.077 66.0059V86.3705L253.322 86.3705V66.0059Z" fill="#053038"/>
<path d="M249.626 54.4922L217.772 54.4922V71.0237L249.626 71.0237V54.4922Z" fill="#053038"/>
<path d="M247.139 50.5371L220.261 50.5371V64.486L247.139 64.486V50.5371Z" fill="#053038"/>
<path d="M376.262 177.712C377.438 177.322 378.613 176.768 379.731 176.084C377.356 190.947 370.868 201.62 363.232 201.62C355.595 201.62 349.068 190.883 346.71 175.947C355.926 180.901 366.719 182.139 376.259 177.715L376.262 177.712Z" fill="#F34137"/>
<path d="M345.915 158.637C347.03 139.968 354.354 125.547 363.233 125.547C369.857 125.547 375.62 133.573 378.581 145.403C375.63 148.031 372.211 150.147 369.066 151.719C362.302 155.098 354.008 158.728 345.915 158.637Z" fill="#FEBB38"/>
<path d="M369.066 151.718C372.211 150.147 375.63 148.03 378.581 145.402C379.933 150.804 380.702 156.996 380.702 163.581C380.702 167.962 380.357 172.165 379.733 176.083C378.614 176.77 377.439 177.321 376.263 177.712C366.724 182.138 355.93 180.9 346.715 175.943C346.102 172.065 345.766 167.911 345.766 163.581C345.766 161.904 345.821 160.257 345.918 158.637C354.012 158.727 362.305 155.097 369.069 151.718H369.066Z" fill="#F7A70D"/>
<path d="M344.539 201.621H363.233V125.549H344.539V201.621Z" fill="#364667"/>
<path d="M90.7631 177.712C89.5874 177.322 88.4116 176.768 87.2935 176.084C89.6692 190.947 96.157 201.62 103.793 201.62C111.43 201.62 117.957 190.883 120.315 175.947C111.099 180.901 100.306 182.139 90.7662 177.715L90.7631 177.712Z" fill="#F34137"/>
<path d="M121.107 158.637C119.992 139.968 112.668 125.547 103.789 125.547C97.1651 125.547 91.4015 133.573 88.4409 145.403C91.3924 148.031 94.8106 150.147 97.956 151.719C104.72 155.098 113.014 158.728 121.107 158.637Z" fill="#FEBB38"/>
<path d="M97.9591 151.72C94.8136 150.149 91.3955 148.032 88.444 145.404C87.0924 150.806 86.3228 156.998 86.3228 163.583C86.3228 167.964 86.6682 172.167 87.2924 176.085C88.4106 176.772 89.5864 177.323 90.7621 177.713C100.301 182.14 111.095 180.902 120.31 175.945C120.923 172.067 121.259 167.913 121.259 163.583C121.259 161.906 121.204 160.258 121.107 158.639C113.014 158.729 104.72 155.099 97.956 151.72H97.9591Z" fill="#F7A70D"/>
<path d="M122.486 125.541H103.792L103.792 201.613H122.486L122.486 125.541Z" fill="#364667"/>
<path d="M110.889 135.455L110.889 230.684C110.889 234.336 113.877 237.321 117.532 237.321L348.836 237.321C352.491 237.321 355.479 234.336 355.479 230.684V135.455L110.889 135.455Z" fill="#63BEDD"/>
<path d="M111.55 119.011L111.55 220.035C111.55 223.687 114.538 226.672 118.193 226.672L349.498 226.672C353.152 226.672 356.14 223.687 356.14 220.035V119.011C356.14 98.9191 339.84 82.6328 319.731 82.6328L147.959 82.6328C127.85 82.6328 111.55 98.9191 111.55 119.011Z" fill="#E1EFFC"/>
<path d="M329.227 105.574L138.456 105.574C136.447 105.574 134.819 107.201 134.819 109.208L134.819 184.014C134.819 186.021 136.447 187.648 138.456 187.648L329.227 187.648C331.236 187.648 332.864 186.021 332.864 184.014V109.208C332.864 107.201 331.236 105.574 329.227 105.574Z" fill="#52AE32"/>
<path d="M213.879 206.899C216.812 208.577 220.112 209.797 223.34 210.763C230.361 212.867 237.733 213.397 244.961 212.164C249.748 211.347 254.424 209.47 258.533 206.899C261.045 205.328 262.261 201.773 260.567 199.148C258.942 196.632 255.5 195.436 252.809 197.117C251.279 198.073 249.685 198.912 248.027 199.63C248.479 199.439 248.93 199.248 249.382 199.057C246.621 200.217 243.739 201.001 240.776 201.419C241.279 201.352 241.782 201.283 242.282 201.216C238.809 201.673 235.309 201.628 231.843 201.165C232.346 201.231 232.849 201.301 233.349 201.367C229.27 200.798 225.276 199.684 221.482 198.091C221.933 198.282 222.385 198.473 222.837 198.664C221.74 198.197 220.637 197.71 219.6 197.12C217.024 195.648 213.282 196.429 211.843 199.151C210.418 201.846 211.127 205.331 213.876 206.902L213.879 206.899Z" fill="#364667"/>
<path d="M293.62 173.062C308.881 173.062 321.253 160.701 321.253 145.452C321.253 130.203 308.881 117.842 293.62 117.842C278.359 117.842 265.987 130.203 265.987 145.452C265.987 160.701 278.359 173.062 293.62 173.062Z" fill="white"/>
<path d="M314.217 148.94C316.091 137.655 308.454 126.989 297.159 125.117C285.865 123.244 275.19 130.875 273.316 142.16C271.442 153.445 279.079 164.112 290.374 165.984C301.668 167.856 312.343 160.226 314.217 148.94Z" fill="#005180"/>
<path d="M306.97 152.249C313.629 152.249 319.027 146.855 319.027 140.202C319.027 133.548 313.629 128.154 306.97 128.154C300.31 128.154 294.912 133.548 294.912 140.202C294.912 146.855 300.31 152.249 306.97 152.249Z" fill="white"/>
<path d="M178.861 173.06C194.122 173.06 206.494 160.699 206.494 145.45C206.494 130.201 194.122 117.84 178.861 117.84C163.599 117.84 151.228 130.201 151.228 145.45C151.228 160.699 163.599 173.06 178.861 173.06Z" fill="white"/>
<path d="M199.488 148.767C201.265 137.467 193.537 126.866 182.227 125.09C170.917 123.315 160.308 131.036 158.53 142.337C156.753 153.638 164.481 164.238 175.791 166.014C187.102 167.79 197.711 160.068 199.488 148.767Z" fill="#005180"/>
<path d="M192.21 152.247C198.87 152.247 204.268 146.853 204.268 140.2C204.268 133.546 198.87 128.152 192.21 128.152C185.551 128.152 180.153 133.546 180.153 140.2C180.153 146.853 185.551 152.247 192.21 152.247Z" fill="white"/>
</g>
<defs>
<clipPath id="clip0_1023_10897">
<rect width="457.164" height="588.917" fill="white" transform="translate(0.253906 0.248047)"/>
</clipPath>
</defs>
</svg>
