<svg width="31" height="31" viewBox="0 0 31 31" fill="none" xmlns="http://www.w3.org/2000/svg">
<g filter="url(#filter0_d_1115_245)">
<path d="M13.1 12.5829V11.4229C13.2284 10.4052 13.4619 9.82697 14.0918 9.27314C14.3358 9.05864 14.5 8.76111 14.5 8.43626V8.13143C14.6 7.41143 14.8929 7.21314 15.4686 7.0109C15.489 7.00382 15.5111 7.00334 15.5318 7.00982L15.5352 7.0109C16.1142 7.19322 16.4 7.41143 16.5 8.13143V8.46408C16.5 8.7733 16.6463 9.06172 16.8835 9.26008C17.5402 9.80917 17.7703 10.2059 17.9 11.4229V12.5829C17.9 13.1351 18.3477 13.5829 18.9 13.5829H22.6116C22.9748 13.5829 23.3094 13.7797 23.4858 14.0972L23.8742 14.7963C23.9567 14.9449 24 15.112 24 15.282V23.1771C24 23.7294 23.5523 24.1771 23 24.1771H8C7.44772 24.1771 7 23.7294 7 23.1771V15.282C7 15.112 7.04331 14.9449 7.12584 14.7963L7.51425 14.0972C7.69062 13.7797 8.02524 13.5829 8.3884 13.5829H12.1C12.6523 13.5829 13.1 13.1351 13.1 12.5829Z" fill="#3F373B"/>
<path d="M15.5352 7.0109C16.1142 7.19322 16.4 7.41143 16.5 8.13143V8.46408C16.5 8.7733 16.6463 9.06172 16.8835 9.26008C17.5402 9.80917 17.7703 10.2059 17.9 11.4229V12.5829C17.9 13.1351 18.3477 13.5829 18.9 13.5829H22.6116C22.9748 13.5829 23.3094 13.7797 23.4858 14.0972L23.8742 14.7963C23.9567 14.9449 24 15.112 24 15.282V23.1771C24 23.7294 23.5523 24.1771 23 24.1771H8C7.44772 24.1771 7 23.7294 7 23.1771V15.282C7 15.112 7.04331 14.9449 7.12584 14.7963L7.51425 14.0972C7.69062 13.7797 8.02524 13.5829 8.3884 13.5829H12.1C12.6523 13.5829 13.1 13.1351 13.1 12.5829V11.4229C13.2284 10.4052 13.4619 9.82697 14.0918 9.27314C14.3358 9.05864 14.5 8.76111 14.5 8.43626V8.13143C14.6 7.41143 14.8929 7.21314 15.4686 7.0109M15.5352 7.0109C15.5341 7.01054 15.5329 7.01018 15.5318 7.00982C15.5111 7.00334 15.489 7.00382 15.4686 7.0109V7.0109M15.5352 7.0109H15.4686" stroke="white"/>
</g>
<defs>
<filter id="filter0_d_1115_245" x="0.5" y="0.505371" width="30" height="30.1719" filterUnits="userSpaceOnUse" color-interpolation-filters="sRGB">
<feFlood flood-opacity="0" result="BackgroundImageFix"/>
<feColorMatrix in="SourceAlpha" type="matrix" values="0 0 0 0 0 0 0 0 0 0 0 0 0 0 0 0 0 0 127 0" result="hardAlpha"/>
<feOffset/>
<feGaussianBlur stdDeviation="3"/>
<feComposite in2="hardAlpha" operator="out"/>
<feColorMatrix type="matrix" values="0 0 0 0 0 0 0 0 0 0 0 0 0 0 0 0 0 0 0.2 0"/>
<feBlend mode="normal" in2="BackgroundImageFix" result="effect1_dropShadow_1115_245"/>
<feBlend mode="normal" in="SourceGraphic" in2="effect1_dropShadow_1115_245" result="shape"/>
</filter>
</defs>
</svg>
