<svg width="229" height="643" viewBox="0 0 229 643" fill="none" xmlns="http://www.w3.org/2000/svg">
<g clip-path="url(#clip0_208_2433)">
<path d="M114.498 643C177.734 643 228.997 628.363 228.997 610.307C228.997 592.252 177.734 577.615 114.498 577.615C51.2626 577.615 0 592.252 0 610.307C0 628.363 51.2626 643 114.498 643Z" fill="#819199"/>
<path d="M74.1014 94.1818C74.5126 98.7959 72.5397 104.353 68.4109 107.513C64.7934 110.286 60.2189 111.872 59.7697 116.689C58.2115 133.302 57.7105 149.983 58.2598 166.644C58.5362 174.977 59.1685 183.283 59.8768 191.6C60.3743 197.475 53.3363 203.515 48.0431 206.838C46.5194 207.794 44.8437 208.633 42.9849 208.92C36.0194 209.984 31.7662 202.075 30.4533 197.444C29.1576 192.867 27.3886 189.089 28.6151 184.503C34.0189 164.261 40.3383 144.112 43.9177 123.562C44.6019 119.635 46.1083 115.111 46.0841 111.181C46.0599 107.085 42.8225 102.429 41.779 98.4057C40.4938 93.4531 39.1497 88.2933 39.7578 83.1887C40.7045 75.2142 43.4617 67.0531 45.7213 59.2893C51.0698 57.2654 58.17 59.1407 61.8911 63.0054C65.6157 66.8701 67.2051 71.8814 68.7011 76.7304C70.5496 82.7225 73.5521 88.0066 74.1049 94.1887L74.1014 94.1818Z" fill="#915443"/>
<path d="M102.292 68.5728C93.6781 77.0309 81.8858 89.6092 84.4426 92.8211C86.336 95.2007 87.801 99.763 88.6993 104.111C100.46 95.6911 105.17 81.5621 102.292 68.5693V68.5728Z" fill="#6E3323"/>
<path d="M158.789 118.272C156.163 114.88 138.56 109.271 131.204 104.992C123.848 100.71 117.805 96.655 114.654 88.8083C111.503 80.9615 110.712 60.6055 110.712 60.6055C110.712 60.6055 106.97 63.9832 102.292 68.5766C105.17 81.5659 100.46 95.6949 88.6992 104.118C89.6735 108.826 89.981 113.285 89.4317 114.459C88.3813 116.711 74.7199 123.697 70.0417 126.626C65.3635 129.555 63.4217 142.848 58.9578 149.382L62.1088 155.464L136.718 167.407C136.718 167.407 161.412 121.67 158.786 118.275L158.789 118.272Z" fill="#915443"/>
<path d="M84.4528 598.845C103.138 606.705 122.549 599.857 141.026 591.64C141.241 590.359 141.407 589.112 141.534 587.931C142.657 577.522 139.613 567.15 136.594 557.021C133.812 547.689 131.031 538.36 128.25 529.029C126.888 524.456 125.195 519.472 120.621 516.851C116.347 514.399 110.615 514.737 105.778 516.229C100.941 517.725 97.8171 520.698 93.1147 522.487C101.144 541.123 107.239 560.374 111.302 579.932C111.99 583.238 108.189 585.154 105.114 587.234C98.6118 591.627 91.135 594.721 83.5165 597.619C83.4578 598.075 83.7203 598.486 84.4459 598.841L84.4528 598.845Z" fill="#915443"/>
<path d="M84.453 598.844C83.7239 598.489 83.4648 598.074 83.5235 597.622C72.678 601.746 61.5423 605.469 52.5106 611.962C52.483 613.55 53.9307 614.507 55.6306 615.139C57.3305 615.771 59.2412 615.809 61.0931 615.83C82.107 616.065 103.131 615.605 124.1 614.455C134.883 613.861 139.365 601.659 141.027 591.647C122.549 599.86 103.138 606.712 84.453 598.851V598.844Z" fill="#314F63"/>
<path d="M103.487 617.374C98.211 617.374 99.0091 613.588 101.027 610.522C92.7485 614.234 84.7983 618.537 79.5742 625.065C78.8832 625.932 79.3635 626.319 80.286 627.006C81.212 627.693 82.4869 627.887 83.6962 628.045C92.6207 629.202 101.666 629.669 110.687 629.444C118.651 629.247 125.665 626.916 133.18 625.048C137.454 623.987 142.281 625.559 146.752 625.583C151.976 625.614 157.207 624.961 162.196 623.639C163.92 623.183 163.878 623.11 165.081 621.957C165.851 616.31 165.637 610.653 164.984 604.996C146.375 613.785 124.573 617.74 103.487 617.374Z" fill="#314F63"/>
<path d="M103.487 617.374C124.57 617.743 146.372 613.785 164.984 604.996C164.2 598.199 162.773 591.409 161.619 584.65C158.402 565.814 157.31 546.708 158.371 527.692C147.284 528.745 135.961 530.386 125.413 533.494C130.717 548.452 133.93 563.935 135.277 579.521C135.554 582.713 136.735 587.154 135.263 590.079C133.892 592.804 130.295 595.388 127.718 597.259C121.851 601.525 114.923 604.567 108.068 607.472C105.729 608.463 103.37 609.468 101.03 610.515C99.0127 613.582 98.218 617.367 103.49 617.367L103.487 617.374Z" fill="#915443"/>
<path d="M127.718 598.151C127.386 598.151 127.065 598.016 126.864 597.764C126.546 597.36 126.671 596.81 127.141 596.538C135.827 591.502 135.436 588.681 134.662 583.065C134.521 582.029 134.358 580.858 134.251 579.594C133.871 575.125 131.684 552.134 126.052 538.557C125.862 538.098 126.142 537.594 126.678 537.431C127.21 537.269 127.801 537.507 127.991 537.967C133.709 551.757 135.917 574.956 136.303 579.466C136.407 580.689 136.559 581.79 136.708 582.858C137.495 588.58 138.017 592.366 128.295 598.002C128.118 598.106 127.918 598.154 127.721 598.154L127.718 598.151Z" fill="#5E2C1E"/>
<path d="M112.235 222.911C117.629 221.754 122.825 220.262 127.783 218.432L127.524 217.644C127.524 217.644 144.599 171.006 144.337 159.063C144.074 147.12 79.1874 145.093 58.9578 149.375C44.5086 169.88 49.2386 174.159 51.0767 177.989C52.9149 181.819 57.1197 181.819 56.8571 190.605C56.6222 198.504 59.1444 216.048 61.9465 226.551C78.7071 230.478 95.4712 226.292 112.232 222.908L112.235 222.911Z" fill="#DF674E"/>
<path d="M148.016 371.185C148.016 338.413 146.966 277.016 146.966 277.016L127.783 218.435C122.825 220.266 117.629 221.758 112.235 222.914C95.4747 226.296 78.7105 230.485 61.9499 226.558C62.2643 227.739 62.5822 228.838 62.9035 229.815C62.3783 251.894 52.9217 269.018 50.2924 319.262C47.6666 369.506 50.8176 421.349 50.2924 450.177C49.7672 479.009 53.4435 522.266 53.4435 522.266C53.4435 522.266 65.5294 534.882 77.0867 533.079C88.6439 531.277 104.41 525.419 104.41 525.419V533.256C104.41 533.256 121.478 541.98 136.062 540.232C150.646 538.484 170.087 530.375 170.087 530.375C170.087 530.375 148.02 403.953 148.02 371.181L148.016 371.185Z" fill="#DF674E"/>
<path d="M104.406 526.303C103.953 526.303 103.535 526.044 103.414 525.651C97.8551 507.885 88.5263 434.48 84.9952 400.955C81.9444 371.996 77.857 316.24 77.6463 313.349L67.1808 285.968C67.0046 285.506 67.2983 285.008 67.8373 284.856C68.3797 284.704 68.9567 284.956 69.1364 285.419L79.6433 312.907C79.6709 312.98 79.6882 313.052 79.6917 313.128C79.7331 313.705 83.9311 371.24 87.0441 400.8C90.5718 434.273 99.8763 507.533 105.401 525.195C105.55 525.664 105.221 526.148 104.675 526.276C104.586 526.296 104.496 526.307 104.409 526.307L104.406 526.303Z" fill="#9C3A26"/>
<path d="M93.0838 186.14C92.949 186.14 92.8108 186.116 92.6795 186.067C83.8483 182.817 75.7565 177.879 69.2851 171.786C68.9016 171.427 68.9327 170.868 69.3542 170.539C69.7757 170.211 70.4253 170.239 70.8088 170.598C77.0833 176.507 84.9298 181.294 93.4915 184.447C94.0132 184.641 94.2551 185.159 94.0305 185.608C93.8646 185.943 93.4846 186.143 93.0838 186.143V186.14Z" fill="#9C3A26"/>
<path d="M48.0569 63.7583V98.9064L66.8422 102.288V71.201L48.0569 63.7583Z" fill="#1F2E4D"/>
<path d="M158.789 118.271C166.408 123.918 164.569 136.082 168.246 142.617C171.922 149.151 194.777 177.316 200.558 190.156C206.338 203.001 206.338 205.477 203.184 207.055C200.032 208.634 187.947 216.518 166.929 210.436C145.912 204.355 123.319 187.732 123.319 187.732C123.319 187.732 129.625 170.332 138.031 176.863C146.437 183.398 159.58 187.556 164.307 187.732C160.361 178.224 144.599 159.968 140.135 157.264C135.668 154.559 131.553 153.81 130.502 146.15C129.452 138.489 150.117 120.613 150.117 120.613L158.786 118.271H158.789Z" fill="#915443"/>
<path d="M91.4909 230.475C82.2208 230.475 72.9474 229.801 63.7154 228.451C63.1557 228.368 62.7791 227.912 62.8723 227.432C62.9691 226.952 63.5012 226.631 64.0609 226.71C84.1833 229.649 104.527 229.342 124.518 225.798C125.078 225.698 125.617 226.005 125.734 226.482C125.848 226.959 125.492 227.425 124.936 227.525C113.863 229.49 102.682 230.471 91.4943 230.471L91.4909 230.475Z" fill="#9C3A26"/>
<path d="M94.3207 235.925C84.2767 235.925 74.2362 235.04 64.4687 233.265C63.9124 233.165 63.5566 232.695 63.674 232.219C63.7915 231.742 64.3374 231.435 64.8937 231.538C84.18 235.037 104.568 235.03 123.851 231.518C124.408 231.414 124.954 231.721 125.071 232.198C125.188 232.675 124.836 233.144 124.28 233.245C114.481 235.03 104.399 235.921 94.3207 235.921V235.925Z" fill="#9C3A26"/>
<path d="M169.016 188.955C167.14 188.955 165.406 188.854 164.079 188.592C163.526 188.481 163.18 188.008 163.308 187.535C163.436 187.059 163.992 186.765 164.542 186.872C169.707 187.894 182.401 186.15 182.529 186.133C183.096 186.054 183.621 186.382 183.711 186.862C183.8 187.342 183.42 187.794 182.861 187.874C182.453 187.929 175 188.955 169.016 188.955Z" fill="#5E2C1E"/>
<path d="M183.051 285.388C183.203 259.903 181.814 234.336 177.958 209.062C164.615 211.852 149.032 206.81 136.303 203.733C123.907 200.735 111.62 198.611 98.8779 200.213C96.5734 229.687 98.871 259.423 105.695 288.379C118.651 289.564 131.487 291.063 144.52 291.111C157.549 291.159 170.609 288.704 183.054 285.385L183.051 285.388Z" fill="#314F63"/>
<path d="M134.617 177.467C134.362 173.423 134.103 169.369 133.242 165.386C132.572 162.292 131.428 158.862 128.409 156.852C124.95 154.552 121.274 152.466 117.518 150.542C115.732 155.271 116.26 160.385 119.512 164.502C123.433 169.465 129.908 173.04 134.617 177.471V177.467Z" fill="#915443"/>
<path d="M119.118 202.476C112.989 185.352 117.542 154.711 124.546 138.486C131.553 122.264 141.199 115.177 149.074 112.939C149.074 109.047 140.308 107.696 140.308 107.696C140.308 107.696 122.556 116.275 114.92 136.103C107.284 155.93 103.176 184.751 111.061 200.973C118.942 217.195 119.118 202.476 119.118 202.476Z" fill="#314F63"/>
<path d="M134.327 190.809C132.596 192.211 130.343 193.133 127.984 193.403C123.678 193.897 121.308 192.256 118.264 190.042C116.582 188.82 114.792 187.777 112.622 187.317C110.404 186.848 107.84 187.231 105.557 187.29C103.518 187.338 101.365 186.768 100.643 184.879C100.146 183.587 100.384 182.068 101.683 181.284C100.554 181.346 99.4894 180.614 99.1231 179.692C98.7569 178.769 99.0091 177.73 99.593 176.898C100.177 176.065 101.372 175.254 102.312 174.711C101.113 174.732 99.98 174.031 99.479 173.095C98.978 172.159 99.0575 171.04 99.5274 170.094C100.001 169.148 100.885 168.301 101.835 167.673C100.733 166.557 100.343 164.634 101.483 163.549C103.107 162.005 104.745 160.451 106.724 159.256C108.248 158.337 110.283 157.408 112.197 157.381C113.79 157.357 115.255 158.344 116.658 158.987C120.178 160.593 123.616 162.375 126.65 164.606C131.273 168.004 134.98 172.618 135.668 177.809C136.252 182.213 135.657 186.523 134.32 190.809H134.327Z" fill="#915443"/>
<path d="M101.435 168.968C101.055 168.968 100.688 168.788 100.509 168.474C100.256 168.036 100.467 167.507 100.979 167.293C103.839 166.088 106.838 165.079 109.893 164.302C110.439 164.164 111.009 164.43 111.171 164.896C111.334 165.362 111.023 165.856 110.477 165.994C107.533 166.744 104.641 167.714 101.884 168.878C101.739 168.94 101.583 168.968 101.431 168.968H101.435Z" fill="#5E2C1E"/>
<path d="M101.528 176.031C101.189 176.031 100.861 175.889 100.664 175.627C100.357 175.219 100.491 174.67 100.968 174.408C103.705 172.888 106.679 171.731 109.817 170.968C110.366 170.837 110.933 171.106 111.088 171.576C111.244 172.045 110.926 172.532 110.38 172.667C107.443 173.382 104.651 174.466 102.088 175.889C101.915 175.986 101.721 176.031 101.528 176.031Z" fill="#5E2C1E"/>
<path d="M101.255 182.258C100.806 182.258 100.395 182.002 100.267 181.615C100.111 181.146 100.429 180.659 100.978 180.528C103.684 179.871 106.458 179.333 109.226 178.928C109.792 178.846 110.318 179.17 110.414 179.65C110.511 180.13 110.134 180.586 109.575 180.669C106.876 181.066 104.174 181.591 101.538 182.23C101.445 182.254 101.352 182.265 101.258 182.265L101.255 182.258Z" fill="#5E2C1E"/>
<path d="M41.8102 34.2915C39.7993 40.0765 40.0239 46.3035 41.4785 52.2093C42.9331 58.1151 45.5762 63.7515 48.3714 69.2912C51.9371 76.3574 55.8275 83.3718 60.9929 89.6955C63.5842 92.866 66.5106 95.7533 69.7481 98.4472C71.2717 99.7147 72.1217 100.868 74.3606 101.303C76.3646 101.69 78.5413 101.435 80.407 100.723C83.5373 99.5282 85.9248 97.2798 88.1257 95.028C90.5166 92.5863 92.8039 90.072 94.9944 87.4921C97.1331 84.9744 99.6657 82.3392 101.113 79.483C104.192 73.4218 105.76 66.6111 106.158 60.0318C106.724 50.6413 101.69 41.3025 93.951 34.6404C86.2116 27.9782 75.2313 24.1792 64.2683 24.3691C59.7732 24.4451 55.2436 25.1842 51.2115 26.8903C47.1794 28.5999 43.092 30.5892 41.8067 34.2881L41.8102 34.2915Z" fill="#915443"/>
<path d="M63.1453 81.5208C62.0984 81.5208 61.048 81.3619 60.0529 81.0407C59.6176 80.8991 59.0613 80.6815 58.6433 80.2602C57.7968 79.4037 58.2148 77.9911 58.5845 76.7478C58.6778 76.4369 58.7642 76.1399 58.7918 75.9707C59.0613 74.2542 59.1892 72.8451 59.1961 71.5293C59.2134 68.4658 58.5327 65.8272 57.1818 63.6894C55.3851 60.847 52.2064 58.9786 49.083 58.9233C48.5164 58.913 48.0638 58.5123 48.0741 58.0254C48.0845 57.5384 48.5682 57.1378 49.1245 57.1585C52.9735 57.2207 56.8466 59.4552 58.9888 62.8467C60.509 65.247 61.2691 68.1723 61.2519 71.5362C61.245 72.928 61.1102 74.4131 60.8269 76.2056C60.7854 76.4784 60.6887 76.803 60.5747 77.1829C60.4296 77.6734 60.0944 78.8062 60.2292 79.1377C60.3535 79.2448 60.5989 79.3346 60.7785 79.3898C62.8343 80.0599 65.3116 79.7801 67.0944 78.6784C67.554 78.3917 68.2001 78.485 68.5317 78.8787C68.8634 79.2759 68.7598 79.825 68.2968 80.1117C66.7938 81.0407 64.9695 81.5208 63.1383 81.5208H63.1453Z" fill="#5E2C1E"/>
<path d="M77.8849 82.2495C74.1119 84.042 70.0867 85.4442 65.9233 86.4112C67.0255 87.4957 67.644 88.6906 69.1124 89.3917C70.5808 90.0894 72.3878 90.3898 73.9564 89.8787C75.5147 89.371 76.6307 88.138 77.2042 86.7946C77.7743 85.4545 77.8469 83.6759 77.8849 82.2495Z" fill="white"/>
<path d="M40.7979 59.576C41.4267 58.7541 42.3216 58.0979 43.3097 57.6005C44.3013 57.0998 45.407 56.7717 46.5368 56.6024C47.6701 56.4332 48.8344 56.4228 49.9642 56.5852C51.0906 56.7578 52.1928 57.0825 53.136 57.6316C53.6197 57.9148 53.7441 58.4812 53.4159 58.8957C53.2017 59.1651 52.8492 59.3032 52.4968 59.2928H52.4381C51.4914 59.2548 50.6103 59.2272 49.7362 59.2721C48.8655 59.3101 48.0087 59.3965 47.1691 59.5381C46.326 59.6797 45.5037 59.8765 44.6745 60.1045C43.8453 60.3359 43.0299 60.6156 42.1385 60.9161L42.0797 60.9368C41.5304 61.1233 40.9084 60.8884 40.6942 60.4187C40.5629 60.1321 40.6148 59.8213 40.7944 59.5795L40.7979 59.576Z" fill="#4A1C23"/>
<path d="M58.816 54.9242C59.6798 53.8846 60.82 53.0453 62.0673 52.3615C63.3215 51.6846 64.7035 51.17 66.1374 50.8384C67.5712 50.5034 69.0673 50.3515 70.5495 50.3964C72.0283 50.4447 73.5071 50.6796 74.8649 51.208C75.4039 51.4187 75.6423 51.9609 75.397 52.4237C75.245 52.7103 74.9444 52.8968 74.6093 52.9486L74.5678 52.9556C73.2445 53.1524 72.0007 53.3009 70.781 53.5012C69.5614 53.6946 68.3728 53.926 67.1912 54.1954C66.013 54.4683 64.8486 54.7826 63.6808 55.1417C62.5095 55.4975 61.3486 55.905 60.091 56.3091L60.0599 56.3194C59.507 56.4956 58.8886 56.2573 58.6813 55.7807C58.5534 55.4871 58.6156 55.1659 58.8126 54.9276L58.816 54.9242Z" fill="#4A1C23"/>
<path d="M38.6833 41.9864C38.7835 42.3905 38.9563 42.8464 39.402 42.9915C40.0965 43.2194 40.6873 42.5425 41.1537 42.0451C41.786 41.3682 42.6912 40.8778 43.6725 40.6602C45.0545 40.3563 45.0476 40.6602 45.9667 41.2266C47.4869 42.166 49.1557 42.4976 50.9662 41.8172C52.9045 41.0885 54.3211 39.6448 55.9208 38.4602C59.407 35.8803 64.023 34.4505 68.6286 34.5299C73.2308 34.6094 77.7777 36.1946 81.1429 38.8919C83.0813 40.4461 84.681 42.4699 84.8986 44.7425C84.9988 45.7786 84.8053 46.8216 84.9124 47.8577C85.0196 48.8938 85.5102 49.9886 86.5744 50.4894C87.4519 50.9038 88.5541 50.821 89.4732 50.4825C90.3922 50.144 91.1662 49.5776 91.9263 49.0181C94.2447 51.3943 94.9944 55.1381 93.8162 58.0633C92.638 60.9921 89.5837 63.306 86.0492 63.945C88.1602 63.5616 90.3922 63.8793 92.5655 63.3682C94.8458 62.8294 97.0191 61.9556 98.9609 60.7986C100.882 59.6555 102.05 58.0253 103.753 56.7751C107.685 53.8844 115.777 56.7302 120.006 57.566C124.715 58.495 129.763 59.4068 134.272 57.9183C137.948 56.7026 140.84 53.8671 141.752 50.5792C142.664 47.2913 141.576 43.6407 138.929 41.1368C142.695 41.2577 145.884 39.4721 148.009 36.8059C150.138 34.1397 150.798 30.724 150.221 27.5293C149.644 24.3347 147.906 21.3541 145.618 18.7846C141.959 14.6712 136.846 11.5249 131.131 9.86717C125.416 8.21285 119.125 8.05398 113.31 9.42164C115.165 8.83106 115.856 7.1353 116.129 5.45681C116.402 3.77487 115.521 1.99622 113.921 0.994652C111.655 -0.424812 108.452 -0.155424 105.895 0.835783C102.927 1.98586 100.436 4.02353 98.9609 6.51364C99.2062 5.54661 98.0383 5.10454 97.2057 4.42071C96.3764 3.73688 95.2915 3.32589 94.217 2.97361C90.0398 1.6025 85.4169 0.859959 81.0807 1.80281C76.7446 2.74912 72.8093 5.66403 72.0491 9.44582C71.9697 9.84299 71.6898 10.0088 71.3098 10.2471C70.9331 10.4854 70.4667 10.5959 70.0072 10.6684C68.1449 10.9689 66.2308 10.7651 64.3374 10.7893C62.444 10.8135 60.4262 11.1209 59.0476 12.2364C56.8329 11.2694 54.2934 10.9274 51.8161 11.0967C50.0091 11.221 48.1952 11.6769 46.7544 12.6232C45.3171 13.5695 44.2978 15.0511 44.3048 16.6053C44.3117 18.1595 45.476 19.724 47.2105 20.1799C46.1671 19.9036 42.1488 26.9215 41.71 27.7503C39.2776 32.3507 37.4326 36.8853 38.6868 41.9933L38.6833 41.9864Z" fill="#4A1C23"/>
<path d="M112.633 59.4515C112.221 60.118 111.047 60.1629 110.318 59.7381C109.589 59.3133 109.195 58.588 108.822 57.9077C108.573 57.4552 108.317 57.0028 108.058 56.5573C103.884 49.4151 98.294 43.4057 90.7447 38.719C83.6272 34.3017 75.138 31.4904 66.3828 30.7963C60.9099 30.3645 55.3023 30.7824 50.0506 32.2054C47.4143 32.9203 44.8645 33.8908 42.5116 35.1375C41.3265 35.7661 40.2692 36.5121 39.1463 37.2063C36.4306 38.8848 37.5639 33.3416 37.8714 32.4575C41.2194 22.7595 54.7944 19.6547 65.2875 19.4544C72.5156 19.3162 79.7056 20.4939 86.6607 22.1828C90.0813 23.0117 93.4845 23.9752 96.5872 25.4638C102.989 28.541 106.524 33.9287 109.07 39.6411C111.724 45.5884 113.068 51.9812 112.864 58.3532C112.843 58.9887 112.989 58.892 112.643 59.4549L112.633 59.4515Z" fill="#DF674E"/>
<path d="M58.6641 23.8441C62.6098 21.9342 65.9198 19.0746 68.1207 15.6796C69.057 14.2325 69.8136 12.5506 69.3265 10.9481C68.7391 9.00709 66.5417 7.78103 64.4237 6.93143C62.3057 6.08182 59.9805 5.34964 58.5535 3.76095C57.9212 3.05985 57.4686 2.19297 56.5841 1.73363C55.6996 1.27429 54.5387 1.47115 54.4109 2.35184C53.4676 8.85168 54.1725 15.8247 55.9622 22.1829C56.1937 23.0014 56.6705 23.9857 57.6483 24.0341C58.6088 24.0824 57.8245 24.2447 58.6641 23.8407V23.8441Z" fill="#DF674E"/>
<path d="M55.1262 23.644C53.7199 24.7284 51.2461 25.4226 49.833 25.8267C45.8942 26.9561 41.6133 26.8421 37.7989 25.4123C34.1261 24.0342 31.0822 21.4716 29.4099 18.3495C35.173 18.0801 40.9361 17.3963 46.7061 17.3341C49.8571 17.2996 53.6577 18.087 55.5822 20.4735C56.6395 21.7824 56.1834 22.8254 55.1262 23.6405V23.644Z" fill="#DF674E"/>
<path d="M105.684 67.8098C102.703 66.8945 102.444 63.6412 102.209 61.2996C101.943 58.6575 102.312 55.6735 104.354 53.5564C105.94 51.909 108.525 50.8694 110.96 51.3115C113.476 51.7674 115.379 53.7187 115.998 55.8566C116.616 57.9944 116.122 60.2738 115.189 62.3253C114.419 64.0176 113.317 65.6512 111.648 66.7702C109.979 67.8892 107.678 68.4211 105.684 67.8098Z" fill="#915443"/>
<path d="M107.035 69.0252C106.317 69.0252 105.598 68.9389 104.904 68.7593C104.361 68.6177 104.05 68.1273 104.216 67.661C104.382 67.1948 104.955 66.9323 105.498 67.0704C107.163 67.5022 109.119 67.1775 110.477 66.2416C110.919 65.9376 111.568 65.9964 111.924 66.3763C112.28 66.7562 112.211 67.3122 111.765 67.6161C110.428 68.5348 108.735 69.0252 107.035 69.0252Z" fill="#5E2C1E"/>
<path d="M74.6267 62.5877C75.601 64.3111 75.5768 66.0448 74.5783 66.4593C73.5763 66.8772 71.9766 65.8169 71.0023 64.0935C70.0279 62.3701 70.0521 60.6364 71.0506 60.2219C72.0526 59.804 73.6523 60.8643 74.6267 62.5877Z" fill="#210D10"/>
<path d="M56.4321 66.7806C57.4064 68.504 57.3822 70.2377 56.3837 70.6521C55.3817 71.07 53.782 70.0098 52.8077 68.2864C51.8333 66.563 51.8575 64.8292 52.8561 64.4148C53.858 63.9969 55.4577 65.0572 56.4321 66.7806Z" fill="#210D10"/>
<path d="M113.776 284.29C113.296 284.29 112.864 284 112.767 283.578C106.686 257.175 103.66 230.14 103.77 203.222C103.77 202.735 104.233 202.341 104.8 202.341H104.803C105.37 202.341 105.829 202.738 105.829 203.225C105.719 230.026 108.732 256.944 114.789 283.233C114.899 283.71 114.536 284.176 113.98 284.269C113.914 284.279 113.845 284.286 113.78 284.286L113.776 284.29Z" fill="#4E7B9C"/>
</g>
<defs>
<clipPath id="clip0_208_2433">
<rect width="229" height="643" fill="white"/>
</clipPath>
</defs>
</svg>
