<svg width="369" height="319" viewBox="0 0 369 319" fill="none" xmlns="http://www.w3.org/2000/svg">
<path d="M345.075 299.401H11.7723L0.773987 289.735H332.995L345.075 299.401Z" fill="white"/>
<path d="M368.586 318.192H33.192L22.1937 308.526H356.506L368.586 318.192Z" fill="white"/>
<path d="M127.2 164.692C127.02 163.827 126.623 162.961 125.938 162.384C125.253 161.807 124.207 161.626 123.486 162.131C122.837 162.564 122.549 163.43 122.44 164.187C122.116 165.954 122.188 167.794 122.26 169.561C122.26 169.886 122.26 170.21 122.404 170.535C122.729 171.22 123.739 171.581 124.424 171.581C125.217 171.581 125.686 170.968 126.082 170.355C127.164 168.696 127.597 166.604 127.2 164.656V164.692Z" fill="#FFA87D"/>
<path d="M126.623 170.282C126.623 170.282 126.515 169.922 126.371 169.777C126.046 169.381 125.289 169.056 124.856 168.768C124.28 168.371 122.981 167.145 122.26 167.145C121.539 167.145 120.673 168.263 120.205 168.731C118.87 169.994 117.608 171.364 116.202 172.591C115.265 173.384 114.363 174.105 113.389 174.827C113.137 175.007 112.885 175.187 112.56 175.187C112.344 175.187 112.127 175.115 111.947 175.007C109.062 173.709 106.322 172.014 103.87 170.03C103.112 169.417 102.355 168.768 101.454 168.371C100.552 167.974 99.5063 167.794 98.6048 168.19C97.4509 168.695 97.7754 170.318 97.9918 171.328C98.3524 173.132 98.749 174.971 99.1096 176.774C99.4702 178.506 99.8669 180.309 101.057 181.571C101.706 182.256 102.499 182.725 103.329 183.194C105.276 184.276 107.259 185.394 109.459 185.827C111.586 186.26 113.894 186.873 116.022 186.152C117.897 185.502 119.267 183.952 120.457 182.365C121.936 180.381 123.234 178.289 124.352 176.089C124.856 175.115 125.181 174.069 125.614 173.059C125.974 172.194 126.804 171.22 126.587 170.246L126.623 170.282Z" fill="#FD654D"/>
<path d="M94.6021 222.435C93.7367 222.507 92.9433 222.218 92.1139 222.29C89.9864 222.399 88.1113 224.094 87.7507 226.186C87.6064 227.087 87.7507 227.989 87.8949 228.891C88.9407 235.815 89.0128 242.776 88.2916 249.737C87.931 253.38 87.6425 257.131 88.0391 260.81C88.3997 264.452 89.3734 267.987 89.9143 271.594C90.0946 272.856 90.3831 274.154 90.4191 275.417C90.4191 276.643 90.0225 277.977 90.4913 279.204C90.96 280.358 92.3303 280.755 93.5563 280.899C95.5036 281.151 97.4508 281.223 99.4341 281.115C99.6504 281.115 99.8669 281.115 100.083 281.007C101.778 280.358 100.155 279.276 99.5423 278.735C98.6408 277.941 98.3162 277.112 98.3162 275.922C98.3162 270.872 98.2081 265.751 98.6768 260.701C99.2177 254.895 100.588 249.196 101.634 243.462C102.643 237.727 103.293 231.812 102.319 226.077C102.211 225.356 102.03 224.635 101.67 224.022C100.949 222.867 99.5423 222.363 98.208 222.218C96.982 222.074 95.9363 222.363 94.7463 222.471L94.6021 222.435Z" fill="#FFA87D"/>
<path d="M89.3013 279.096C89.1571 279.817 88.9407 281.296 89.3013 281.945C89.5177 282.378 91.1765 282.197 91.7174 282.197C92.8352 282.197 93.9531 282.197 95.0709 282.233C97.5591 282.269 100.047 282.306 102.535 282.342C103.401 282.342 104.23 282.342 105.06 282.378C105.456 281.801 105.348 281.187 105.024 280.683C104.807 280.394 104.519 280.142 104.23 279.961C103.689 279.673 103.076 279.565 102.499 279.348C102.03 279.168 101.598 278.807 101.129 278.663C100.047 278.374 99.2539 279.059 98.9294 280.033C98.7851 280.466 96.8378 279.925 96.4772 279.817C95.5397 279.528 94.6743 279.096 93.8088 278.699C92.8713 278.23 91.8976 277.653 90.8519 277.473C89.8783 277.328 89.4816 278.266 89.3374 279.096H89.3013Z" fill="#3D8476"/>
<path d="M105.096 282.81H89.5898C89.2653 282.81 89.0128 282.558 89.0128 282.233C89.0128 281.909 89.2653 281.656 89.5898 281.656H105.096C105.42 281.656 105.673 281.909 105.673 282.233C105.673 282.558 105.42 282.81 105.096 282.81Z" fill="#171E38"/>
<path d="M84.6856 220.595C84.325 220.415 83.9283 220.271 83.5677 220.163C82.3417 219.802 81.0435 219.622 79.7814 219.802C77.5818 220.09 75.4903 221.353 74.2643 223.228C72.8579 225.356 73.0382 227.484 73.0382 229.865C73.0382 232.93 73.4709 235.888 73.6512 238.917C73.7955 241.622 73.5791 244.472 72.7497 247.068C71.6679 250.603 70.6943 254.173 70.3698 257.852C70.0452 261.495 70.2976 265.174 70.1173 268.78C70.0452 270.079 70.1174 271.377 69.8649 272.64C69.6486 273.866 68.9634 275.092 69.2158 276.354C69.4322 277.581 70.7304 278.23 71.8843 278.627C73.7233 279.276 75.6706 279.709 77.6178 279.961C77.8342 279.961 78.0506 279.997 78.2669 279.961C80.0339 279.637 78.6636 278.266 78.1948 277.617C77.4736 276.679 77.3293 275.813 77.5457 274.623C78.5193 269.646 79.3847 264.633 80.8271 259.764C81.5844 257.131 82.5581 254.57 83.5677 252.009C84.5053 249.629 85.8034 247.285 86.128 244.76C86.9213 239.098 87.5343 233.435 88.0031 227.737C88.1473 226.222 88.2555 224.599 87.6064 223.228C87.0295 222.002 85.9477 221.1 84.6856 220.523V220.595Z" fill="#FFA87D"/>
<path d="M68.098 276.066C67.8095 276.751 67.3046 278.158 67.521 278.879C67.6652 279.384 69.324 279.492 69.8288 279.601C70.9106 279.817 72.0285 280.069 73.1103 280.286C75.5263 280.791 77.9784 281.332 80.3944 281.837C81.2238 282.017 82.0532 282.197 82.8826 282.378C82.8826 282.378 82.8826 282.378 82.9186 282.378C83.4235 281.909 83.4595 281.26 83.2071 280.683C83.0629 280.358 82.8465 280.033 82.558 279.817C82.0892 279.42 81.5123 279.204 81.0075 278.879C80.5747 278.627 80.2141 278.194 79.7814 277.942C78.8078 277.437 77.8703 277.978 77.3654 278.843C77.113 279.24 75.346 278.338 75.0215 278.158C74.156 277.725 73.3988 277.112 72.6415 276.535C71.8121 275.922 70.9828 275.128 69.9731 274.768C69.0355 274.443 68.4586 275.309 68.1701 276.066H68.098Z" fill="#3D8476"/>
<path d="M67.2102 279.033C67.2728 278.714 67.5692 278.515 67.8876 278.578L83.1023 281.569C83.4207 281.632 83.6197 281.928 83.5571 282.247C83.4945 282.565 83.1982 282.764 82.8797 282.701L67.6651 279.71C67.3466 279.648 67.1476 279.351 67.2102 279.033Z" fill="#171E38"/>
<path d="M69.1438 160.4C68.8914 160.544 68.6749 160.653 68.4225 160.797C66.6195 161.915 65.2853 163.79 64.7444 165.846C64.2035 167.974 64.492 170.391 63.1938 172.122C62.1481 173.492 60.3812 174.106 59.083 175.224C57.893 176.197 57.0997 177.604 56.8112 179.119C56.3785 181.535 57.3161 184.132 56.4867 186.44C56.1982 187.306 55.6573 188.063 55.441 188.929C54.9001 190.877 55.8376 192.896 56.9555 194.555C57.6046 195.529 58.3258 196.467 59.2273 197.152C60.9221 198.487 63.1217 198.955 65.2853 199.172C69.324 199.605 73.5791 199.208 77.2212 197.441C80.8993 195.637 83.9283 192.319 84.7217 188.316C85.1183 186.44 84.9741 184.529 84.9741 182.653C84.9741 181.86 84.7938 180.67 85.0462 179.912C85.2625 179.263 85.9477 178.686 86.2362 178.001C87.0295 176.125 87.1016 173.456 87.3901 171.437C87.7147 168.948 87.8589 166.423 87.7868 163.899C87.7147 161.41 87.4983 158.921 86.705 156.541C85.9117 154.197 84.5414 151.961 82.5941 150.482C81.6566 149.797 80.6109 149.256 79.4569 149.111C77.8342 148.931 76.1754 149.616 75.0936 150.843C73.7594 152.357 73.6873 154.521 73.1464 156.397C72.4974 158.597 71.1271 159.318 69.1798 160.364L69.1438 160.4Z" fill="#60362B"/>
<path d="M104.663 235.13V235.383H70.2977C70.478 233.832 70.6582 232.317 70.8385 230.766C71.8122 222.507 72.7137 214.248 73.5791 205.989C74.4085 198.126 75.8148 190.372 76.0312 182.473C76.1394 178.686 76.1755 174.791 77.5818 171.256C78.1948 169.705 79.0603 167.902 80.1781 166.604C80.3224 166.459 80.4306 166.315 80.5748 166.171C81.9451 164.764 83.3154 164.728 85.0823 164.728C87.2819 164.728 89.2292 164.873 91.3567 165.486C93.1958 166.027 94.8906 166.459 96.333 167.397C97.2345 167.974 98.0279 168.732 98.7491 169.814C99.9751 171.689 100.624 173.889 101.237 176.053C102.319 179.876 103.184 183.771 103.87 187.703C104.555 191.562 104.302 195.385 104.519 199.244C104.735 203.067 104.663 206.962 104.663 210.822C104.663 218.937 104.663 227.052 104.663 235.167V235.13Z" fill="white"/>
<path d="M104.663 235.13V235.383H70.2977C70.478 233.832 70.6582 232.317 70.8385 230.766C71.8122 222.507 72.7137 214.248 73.5791 205.989C74.4085 198.126 75.8148 190.372 76.0312 182.473C76.1394 178.686 76.1755 174.791 77.5818 171.256C78.1948 169.705 79.0603 167.902 80.1781 166.604C80.3224 166.459 80.4306 166.315 80.5748 166.171C81.9451 164.764 83.3154 164.728 85.0823 164.728C87.2819 164.728 89.2292 164.873 91.3567 165.486C93.1958 166.027 94.8906 166.459 96.333 167.397C97.2345 167.974 98.0279 168.732 98.7491 169.814C99.9751 171.689 100.624 173.889 101.237 176.053C102.319 179.876 103.184 183.771 103.87 187.703C104.555 191.562 104.302 195.385 104.519 199.244C104.735 203.067 104.663 206.962 104.663 210.822C104.663 218.937 104.663 227.052 104.663 235.167V235.13Z" fill="#F4E28E"/>
<path d="M96.369 168.371C96.1166 169.453 95.2151 170.246 94.2775 170.823C92.6548 171.905 91.2485 171.869 89.4095 171.833C87.8228 171.833 86.2723 171.401 84.7938 170.896C82.6302 170.174 79.9617 169.2 80.2142 166.568C80.3584 166.423 80.4666 166.279 80.6108 166.135C81.9811 164.728 83.3514 164.692 85.1183 164.692C87.318 164.692 89.2652 164.836 91.3928 165.45C93.2318 165.991 94.9266 166.423 96.369 167.361C96.4772 167.686 96.4411 168.01 96.369 168.335V168.371Z" fill="white"/>
<path d="M81.4403 166.171C81.0797 168.551 83.3875 169.417 85.2987 170.066C86.5608 170.499 87.895 170.823 89.2292 170.859C90.8159 170.859 91.9698 170.895 93.3761 169.994C94.1694 169.489 94.9267 168.804 95.1431 167.902C95.2152 167.613 95.2152 167.253 95.107 166.964C94.6383 165.882 92.3665 165.738 91.3929 165.485C89.2653 164.872 87.3181 164.728 85.1184 164.728C84.253 164.728 82.7385 164.62 81.9812 165.161C81.6927 165.377 81.5124 165.774 81.4764 166.171H81.4403Z" fill="#FFA87D"/>
<path d="M86.128 187.847C86.0198 186.801 85.9117 185.791 85.7674 184.745C85.1544 179.84 84.7216 174.07 82.7383 169.525C82.3417 168.623 81.4762 166.64 82.3417 165.774C82.7023 165.413 83.8923 165.414 84.3971 165.414C86.0919 165.414 87.7507 165.414 89.4455 165.522C91.9697 165.666 94.2054 166.387 95.3593 168.804C96.8378 171.942 97.4148 175.584 97.9918 178.975C99.2899 186.476 100.3 194.05 101.093 201.624C101.093 201.516 104.122 201.444 104.374 201.444C104.879 201.444 104.951 201.516 105.132 201.083C105.312 200.687 105.132 199.857 105.132 199.424C105.132 198.306 105.096 197.224 105.023 196.106C104.843 191.67 104.446 187.198 104.086 182.762C103.833 179.768 103.545 176.774 103.257 173.781C103.148 172.483 103.257 171.148 102.571 170.03C102.283 169.561 101.994 169.056 101.634 168.696C101.129 168.191 100.444 167.866 99.7947 167.614C97.0541 166.496 94.2055 166.243 91.3928 165.45C89.4455 164.909 87.4262 164.62 85.4068 164.656C83.8923 164.656 82.3417 164.873 80.8993 165.377C79.8896 165.738 78.952 166.207 78.0505 166.676C76.6081 167.433 75.1658 168.191 73.6873 168.912C73.5431 168.984 73.3988 169.056 73.3267 169.237C73.2906 169.345 73.3267 169.489 73.3267 169.633C73.3267 169.742 73.3628 169.85 73.3988 169.958C74.4806 175.043 74.4085 180.417 74.2643 185.611C74.12 190.913 73.6873 196.214 73.1464 201.48C73.1464 201.588 85.3707 201.48 86.4525 201.3C86.5968 201.3 86.7771 201.264 86.8492 201.119C86.9213 201.011 86.9213 200.867 86.9213 200.759C86.8853 196.431 86.6328 192.139 86.2001 187.811L86.128 187.847Z" fill="#FD654D"/>
<path d="M63.0496 213.49C62.9414 213.13 62.7611 212.769 62.5087 212.517C62.1481 212.156 61.7154 211.939 61.2827 211.723C60.886 211.507 60.4893 211.326 60.0927 211.146C59.2994 210.821 58.8306 210.641 58.1094 211.182C56.8473 212.156 55.9097 213.671 54.9361 214.933C54.0346 216.123 52.9889 217.277 52.7365 218.864C52.7004 219.117 52.6643 219.369 52.7365 219.622C52.7365 219.694 52.8086 219.802 52.8807 219.838C53.0249 219.946 53.2053 219.946 53.3134 219.838C53.4216 219.766 53.4937 219.622 53.5298 219.477C53.638 219.261 55.1164 216.953 55.1885 216.989C55.2246 217.025 55.2607 217.061 55.3328 217.097C55.2607 217.025 53.8543 219.874 53.7461 220.09C53.5658 220.487 53.3495 220.92 53.3855 221.425C53.3855 221.749 53.638 222.11 53.9264 222.146C54.1789 222.146 54.3231 221.966 54.4673 221.786C54.9722 221.064 55.3328 220.271 55.7655 219.513C56.09 219.008 56.3785 218.504 56.703 217.999C56.7751 217.999 56.8112 218.071 56.8833 218.107C56.8833 218.107 55.9818 219.802 55.8737 219.982C55.4409 220.704 55.1164 221.497 54.9361 222.327C54.9001 222.507 54.864 222.651 54.9 222.832C54.9 223.012 55.0443 223.192 55.2246 223.3C55.3689 223.373 55.5491 223.373 55.6934 223.3C55.8376 223.228 55.9098 223.12 56.0179 223.012C56.4146 222.471 56.667 221.858 57.0276 221.281C57.4964 220.523 57.9291 219.766 58.3979 219.008C58.4339 219.008 58.5061 219.045 58.5421 219.081C58.2536 219.694 57.9651 220.343 57.6767 220.956C57.4242 221.461 57.0637 222.002 56.9194 222.579C56.8473 222.868 56.8833 223.12 57.0997 223.409C57.2079 223.553 57.5685 223.733 57.7127 223.589C58.3978 222.795 59.0109 221.966 59.5518 221.1C59.7682 220.74 60.7418 218.215 61.1024 218.287C61.2105 218.287 61.2466 218.395 61.2466 218.504C61.3548 219.008 61.3548 219.55 61.4269 220.054C61.4991 220.523 61.6433 220.992 61.8957 221.389C62.112 221.75 62.5447 221.641 62.725 221.245C62.8332 220.992 62.8332 220.704 62.7972 220.451C62.7611 219.549 62.7972 218.648 62.8693 217.71C62.9775 216.556 63.4463 214.753 63.0857 213.454L63.0496 213.49Z" fill="#FFA87D"/>
<path d="M77.3655 173.492C77.1491 171.725 76.3198 170.318 75.274 168.948C75.0216 168.623 74.6249 168.515 74.2282 168.587C73.8316 168.659 73.5071 168.84 73.1825 169.092C70.9468 170.715 69.6847 173.601 68.639 176.053C67.3048 179.299 66.1508 182.653 64.9969 185.971C63.8069 189.362 62.6169 192.752 61.4991 196.142C60.3812 199.532 59.2994 202.959 58.2897 206.421C58.0373 207.287 57.7849 208.152 57.5685 209.018C57.4604 209.451 57.3161 209.884 57.2079 210.316C57.0997 210.641 56.9555 211.074 57.0637 211.434C57.1719 211.723 57.4604 211.903 57.7489 212.012C58.1455 212.192 58.5061 212.336 58.9027 212.48C59.6961 212.769 60.5255 213.021 61.3549 213.202C62.1842 213.382 63.0136 213.526 63.843 213.598C64.2036 213.598 64.6002 213.707 64.9248 213.49C65.2132 213.31 65.3214 212.949 65.4296 212.625C66.0787 210.966 66.7278 209.343 67.4129 207.72C69.4683 202.923 71.632 198.162 73.5792 193.293C74.8413 190.047 75.9591 186.765 76.6443 183.339C77.2933 180.129 77.7982 176.81 77.3655 173.528V173.492Z" fill="#FD654D"/>
<path d="M93.953 164.512C93.917 165.089 93.8448 165.666 93.7727 166.243C93.7367 166.712 93.6646 167.181 93.4843 167.613C93.0876 168.551 92.2582 169.2 91.2846 169.525C90.3471 169.886 89.3374 169.922 88.3277 169.958C87.7147 169.958 87.0656 169.958 86.4525 169.85C85.0462 169.633 83.8923 168.876 82.7745 167.974C81.7287 167.145 82.0893 165.918 82.5581 164.764C82.9547 163.754 83.135 162.672 83.2072 161.59C83.2072 161.049 83.2432 160.436 83.5678 159.967C84.0726 159.174 84.8298 159.498 85.551 159.679C86.128 159.823 86.705 160.039 87.282 160.076C87.931 160.112 88.5801 160.003 89.1931 159.895C89.3013 159.895 89.4095 159.895 89.5177 159.859C90.5634 159.715 91.6091 159.715 92.6188 159.823C93.5203 159.931 93.9531 160.22 93.9891 161.194C93.9891 162.276 93.9891 163.394 93.917 164.512H93.953Z" fill="#FFA87D"/>
<path d="M93.9531 164.512C93.7728 164.692 93.4843 164.62 93.1958 164.62C92.1861 164.548 91.2486 164.115 90.3832 163.574C89.8423 163.249 89.3374 162.853 89.0489 162.312C88.7604 161.807 88.7605 161.266 88.9768 160.725C89.085 160.472 89.121 160.184 89.1932 159.931C89.3013 159.931 89.4095 159.931 89.5177 159.895C90.5634 159.751 91.6092 159.751 92.6189 159.859C93.5204 159.967 93.9531 160.256 93.9892 161.23C93.9892 162.312 93.9891 163.43 93.917 164.548L93.9531 164.512Z" fill="#E26E61"/>
<path d="M90.7436 162.889C89.9143 162.708 89.1209 162.456 88.3637 162.095C87.8228 161.879 87.354 161.518 86.8131 161.302C86.3443 161.121 86.0198 160.905 85.6953 160.472C85.6592 160.4 85.5871 160.328 85.515 160.292C85.4428 160.256 85.3347 160.22 85.2265 160.22C84.0365 160.075 82.8826 159.643 81.8729 158.957C81.4402 158.633 81.2599 158.2 80.9353 157.767C80.5026 157.19 80.142 156.577 79.8175 155.928C78.7717 153.872 78.303 151.419 78.916 149.147C79.529 146.983 81.0796 145.216 82.9186 143.954C84.0365 143.16 85.2625 142.547 86.5607 142.078C87.1376 141.862 87.5704 141.681 88.2195 141.79C88.7964 141.862 89.3734 142.078 89.9143 142.331C90.347 142.511 90.7797 142.763 91.1403 143.052C91.537 143.413 91.8255 143.845 92.0418 144.35C92.727 145.793 92.9073 147.38 93.4121 148.859C93.6285 149.508 93.9169 150.193 94.3496 150.734C94.7824 151.239 95.3954 151.636 96.0084 151.888C96.4412 152.069 97.0902 152.177 97.4148 152.574C97.6672 152.898 97.7032 153.367 97.6311 153.764C97.559 154.197 97.3787 154.629 97.3426 155.062C97.2705 155.964 97.559 156.938 97.6672 157.839C97.7753 158.705 97.7753 159.571 97.4508 160.4C96.982 161.626 95.9723 161.987 94.8545 162.456C93.5203 163.033 92.0779 163.069 90.7076 162.78L90.7436 162.889Z" fill="#FFA87D"/>
<path d="M90.7798 145.469C90.4913 145.649 90.275 145.901 90.1307 146.226C90.0225 146.514 90.0225 146.839 89.9144 147.128C89.7701 147.56 89.1571 148.534 88.6162 148.534C88.5441 148.534 88.472 148.534 88.3998 148.498C88.3277 148.462 88.3277 148.354 88.2917 148.282C88.0753 147.38 87.859 146.442 87.6787 145.541C87.7508 146.37 88.0753 150.446 86.3805 150.013C86.056 149.941 85.8756 149.616 85.6953 149.328C85.3347 148.678 84.9381 148.029 84.5775 147.344C85.0463 150.698 86.1281 154.125 85.3708 157.515C85.2266 158.236 84.9381 158.921 84.6496 159.571C84.2169 160.581 83.8563 161.482 83.2072 162.384C82.9908 162.672 82.8105 162.961 82.486 163.069C82.2696 163.141 82.0533 163.177 81.8369 163.177C81.7648 163.177 81.6927 163.177 81.6205 163.141C81.5845 163.105 81.5484 163.033 81.5484 162.997C81.4402 162.672 81.4042 162.095 81.1878 161.807C81.0075 161.518 80.5388 161.374 80.2863 161.158C79.5651 160.689 78.9161 160.148 78.267 159.571C77.3294 158.705 76.2116 158.02 75.274 157.118C74.3004 156.18 73.6874 154.846 73.5792 153.511C72.6056 154.088 71.4516 154.269 70.3338 154.197C69.6126 154.161 68.8914 154.016 68.3505 153.547C67.7014 153.006 67.3768 152.069 67.6293 151.239C67.8817 150.41 68.6029 149.761 69.4683 149.652C69.0717 149.111 69.3962 148.318 69.9371 147.957C70.478 147.597 71.1992 147.633 71.8483 147.741C72.858 147.921 73.6873 148.426 74.3364 149.219C74.697 148.931 74.661 148.101 74.8413 147.669C75.0937 147.019 75.4182 146.406 75.7428 145.793C76.9327 143.809 78.6997 142.583 80.7912 141.646C81.8369 141.177 83.0269 140.852 84.0727 140.527C85.2987 140.131 86.7411 140.095 88.0032 140.383C89.4816 140.744 90.8519 141.645 91.501 143.016C91.7174 143.449 91.8616 143.99 91.7174 144.459C91.5731 145.036 91.1404 145.072 90.7077 145.396L90.7798 145.469Z" fill="#60362B"/>
<path d="M92.691 151.528C92.8352 152.033 92.6188 152.502 92.2582 152.61C91.8976 152.718 91.5009 152.393 91.3567 151.888C91.2125 151.384 91.4289 150.915 91.7895 150.806C92.1501 150.698 92.5467 151.023 92.691 151.528Z" fill="#171E38"/>
<path d="M90.0585 148.751C90.5994 148.246 91.2846 147.813 92.0058 147.885C92.0779 147.885 92.1501 147.885 92.1861 147.921C92.5107 148.065 92.3664 148.426 92.1861 148.606C91.9698 148.787 91.6813 148.859 91.4288 149.003C90.6355 149.472 89.9504 150.085 89.4095 150.879C89.4095 150.915 89.157 150.987 89.157 150.879C89.0128 150.049 89.5176 149.292 90.0585 148.751Z" fill="#60362B"/>
<path d="M96.297 157.334C96.297 157.334 96.333 157.298 96.333 157.262C96.5854 156.938 96.333 156.216 95.9724 156.036C95.8642 156 95.756 156 95.6118 156.036C95.143 156.072 94.6742 156.18 94.2055 156.072C93.8809 156.036 93.5203 156.072 93.4121 156.469C93.304 156.974 94.0973 157.298 94.4579 157.407C94.8545 157.515 95.8282 157.659 96.2248 157.298L96.297 157.334Z" fill="white"/>
<path d="M84.902 153.944C83.9645 153.8 82.8826 154.269 82.5581 155.207C82.4138 155.603 82.4499 156.036 82.5581 156.433C82.7744 157.334 83.3154 157.984 84.0366 158.525C84.3972 158.813 84.7938 159.03 85.2265 159.138C85.6593 159.246 86.1641 159.138 86.4887 158.885C86.7771 158.633 86.9574 158.236 87.0295 157.839C87.2459 156.649 86.8132 155.279 85.9117 154.485C85.6232 154.233 85.2987 154.016 84.902 153.944Z" fill="#FFA87D"/>
<path d="M88.9407 142.295C88.3638 141.609 87.5344 141.141 86.669 140.96C86.5969 140.96 86.4166 140.96 86.3805 141.032C86.3445 141.141 86.4886 141.177 86.5608 141.177C88.2556 141.537 89.4095 143.124 89.4095 144.819C89.4095 145 89.9144 145 89.9144 144.819C89.9144 143.882 89.5898 142.98 89.0129 142.259L88.9407 142.295Z" fill="#44221B"/>
<path d="M86.7771 142.187C86.7771 142.187 86.5607 142.114 86.4525 142.15C86.3804 142.15 86.2723 142.259 86.3804 142.331C87.2098 142.908 87.6786 143.918 87.6425 144.928C87.6425 145.108 88.1113 145.108 88.1473 144.928C88.1834 143.882 87.6786 142.836 86.8131 142.187H86.7771Z" fill="#44221B"/>
<path d="M84.0005 143.016C84.0005 143.016 83.4235 142.98 83.5678 143.16C84.1447 143.846 84.5053 144.711 84.5413 145.577C84.5413 145.757 85.0462 145.757 85.0462 145.577C84.9741 144.639 84.6135 143.737 84.0005 143.016Z" fill="#44221B"/>
<path d="M74.084 149.436C73.7234 150.626 73.471 151.852 73.3267 153.079C73.3267 153.259 73.7955 153.259 73.8316 153.079C73.9397 151.852 74.1922 150.662 74.5528 149.472C74.6249 149.292 74.1201 149.256 74.084 149.4V149.436Z" fill="#44221B"/>
<path d="M73.1464 152.033C72.281 151.059 71.1631 150.338 69.937 149.905C69.8289 149.905 69.6846 149.905 69.6125 149.941C69.5404 150.013 69.6125 150.085 69.6846 150.121C70.8386 150.554 71.8843 151.239 72.7137 152.177C72.8219 152.285 73.2907 152.213 73.1464 152.033Z" fill="#44221B"/>
<path d="M71.127 152.033C70.6222 151.383 69.9731 150.842 69.2158 150.446C69.1076 150.41 68.9634 150.41 68.8553 150.446C68.7831 150.482 68.7471 150.59 68.8553 150.626C69.5404 150.987 70.1534 151.492 70.6583 152.105C70.7304 152.177 70.8386 152.213 70.9467 152.177C70.9828 152.177 71.1991 152.105 71.127 152.033Z" fill="#44221B"/>
<path d="M78.4112 143.846C76.2115 146.262 74.8413 149.4 74.5528 152.646C74.4807 153.583 74.4807 154.521 74.5528 155.459C74.5528 155.639 75.0576 155.639 75.0576 155.459C74.7331 152.249 75.4904 148.967 77.1852 146.19C77.654 145.396 78.2309 144.639 78.8439 143.99C78.9881 143.809 78.5194 143.737 78.4112 143.846Z" fill="#44221B"/>
<path d="M77.2573 148.642C76.7525 149.797 76.464 151.059 76.464 152.357C76.464 152.538 76.9688 152.538 76.9688 152.357C76.9688 151.095 77.2212 149.869 77.7261 148.715C77.7982 148.534 77.3294 148.498 77.2573 148.642Z" fill="#44221B"/>
<path d="M73.3628 159.751C73.3628 159.751 73.1103 159.751 73.0382 159.787C72.281 160.364 71.4876 160.905 70.7304 161.482C70.0452 161.987 69.3962 162.456 68.7471 162.997C67.5571 164.043 66.7277 165.341 66.5114 166.928C66.4032 167.794 66.4753 168.659 66.6917 169.489C66.7277 169.633 67.2326 169.597 67.1605 169.417C66.7278 167.974 66.908 166.351 67.5932 165.017C68.3504 163.61 69.6486 162.672 70.9107 161.735C71.7401 161.121 72.5695 160.508 73.3988 159.895C73.507 159.823 73.3988 159.751 73.3267 159.715L73.3628 159.751Z" fill="#44221B"/>
<path d="M69.8289 165.089C69.324 166.171 69.0716 167.397 69.1077 168.587C69.1077 168.768 69.6125 168.768 69.6125 168.587C69.6125 167.397 69.8289 166.243 70.2977 165.161C70.3698 164.981 69.901 164.945 69.8289 165.089Z" fill="#44221B"/>
<path d="M82.6663 159.571C82.3778 161.194 81.5123 162.708 80.2502 163.79C80.1781 163.863 80.2502 163.935 80.3223 163.971C80.4305 163.971 80.5747 163.971 80.6469 163.935C81.945 162.817 82.8105 161.266 83.135 159.607C83.135 159.462 82.6662 159.426 82.6302 159.607L82.6663 159.571Z" fill="#44221B"/>
<path d="M65.3214 173.096C64.6362 174.899 63.0496 176.125 61.6793 177.424C60.9942 178.073 60.3812 178.758 59.9124 179.588C59.4075 180.489 59.1552 181.499 59.1552 182.545C59.1912 183.735 59.5879 184.89 60.3451 185.827C60.4533 185.972 60.9221 185.899 60.8139 185.755C59.5157 184.096 59.2633 181.68 60.273 179.804C61.1745 178.145 62.7251 176.991 64.0232 175.656C64.7444 174.899 65.3935 174.07 65.7541 173.096C65.8263 172.915 65.3214 172.879 65.2853 173.024L65.3214 173.096Z" fill="#44221B"/>
<path d="M62.6169 179.371C62.076 180.525 61.8957 181.824 62.1121 183.05C62.1121 183.23 62.6169 183.194 62.6169 183.05C62.4006 181.824 62.5448 180.561 63.0857 179.407C63.1578 179.227 62.689 179.191 62.6169 179.335V179.371Z" fill="#44221B"/>
<path d="M58.0012 192.788C57.3521 191.706 57.2801 190.336 57.821 189.181C57.8931 189.001 57.4243 188.965 57.3522 189.109C56.7752 190.299 56.8473 191.706 57.5325 192.86C57.6046 193.005 58.1094 192.932 58.0012 192.788Z" fill="#44221B"/>
<path d="M83.8202 177.063C83.8202 177.063 83.6038 176.81 83.4595 176.774C83.2432 176.702 82.9908 176.774 82.8105 176.883C82.6663 176.991 82.5941 177.135 82.558 177.315C82.558 177.46 82.5581 177.64 82.6302 177.784C82.7384 177.965 82.9187 178.073 83.099 178.073C83.3153 178.073 83.5317 178.073 83.676 177.892C83.7841 177.784 83.8202 177.64 83.8202 177.496C83.8202 177.351 83.8202 177.207 83.7841 177.063H83.8202Z" fill="white"/>
<path d="M84.7938 186.116C84.7938 186.116 84.5774 185.863 84.4332 185.827C84.2168 185.755 83.9644 185.827 83.7841 185.935C83.6399 186.044 83.5677 186.188 83.5317 186.368C83.5317 186.512 83.5317 186.693 83.6038 186.837C83.712 187.017 83.8923 187.126 84.0726 187.126C84.289 187.126 84.5053 187.126 84.6495 186.945C84.7577 186.837 84.7938 186.693 84.7938 186.548C84.7938 186.404 84.7938 186.26 84.7577 186.116H84.7938Z" fill="white"/>
<path d="M85.1905 195.168C85.1905 195.168 84.9741 194.916 84.8298 194.88C84.6135 194.808 84.3611 194.88 84.1808 194.988C84.0366 195.096 83.9644 195.241 83.9283 195.421C83.9283 195.565 83.9284 195.745 84.0005 195.89C84.1087 196.07 84.289 196.178 84.4693 196.178C84.6856 196.178 84.902 196.178 85.0462 195.998C85.1544 195.89 85.1905 195.745 85.1905 195.601C85.1905 195.457 85.1904 195.313 85.1544 195.168H85.1905Z" fill="white"/>
<path d="M103.112 174.286C103.076 174.033 102.391 174.069 102.427 174.286C102.824 177.171 103.257 180.02 103.653 182.906C103.689 183.158 104.374 183.122 104.338 182.906C103.942 180.02 103.509 177.135 103.112 174.286Z" fill="#D83827"/>
<path d="M112.308 175.801C111.478 177.64 111.19 179.66 111.442 181.644C111.442 181.896 112.163 181.86 112.127 181.644C111.875 179.696 112.163 177.712 112.993 175.909C113.101 175.656 112.416 175.584 112.308 175.801Z" fill="#D83827"/>
<path d="M76.1755 182.798C75.9591 186.152 75.1658 189.47 73.7955 192.536C73.6873 192.788 74.3724 192.86 74.4806 192.644C75.8509 189.542 76.6803 186.188 76.8966 182.798C76.8966 182.545 76.2115 182.545 76.2115 182.798H76.1755Z" fill="#D83827"/>
<path d="M83.3514 173.384C82.3056 173.132 81.2599 172.987 80.1781 172.915C79.3848 172.879 78.4473 172.915 77.7621 172.482C76.9688 171.941 76.9688 170.896 77.0409 170.066C77.1491 169.056 77.4375 168.118 77.9424 167.217C78.0506 167 77.4015 166.928 77.2573 167.109C76.7524 168.01 76.464 169.02 76.3558 170.066C76.2476 170.968 76.3558 172.014 77.113 172.591C77.7982 173.132 78.7357 173.168 79.5651 173.204C80.719 173.24 81.8729 173.384 83.0269 173.673C83.1711 173.673 83.3875 173.745 83.4956 173.601C83.6038 173.492 83.4957 173.384 83.3875 173.348L83.3514 173.384Z" fill="#D83827"/>
<path d="M99.3259 168.804C99.0375 168.154 98.5687 167.613 98.0278 167.108C97.8475 166.964 97.1985 167.108 97.4148 167.289C98.2442 168.046 99.0015 169.128 98.9654 170.318C98.9654 170.932 98.6408 171.292 98.136 171.545C97.9196 171.653 97.7393 171.761 97.523 171.869C97.4148 171.941 97.3066 172.013 97.2345 172.086C97.1984 172.086 97.1624 172.158 97.1263 172.194C97.0903 172.194 97.0542 172.194 97.0181 172.23C97.0181 172.23 96.91 172.302 96.91 172.374C96.91 172.699 97.4509 172.627 97.6312 172.518C97.7393 172.41 97.8475 172.302 97.9557 172.194C98.0639 172.122 98.172 172.05 98.3163 171.977C98.8572 171.689 99.4342 171.436 99.6145 170.823C99.8308 170.174 99.6144 169.417 99.362 168.804H99.3259Z" fill="#D83827"/>
<path d="M191.027 99.2673C190.522 100.89 189.945 102.477 189.368 104.1C188.394 106.805 187.132 109.402 185.365 111.638C184.896 112.215 184.283 112.828 183.526 112.828C183.31 112.828 183.129 112.792 182.949 112.72C182.877 112.72 182.805 112.648 182.697 112.648C180.713 111.927 178.838 110.989 177.071 109.835C175.485 108.825 173.754 108.897 172.239 107.707C169.427 105.471 167.371 102.333 166.47 98.8706C165.857 96.4902 165.748 94.0016 165.821 91.513C165.821 89.8539 165.965 88.1949 166.145 86.5719C166.397 84.4439 166.289 82.316 166.578 80.188C166.758 78.9618 167.047 77.6994 167.804 76.6896C167.984 76.4732 168.164 76.2568 168.453 76.2207C168.814 76.1486 169.174 76.3289 169.499 76.5453C172.167 78.2044 174.655 80.152 177.143 82.0996C181.507 85.562 185.906 88.9883 190.269 92.4507C190.954 92.9917 191.639 93.5327 191.964 94.3262V94.3983C192.433 95.6967 191.387 98.0771 190.99 99.3394L191.027 99.2673Z" fill="white"/>
<path d="M191.027 99.2673C190.522 100.89 189.945 102.477 189.368 104.1C188.899 105.435 188.322 106.769 187.673 108.067C187.565 108.32 187.421 108.536 187.276 108.789C186.699 109.799 186.086 110.772 185.365 111.674C184.896 112.251 184.283 112.864 183.526 112.864C183.31 112.864 183.129 112.828 182.949 112.756C182.625 111.061 182.769 109.294 183.238 107.635C183.346 107.238 183.49 106.841 183.634 106.444C183.706 106.192 183.815 105.976 183.923 105.723C184.464 104.425 185.113 103.162 185.762 101.9C186.267 100.962 186.772 100.025 187.312 99.0869C188.07 97.7164 188.827 96.3458 189.945 95.2999C190.341 94.9392 190.774 94.6146 191.279 94.4343C191.279 94.4343 191.351 94.4343 191.387 94.4343C191.604 94.3982 191.784 94.3622 192 94.3982C192 94.3982 192.036 94.3982 192.072 94.3982C192.072 94.3982 192.072 94.3982 192.072 94.4343C192.108 94.5786 192.144 94.7229 192.144 94.8671C192.289 96.2016 191.423 98.2213 191.099 99.3033L191.027 99.2673Z" fill="#3D8476"/>
<path d="M203.972 106.553C203.792 108.032 203.684 109.402 202.241 110.232C199.645 111.782 195.859 111.097 193.154 110.196C191.315 109.582 189.404 108.897 187.637 107.995C186.303 107.346 185.004 106.553 183.851 105.651C184.391 104.353 185.041 103.09 185.69 101.828C186.194 100.89 186.699 99.9526 187.24 99.0149C187.997 97.6443 188.755 96.2738 189.873 95.2279C190.269 94.8672 190.702 94.5426 191.207 94.3623C191.207 94.3623 191.279 94.3623 191.315 94.3623C191.567 94.5066 191.82 94.6508 192.072 94.7951C192.613 95.1197 193.118 95.4443 193.659 95.7689C196.363 97.3558 199.609 98.1493 202.169 99.9165C203.143 100.602 203.756 101.756 203.972 102.946C204.188 104.136 204.116 105.363 203.972 106.553Z" fill="#FFA87D"/>
<path d="M216.665 80.5126C217.098 79.106 216.016 77.9519 214.79 77.5191C213.708 77.1584 212.446 77.1584 211.473 77.7715C210.787 78.2043 210.319 78.9256 209.886 79.6109C208.48 82.0274 207.614 84.7324 206.316 87.1849C204.261 91.0441 201.196 94.1819 198.347 97.5C196.652 99.4837 194.488 101.648 193.911 104.281C193.154 107.779 195.714 110.592 199.14 110.881C204.08 111.277 206.965 105.038 208.66 101.251C211.689 94.4343 214.502 87.6177 216.701 80.4765L216.665 80.5126Z" fill="#FFA87D"/>
<path d="M221.894 73.9485C221.858 72.9747 221.75 71.9648 221.389 71.0631C221.281 70.7746 221.101 70.4861 220.884 70.3057C220.596 70.0533 220.163 70.0172 219.802 70.0893C220.019 69.8368 220.055 69.4401 219.911 69.1516C219.73 68.863 219.334 68.7188 219.009 68.7909C219.117 68.7909 219.298 68.322 219.37 68.2499C219.514 68.0696 219.658 67.8532 219.802 67.6728C220.091 67.3482 220.415 67.0236 220.776 66.7712C221.533 66.2302 222.182 65.4728 222.723 64.7154C222.904 64.4629 223.084 64.1744 223.156 63.8858C223.372 63.0202 222.615 63.0563 222.038 63.3448C219.009 64.9318 216.737 67.6007 214.429 70.0532C214.033 70.45 213.672 70.8467 213.312 71.2795C212.266 72.5779 211.617 74.1648 211.112 75.7878C210.643 77.3026 210.319 78.8896 210.138 80.4765C210.066 80.9814 210.03 81.4864 210.174 81.9553C210.283 82.2438 210.427 82.5323 210.607 82.7848C211.256 83.6504 212.194 84.3717 213.276 84.3357C214.357 84.2996 215.331 83.4701 216.196 82.8569C217.062 82.2438 217.891 81.5585 218.432 80.6208C218.973 79.7552 219.55 79.3585 220.379 78.7453C221.065 78.2765 221.533 77.5551 221.786 76.7616C222.002 76.0764 221.966 75.319 221.966 74.5976C221.966 74.3812 221.966 74.2009 221.966 73.9845L221.894 73.9485Z" fill="#FFA87D"/>
<path d="M221.353 73.6238C221.029 74.5615 220.596 75.5714 219.694 76.0763C219.37 76.2567 218.757 76.5092 218.504 76.1124C218.36 75.896 218.396 75.6435 218.504 75.4271C218.576 75.1386 218.685 74.8861 218.757 74.5976V74.5615C218.937 74.4533 219.117 74.3091 219.262 74.1648C219.694 73.732 220.019 73.191 220.307 72.686C220.632 72.109 220.956 71.4959 220.992 70.8106C220.992 70.6663 220.596 70.6663 220.56 70.8106C220.524 71.3516 220.271 71.8565 220.019 72.3615C219.766 72.7943 219.55 73.2631 219.225 73.6599C218.973 74.0205 218.54 74.4894 218.072 74.5615C217.819 74.5976 217.675 74.3812 217.603 74.1648C217.531 73.8763 217.603 73.5877 217.675 73.3353C217.675 73.2631 217.603 73.191 217.495 73.191C217.927 72.686 218.396 72.2172 218.829 71.7483C219.262 71.2795 219.766 70.7385 219.911 70.1253C220.055 69.5843 219.802 68.9712 219.225 68.8269C218.576 68.6466 218.072 69.0434 217.567 69.404C216.954 69.8368 216.232 70.0532 215.619 70.486C214.429 71.3155 213.889 72.7221 212.735 73.6238C212.59 73.732 212.987 73.8041 213.095 73.732C214.033 73.0107 214.538 71.9647 215.367 71.1352C215.836 70.6663 216.377 70.3778 216.954 70.0892C217.242 69.945 217.495 69.8007 217.747 69.6565C218.036 69.4401 218.324 69.1876 218.685 69.0794C219.045 68.9712 219.298 69.1876 219.442 69.5122C219.55 69.8368 219.478 70.1614 219.334 70.4499C219.045 71.0631 218.504 71.604 218.036 72.0729C217.206 72.9746 216.269 73.8763 215.98 75.1386C215.8 75.9321 215.98 76.6894 215.98 77.4829C215.908 78.2403 215.656 78.9616 215.187 79.6108C215.115 79.719 215.511 79.7912 215.583 79.683C215.98 79.1059 216.269 78.4567 216.341 77.7354C216.449 76.978 216.233 76.1845 216.341 75.4271C216.449 74.7419 216.737 74.1648 217.134 73.6599C217.098 73.8763 217.062 74.0927 217.134 74.3091C217.206 74.5616 217.386 74.7419 217.639 74.8501C217.819 74.8861 217.999 74.8861 218.18 74.8501C218.108 75.0304 218.072 75.2107 217.999 75.4271C217.927 75.6435 217.891 75.8599 217.927 76.0763C217.999 76.5091 218.432 76.6534 218.829 76.6534C218.865 76.6534 218.937 76.6534 218.973 76.6534C218.973 76.7255 218.973 76.7616 218.973 76.8337C218.973 76.9059 218.973 76.978 218.973 77.0501C218.973 77.3026 218.901 77.5551 218.973 77.7715C219.117 78.3125 219.73 78.4928 220.235 78.4207C220.379 78.4207 220.56 78.3485 220.704 78.2764C220.812 78.2403 220.992 78.1682 221.028 78.0239C221.101 77.8797 220.668 77.8436 220.632 77.9518C220.632 78.0239 220.488 78.06 220.379 78.096C220.271 78.1321 220.127 78.1682 220.019 78.1682C219.838 78.1682 219.658 78.0961 219.514 77.9518C219.37 77.7715 219.334 77.519 219.37 77.3026C219.37 77.1944 219.37 77.0501 219.406 76.9419V76.7616C219.406 76.7616 219.406 76.6895 219.442 76.6534C219.514 76.6534 219.514 76.5812 219.442 76.5091C220.055 76.2927 220.596 75.8238 220.956 75.2828C221.281 74.814 221.461 74.273 221.678 73.7681C221.75 73.6238 221.317 73.5877 221.281 73.6959L221.353 73.6238Z" fill="#E86A5D"/>
<path d="M197.229 98.3657C196.688 99.1231 196.183 99.9166 195.75 100.782C195.534 101.215 195.354 101.648 195.173 102.081C195.029 102.477 194.813 102.91 194.885 103.343C194.885 103.523 195.354 103.487 195.354 103.343C195.282 102.874 195.498 102.405 195.678 101.972C195.859 101.576 196.039 101.179 196.219 100.782C196.616 99.9527 197.121 99.1953 197.662 98.4739C197.77 98.3297 197.301 98.2936 197.229 98.4018V98.3657Z" fill="#E86A5D"/>
<path d="M215.728 82.8568C215.728 82.8568 215.511 82.8208 215.439 82.8568C215.259 82.965 215.042 83.0372 214.826 83.0732C214.718 83.0732 214.646 83.0732 214.502 83.0732C214.393 83.0732 214.285 83.0733 214.177 83.0372C214.105 83.0372 213.961 83.0372 213.925 83.1093C213.889 83.1814 214.033 83.2175 214.069 83.2536C214.61 83.3618 215.223 83.2536 215.728 83.0011C215.8 82.965 215.8 82.8929 215.728 82.8568Z" fill="#E86A5D"/>
<path d="M171.698 253.849C170.689 257.131 169.715 260.449 168.886 263.803C168.453 265.534 168.092 267.266 167.804 268.997C167.696 269.682 167.732 270.872 167.407 271.485C167.119 272.026 166.217 272.495 165.712 272.784C165.496 272.892 165.316 273 165.063 273.072C164.775 273.144 164.486 273.145 164.198 273.145C162.864 273.036 161.566 272.495 160.556 271.594C160.195 271.269 159.582 270.728 159.402 270.259C159.222 269.682 159.402 268.853 159.402 268.275C159.402 257.239 160.52 246.239 160.556 235.202C160.556 231.884 160.772 228.061 163.369 225.969C165.172 224.527 167.696 224.31 170.004 224.418C171.843 224.491 173.826 224.779 175.16 226.077C176.747 227.628 176.855 230.153 176.675 232.389C176.098 239.783 173.898 246.852 171.734 253.921L171.698 253.849Z" fill="#FFA87D"/>
<path d="M191.892 104.425L191.604 107.274L187.817 141.718H146.312L142.526 107.274L142.237 104.425H191.892Z" fill="#FD654D"/>
<path d="M191.892 104.425L191.604 107.274H142.526L142.237 104.425H191.892Z" fill="#F4E28E"/>
<path d="M159.402 109.33C158.825 111.133 157.455 112.323 156.337 111.963C155.219 111.602 154.786 109.871 155.363 108.032C155.94 106.228 157.31 105.038 158.428 105.399C159.546 105.759 159.979 107.491 159.402 109.33Z" fill="#F4E28E"/>
<path d="M176.567 109.33C177.143 111.133 178.514 112.323 179.632 111.963C180.749 111.602 181.182 109.871 180.605 108.032C180.028 106.228 178.658 105.038 177.54 105.399C176.422 105.759 175.99 107.491 176.567 109.33Z" fill="#F4E28E"/>
<path d="M178.983 108.717L177.468 108.609C177.612 106.769 177.684 104.93 177.684 103.054C177.684 88.7358 173.249 76.6895 167.984 76.6895C162.719 76.6895 158.284 88.7718 158.284 103.054C158.284 104.93 158.356 106.769 158.5 108.609L156.986 108.717C156.842 106.841 156.77 104.93 156.77 103.054C156.77 87.4013 161.71 75.1387 167.984 75.1387C174.259 75.1387 179.199 87.4013 179.199 103.054C179.199 104.966 179.127 106.877 178.983 108.717Z" fill="#F4E28E"/>
<path d="M145.771 254.282C145.23 257.275 144.726 260.305 144.365 263.334C144.185 264.885 144.04 266.436 143.968 267.951C143.932 268.744 143.896 269.538 143.86 270.367C143.86 270.944 144.04 271.774 143.644 272.243C143.175 272.784 142.49 273.036 141.805 273.145C141.119 273.217 140.434 273.145 139.749 273C138.848 272.82 137.946 272.604 137.153 272.135C134.953 270.836 135.061 268.6 134.845 266.328C134.557 263.731 134.268 261.134 134.088 258.501C133.655 252.082 133.222 245.662 132.79 239.242C132.537 235.419 132.573 230.91 135.711 228.674C137.261 227.556 139.244 227.34 141.156 227.123C145.158 226.691 148.836 227.196 148.764 231.884C148.692 239.458 147.142 246.852 145.807 254.246L145.771 254.282Z" fill="#FFA87D"/>
<path d="M182.733 237.691C182.877 243.678 177.793 243.462 172.852 243.678C158.104 244.4 143.247 243.678 128.643 241.55C131.311 221.137 132.213 200.506 131.347 179.948C130.951 170.247 130.265 160.508 131.167 150.843C131.6 145.901 132.501 141.032 133.98 136.308C134.881 133.458 136.179 130.79 137.117 127.976C137.586 126.57 137.982 125.091 138.163 123.576C138.199 123.143 138.271 122.711 138.343 122.278C138.415 121.809 138.559 121.376 138.812 120.979C139.533 119.825 140.975 119.392 142.309 119.068C150.423 117.156 158.753 116.038 167.083 115.714C169.751 115.606 170.472 116.327 170.617 118.743C170.653 119.573 170.725 120.366 170.833 121.196C171.049 123.288 171.338 125.38 171.554 127.471C172.203 133.422 172.816 139.41 173.537 145.361C174.583 154.233 176.639 162.961 177.792 171.833C179.199 182.834 180.317 193.87 181.146 204.907C181.975 215.799 182.516 226.727 182.733 237.655V237.691Z" fill="#263860"/>
<path d="M171.554 127.471C171.554 127.471 171.338 127.58 171.194 127.616C170.328 127.904 169.499 128.121 168.597 128.229C168.02 128.301 167.443 128.373 166.866 128.445H140.615C140.11 128.373 139.605 128.337 139.136 128.265C138.595 128.193 137.622 128.265 137.117 127.976C137.586 126.57 137.982 125.091 138.163 123.576C138.199 123.143 138.271 122.711 138.343 122.278C138.812 122.061 139.389 122.061 139.929 122.025L144.221 121.917C150.279 121.773 156.337 121.629 162.395 121.484C163.909 121.484 165.388 121.412 166.902 121.376C168.092 121.376 169.463 121.088 170.617 121.16C170.689 121.16 170.761 121.16 170.833 121.196C171.049 123.288 171.338 125.38 171.554 127.471Z" fill="#171E38"/>
<path d="M162.611 129.13H156.517C155.832 129.13 155.291 128.589 155.291 127.904V124.37C155.291 123.684 155.832 123.143 156.517 123.143H162.611C163.296 123.143 163.837 123.684 163.837 124.37V127.904C163.837 128.589 163.296 129.13 162.611 129.13ZM156.517 123.792C156.229 123.792 155.976 124.045 155.976 124.334V127.868C155.976 128.157 156.229 128.409 156.517 128.409H162.611C162.9 128.409 163.152 128.157 163.152 127.868V124.334C163.152 124.045 162.9 123.792 162.611 123.792H156.517Z" fill="#F4E28E"/>
<path d="M153.524 126.029C153.524 126.029 153.524 125.884 153.488 125.848C153.488 125.848 153.488 125.848 153.488 125.812C153.488 125.812 153.488 125.812 153.452 125.776C153.452 125.776 153.452 125.776 153.416 125.74C153.416 125.74 153.416 125.74 153.38 125.74C153.308 125.704 153.236 125.668 153.164 125.632C153.055 125.596 152.911 125.596 152.767 125.632C152.695 125.632 152.659 125.632 152.587 125.668C152.551 125.668 152.514 125.668 152.442 125.74C152.442 125.74 152.406 125.776 152.406 125.812C152.406 125.812 152.406 125.848 152.406 125.884C152.406 125.921 152.406 125.957 152.406 126.029C152.406 126.065 152.406 126.101 152.406 126.137C152.406 126.137 152.406 126.137 152.406 126.173C152.406 126.209 152.406 126.281 152.442 126.317C152.442 126.317 152.478 126.389 152.514 126.426C152.514 126.426 152.587 126.462 152.623 126.498C152.695 126.534 152.767 126.57 152.875 126.57C152.983 126.57 153.055 126.57 153.164 126.57C153.272 126.57 153.416 126.498 153.524 126.426C153.632 126.353 153.668 126.209 153.632 126.101L153.524 126.029Z" fill="#F4E28E"/>
<path d="M148.187 126.029C148.187 126.029 148.187 125.884 148.151 125.848C148.151 125.848 148.151 125.848 148.151 125.812C148.151 125.812 148.151 125.812 148.115 125.776C148.115 125.776 148.115 125.776 148.079 125.74C148.079 125.74 148.079 125.74 148.043 125.74C147.971 125.704 147.899 125.668 147.827 125.632C147.718 125.596 147.574 125.596 147.43 125.632C147.358 125.632 147.322 125.632 147.25 125.668C147.214 125.668 147.178 125.668 147.105 125.74C147.105 125.74 147.069 125.776 147.069 125.812C147.069 125.812 147.069 125.848 147.069 125.884C147.069 125.921 147.069 125.957 147.069 126.029C147.069 126.065 147.069 126.101 147.069 126.137C147.069 126.137 147.069 126.137 147.069 126.173C147.069 126.209 147.069 126.281 147.105 126.317C147.105 126.317 147.142 126.389 147.178 126.426C147.178 126.426 147.25 126.462 147.286 126.498C147.358 126.534 147.43 126.57 147.538 126.57C147.646 126.57 147.718 126.57 147.827 126.57C147.935 126.57 148.079 126.498 148.187 126.426C148.295 126.353 148.331 126.209 148.295 126.101L148.187 126.029Z" fill="#F4E28E"/>
<path d="M142.886 126.029C142.886 126.029 142.886 125.884 142.85 125.848C142.85 125.848 142.85 125.848 142.85 125.812C142.85 125.812 142.85 125.812 142.814 125.776C142.814 125.776 142.814 125.776 142.778 125.74C142.778 125.74 142.778 125.74 142.742 125.74C142.67 125.704 142.598 125.668 142.526 125.632C142.418 125.596 142.273 125.596 142.129 125.632C142.057 125.632 142.021 125.632 141.949 125.668C141.913 125.668 141.877 125.668 141.805 125.74C141.805 125.74 141.769 125.776 141.769 125.812C141.769 125.812 141.769 125.848 141.769 125.884C141.769 125.921 141.769 125.957 141.769 126.029C141.769 126.065 141.769 126.101 141.769 126.137C141.769 126.137 141.769 126.137 141.769 126.173C141.769 126.209 141.769 126.281 141.805 126.317C141.805 126.317 141.841 126.389 141.877 126.426C141.877 126.426 141.949 126.462 141.985 126.498C142.057 126.534 142.129 126.57 142.237 126.57C142.346 126.57 142.418 126.57 142.526 126.57C142.634 126.57 142.778 126.498 142.886 126.426C142.995 126.353 143.031 126.209 142.995 126.101L142.886 126.029Z" fill="#F4E28E"/>
<path d="M158.032 125.813H156.084C156.084 125.813 155.76 125.812 155.652 125.921C155.58 125.957 155.471 126.029 155.471 126.137C155.471 126.39 155.904 126.462 156.084 126.462H158.032C158.032 126.462 158.32 126.462 158.464 126.353C158.537 126.317 158.645 126.245 158.645 126.137C158.645 125.885 158.212 125.813 158.032 125.813Z" fill="#F4E28E"/>
<path d="M131.311 99.7722C132.465 104.317 132.754 108.969 133.727 113.514C134.34 116.363 134.953 119.212 135.458 122.133C135.53 122.602 135.638 123.071 135.963 123.432C136.396 123.865 137.045 123.901 137.622 123.901C147.106 124.153 156.625 124.045 166.109 123.612C172.6 123.324 172.456 118.346 173.465 113.297C173.754 111.854 174.114 110.484 174.511 109.041C175.413 105.543 176.603 101.972 176.458 98.3295C176.35 95.1556 175.954 91.9817 175.268 88.88C174.908 87.2931 174.439 85.7422 173.934 84.1553C173.465 82.7487 172.6 81.4142 171.807 80.1519C171.374 79.4305 170.905 78.7092 170.292 78.0961C169.138 76.9419 167.732 76.2567 166.217 75.7517C165.785 75.6075 165.352 75.4993 164.919 75.355C160.844 74.2369 156.625 73.8402 152.406 73.8763C150.964 73.8763 149.521 73.9123 148.115 74.2008C145.555 74.6697 143.355 75.8599 141.011 76.9058C140.939 76.9058 140.867 76.978 140.795 77.0141C139.28 77.6994 137.73 78.2404 136.179 78.8174C135.494 79.106 134.809 79.3584 134.124 79.683C132.249 80.5486 130.482 81.7388 129.364 83.5422C129.292 83.6504 129.22 83.7585 129.148 83.9028C128.318 85.4176 128.246 87.0406 128.426 88.7718C128.823 92.5588 130.338 96.0934 131.275 99.7722H131.311Z" fill="white"/>
<path d="M122.008 158.777C122.909 158.669 124.099 158.272 124.64 157.515C125.361 156.505 125.433 154.954 125.686 153.764C125.974 152.321 126.191 150.879 126.407 149.436C126.84 146.551 127.2 143.629 127.741 140.744C128.823 135.226 130.77 129.924 131.275 124.261C131.383 123.035 131.419 121.773 131.672 120.547C132.429 116.435 135.206 112.72 135.098 108.536C135.098 107.166 134.665 105.867 133.258 105.362C132.718 105.182 132.141 105.182 131.564 105.182C130.338 105.182 129.112 105.326 127.886 105.507C125.902 105.795 123.739 106.408 122.801 108.176C122.44 108.825 122.296 109.546 122.152 110.231C121.106 115.137 120.06 120.078 119.159 125.019C118.762 127.255 118.149 129.599 118.185 131.871C118.185 134.396 118.041 136.957 117.969 139.482C117.861 145 117.789 150.518 117.825 156C117.825 156.253 117.825 156.541 117.897 156.794C117.969 157.046 118.149 157.262 118.33 157.479C119.267 158.453 120.673 158.958 122.008 158.777Z" fill="#FFA87D"/>
<path d="M116.418 162.312C116.274 163.502 116.274 164.728 116.635 165.846C117.14 167.433 118.546 168.804 120.205 169.02C120.601 169.092 121.07 169.02 121.395 168.768C121.647 168.551 121.755 168.191 121.827 167.83C122.008 166.82 122.008 165.774 122.296 164.764C122.513 163.971 122.837 163.033 123.739 162.889C124.171 162.817 124.604 162.925 124.965 163.213C125.361 163.538 125.578 164.079 125.686 164.584C125.794 165.089 125.83 165.63 126.01 166.135C126.083 166.387 126.191 166.64 126.371 166.82C126.551 167 126.84 167.109 127.092 167.036C127.309 166.964 127.489 166.748 127.597 166.532C127.669 166.315 127.705 166.063 127.705 165.81C127.741 164.151 127.705 162.312 127.272 160.725C127.092 160.148 126.84 159.607 126.587 159.066C126.227 158.308 125.83 157.515 125.397 156.794C125.217 156.469 124.929 156.18 124.82 155.856C124.676 155.423 124.64 154.99 124.46 154.593C124.243 154.125 123.883 153.656 123.414 153.439C123.017 153.259 122.585 153.259 122.152 153.259C121.395 153.259 120.601 153.403 119.916 153.8C118.113 154.846 117.608 157.226 117.104 159.102C116.815 160.148 116.599 161.23 116.491 162.348L116.418 162.312Z" fill="#FFA87D"/>
<path d="M125.65 162.528C125.686 162.167 125.469 161.807 125.253 161.554C125.001 161.266 124.676 161.085 124.352 160.905C123.955 160.689 123.558 160.508 123.126 160.544C122.729 160.544 122.296 160.797 122.188 161.194C122.116 161.41 122.188 162.348 122.477 162.456C121.9 162.203 121.178 162.384 120.782 162.853C120.637 163.033 120.529 163.249 120.529 163.466C120.529 163.61 120.601 163.754 120.674 163.863C120.854 164.151 121.07 164.367 121.359 164.548C120.89 164.548 120.565 165.161 120.674 165.63C120.782 166.099 121.214 166.423 121.647 166.676C121.323 166.495 120.926 167.325 120.962 167.541C120.998 167.758 121.142 167.938 121.323 168.118C121.827 168.623 122.549 168.876 123.234 168.804C123.666 168.804 124.099 168.623 124.352 168.299C124.64 167.974 124.712 167.469 124.46 167.109C124.748 167.181 125.109 167.109 125.325 166.892C125.614 166.604 125.614 166.099 125.542 165.738C125.542 165.594 125.145 164.656 124.893 164.836C125.145 164.656 125.361 164.44 125.433 164.151C125.506 163.826 125.217 163.61 125.253 163.322C125.253 163.033 125.614 162.889 125.65 162.564V162.528Z" fill="#FFA87D"/>
<path d="M127.309 166.964C127.309 166.964 127.056 166.928 126.948 166.964C126.732 167.072 126.515 166.964 126.371 166.784C126.191 166.568 126.082 166.279 126.046 166.027C125.974 165.738 125.974 165.413 125.902 165.125C125.866 164.8 125.794 164.512 125.722 164.187C125.722 164.115 125.65 164.079 125.578 164.079C125.614 163.863 125.542 163.682 125.469 163.538C125.433 163.43 125.361 163.358 125.397 163.285C125.397 163.177 125.469 163.105 125.578 162.997C125.686 162.889 125.794 162.744 125.83 162.564C125.866 162.131 125.65 161.698 125.397 161.446C125.109 161.157 124.784 160.941 124.46 160.761C124.063 160.544 123.63 160.364 123.162 160.364C122.729 160.364 122.224 160.653 122.08 161.121C122.044 161.266 122.08 161.807 122.188 162.167C121.647 162.095 121.07 162.276 120.673 162.708C120.493 162.925 120.385 163.177 120.421 163.43C120.421 163.61 120.529 163.79 120.601 163.899C120.746 164.115 120.89 164.295 121.07 164.44C120.962 164.512 120.854 164.584 120.782 164.692C120.601 164.945 120.529 165.305 120.601 165.594C120.71 166.027 121.034 166.315 121.323 166.531C121.034 166.748 120.818 167.289 120.854 167.469C120.89 167.686 121.034 167.902 121.25 168.118C121.719 168.587 122.404 168.84 123.053 168.84C123.126 168.84 123.198 168.84 123.27 168.84C123.775 168.804 124.207 168.587 124.496 168.263C124.748 167.938 124.856 167.505 124.748 167.181C125.001 167.181 125.289 167.072 125.469 166.892C125.614 166.748 125.686 166.604 125.722 166.423C125.83 166.712 126.046 166.964 126.299 167.109C126.623 167.253 127.02 167.289 127.345 167.109C127.453 167.072 127.417 166.964 127.345 166.928L127.309 166.964ZM122.296 161.194C122.404 160.869 122.765 160.653 123.09 160.653C123.486 160.653 123.883 160.797 124.243 161.013C124.568 161.194 124.856 161.374 125.109 161.626C125.289 161.843 125.505 162.203 125.469 162.492C125.469 162.6 125.361 162.708 125.289 162.781C125.181 162.889 125.073 163.033 125.037 163.213C124.171 162.889 123.27 162.6 122.404 162.276C122.404 162.276 122.152 161.374 122.224 161.157L122.296 161.194ZM120.782 163.754C120.782 163.754 120.637 163.502 120.637 163.394C120.637 163.177 120.746 162.997 120.854 162.889C121.142 162.564 121.611 162.384 122.044 162.42C122.044 162.42 122.08 162.42 122.116 162.42C123.053 162.744 123.991 163.105 124.929 163.43C125.001 163.43 125.073 163.43 125.145 163.43C125.145 163.502 125.181 163.538 125.217 163.61C125.289 163.754 125.325 163.863 125.289 164.007C125.289 164.007 125.289 164.043 125.289 164.079C125.289 164.079 125.253 164.115 125.253 164.151C125.181 164.331 125.001 164.476 124.856 164.62C124.64 164.8 124.352 164.728 124.099 164.728C123.811 164.728 123.522 164.692 123.198 164.656C122.621 164.584 122.008 164.512 121.431 164.404C121.178 164.223 120.962 164.007 120.782 163.754ZM124.207 168.154C123.991 168.407 123.594 168.587 123.162 168.623C122.513 168.695 121.827 168.443 121.359 167.974C121.178 167.794 121.07 167.649 121.07 167.469C121.07 167.361 121.214 166.928 121.431 166.784C121.467 166.784 121.503 166.784 121.503 166.748C122.44 166.892 123.414 167.072 124.352 167.217C124.496 167.505 124.424 167.866 124.207 168.154ZM125.217 166.748C124.965 167 124.64 167 124.316 166.964C123.955 166.928 123.594 166.856 123.234 166.784C122.729 166.712 122.188 166.604 121.683 166.531C121.359 166.351 120.926 166.026 120.782 165.558C120.746 165.341 120.782 165.089 120.926 164.908C121.034 164.764 121.178 164.692 121.323 164.692C121.467 164.692 121.647 164.764 121.791 164.764C121.972 164.764 122.152 164.8 122.296 164.836C122.621 164.872 122.981 164.908 123.306 164.944C123.63 164.944 123.991 165.017 124.316 165.017C124.532 165.017 124.82 164.944 125.037 165.053C125.217 165.125 125.361 165.485 125.361 165.666C125.397 166.063 125.433 166.459 125.181 166.712L125.217 166.748Z" fill="#E86A5D"/>
<path d="M119.411 168.479C118.257 167.217 117.897 165.486 117.933 163.826C117.933 163.682 117.464 163.646 117.464 163.826C117.428 165.522 117.825 167.325 118.979 168.587C119.087 168.695 119.52 168.623 119.375 168.479H119.411Z" fill="#E86A5D"/>
<path d="M121.07 168.695C120.205 167.505 119.916 166.063 119.772 164.62C119.772 164.44 119.303 164.476 119.303 164.62C119.484 166.063 119.772 167.541 120.637 168.768C120.746 168.912 121.178 168.84 121.07 168.695Z" fill="#E86A5D"/>
<path d="M124.604 112.828C128.138 113.513 131.744 113.982 135.35 113.874C135.927 113.874 136.54 113.802 137.009 113.477C138.235 112.612 137.694 111.133 137.766 109.943C137.874 107.995 138.163 106.012 138.379 104.1C138.776 100.205 139.208 96.2736 139.605 92.3784C139.821 90.1423 140.038 87.798 139.136 85.7422C138.595 84.588 137.766 83.6142 136.9 82.6765C136.215 81.9191 135.494 81.1256 134.52 80.8732C131.708 80.0797 129.58 82.8207 128.607 85.0208C125.433 92.3063 123.558 100.061 121.719 107.815C121.395 109.222 121.034 110.7 121.07 112.143C122.26 112.431 123.414 112.684 124.604 112.9V112.828Z" fill="white"/>
<path d="M166.253 75.7879C166.109 76.0043 165.965 76.2207 165.821 76.4371C164.486 78.2765 163.909 80.3323 162.106 81.8831C160.412 83.3258 158.284 84.2996 156.084 84.5881C152.01 85.1652 147.863 83.7586 144.401 81.5225C143.247 80.7651 142.129 79.8634 141.48 78.6372C141.156 77.988 141.011 77.4469 140.975 76.9781C143.319 75.9321 145.519 74.7419 148.079 74.2731C149.485 74.0206 150.928 73.9485 152.37 73.9485C156.589 73.9485 160.808 74.3452 164.883 75.4272C165.316 75.5354 165.748 75.6797 166.181 75.824L166.253 75.7879Z" fill="#FFA87D"/>
<path d="M168.922 141.501C168.128 148.137 167.155 154.774 166.001 161.374C164.847 167.938 163.513 174.466 162.034 180.958C160.52 187.486 158.861 193.978 156.986 200.434C155.147 206.854 153.091 213.274 150.928 219.586C148.728 225.897 146.384 232.137 143.86 238.304C143.535 239.062 143.211 239.855 142.886 240.612C142.742 240.937 143.644 241.009 143.788 240.721C146.348 234.517 148.764 228.278 151 221.966C153.236 215.654 155.291 209.27 157.202 202.851C159.077 196.431 160.808 189.975 162.359 183.447C163.909 176.919 165.28 170.391 166.47 163.79C167.66 157.19 168.705 150.59 169.535 143.918C169.643 143.088 169.751 142.259 169.859 141.429C169.895 141.104 168.958 141.104 168.922 141.429V141.501Z" fill="#171E38"/>
<path d="M155.471 73.9844C156.193 73.9483 156.95 73.8402 157.671 73.6598C159.15 73.2992 160.52 72.5418 162.034 72.3254C163.945 72.0368 166.217 72.4336 167.515 71.027C168.561 69.9089 168.453 68.1777 168.309 66.6629C168.092 64.6792 167.876 62.6956 167.407 60.748C166.938 58.8364 167.263 57.1774 166.974 55.3019C166.686 53.2822 165.64 51.3706 164.126 50.0001C163.224 49.1706 162.142 48.5214 161.385 47.5836C160.736 46.7541 160.375 45.7442 159.726 44.9507C155.904 40.226 147.827 44.1934 144.04 46.718C142.057 48.0164 139.857 49.5312 139.28 51.9838C138.956 53.3904 139.28 54.8331 139.28 56.2757C139.28 58.8725 138.271 61.3611 137.91 63.9218C137.513 66.699 138.126 69.5122 138.451 72.2532C138.595 73.2631 138.776 74.4172 139.605 75.0304C140.182 75.4271 140.903 75.4992 141.588 75.4271C143.211 75.2828 144.689 74.4894 146.24 74.1287C149.233 73.4074 152.442 74.2008 155.507 74.0566L155.471 73.9844Z" fill="#60362B"/>
<path d="M160.808 75.5713C160.844 76.1483 160.592 76.4008 159.618 76.9779C158.248 77.7353 157.13 78.6369 155.616 79.1779C153.993 79.755 152.19 80.0075 150.495 79.5747C149.269 79.2501 147.863 78.4566 147.25 77.2664C146.673 76.1844 146.925 74.886 146.853 73.6598C146.745 72.0007 146.565 70.3416 146.456 68.6825C146.384 67.6005 146.601 66.9874 147.682 66.8432C147.719 66.8432 147.755 66.8432 147.791 66.8432C148.368 66.771 148.945 66.771 149.305 66.771C150.928 66.6628 152.551 66.4825 154.137 66.1579C154.786 66.0136 155.471 65.8693 156.084 65.6529C156.193 65.6529 156.337 65.5808 156.481 65.5448C156.589 65.5087 156.734 65.4726 156.842 65.4366C157.851 65.112 158.861 64.8955 159.041 66.2661C159.402 68.935 159.799 71.5679 160.484 74.2007C160.628 74.8499 160.772 75.2827 160.808 75.6073V75.5713Z" fill="#FFA87D"/>
<path d="M157.707 69.1515C157.058 71.2073 155.399 72.7943 153.452 73.6238C151.721 74.3452 148.764 74.8501 147.466 73.0468C146.456 71.6762 146.204 69.8007 146.817 68.2499C147.142 67.4564 147.755 66.9515 148.62 66.8072C148.656 66.8072 148.692 66.8072 148.728 66.8072C149.305 66.7351 149.882 66.7351 150.243 66.7351C151.865 66.6269 153.488 66.4466 155.075 66.122C155.724 65.9777 156.409 65.8334 157.022 65.617C157.13 65.617 157.274 65.5449 157.419 65.5088C157.527 65.4728 157.671 65.4367 157.779 65.4006C158.104 66.6269 158.068 67.9613 157.707 69.1515Z" fill="#E86A5D"/>
<path d="M160.592 64.3185C160.484 64.571 160.34 64.7874 160.159 65.0759C159.366 66.2661 158.825 67.5645 157.924 68.6826C155.868 71.2794 152.406 73.9123 148.945 72.8303C143.319 71.0991 141.949 64.7513 141.516 59.5938C141.336 57.3577 140.867 55.2297 141.264 52.9575C141.552 51.2984 142.237 49.7115 143.247 48.3771C143.788 47.6197 144.437 46.9344 145.267 46.5016C146.384 45.8885 147.719 45.7442 149.017 45.8163C150.964 45.8885 152.911 46.3212 154.714 47.1508C155.976 47.7278 157.166 48.5214 158.104 49.5673C158.861 50.4329 159.402 51.4427 159.835 52.4526C161.061 55.3379 161.566 58.5479 161.277 61.6857C161.169 62.7316 161.025 63.489 160.628 64.3185H160.592Z" fill="#FFA87D"/>
<path d="M157.923 58.1874C157.455 56.7447 156.734 55.302 155.544 54.6889C153.741 53.7511 151.397 54.0757 149.558 52.9576C148.223 52.1642 146.817 51.2625 145.302 51.4068C144.653 51.4789 144.04 51.6953 143.391 51.8396C142.454 52.0199 141.408 51.9117 140.579 51.4068C139.749 50.9019 139.172 49.928 139.244 48.9542C139.353 47.5837 140.651 46.6099 141.913 46.0689C144.149 45.0951 146.853 44.8787 149.233 44.6262C151.397 44.4098 153.668 45.2394 155.616 46.1771C158.356 47.5116 159.943 49.9641 161.061 52.7052C161.746 54.3282 162.215 55.9873 162.72 57.6824C163.08 58.8726 163.801 59.7382 164.342 60.8924C165.532 63.5252 166.902 67.4565 164.703 69.9451C163.909 70.8467 162.756 71.3877 161.566 71.4959C161.169 71.4959 160.772 71.4959 160.412 71.3517C159.33 70.8467 159.15 68.5385 159.005 67.5286C158.681 65.2203 158.789 62.876 158.428 60.5677C158.32 59.8824 158.14 59.0529 157.887 58.2594L157.923 58.1874Z" fill="#60362B"/>
<path d="M143.788 59.8825C143.788 59.8825 144.076 59.666 144.293 59.666C144.509 59.666 144.689 59.7021 144.87 59.8103C145.05 59.9185 145.194 60.0628 145.23 60.2431C145.302 60.4595 145.302 60.712 145.23 60.9284C145.23 60.9284 145.23 60.9645 145.23 61.0005C145.23 61.3973 145.014 61.83 144.545 61.8661C144.473 61.8661 144.365 61.8661 144.293 61.8661C144.185 61.8661 144.04 61.794 143.968 61.7218C143.788 61.5776 143.608 61.3972 143.572 61.1808C143.536 61.0365 143.499 60.8923 143.535 60.748C143.535 60.4595 143.608 60.0989 143.788 59.8825Z" fill="#171E38"/>
<path d="M152.659 58.3675C152.659 58.3675 152.947 58.1511 153.164 58.1511C153.38 58.1511 153.56 58.1872 153.741 58.2954C153.921 58.4036 154.065 58.5479 154.101 58.7282C154.173 58.9446 154.173 59.1971 154.101 59.4135C154.101 59.4135 154.101 59.4496 154.101 59.4856C154.101 59.8824 153.885 60.3151 153.416 60.3512C153.344 60.3512 153.236 60.3512 153.164 60.3512C153.055 60.3512 152.947 60.2791 152.839 60.2069C152.659 60.0627 152.478 59.8823 152.442 59.6659C152.406 59.5216 152.37 59.3774 152.406 59.2331C152.406 58.9446 152.478 58.5839 152.659 58.3675Z" fill="#171E38"/>
<path d="M150.711 55.2299C150.711 55.2299 150.459 55.3381 150.351 55.3742C150.062 55.5185 149.594 55.843 149.918 56.1676C150.026 56.2758 150.134 56.3119 150.279 56.3119C150.351 56.3119 150.459 56.3119 150.531 56.2759C151.216 56.0955 151.865 55.843 152.587 55.807C153.055 55.807 153.524 55.8791 153.993 55.9873C154.209 56.0234 155.183 56.384 155.363 56.2398C155.58 56.0594 154.858 55.5906 154.714 55.5184C154.317 55.266 153.849 55.0856 153.38 55.0496C152.442 54.9414 151.541 54.9053 150.603 55.2659L150.711 55.2299Z" fill="#44221B"/>
<path d="M145.014 56.2396C145.014 56.2396 145.23 56.2757 145.339 56.3118C145.591 56.3839 146.06 56.6003 145.879 56.9971C145.843 57.1053 145.735 57.1774 145.627 57.2135C145.555 57.2135 145.483 57.2135 145.411 57.2135C144.834 57.2135 144.293 57.1053 143.716 57.2135C143.355 57.2856 142.995 57.502 142.67 57.6823C142.526 57.7905 141.877 58.3315 141.696 58.2233C141.48 58.079 141.913 57.4659 141.985 57.3938C142.201 57.0692 142.526 56.8167 142.85 56.6364C143.536 56.3118 144.221 56.0954 145.014 56.2396Z" fill="#44221B"/>
<path d="M147.286 67.0596C148.836 66.7711 150.387 66.4826 151.938 66.2301C152.154 66.1941 152.37 66.158 152.587 66.2301C153.055 66.4826 152.118 67.4925 151.938 67.6367C151.325 68.2499 150.531 68.7909 149.666 68.8991C149.017 68.9712 148.368 68.7548 147.827 68.358C147.538 68.1416 147.286 67.8892 147.106 67.5646C146.853 67.1678 146.889 67.0957 147.322 67.0236L147.286 67.0596Z" fill="white"/>
<path d="M144.329 50.2164C144.004 50.2164 143.716 50.1804 143.391 49.964C143.067 49.7476 142.85 49.459 142.706 49.0983C142.454 48.3409 142.778 47.5114 143.499 47.1868C143.68 47.1147 143.644 46.9344 143.499 46.8622C143.319 46.754 143.031 46.7901 142.85 46.8622C142.382 47.0786 141.985 47.4393 141.805 47.9081C141.624 48.3409 141.66 48.8459 141.805 49.3147C142.165 50.2885 143.319 50.7574 144.293 50.7213C144.437 50.7213 144.762 50.6853 144.762 50.4689C144.762 50.2886 144.437 50.2164 144.293 50.2164H144.329Z" fill="#44221B"/>
<path d="M148.945 50.2527C148.945 50.2527 148.764 50.2527 148.728 50.2527C148.728 50.2527 148.728 50.2527 148.764 50.2527C148.764 50.2527 148.728 50.2527 148.692 50.2527H148.62H148.548C148.548 50.2527 148.44 50.2166 148.368 50.1806C148.332 50.1806 148.259 50.1084 148.223 50.1084H148.187C148.187 50.1084 148.151 50.1084 148.115 50.0724C148.007 50.0002 147.935 49.892 147.827 49.8199C147.755 49.7477 147.719 49.6756 147.61 49.5674C147.538 49.4592 147.466 49.351 147.43 49.2428C147.322 49.0264 147.286 48.81 147.25 48.5215C147.25 48.3411 146.925 48.269 146.781 48.269C146.637 48.269 146.312 48.3051 146.312 48.5215C146.348 49.7477 147.466 50.7576 148.656 50.8658C148.836 50.8658 149.125 50.8658 149.233 50.6855C149.305 50.5052 149.017 50.397 148.908 50.397L148.945 50.2527Z" fill="#44221B"/>
<path d="M157.635 43.905C156.481 43.2918 155.075 43.2557 153.849 43.6164C153.704 43.6525 153.524 43.7967 153.668 43.941C153.813 44.0853 154.137 44.0853 154.317 44.0131C155.255 43.7246 156.265 43.7607 157.13 44.3017C157.887 44.7706 158.428 45.6001 158.5 46.4657C158.5 46.7903 159.438 46.7903 159.438 46.4657C159.33 45.3476 158.609 44.4099 157.671 43.8689L157.635 43.905Z" fill="#44221B"/>
<path d="M164.559 66.5546C164.559 66.5546 164.09 66.4464 163.909 66.5546C163.008 67.0956 161.926 66.3382 161.457 65.5448C160.772 64.4267 160.736 63.0201 160.7 61.7217C160.628 59.0888 160.772 56.3117 159.51 53.8591C158.933 52.7411 158.104 51.7673 156.95 51.1541C156.77 51.0459 156.481 51.0459 156.301 51.1541C156.121 51.2623 156.121 51.4067 156.301 51.4788C158.609 52.7411 159.402 55.5182 159.618 57.9707C159.763 59.5216 159.69 61.1086 159.799 62.6594C159.871 63.8857 160.087 65.2563 160.953 66.194C161.818 67.1317 163.405 67.5284 164.522 66.8432C164.703 66.735 164.703 66.5907 164.522 66.5186L164.559 66.5546Z" fill="#44221B"/>
<path d="M165.749 64.2826C165.532 64.2105 165.316 64.2466 165.1 64.3548C165.063 64.3548 164.991 64.4269 164.955 64.4269C164.991 64.4269 164.919 64.4269 164.919 64.4269H164.883H164.811C164.775 64.4269 164.739 64.4269 164.703 64.4269C164.667 64.4269 164.631 64.4269 164.595 64.4269C164.522 64.4269 164.487 64.4269 164.45 64.3909C164.342 64.3548 164.198 64.2826 164.09 64.1744C163.621 63.8138 163.369 63.2367 163.188 62.6957C163.188 62.6236 163.044 62.5875 162.972 62.5514C162.864 62.5514 162.72 62.5154 162.611 62.5514C162.467 62.5514 162.251 62.6596 162.287 62.84C162.503 63.5613 162.9 64.2466 163.549 64.6433C164.306 65.0761 165.316 65.0761 166.037 64.6433C166.217 64.5351 166.001 64.3548 165.857 64.3187L165.749 64.2826Z" fill="#44221B"/>
<path d="M164.162 52.3445C164.162 52.3445 163.729 52.2003 163.513 52.2724C163.369 52.3085 163.188 52.4527 163.332 52.597C164.414 53.6069 164.919 55.1216 164.739 56.5643C164.703 56.8528 165.604 56.8889 165.676 56.5643C165.893 55.0134 165.316 53.3904 164.162 52.3445Z" fill="#44221B"/>
<path d="M142.67 71.7124C141.985 71.496 141.444 70.9189 141.12 70.3058C140.687 69.5123 140.542 68.6106 140.362 67.745C140.29 67.4204 139.389 67.4565 139.425 67.745C139.605 68.6827 139.785 69.6926 140.29 70.5222C140.723 71.2796 141.372 71.8566 142.201 72.1091C142.382 72.1812 142.67 72.1812 142.85 72.037C142.995 71.8927 142.85 71.7484 142.67 71.7124Z" fill="#44221B"/>
<path d="M149.774 64.4628C149.774 64.4628 149.413 64.3547 149.305 64.3907C148.836 64.535 148.368 64.6071 147.863 64.535C147.646 64.4989 147.646 64.3186 147.646 64.1382C147.646 63.8858 147.719 63.6333 147.755 63.3808C147.899 62.4791 147.971 61.5775 147.899 60.6758C147.827 59.8823 147.827 59.0889 147.286 58.4397C147.214 59.666 147.286 60.8922 147.214 62.0824C147.178 62.7316 147.069 63.3808 146.961 64.03C146.961 64.2464 146.961 64.4629 147.069 64.6071C147.25 64.7875 147.538 64.8235 147.791 64.8596C148.404 64.9317 149.053 64.8595 149.63 64.6792C149.738 64.6431 149.846 64.535 149.738 64.4268L149.774 64.4628Z" fill="#E86A5D"/>
<path d="M158.609 276.463C159.186 276.859 159.871 277.112 160.556 277.256C160.916 277.328 161.313 277.4 161.674 277.472C162.828 277.689 163.909 277.869 164.991 278.555C166.362 279.42 167.407 280.719 168.453 281.945C168.705 282.233 168.958 282.558 169.246 282.81H175.593C175.593 282.45 175.304 282.269 174.872 282.161C174.114 282.017 173.465 281.584 172.924 281.007C172.924 281.007 172.744 280.827 172.672 280.718C172.095 280.033 171.698 279.204 171.338 278.374C170.725 277.076 170.112 275.813 169.499 274.515C169.138 273.722 168.778 272.964 168.381 272.171C168.381 272.171 168.381 272.135 168.345 272.099C168.237 271.882 168.165 271.702 168.056 271.485C167.948 271.269 167.84 271.053 167.732 270.836C167.624 270.656 167.551 270.476 167.443 270.259C167.335 270.079 167.227 269.899 167.119 269.718C166.758 269.105 166.325 268.528 165.857 268.059C165.063 267.302 164.126 266.833 162.864 266.869C162.575 266.869 162.323 266.905 162.034 266.977C161.962 266.977 161.926 266.977 161.854 267.013C161.854 267.013 161.854 267.013 161.818 267.013C161.746 267.013 161.71 267.013 161.638 267.049C161.421 267.121 161.241 267.194 161.061 267.266C161.025 267.266 160.989 267.302 160.916 267.338C160.736 267.446 160.556 267.554 160.376 267.735C160.376 267.735 160.376 267.734 160.339 267.771C159.943 268.131 159.69 268.6 159.438 269.105C159.33 269.357 159.222 269.61 159.077 269.826C158.753 270.476 158.428 271.125 158.032 271.738C158.032 271.81 157.959 271.846 157.923 271.882C157.779 272.135 157.635 272.351 157.491 272.603C157.274 273 157.094 273.397 157.022 273.83C156.806 274.984 157.635 275.813 158.5 276.391L158.609 276.463Z" fill="#FFA87D"/>
<path d="M158.284 277.761C158.284 277.761 158.32 277.906 158.356 277.978C158.573 278.627 158.681 279.24 158.681 279.925C158.681 280.755 158.753 281.62 158.789 282.45C158.789 282.919 159.222 282.666 159.51 282.702C159.582 282.702 160.664 282.702 160.664 282.702C160.664 282.089 160.664 281.476 160.664 280.863C160.664 280.322 160.664 279.817 160.664 279.276C160.664 278.771 160.448 278.194 160.988 277.942C160.988 277.942 161.025 277.942 161.061 277.942C161.349 277.833 161.674 277.833 161.998 277.942C162.034 277.942 162.106 277.942 162.142 277.978C162.539 278.086 162.9 278.266 163.224 278.41C165.207 279.204 166.506 280.647 167.732 282.45C167.84 282.594 167.948 282.738 168.056 282.847H176.206C176.098 282.522 175.881 282.233 175.629 282.017C175.304 281.729 174.872 281.548 174.475 281.368C174.006 281.188 173.537 281.079 173.069 281.007C173.033 281.007 172.96 281.007 172.924 281.007C172.095 280.899 171.23 280.899 170.4 280.719C170.292 280.719 170.22 280.683 170.112 280.647C169.715 280.538 169.354 280.43 168.994 280.25C168.164 279.889 167.443 279.348 166.686 278.735C165.676 277.905 164.739 277.004 163.837 276.102C163.296 275.633 162.792 275.164 162.287 274.696C161.926 274.335 161.601 274.046 161.313 273.613C161.025 273.145 160.808 272.676 160.664 272.171C160.303 271.161 160.159 270.079 160.123 268.997C160.123 268.961 160.123 268.925 160.123 268.889C160.123 268.889 160.051 268.853 160.015 268.853C159.871 268.853 159.726 268.925 159.582 269.033C158.212 270.187 157.383 271.846 157.202 273.613C157.094 274.551 157.202 275.489 157.635 276.318C157.779 276.607 157.923 276.86 158.068 277.148C158.176 277.364 158.248 277.617 158.32 277.869L158.284 277.761Z" fill="#3D8476"/>
<path d="M167.948 267.085H159.077C158.717 267.085 158.717 269.357 159.077 269.357H167.948C168.309 269.357 168.309 267.085 167.948 267.085Z" fill="#3D8476"/>
<path d="M134.701 276.463C135.278 276.859 135.963 277.112 136.648 277.256C137.009 277.328 137.405 277.4 137.73 277.472C138.884 277.689 139.966 277.869 141.047 278.555C142.418 279.42 143.463 280.719 144.509 281.945C144.761 282.233 145.014 282.558 145.302 282.81H151.649C151.649 282.45 151.361 282.269 150.928 282.161C150.171 282.017 149.521 281.584 148.981 281.007C148.981 281.007 148.8 280.827 148.728 280.718C148.151 280.033 147.755 279.204 147.394 278.374C146.781 277.076 146.168 275.813 145.555 274.515C145.194 273.722 144.834 272.964 144.437 272.171C144.437 272.171 144.437 272.135 144.401 272.099C144.293 271.882 144.221 271.702 144.112 271.485C144.004 271.269 143.896 271.053 143.788 270.836C143.68 270.656 143.608 270.476 143.499 270.259C143.391 270.079 143.283 269.899 143.175 269.718C142.814 269.105 142.382 268.528 141.913 268.059C141.12 267.302 140.182 266.833 138.92 266.869C138.631 266.869 138.379 266.905 138.09 266.977C138.018 266.977 137.982 266.977 137.91 267.013C137.91 267.013 137.91 267.013 137.874 267.013C137.802 267.013 137.766 267.013 137.694 267.049C137.477 267.121 137.297 267.194 137.117 267.266C137.081 267.266 137.045 267.302 136.973 267.338C136.792 267.446 136.612 267.554 136.432 267.735C136.432 267.735 136.432 267.734 136.396 267.771C135.999 268.131 135.746 268.6 135.494 269.105C135.386 269.357 135.278 269.61 135.134 269.826C134.845 270.476 134.484 271.125 134.088 271.738C134.088 271.81 134.016 271.846 133.98 271.882C133.835 272.135 133.691 272.351 133.547 272.603C133.331 273 133.15 273.397 133.078 273.83C132.862 274.984 133.691 275.813 134.557 276.391L134.701 276.463Z" fill="#FFA87D"/>
<path d="M134.376 277.761C134.376 277.761 134.412 277.906 134.448 277.978C134.665 278.627 134.773 279.24 134.773 279.925C134.773 280.755 134.845 281.62 134.881 282.45C134.881 282.919 135.314 282.666 135.602 282.702C135.674 282.702 136.756 282.702 136.756 282.702C136.756 282.089 136.756 281.476 136.756 280.863C136.756 280.322 136.756 279.817 136.756 279.276C136.756 278.771 136.54 278.194 137.081 277.942C137.081 277.942 137.117 277.942 137.153 277.942C137.441 277.833 137.766 277.833 138.09 277.942C138.126 277.942 138.199 277.942 138.235 277.978C138.631 278.086 138.992 278.266 139.316 278.41C141.3 279.204 142.598 280.647 143.824 282.45C143.932 282.594 144.04 282.738 144.148 282.847H152.298C152.19 282.522 151.973 282.233 151.721 282.017C151.396 281.729 150.964 281.548 150.567 281.368C150.098 281.188 149.63 281.079 149.161 281.007C149.125 281.007 149.053 281.007 149.016 281.007C148.187 280.899 147.322 280.899 146.492 280.719C146.384 280.719 146.312 280.683 146.204 280.647C145.807 280.538 145.447 280.43 145.086 280.25C144.257 279.889 143.535 279.348 142.778 278.735C141.769 277.905 140.831 277.004 139.929 276.102C139.389 275.633 138.884 275.164 138.379 274.696C138.018 274.335 137.694 274.046 137.405 273.613C137.117 273.145 136.9 272.676 136.756 272.171C136.396 271.161 136.251 270.079 136.215 268.997C136.215 268.961 136.215 268.925 136.215 268.889C136.215 268.889 136.143 268.853 136.107 268.853C135.963 268.853 135.819 268.925 135.674 269.033C134.304 270.187 133.475 271.846 133.294 273.613C133.186 274.551 133.294 275.489 133.727 276.318C133.871 276.607 134.016 276.86 134.16 277.148C134.268 277.364 134.34 277.617 134.412 277.869L134.376 277.761Z" fill="#3D8476"/>
<path d="M144.04 267.085H135.169C134.809 267.085 134.809 269.357 135.169 269.357H144.04C144.401 269.357 144.401 267.085 144.04 267.085Z" fill="#3D8476"/>
<path d="M175.629 90.972C175.629 90.7195 174.908 90.7195 174.944 90.9359C175.521 95.2278 175.557 99.5919 175.016 103.92C175.016 104.172 175.665 104.208 175.701 103.956C176.242 99.664 176.206 95.2639 175.629 90.972Z" fill="#89C4CE"/>
<path d="M139.1 94.1818C138.451 99.3393 137.586 104.425 136.468 109.51C136.143 110.953 135.819 112.359 135.458 113.802C135.422 114.018 136.071 114.055 136.143 113.802C137.405 108.789 138.415 103.703 139.172 98.5819C139.389 97.1393 139.605 95.6966 139.749 94.2178C139.749 94.0014 139.1 93.9654 139.064 94.2178L139.1 94.1818Z" fill="#89C4CE"/>
<path d="M308.726 90.3229H290.3C288.677 90.3229 287.343 88.9885 287.343 87.3655C287.343 85.7425 288.677 84.408 290.3 84.408H308.726C310.349 84.408 311.683 85.7425 311.683 87.3655C311.683 88.9885 310.349 90.3229 308.726 90.3229Z" fill="#171E38"/>
<path d="M308.726 9.89418H290.3C288.677 9.89418 287.343 8.55969 287.343 6.93669C287.343 5.31369 288.677 3.97925 290.3 3.97925H308.726C310.349 3.97925 311.683 5.31369 311.683 6.93669C311.683 8.55969 310.349 9.89418 308.726 9.89418Z" fill="#171E38"/>
<path d="M303.39 278.843H295.204V4.98904C295.204 2.71684 297.043 0.877441 299.315 0.877441C301.587 0.877441 303.426 2.71684 303.426 4.98904V278.843H303.39Z" fill="#171E38"/>
<path d="M311.215 7.11694H287.451C283.289 7.11694 279.914 10.4918 279.914 14.6549V79.6109C279.914 83.774 283.289 87.1489 287.451 87.1489H311.215C315.377 87.1489 318.751 83.774 318.751 79.6109V14.6549C318.751 10.4918 315.377 7.11694 311.215 7.11694Z" fill="#263860"/>
<path d="M295.384 156.902H285.684C283.434 156.902 281.609 158.727 281.609 160.977V176.017C281.609 178.268 283.434 180.093 285.684 180.093H295.384C297.635 180.093 299.459 178.268 299.459 176.017V160.977C299.459 158.727 297.635 156.902 295.384 156.902Z" fill="#263860"/>
<path d="M320.662 282.81H277.102L278.4 276.354C278.797 274.371 280.564 272.928 282.583 272.928H315.181C317.201 272.928 318.967 274.371 319.364 276.354L320.662 282.81Z" fill="#171E38"/>
<path d="M314.821 16.5303H283.773V77.7715H314.821V16.5303Z" fill="#171E38"/>
<path d="M295.492 164.259H285.576C284.71 164.259 284.025 163.574 284.025 162.709C284.025 161.843 284.71 161.158 285.576 161.158H295.492C296.358 161.158 297.043 161.843 297.043 162.709C297.043 163.574 296.358 164.259 295.492 164.259Z" fill="#3D8476"/>
<path d="M313.234 48.5938H285.36V75.9323H313.234V48.5938Z" fill="#263860"/>
<path d="M299.315 73.2993C305.409 73.2993 310.349 68.3582 310.349 62.263C310.349 56.1677 305.409 51.2266 299.315 51.2266C293.221 51.2266 288.28 56.1677 288.28 62.263C288.28 68.3582 293.221 73.2993 299.315 73.2993Z" fill="#171E38"/>
<path d="M313.234 18.3337H285.36V46.2854H313.234V18.3337Z" fill="#263860"/>
<path d="M310.349 32.3277C310.349 38.4229 305.409 43.3641 299.315 43.3641C293.221 43.3641 288.28 38.4229 288.28 32.3277C288.28 26.2324 293.221 21.2913 299.315 21.2913C305.409 21.2913 310.349 26.2324 310.349 32.3277Z" fill="#FD654D"/>
<path d="M301.587 27.639H300.577V27.4226C301.154 27.0259 301.55 26.3406 301.55 25.5471C301.55 24.2848 300.541 23.2749 299.279 23.2749C298.017 23.2749 297.007 24.2848 297.007 25.5471C297.007 26.3406 297.403 27.0259 298.017 27.4226V27.639H296.971C295.709 27.639 294.663 28.6849 294.663 29.9473V33.0129C294.663 33.4818 295.06 33.8785 295.528 33.8785C295.997 33.8785 296.394 33.4818 296.394 33.0129V29.9473C296.394 29.6227 296.646 29.3702 296.971 29.3702H297.764L297.187 34.0949L295.781 40.3344C295.673 40.8033 295.961 41.2722 296.43 41.3804C296.538 41.3804 296.682 41.3804 296.79 41.3804C297.115 41.3083 297.404 41.0558 297.476 40.7312L298.738 35.213H299.747L301.01 40.7312C301.082 41.0918 301.37 41.3443 301.695 41.3804C301.803 41.3804 301.911 41.3804 302.055 41.3804C302.524 41.2722 302.813 40.8033 302.704 40.3344L301.298 34.0949L300.721 29.3702H301.514C301.839 29.3702 302.091 29.6227 302.091 29.9473V33.0129C302.091 33.4818 302.488 33.8785 302.957 33.8785C303.425 33.8785 303.822 33.4818 303.822 33.0129V29.9473C303.822 28.6849 302.776 27.639 301.514 27.639H301.587Z" fill="#D83827"/>
</svg>
