<svg width="570" height="404" viewBox="0 0 570 404" fill="none" xmlns="http://www.w3.org/2000/svg">
<path d="M103.856 359.415C101.994 378.903 99.0551 394.128 96.6611 404.011H275.54C273.146 394.394 270.473 379.448 269.409 359.415C267.813 338.862 268.345 312.688 272.335 281.452C275.806 248.605 298.732 171.708 249.674 153.552C200.629 135.131 127.048 138.861 104.654 170.109C82.2591 201.079 101.715 236.59 104.92 295.878C106.25 320.174 105.452 341.539 103.856 359.428V359.415Z" fill="#9DBBD7"/>
<path d="M305.597 324.043C319.113 325.755 407.412 331.553 416.57 334.345C425.728 337.123 424.626 351.003 422.675 355.202C420.737 359.402 331.045 363.449 303.267 364.464C275.501 365.492 273.361 352.411 278.453 337.961C283.545 323.497 292.348 322.381 305.585 324.043H305.597Z" fill="#9DBBD7"/>
<path d="M222.122 15.8123C244.529 20.532 227.822 55.0793 227.822 55.0793C227.822 55.0793 215.219 45.6527 206.238 32.255C197.245 18.8573 207.707 12.7801 222.122 15.8123Z" fill="#5C3E3E"/>
<path d="M202.463 106.019C204.324 129.32 211.903 159.382 212.233 160.485C212.562 161.589 211.306 157.713 192.724 158.372C174.142 159.032 159.361 146.797 161.35 140.148C163.339 133.5 165.098 125.497 155.813 100.795C146.516 76.0806 206.453 80.0992 202.476 106.019H202.463Z" fill="#FFBA8A"/>
<g style="mix-blend-mode:multiply" opacity="0.3">
<path d="M202.43 102.773C200.12 115.59 205.381 131.962 207.227 141.47C204.349 139.856 174.007 132.755 162.974 120.605C161.88 111.889 156.343 104.23 156.343 96.0425C147.079 75.0799 206.406 80.7886 202.443 102.773H202.43Z" fill="#FFBA8A"/>
</g>
<path d="M193.495 10.0281C220.957 6.90703 228.748 39.257 232.798 64.6119C234.907 77.8179 234.811 78.6101 232.798 88.3824C229.37 105.022 227.805 124.09 225.669 128.222C222.779 133.81 211.706 133.018 211.706 133.018C211.706 133.018 187.732 130.315 175.587 121.925C165.022 114.626 164.043 105.61 158.186 92.3441C143.884 59.9461 141.066 15.9871 193.495 10.0281Z" fill="#FFBA8A"/>
<g style="mix-blend-mode:multiply" opacity="0.3">
<path d="M193.499 10.0292C210.637 8.07539 222.328 21.8918 227.965 35.7589C224.988 38.5247 219.706 40.339 210.827 40.1994C205.317 40.1233 195.361 35.594 191.168 42.0898C186.988 48.5857 186.152 54.6502 172.346 57.7966C158.552 60.943 156.449 62.1991 156.449 62.1991C156.449 62.1991 158.957 70.7883 157.918 82.0926C156.867 93.3969 156.449 102.118 156.449 102.118C156.449 102.118 155.777 100.294 154.359 97.3634C136.765 39.6493 122.35 18.0983 193.486 10.0165L193.499 10.0292Z" fill="#FFBA8A"/>
</g>
<path d="M209.265 36.7471C245.175 37.28 222.857 6.38663 222.857 6.38663C222.857 6.38663 212.693 10.0045 204.851 6.38663C194.401 1.56548 170.163 -5.97072 149.884 13.9228C129.605 33.8164 132.328 55.3847 139.637 71.9288C146.958 88.473 154.887 99.2109 154.887 99.2109C154.887 99.2109 155.318 89.9447 156.357 78.6404C157.395 67.336 154.887 58.7468 154.887 58.7468C154.887 58.7468 156.977 57.4908 170.771 54.3443C184.565 51.1979 185.401 45.1334 189.594 38.6375C193.774 32.1417 203.73 36.671 209.253 36.7471H209.265Z" fill="#5C3E3E"/>
<path d="M161.058 96.9636C152.719 96.9636 145.959 88.3183 145.959 77.6537C145.959 66.9891 152.719 58.3438 161.058 58.3438C169.396 58.3438 176.156 66.9891 176.156 77.6537C176.156 88.3183 169.396 96.9636 161.058 96.9636Z" fill="#656B70"/>
<path d="M140.018 78.39C140.018 89.06 146.782 97.7 155.116 97.7C163.451 97.7 170.215 89.0473 170.215 78.39C170.215 67.7328 163.451 59.0801 155.116 59.0801C146.782 59.0801 140.018 67.7328 140.018 78.39Z" fill="#053038"/>
<path d="M157.247 73.9378C157.817 1.69677 210.105 7.90081 210.105 7.90081C210.105 7.90081 205.963 3.57447 199.478 1.89976C192.993 0.225044 167.178 -2.18553 156.411 24.3054C145.645 50.7963 149.825 77.9343 149.825 78.391C149.825 78.8477 157.235 76.1327 157.247 73.9378Z" fill="#053038"/>
<g style="mix-blend-mode:multiply" opacity="0.4">
<path d="M217.245 63.8164C218.826 73.3246 223.634 90.1689 224.891 94.982C223.634 97.8283 211.445 97.6232 211.445 97.6232C211.445 97.6232 223.264 96.2497 222.781 94.982C221.477 91.5565 217.245 63.8164 217.245 63.8164Z" fill="#A10303"/>
</g>
<path d="M225.944 103.965C224.889 104.493 219.883 105.55 218.034 106.078C214.343 106.342 206.698 107.662 206.698 107.662C206.698 107.662 206.698 115.322 219.883 113.235C227.262 112.067 225.944 103.965 225.944 103.965Z" fill="#5C0202"/>
<path d="M218.349 112.307C216.551 112.523 214.967 112.459 213.587 112.243C214.803 111.622 216.475 111.203 218.413 111.203C219.375 111.203 220.047 111.508 220.883 111.685C220.072 111.901 219.375 112.18 218.362 112.307H218.349Z" fill="#CC0404"/>
<path d="M198.79 79.1379C198.79 81.4553 199.959 83.3638 201.426 83.3638C202.893 83.3638 204.062 81.4553 204.062 79.1379C204.062 76.8205 202.893 74.9121 201.426 74.9121C199.959 74.9121 198.79 76.8205 198.79 79.1379Z" fill="#5C0202"/>
<path d="M223.571 76.4945C223.571 78.5222 224.389 80.1921 225.416 80.1921C226.443 80.1921 227.262 78.5222 227.262 76.4945C227.262 74.4668 226.443 72.7969 225.416 72.7969C224.389 72.7969 223.571 74.4668 223.571 76.4945Z" fill="#5C0202"/>
<path d="M191.395 71.7662C200.076 68.4419 206.728 67.3146 210.056 67.0723C213.384 66.83 212.596 65.0333 211.895 63.1319C211.196 61.243 206.099 62.9818 198.618 65.5365C191.154 68.0883 191.393 71.7536 191.393 71.7536L191.395 71.7662Z" fill="#5C3E3E"/>
<path d="M232.337 65.9641C226.789 63.8793 222.64 63.7053 220.576 63.9402C218.511 64.1752 218.892 62.2619 219.204 60.2556C219.515 58.2622 222.765 59.2731 227.509 60.7582C232.252 62.2434 232.337 65.9512 232.337 65.9512L232.337 65.9641Z" fill="#5C3E3E"/>
<path d="M214.016 120.003L214.434 113.33C213.914 113.304 162.374 109.752 162.374 79.2266H155.711C155.711 116.02 211.66 119.851 214.028 120.003H214.016Z" fill="#053038"/>
<path d="M203.161 110.513C210.001 111.274 215.625 110.957 216.879 112.112C218.12 113.266 219.881 120.993 215.359 121.259C210.837 121.526 204.96 119.572 203.617 119.128C202.274 118.684 196.764 109.803 203.161 110.513Z" fill="#52575C"/>
<g style="mix-blend-mode:multiply" opacity="0.6">
<path d="M165.074 147.567C168.95 155.927 192.953 158.719 192.953 158.719C192.953 158.719 186.278 161.522 182.503 167.181C178.741 172.839 179.26 176.709 179.26 176.709C179.26 176.709 161.818 172.421 157.79 163.311C153.762 154.202 149.544 152.857 153.636 148.658C157.727 144.458 163.604 144.407 165.074 147.567Z" fill="#D8D8E6"/>
</g>
<path d="M162.408 141.207C166.284 149.568 192.941 158.72 192.941 158.72C192.941 158.72 186.988 157.857 183.226 163.516C179.464 169.174 179.809 175.278 179.809 175.278C179.809 175.278 160.109 167.829 156.081 158.72C152.053 149.61 149.88 146.463 153.971 142.263C158.063 138.064 160.939 138.048 162.408 141.207Z" fill="#9DBBD7"/>
<path d="M237.515 212.258C241.556 249.749 270.208 333.192 274.299 344.459C278.403 355.712 314.123 359.595 312.464 340.906C310.817 322.218 292.02 219.236 284.154 195.054C276.288 170.885 264.47 161.344 244.684 153.123C224.899 144.901 234.044 180.159 237.515 212.258Z" fill="#9DBBD7"/>
<g style="mix-blend-mode:multiply" opacity="0.6">
<path d="M193.587 159.045C212.081 160.365 214.905 176.072 214.905 176.072C214.905 176.072 226.381 167.165 225.191 156.064C224 144.963 218.984 144.645 215.108 144.125C211.245 143.605 209.636 145.61 209.636 145.61C209.636 145.61 209.775 149.987 205.177 154.706C200.579 159.413 193.575 159.058 193.575 159.058L193.587 159.045Z" fill="#D8D8E6"/>
</g>
<path d="M192.436 158.96C210.93 160.28 215.743 171.267 215.743 171.267C215.743 171.267 226.383 164.581 225.192 153.467C224.558 147.545 220.859 142.048 216.983 141.528C213.12 141.008 211.447 141.528 211.447 141.528C211.447 141.528 209.777 147.39 205.179 152.109C200.581 156.816 192.436 158.96 192.436 158.96Z" fill="#9DBBD7"/>
<path d="M191.23 169.159L185.858 289.949L194.679 362.808L206.976 289.945L197.65 168.591L191.23 169.159Z" fill="#52AE32" stroke="#326B1E" stroke-width="0.5"/>
<path d="M194.677 160.387C190.634 160.387 187.378 163.473 187.378 167.267C187.378 171.048 190.634 174.147 194.677 174.147C198.72 174.147 201.977 171.061 201.977 167.267C201.976 163.473 198.72 160.387 194.677 160.387Z" fill="#52AE32" stroke="#326B1E" stroke-width="0.5"/>
<path d="M555.466 136.562H289.76C280.963 136.562 273.154 142.368 272.235 149.386V149.387L248.821 327.505C247.911 334.459 254.1 340.23 262.888 340.23H528.594C537.254 340.23 544.956 334.604 546.07 327.734L546.118 327.406L569.532 149.288C570.442 142.334 564.253 136.562 555.466 136.562Z" fill="#565555" stroke="#DCDCDC" stroke-width="0.756076"/>
<path d="M320.783 385.224H471.327C474.455 385.224 477.267 382.686 477.597 379.553L479.636 360.484C479.965 357.35 477.711 354.812 474.582 354.812H324.039C320.91 354.812 318.098 357.35 317.769 360.484L315.729 379.553C315.4 382.686 317.655 385.224 320.783 385.224Z" fill="#4C4C52"/>
<g style="mix-blend-mode:multiply" opacity="0.3">
<path d="M377.594 340.778L371.438 262.066H444.828L450.984 340.778H377.594Z" fill="#84848C"/>
</g>
<path d="M358.403 384.232H431.781L444.828 262.066H371.437L358.403 384.232Z" fill="#4C4C52"/>
<path d="M80.348 324.043C93.8634 325.755 182.163 331.553 191.321 334.345C200.491 337.123 199.377 351.003 197.426 355.202C195.488 359.402 105.795 363.449 78.0174 364.464C50.252 365.492 48.1114 352.411 53.2034 337.961C58.2954 323.497 67.0987 322.381 80.3354 324.043H80.348Z" fill="#9DBBD7"/>
<path d="M132.18 213.363C126.986 250.714 95.8011 333.244 91.3551 344.371C86.9091 355.498 51.0877 358.276 53.3171 339.639C55.5337 321.001 77.4724 218.653 86.0857 194.725C94.6991 170.81 106.796 161.637 126.822 154.025C146.86 146.412 136.626 181.378 132.18 213.363Z" fill="#9DBBD7"/>
<path d="M137.562 347.238H314.591C314.955 347.238 315.25 347.534 315.25 347.898V381.05C315.25 381.414 314.955 381.709 314.591 381.709H137.562C137.198 381.709 136.903 381.414 136.903 381.05V347.898C136.903 347.534 137.198 347.238 137.562 347.238Z" fill="#DFDFDF"/>
<path d="M557.232 364.453H12.768C5.72534 364.453 0 370.188 0 377.242V391.21C0 398.265 5.72534 403.999 12.768 403.999H557.232C564.275 403.999 570 398.265 570 391.21V377.242C570 370.188 564.275 364.453 557.232 364.453Z" fill="#76758C"/>
<g style="mix-blend-mode:multiply" opacity="0.3">
<path d="M5.37061 396.844H549.847C556.941 396.844 562.615 391.16 562.615 384.055V370.087C562.615 368.399 562.248 366.814 561.665 365.342C566.529 367.143 570 371.711 570 377.242V391.211C570 398.316 564.325 404 557.232 404H12.7679C7.35925 404 2.82465 400.676 0.949951 395.956C2.34326 396.476 3.79993 396.844 5.3833 396.844H5.37061Z" fill="#76758C"/>
</g>
<path d="M186.276 334.625C206.023 336.579 205.973 331.009 228.291 330.73C250.61 330.451 273.157 348.53 257.159 348.53H192.052C177.169 348.53 185.161 334.904 185.161 334.904L186.263 334.625H186.276Z" fill="#FFBA8A"/>
</svg>
