<svg width="574" height="605" viewBox="0 0 574 605" fill="none" xmlns="http://www.w3.org/2000/svg">
<rect width="574" height="605" fill="url(#paint0_radial_282_2)"/>
<path d="M286.917 176.788C286.917 166.5 281.192 154.318 274.401 149.823C253.687 136.117 217.689 145.908 200.443 159.32C173.422 181.263 160.684 211.746 151.635 244.252C105.432 410.23 101.981 401.169 116.875 469.41C123.535 499.919 140.986 519.9 164.428 532.448C234.755 570.089 359.005 540.841 407.542 528.37C431.792 522.141 479.054 451.608 449.591 382.175C422.596 318.557 369.864 296.638 331.975 248.536C317.471 230.124 286.917 197.683 286.917 176.788Z" fill="#E89292"/>
<path d="M351.411 514.216C288.911 514.099 230.576 511.685 212.897 463.825C208.729 452.536 196.659 427.843 189.35 418.291C160.692 393.909 132.82 398.946 112.516 387.352C106.178 418.428 108.883 432.8 116.873 469.41C123.532 499.922 140.983 519.901 164.425 532.448C234.753 570.089 359.002 540.841 407.539 528.37C419.797 525.22 437.931 505.635 449.067 478.071C401.546 492.568 382.836 514.276 351.408 514.216H351.411Z" fill="#E08282"/>
<path d="M234.909 370.917C234.01 381.125 247.417 386.587 266.292 389.301C302.37 394.489 339.396 393.105 353.584 392.2C387.586 391.41 418.997 370.312 390.47 343.576C369.802 325.98 343.425 306.381 322.38 289.427C295.625 267.893 298.503 224.976 257.77 222.196C231.772 223.169 222.578 243.582 224.522 289.31C225.397 309.859 241.674 338.864 234.906 370.92L234.909 370.917Z" fill="#E08282"/>
<path d="M449.591 382.175C440.129 359.876 427.499 342.711 413.462 327.735C408.695 332.432 404.123 337.132 400.341 341.17C392.138 337.903 384.699 335.106 381.216 333.796C377.307 332.327 371.661 329.656 365.124 326.562C349.879 319.351 330.908 310.373 315.379 307.631C304.477 305.702 293.281 308.327 283.865 315.027C275.101 321.263 268.812 330.332 267.451 338.693C264.837 354.762 268.974 374.79 284.107 383.302C294.622 389.218 361.006 404.463 378.964 407.99C378.921 409.143 371.51 422.763 369.765 425.169C368.876 425.004 358.828 438.967 355.799 447.029C352.769 455.093 364.725 506.14 390.74 509.896C391.435 507.464 378.181 467.995 379.081 459.051C379.565 454.228 391.247 433.142 392.195 433.177L394.026 433.242L395.649 432.392C397.38 431.481 405.242 445.956 407.613 449.848C410.213 454.109 413.516 458.047 415.603 460.375C415.919 467.869 418.857 476.076 420.634 479.273C421.246 480.368 421.91 483.761 422.228 485.391C422.519 486.875 422.749 488.051 423.08 489.032C423.857 491.341 425.602 493.181 427.988 494.215C431.439 495.71 436.157 495.407 441.749 493.418C457.506 465.107 467.101 423.448 449.588 382.178L449.591 382.175Z" fill="#E08282"/>
<path d="M284.831 326.083C280.386 327.815 275.287 327.989 273.057 329.738C253.866 317.833 234.468 305.844 213.153 298.462C191.819 291.096 168.081 288.636 146.749 296.036C143.119 297.3 139.523 298.844 135.893 300.125C137.484 294.546 139.144 288.671 140.907 282.487C156.951 275.381 174.69 272.108 192.2 273.235C226.205 275.401 257.016 293.162 286.388 310.456C288.427 311.669 290.588 312.987 291.539 315.153C293.475 319.536 289.292 324.353 284.831 326.085V326.083Z" fill="#E08282"/>
<path d="M360.243 278.64C357.806 296.989 351.166 314.559 342.989 331.159C340.517 336.185 337.818 341.244 333.792 345.125C329.746 349.006 324.111 351.589 316.313 352.143C315.484 338.99 328.294 329.427 333.496 317.313C335.76 312.062 335.045 305.893 337.3 300.645C349.993 271.1 340.535 273.786 342.004 260.359C347.883 266.823 354.002 272.852 360.243 278.64Z" fill="#E08282"/>
<path d="M340.777 376.713C336.748 378.428 332.46 380.317 330.04 383.99C327.947 387.109 327.551 391.041 327.221 394.785C326.495 402.79 325.786 410.778 325.077 418.768C317.141 410.572 312.421 399.326 312.144 387.925C312.11 386.347 312.162 384.686 312.973 383.333C314.149 381.342 316.62 380.543 318.887 380.006C323.85 378.862 328.932 378.24 340.774 376.713H340.777Z" fill="#E08282"/>
<path d="M259.937 374.998C250.481 375.172 241.99 369.262 232.654 367.773C223.25 366.266 213.774 369.331 204.751 372.347C208.279 363.943 216.644 358.347 225.428 355.938C234.212 353.53 243.477 353.824 259.937 374.998Z" fill="#E08282"/>
<path d="M417.918 380.594C410.381 378.739 402.739 377.024 394.977 377.147C387.233 377.269 379.263 379.398 373.384 384.458C374.525 359.939 399.937 360.564 414.772 374.496C416.5 376.125 418.211 378.24 417.918 380.594Z" fill="#E08282"/>
<path d="M171.17 248.972C181.059 248.253 189.541 236.368 189.541 236.368C173.627 231.533 160.077 235.551 152.965 239.624C152.515 241.165 152.068 242.706 151.635 244.255C150.004 250.117 148.432 255.736 146.906 261.172C156.176 256.449 164.402 249.466 171.173 248.975L171.17 248.972Z" fill="#E08282"/>
<path d="M204.512 192.147C212.088 183.089 220.795 174.987 230.368 168.087C234.625 165.019 239.166 162.074 242.099 157.72C244.926 153.522 245.922 148.414 245.618 143.317C228.742 144.202 211.046 151.07 200.44 159.318C181.232 174.916 169.257 194.843 160.678 216.734C161.808 216.697 162.936 216.657 164.066 216.62C169.473 216.437 174.983 216.238 180.071 214.397C190.56 210.604 197.345 200.711 204.512 192.147Z" fill="#E08282"/>
<path d="M407.542 528.37C416.887 525.971 429.648 514.014 440.118 496.258C416.021 507.167 389.989 513.931 363.968 519.125C330.771 525.751 296.931 530.034 263.111 528.644C229.292 527.255 195.398 520.032 165.248 504.611C160.678 502.273 139.064 491.115 117.012 469.975C123.763 500.162 141.131 519.978 164.425 532.446C234.753 570.086 359.002 540.838 407.539 528.368L407.542 528.37Z" fill="#D97171"/>
<path d="M177.705 184.048C165.319 201.952 157.649 222.647 151.632 244.252C106.625 405.941 102.192 401.534 115.759 464.282C116.688 464.698 117.65 465.024 118.658 465.155C122.468 465.66 126.229 463.585 128.865 460.783C134.446 454.847 135.887 445.975 134.865 437.882C133.842 429.789 130.685 422.152 128.134 414.408C124.042 401.98 121.457 388.787 123.071 375.8C123.957 368.665 126.086 361.754 128.245 354.899C137.823 324.43 148.119 294.07 154.004 262.673C155.59 254.209 156.863 245.645 159.539 237.461C165.675 218.695 178.738 203.139 191.508 188.097C188.419 185.029 182.89 183.503 177.708 184.048H177.705Z" fill="#E08282"/>
<path d="M146.889 293.105C165.88 286.673 186.056 285.468 205.491 290.836C215.186 293.482 224.366 297.705 233.104 302.631C236.657 304.651 240.387 306.914 243.739 309.254C253.975 316.323 262.77 325.392 270.534 335.04C274.634 340.211 278.475 345.593 281.795 351.306L281.143 351.874C279.831 350.864 278.546 349.831 277.294 348.778C265.882 339.209 254.738 329.31 243.161 320.007C240.416 317.818 237.597 315.478 234.798 313.355C211.505 295.131 183.51 287.429 154.266 292.551C152.353 292.805 148.978 293.573 147.119 293.935L146.886 293.102L146.889 293.105Z" fill="#D97171"/>
<path d="M342.075 262.547C348.196 276.496 343.891 291.062 338.496 304.44C335.925 310.912 333.724 317.53 330.965 323.845C329.305 327.746 327.804 331.664 326.543 335.714C326.056 337.363 325.609 339.027 325.168 340.713C324.991 341.566 324.783 342.434 324.547 343.319L323.858 343.359C321.503 336.341 322.431 328.508 324.444 321.536C326.372 314.57 330.284 308.515 333.445 302.18C337.997 293.005 342.473 283.431 342.681 273.029C342.741 269.61 342.308 266.157 341.423 262.779L342.075 262.55V262.547Z" fill="#D97171"/>
<path d="M410.128 328.651C398.149 325.292 389.943 329.621 382.435 338.91C379.004 343.142 376.581 348.124 372.968 352.305C370.26 355.552 367.225 358.769 363.748 361.308C362.558 362.167 361.314 362.969 359.953 363.594L359.466 363.101C360.719 360.441 361.977 357.987 363.261 355.521C365.892 350.576 368.574 345.673 372.356 341.441C374.255 339.295 376.288 337.226 378.352 335.166C384.667 328.759 392.919 323.882 402.206 325.36C405.065 325.791 407.804 326.736 410.372 328.003L410.128 328.651Z" fill="#D97171"/>
<path d="M335.623 374.101C337.476 391.755 319.581 390.094 328.246 419.016C330.279 425.012 332.294 432.508 333.957 438.638C336.155 446.848 338.82 455.084 341.141 463.251C343.444 471.37 345.477 479.654 348.148 487.613C349.509 491.52 350.873 495.455 353.245 498.82C354.048 499.867 354.973 500.837 356.231 501.323L356.126 502.007C354.959 502.019 353.774 501.545 352.781 500.946C351.132 499.941 349.76 498.509 348.552 497.062C343.049 490.099 339.746 481.692 336.79 473.49C331.158 457.284 329.191 439.868 324.803 423.351C322.967 416.208 321.549 408.651 322.953 401.289C323.775 396.854 325.988 392.759 328.721 389.246C331.326 385.836 333.88 382.571 334.632 378.334C334.894 376.969 334.945 375.563 334.931 374.153L335.62 374.099L335.623 374.101Z" fill="#D97171"/>
<path d="M289.734 369.644C283.085 373.916 274.8 374.655 267.095 373.945C259.1 373.248 250.595 370.942 242.6 370.346C241.133 370.149 238.093 370.095 236.583 370.012C235.758 370.021 234.183 370.049 233.34 370.061C232.287 370.046 230.707 370.155 229.645 370.243C226.088 370.449 222.191 371.088 218.697 371.859L217.797 372.044L216.906 372.278C216.029 372.512 214.227 372.969 213.341 373.183C211.992 373.599 210.295 374.099 208.939 374.47C207.484 374.938 206.035 375.423 204.572 375.859C202.587 376.564 199.592 377.549 197.661 378.362L195.939 379.021L195.509 379.187C194.378 379.692 192.832 380.36 191.693 380.848C190.273 381.464 188.912 382.192 187.491 382.834C183.038 385.054 178.693 387.56 174.242 390.205L173.778 389.691C178.519 383.462 184.726 378.262 191.486 374.281C191.81 374.082 192.456 373.696 192.761 373.517C192.969 373.402 194.692 372.509 194.956 372.369C200.807 369.264 207.168 367.144 213.689 366.034C214.366 365.917 215.975 365.663 216.624 365.555C217.245 365.489 220.847 365.098 221.547 365.03C224.178 364.875 226.803 364.681 229.437 364.707C231.8 364.63 234.459 364.81 236.817 364.915C236.914 364.941 240.96 365.335 241.219 365.372C245.068 365.871 248.958 366.659 252.71 367.632C261.634 369.898 271.221 372.869 280.457 371.682C283.552 371.291 286.582 370.472 289.392 369.048L289.736 369.647L289.734 369.644Z" fill="#D97171"/>
<path d="M308.292 413.178C306.532 408.052 300.018 406.839 294.662 406.092C284.577 404.685 274.717 402.008 264.891 399.337C253.895 396.349 242.859 393.347 232.352 388.927C228.557 387.329 224.804 385.539 220.787 384.635C208.279 381.812 194.267 389.041 189.293 400.884C194.333 397.879 199.765 395.533 205.406 393.929C207.982 393.196 210.71 392.617 213.318 393.224C216.521 393.972 219.036 396.369 221.832 398.104C227.039 401.332 233.295 402.268 239.357 403.132C250.751 404.762 262.146 406.389 273.544 408.018C279.164 408.82 284.896 409.659 289.978 412.193C293.113 413.754 295.903 415.917 298.671 418.066C304.072 422.258 309.474 426.45 314.875 430.639C317.651 428.371 314.772 423.973 311.828 421.924C308.884 419.875 305.328 416.456 308.298 413.18L308.292 413.178Z" fill="#EDA1A1"/>
<path d="M186.639 365.355C198.117 357.439 211.08 349.149 224.87 351.15C226.231 351.347 227.626 351.643 228.958 351.312C230.291 350.981 231.538 349.78 231.37 348.413C231.253 347.471 230.522 346.729 229.77 346.153C224.505 342.121 217.165 342.745 210.591 343.562C209.363 341.327 208.113 339.027 207.795 336.496C207.476 333.967 208.296 331.122 210.445 329.755C208.652 325.184 207.197 319.142 211.009 316.055C213.799 313.795 217.871 314.557 221.35 315.433C221.57 312.217 218.181 310.093 215.272 308.724C202.459 302.705 189.06 296.555 174.914 296.892C171.742 296.969 167.682 298.296 167.677 301.478C167.668 305.145 172.708 306.03 176.369 306.007C183.217 305.967 190.868 307.468 194.788 313.098C196.4 315.413 197.194 318.192 197.869 320.935C199.612 328.037 200.716 335.297 201.166 342.597C196.44 342.911 195.119 349.118 192.26 352.902C190.688 354.982 188.41 356.472 186.995 358.661C185.58 360.849 185.463 364.32 186.645 365.347L186.639 365.355Z" fill="#EDA1A1"/>
<path d="M222.72 186.419C221.792 189.701 223.03 193.165 223.184 196.573C223.338 199.98 221.501 204.144 218.099 204.161C223.25 206.792 229.138 207.951 234.898 207.474C234.875 209.543 232.939 211.104 230.98 211.76C229.021 212.417 226.891 212.499 224.989 213.301C220.442 215.222 218.492 221.603 221.185 225.743C222.04 227.056 223.292 228.226 223.477 229.781C223.68 231.502 222.504 233.037 221.57 234.493C216.482 242.415 217.373 252.631 218.446 261.991C218.352 257.865 215.138 254.32 211.379 252.631C207.621 250.942 203.384 250.75 199.267 250.668C192.744 250.536 185.913 250.682 180.179 253.801C180.523 250.748 183.177 248.467 185.925 247.103C188.672 245.739 191.722 244.94 194.216 243.148C197.778 240.588 200.03 236.131 204.187 234.741C205.013 234.464 205.91 234.316 206.61 233.797C210.175 231.168 204.218 224.99 206.656 221.286C208.324 218.749 213.407 218.347 212.849 215.359C212.285 212.342 206.718 213.45 205.508 210.63C204.777 208.921 206.291 207.046 207.948 206.204C209.606 205.362 211.556 204.997 212.888 203.701C211.821 203.299 211.533 201.826 211.966 200.771C212.402 199.712 213.318 198.95 214.127 198.142C216.963 195.3 218.7 191.382 222.72 186.414V186.419Z" fill="#EDA1A1"/>
<path d="M295.183 324.227C293.976 306.897 307.014 291.866 324.305 290.656C326.594 290.496 328.844 290.588 331.025 290.904C347.231 291.895 456.419 308.381 456.419 308.381C465.63 308.563 473.343 315.769 473.998 325.158C474.69 335.097 467.213 343.715 457.298 344.409C456.857 344.44 456.421 344.454 455.986 344.451C415.125 348.275 345.97 352.348 329.721 353.321C329.373 353.355 329.029 353.389 328.679 353.412C328.101 353.452 327.528 353.475 326.956 353.483C310.393 353.735 296.351 340.97 295.183 324.224V324.227Z" fill="#9E5959"/>
<path d="M293.144 325.058C293.144 325.058 292.629 292.151 319.94 288.93C347.251 285.708 440.702 302.97 447.692 303.638C454.682 304.305 472.406 304.736 475.863 322.469C479.319 340.205 463.215 346.109 448.924 348.424C434.634 350.738 398.696 350.555 376.054 353.024C353.41 355.489 320.908 358.052 309.767 352.059C298.625 346.064 293.347 333.724 293.147 325.058H293.144Z" fill="#5C5B84"/>
<path d="M328.325 318.063C328.325 318.063 345.443 320.292 351.257 322.949C357.071 325.606 355.095 299.734 355.095 299.734C355.095 299.734 358.905 308.515 360.474 318.257C361.416 324.107 363.674 325.737 367.549 327.509C371.425 329.281 399.732 340.294 401.515 340.205C403.297 340.117 427.262 319.242 439.355 316.285C448.264 314.108 466.43 326.382 475.379 332.997C471.95 342.751 459.904 346.649 448.924 348.427C434.634 350.741 398.696 350.558 376.054 353.027C353.41 355.492 320.908 358.055 309.767 352.062C304.001 348.96 299.807 344.155 297.074 339.041C311.47 328.137 328.328 318.069 328.328 318.069L328.325 318.063Z" fill="#4E4D75"/>
<path d="M347.468 280.041C347.468 280.041 354.17 295.214 355.907 306.517C357.644 317.824 350.36 343.858 347.402 351.828C344.444 359.799 332.229 368.568 323.457 372.035C314.687 375.503 286.365 382.64 275.859 355.615C271.346 343.284 269.019 330.654 273.182 316.725C276.351 306.123 272.769 290.653 272.083 284.321L347.468 280.041Z" fill="#9E5959"/>
<path d="M349.119 284.164C349.737 283.827 350.506 284.127 350.739 284.792C352.063 288.573 355.904 299.799 356.784 305.259C357.852 311.885 358.262 320.614 355.534 328.454C352.806 336.293 349.802 354.773 342.642 362.333C335.481 369.889 312.455 380.517 294.625 378.804C276.793 377.092 271.77 358.911 269.729 352.442C267.69 345.975 268.148 328.405 270.272 318.063C271.947 309.916 271.813 297.465 271.679 292.554C271.65 291.521 272.616 290.75 273.615 291.007C282.385 293.265 318.283 300.91 349.119 284.164Z" fill="#5C5B84"/>
<path d="M313.648 314.368C313.648 314.368 325.706 306.757 331.11 300.681L285.357 308.089L289.927 322.412L313.648 314.368Z" fill="#47466B"/>
<path d="M276.958 364.225C276.81 362.838 276.835 361.474 277.057 360.153C279.193 347.411 328.325 318.063 328.325 318.063C328.325 318.063 345.443 320.292 351.257 322.949C357.071 325.606 355.095 299.734 355.095 299.734C355.095 299.734 355.574 300.838 356.263 302.696C356.482 303.635 356.664 304.505 356.784 305.259C357.852 311.885 358.262 320.614 355.534 328.454C352.806 336.293 349.802 354.773 342.641 362.333C335.481 369.889 314.297 378.319 296.464 376.607C287.518 375.748 281.246 370.28 276.958 364.228V364.225Z" fill="#47466B"/>
<path d="M269.729 352.442C268.877 349.745 268.461 345.119 268.422 339.891C276.724 357.316 300.778 373.559 307.965 378.134C303.415 378.918 298.873 379.209 294.625 378.804C276.793 377.092 271.77 358.911 269.729 352.442Z" fill="#47466B"/>
<path d="M402.984 379.301C405.985 369.384 416.44 363.785 426.334 366.793C431.442 368.345 435.403 371.892 437.626 376.321C437.626 376.321 452.689 391.806 487.551 503.26C488.815 505.155 489.253 507.58 488.541 509.932C487.28 514.095 482.892 516.447 478.738 515.183C475.68 514.252 473.602 511.621 473.223 508.636C473.223 508.636 459.459 488.971 443.287 466.684C426.004 442.867 409.621 409.758 402.992 393.949C400.68 389.691 401.466 384.306 402.981 379.301H402.984Z" fill="#9E5959"/>
<path d="M473.3 510.058C473.015 509.019 472.292 506.302 472.292 506.302C472.953 502.002 477.784 499.522 482.075 500.184C483.943 500.472 485.774 501.342 486.944 502.649C486.944 502.649 502.154 516.841 511.92 522.725C521.684 528.61 528.776 534.953 529.357 537.878C529.938 540.801 525.166 545.646 517.438 544.071C509.711 542.493 495.164 533.598 488.094 532.767C481.025 531.934 472.676 528.11 471.372 524.044C470.068 519.977 472.004 514.004 473.3 510.061V510.058Z" fill="#9E5959"/>
<path d="M528.768 543.269C528.768 543.269 528.218 545.141 527.745 545.546C527.273 545.952 521.638 545.92 516.926 544.767C512.211 543.614 493.342 536.88 481.198 533.504C469.055 530.128 466.062 527.208 465.683 526.672C465.305 526.135 466.128 524.897 466.128 524.897L528.768 543.269Z" fill="#82ABE0"/>
<path d="M491.528 512.263C491.528 512.263 493.968 509.139 495.534 508.816C497.1 508.494 497.852 509.036 498.083 509.21C498.313 509.381 503.447 514.564 510.827 519.783C518.204 525.002 528.967 533.835 530.234 535.122C531.501 536.412 530.932 539.568 530.442 541.097C529.952 542.627 528.981 543.503 528.437 543.726C528.437 543.726 524.158 544.416 521.006 543.845C517.857 543.275 503.384 538.09 494.768 535.821C486.152 533.552 468.758 527.97 466.128 524.9C465.404 523.387 466.375 518.739 468.183 515.5C469.991 512.261 471.532 511.191 472.383 510.417C473.234 509.644 473.089 509.809 473.531 510.371C473.972 510.934 489.945 515.149 490.591 515.043C491.238 514.937 490.429 513.993 491.528 512.266V512.263Z" fill="#9DBFEB"/>
<path d="M519.833 534.748C520.015 534.796 520.214 534.716 520.311 534.545C520.425 534.34 520.354 534.08 520.149 533.966C507.709 526.943 492.283 515.354 492.129 515.237C491.941 515.097 491.676 515.134 491.534 515.322C491.394 515.511 491.431 515.776 491.619 515.919C491.773 516.036 507.245 527.656 519.733 534.708C519.765 534.725 519.799 534.739 519.833 534.748Z" fill="#82ABE0"/>
<path d="M407.078 360.492C407.078 360.492 424.193 353.549 437.792 372.943C449.952 390.285 483.499 464.184 483.348 465.106C483.197 466.031 481.768 472.314 468.471 480.008C455.174 487.702 445.502 486.164 445.502 486.164C445.502 486.164 415.07 423.482 412.274 419.136C409.478 414.789 400.364 394.948 398.226 385.396C396.088 375.845 394.567 366.419 407.078 360.495V360.492Z" fill="#5C5B84"/>
<path d="M412.277 419.136C413.872 421.616 424.424 443.004 433.216 460.965C434.124 441.805 450.977 416.907 457.199 408.685C449.665 393.412 442.276 379.335 437.794 372.943C437.792 372.937 437.786 372.931 437.783 372.926C437.327 372.275 436.866 371.659 436.402 371.068C436.254 370.879 436.103 370.703 435.955 370.52C435.63 370.12 435.306 369.727 434.981 369.353C434.81 369.159 434.642 368.976 434.472 368.791C434.158 368.448 433.845 368.111 433.532 367.792C433.364 367.621 433.193 367.452 433.025 367.287C432.698 366.967 432.373 366.662 432.046 366.365C431.895 366.228 431.741 366.091 431.59 365.957C431.223 365.637 430.856 365.335 430.488 365.044C430.38 364.958 430.269 364.867 430.161 364.781C428.663 363.631 427.168 362.701 425.699 361.962C418.419 359.005 411.158 359.716 406.796 360.638C394.618 366.57 396.113 375.913 398.234 385.388C399.436 390.761 402.847 399.388 406.099 406.685C407.363 409.522 408.604 412.158 409.68 414.321C410.295 415.557 410.859 416.642 411.34 417.518C411.46 417.737 411.577 417.943 411.688 418.137C411.91 418.522 412.109 418.856 412.283 419.127L412.277 419.136Z" fill="#4E4D75"/>
<path d="M330.15 322.284C330.15 322.284 389.294 348.883 427.12 366.399C430.488 367.615 433.532 369.847 435.744 373.009C441.45 381.164 439.48 392.414 431.342 398.135C426.875 401.275 421.479 402.096 416.576 400.849C400.657 398.147 349.27 389.537 308.357 380.468C297.33 378.265 289.537 375.52 283.637 367.087C273.686 352.864 277.123 333.248 291.314 323.271C303.053 315.018 313.898 315.472 330.15 322.287V322.284Z" fill="#9E5959"/>
<path d="M432.057 399.742C432.057 399.742 422.989 406.608 404.84 403.549C388.87 400.855 370.972 397.636 363.933 396.674C356.895 395.715 298.674 383.55 287.49 377.258C274.657 370.038 272.319 351.823 274.273 339.809C276.175 328.111 292.922 310.698 314.174 314.453C335.426 318.212 365.405 335.251 378.785 340.285C392.164 345.316 431.041 360.018 437.271 367.107C443.5 374.196 447.247 391.883 432.057 399.742Z" fill="#5C5B84"/>
<path d="M334.316 350.284C333.445 349.825 334.379 344.477 335.193 343.344C335.449 342.987 345.212 337.888 358.452 331.073C366.644 334.931 373.847 338.427 378.787 340.288C386.227 343.087 401.554 348.875 414.766 354.682C408.63 358.452 404.347 361.037 403.906 361.214C402.221 361.888 399.259 358.369 393.525 358.697C387.793 359.025 335.19 350.747 334.316 350.287V350.284Z" fill="#4E4D75"/>
<path d="M366.302 382.894C367.774 379.655 371.251 377.694 371.251 377.694C371.251 377.694 373.42 371.345 376.216 368.893C379.012 366.442 380.493 362.002 384.792 356.508C387.634 352.875 393.081 349.174 396.446 347.08C412.804 353.56 432.937 362.176 437.27 367.107C440.627 370.928 443.264 377.828 442.6 384.609C437.384 387.87 432.017 390.133 431.342 390.362C430.32 390.707 427.769 397.624 424.981 402.872C420.449 404.165 413.735 405.05 404.843 403.549C388.872 400.855 370.974 397.636 363.936 396.674C363.483 396.611 362.817 396.503 361.969 396.355C364.918 392.162 364.915 385.95 366.305 382.896L366.302 382.894Z" fill="#4E4D75"/>
<path d="M363.936 396.674C361.872 396.392 355.406 395.147 347.015 393.369C352.461 393.121 359.232 391.76 360.716 389.697C362.672 386.98 367.592 384.083 367.592 384.083C367.592 384.083 380.524 392.239 382.438 399.699C374.482 398.329 367.674 397.182 363.936 396.671V396.674Z" fill="#4E4D75"/>
<path d="M396.446 347.08C402.369 349.425 408.783 352.051 414.766 354.682C408.63 358.452 404.347 361.037 403.906 361.214C402.221 361.887 399.259 358.369 393.525 358.697C392.249 358.771 388.648 358.417 383.81 357.818C384.123 357.39 384.448 356.956 384.795 356.514C387.637 352.881 393.084 349.18 396.449 347.085L396.446 347.08Z" fill="#47466B"/>
<path d="M329.071 389.386C311.692 385.351 293.284 380.517 287.493 377.258C274.66 370.038 272.322 351.823 274.276 339.809C276.163 328.211 292.646 310.992 313.648 314.368C312.03 315.954 310.217 317.49 308.281 318.708C301.217 323.151 295.009 331.053 291.077 340.088C287.222 348.952 288.378 374.61 329.071 389.386Z" fill="#47466B"/>
<path d="M420.48 439.534C420.48 439.534 413.43 441.109 399.069 435.759C384.707 430.408 382.332 420.506 382.332 420.506L391.78 408.152C391.78 408.152 405.156 405.318 423.529 423.342L420.477 439.534H420.48Z" fill="#44436E"/>
<path d="M446.359 313.121C454.103 306.877 465.433 308.11 471.663 315.872C476.437 321.822 476.83 329.884 473.263 336.136C473.26 336.145 462.025 357.088 449.143 375.971C436.262 394.86 392.554 456.363 392.554 456.363C392.101 457.13 391.509 457.832 390.777 458.423C387.526 461.046 382.768 460.526 380.154 457.267C377.748 454.268 377.993 449.996 380.581 447.288C380.581 447.288 396.873 406.329 400.506 395.624C404.139 384.92 421.57 342.337 443.383 316.163C444.235 315.059 445.228 314.034 446.359 313.121Z" fill="#9E5959"/>
<path d="M375.348 449.519C378.568 448.652 380.581 447.288 380.581 447.288C380.809 447.054 381.048 446.828 381.307 446.62C384.559 443.997 389.317 444.517 391.931 447.776C393.955 450.298 394.103 453.729 392.554 456.363C392.554 456.363 394.026 474.358 395.305 481.812C396.583 489.263 399.929 503.506 396.597 506.191C393.266 508.876 389.135 503.726 387.122 500.635C385.111 497.544 376.982 485.593 375.829 477.899C374.266 467.458 365.858 459.031 366.69 456.16C367.521 453.289 372.122 450.39 375.342 449.522L375.348 449.519Z" fill="#9E5959"/>
<path d="M394.974 510.688C394.974 510.688 393.246 511.587 392.628 511.527C392.01 511.468 388.129 507.372 385.695 503.166C383.26 498.96 375.035 480.653 369.053 469.538C363.071 458.423 363.099 454.234 363.221 453.592C363.347 452.947 364.807 452.681 364.807 452.681L394.977 510.688H394.974Z" fill="#82ABE0"/>
<path d="M391.492 462.293C391.492 462.293 395.43 461.89 396.748 462.801C398.063 463.708 398.194 464.63 398.229 464.912C398.263 465.198 398.092 472.497 399.447 481.447C400.803 490.396 401.902 504.291 401.85 506.1C401.802 507.909 399.134 509.684 397.693 510.389C396.253 511.094 394.951 511 394.413 510.76C394.413 510.76 390.951 508.143 389.18 505.469C387.409 502.795 381.116 488.744 376.78 480.944C372.444 473.145 364.414 456.705 364.802 452.676C365.388 451.106 369.406 448.586 372.99 447.65C376.575 446.714 378.412 447.085 379.559 447.165C380.706 447.245 380.487 447.254 380.388 447.964C380.288 448.675 388.32 463.14 388.844 463.534C389.368 463.928 389.487 462.689 391.492 462.29V462.293Z" fill="#9DBFEB"/>
<path d="M394.917 498.326C395.008 498.492 395.202 498.58 395.393 498.532C395.621 498.472 395.757 498.241 395.697 498.015C392.135 484.158 389.789 464.978 389.764 464.787C389.735 464.553 389.525 464.387 389.291 464.416C389.058 464.444 388.892 464.656 388.921 464.89C388.944 465.081 391.298 484.315 394.875 498.227C394.883 498.264 394.897 498.295 394.914 498.326H394.917Z" fill="#82ABE0"/>
<path d="M467.771 309.251C467.771 309.251 481.688 318.026 476.495 334.723C471.688 350.176 421.87 438.281 420.48 439.534C420.48 439.534 419.131 426.558 407.149 421.245C396.703 416.613 385.621 416.702 382.335 420.506C382.335 420.506 430.132 327.426 440.633 315.515C451.134 303.604 464.55 306.783 467.773 309.248L467.771 309.251Z" fill="#5C5B84"/>
<path d="M468.878 310.056C465.524 307.693 461.461 306.709 457.315 306.968C457.307 306.968 457.295 306.968 457.287 306.968C453.554 307.208 449.779 308.444 446.436 310.51C446.22 310.647 446 310.784 445.784 310.932C445.642 311.026 445.505 311.132 445.365 311.229C444.107 312.122 442.86 313.172 441.644 314.422C441.319 314.765 440.983 315.098 440.679 315.464C440.665 315.481 440.647 315.498 440.63 315.515C436.673 320.004 427.416 336.028 417.417 354.251C440.699 337.569 471.984 315.178 473.163 314.442C473.081 314.319 472.984 314.219 472.898 314.1C471.392 312.191 469.866 310.841 468.875 310.059L468.878 310.056Z" fill="#4E4D75"/>
<path d="M301.888 186.482C301.572 185.106 301.421 183.671 301.464 182.195C301.72 172.844 309.493 165.473 318.821 165.732C325.27 165.909 330.774 169.687 333.473 175.09C333.473 175.09 336.81 181.242 338.778 194.657C340.745 208.073 347.712 258.178 347.712 258.178C347.835 258.9 347.889 259.642 347.869 260.398C347.698 266.631 342.365 270.606 336.147 270.435C330.939 270.292 326.17 265.281 325.014 260.435C325.014 260.435 303.802 201.692 301.888 186.482Z" fill="#914D4D"/>
<path d="M326.062 166.206C326.062 166.206 333.453 168.341 337.178 179.068C340.902 189.795 342.957 201.726 343.271 207.808C343.587 213.889 344.808 223.954 345.768 226.599C346.724 229.245 348.037 234.895 346.844 235.757C345.654 236.616 339.541 237.472 333.658 239.758C327.776 242.043 320.037 240.231 315.433 241.376C310.829 242.52 311.939 236.21 311.521 233.611C311.102 231.014 306.29 213.529 302.515 200.011C298.739 186.493 297.512 159.899 326.059 166.209L326.062 166.206Z" fill="#FFD693"/>
<path d="M315.433 241.373C310.829 242.517 311.939 236.208 311.521 233.608C311.102 231.011 306.29 213.526 302.515 200.008C302.258 199.092 302.016 198.116 301.792 197.095C303.278 182.133 310.92 173.523 315.105 172.51C320.097 171.303 331.355 177.61 331.355 177.61C331.355 177.61 335.7 184.77 337.132 187.871C338.151 190.08 339.435 193.933 341.77 196.564C342.624 201.076 343.128 205.045 343.271 207.807C343.587 213.889 344.808 223.954 345.768 226.599C346.724 229.245 348.037 234.895 346.844 235.757C345.654 236.616 339.541 237.472 333.658 239.758C327.776 242.043 320.037 240.231 315.433 241.376V241.373Z" fill="#FFB979"/>
<path d="M346.309 250.171C346.309 250.171 348.652 251.401 363.922 259.899C377.247 267.316 388.716 271.405 393.514 274.054C394.433 274.439 399.177 277.29 399.815 278.146C401.725 280.703 394.96 290.619 388.958 288.918C388.958 288.918 357.086 280.146 334.797 269.79C332.585 269.114 330.56 267.755 329.068 265.758C325.341 260.767 326.355 253.689 331.338 249.951C335.35 246.94 340.557 246.955 346.306 250.171H346.309Z" fill="#9E5959"/>
<path d="M334.8 269.79C332.588 269.114 330.564 267.755 329.072 265.758C325.345 260.767 326.358 253.689 331.341 249.951C335.353 246.94 340.56 246.955 346.309 250.171C346.309 250.171 347.901 251.007 356.986 256.044C355.514 255.821 353.925 255.678 353.157 255.927C351.514 256.46 352.291 260.464 353.891 264.605C355.489 268.746 356.514 270.977 356.653 273.488C356.758 275.42 357.114 277.389 358.404 279.227C350.483 276.422 342.126 273.192 334.803 269.787L334.8 269.79Z" fill="#914D4D"/>
<path d="M277.818 167.099C282.046 165.45 286.542 164.6 291.077 164.557C295.804 164.514 302.207 164.451 306.541 164.38C314.174 164.257 322.916 164.862 326.973 167.89C331.03 170.921 332.687 184.704 335.125 191.875C337.562 199.047 344.216 208.09 347.564 216.329C350.916 224.567 350.409 235.229 344.344 240.885C344.344 240.885 343.809 249.035 344.578 258.586C345.346 268.138 349.019 283.89 349.019 283.89C349.019 283.89 273.535 292.414 272.14 285.3C269.902 273.891 266.098 256.888 261.454 245.722C253.918 227.598 246.073 219.162 241.689 210.247C237.013 200.745 233.542 193.565 242.392 185.577C251.241 177.59 266.272 172.076 266.272 172.076C266.272 172.076 271.636 169.502 277.812 167.094L277.818 167.099Z" fill="#9E5959"/>
<path d="M265.102 172.787L269.031 132.604C269.133 125.215 274.538 118.757 282.069 117.59C290.471 116.286 298.335 122.053 299.639 130.475C299.736 131.105 299.793 131.73 299.813 132.352C299.836 133.037 299.813 133.719 299.744 134.387L298.415 174.313C298.432 174.987 298.409 175.655 298.349 176.317C297.655 183.779 291.988 190.1 284.264 191.299C275.141 192.714 266.602 186.45 265.19 177.31C264.954 175.774 264.934 174.256 265.104 172.787H265.102Z" fill="#9E5959"/>
<path d="M269.048 132.158C269.356 124.956 274.691 118.735 282.069 117.59C290.471 116.286 298.335 122.053 299.639 130.475C299.736 131.105 299.793 131.73 299.813 132.352C299.836 133.037 299.813 133.719 299.744 134.387L298.569 169.653C294.355 169.057 287.817 166.237 282.644 160.698C274.193 151.649 270.568 141.111 269.045 132.158H269.048Z" fill="#914D4D"/>
<path d="M298.788 164.488C298.788 164.488 304.576 172.347 298.839 175.543C293.102 178.737 271.021 174.582 265.367 170.033C265.367 170.033 254.743 175.084 248.334 179.056C241.925 183.026 236.763 188.128 234.573 194.346C232.384 200.565 244.134 224.79 248.067 232.683C251.999 240.576 260.256 255.504 261.19 258.817C262.124 262.133 264.097 264.479 264.097 264.479C264.097 264.479 264.222 269.39 265.412 273.462C266.599 277.535 268.846 281.57 268.846 281.57C268.846 281.57 267.226 290.496 268.296 296.321C269.367 302.145 269.825 309.936 268.769 314.105C267.713 318.274 266.135 339.857 267.485 350.704C268.835 361.548 273.362 362.415 274.512 361.297C275.662 360.178 279.782 347.782 282.009 342.622C284.235 337.463 290.183 326.501 296.775 320.372C301.618 315.866 314.627 311.482 317.645 307.929C320.663 304.374 346.377 298.88 351.972 298.107C357.567 297.334 364.753 293.239 365.972 290.907C367.194 288.576 363.481 288.644 363.481 288.644C363.481 288.644 362.592 284.789 359.774 282.98C356.955 281.17 355.793 280.56 355.793 280.56C355.793 280.56 354.125 273.5 352.533 271.89C350.944 270.281 347.752 248.005 345.577 246.889C345.577 246.889 348.31 244.046 346.169 240.662C346.169 240.662 350.768 236.184 351.087 228.268C351.405 220.352 346.907 209.751 343.388 205.256C339.871 200.761 335.629 190.117 334.552 185.092C333.476 180.066 330.504 170.13 327.713 167.404C324.083 163.86 309.064 163.092 298.782 164.491L298.788 164.488Z" fill="#FFD693"/>
<path d="M350.175 233.59C348.743 238.159 346.175 240.662 346.175 240.662C346.175 240.662 342.565 242.497 339.145 243.293C338.92 243.344 338.795 243.042 338.986 242.916C341.135 241.515 346.534 237.797 350.175 233.59Z" fill="#FFB979"/>
<path d="M363.577 288.644C363.515 288.644 363.458 288.667 363.412 288.71C356.926 294.754 343.909 294.346 340.916 294.697C337.915 295.051 325.504 290.662 318.813 286.278C312.122 281.895 284.774 273.128 284.503 271.439C284.23 269.75 282.476 262.17 282.635 260.678C282.795 259.185 285.861 258.423 287.12 257.153C288.091 256.175 287.347 253.889 286.957 252.893C286.886 252.71 287.049 252.522 287.236 252.567C288.128 252.779 290.42 253.058 295.382 252.351H295.397C303.127 250.812 309.346 248.13 312.335 246.683C312.597 246.558 312.452 246.161 312.17 246.229C288.677 251.965 285.007 243.376 283.452 239.352C281.855 235.211 272.482 210.983 272.231 210.966C263.445 210.373 255.293 206.711 246.785 204.657C242.896 203.718 238.716 202.531 234.921 200.707C237.179 210.441 244.997 226.527 248.064 232.683C251.996 240.576 260.253 255.504 261.187 258.817C262.032 261.819 263.732 264.028 264.045 264.416C264.077 264.456 264.097 264.504 264.097 264.559C264.119 265.209 264.31 269.695 265.409 273.462C266.503 277.215 268.496 280.933 268.803 281.498C268.829 281.547 268.837 281.601 268.829 281.655C268.669 282.568 267.283 290.827 268.294 296.323C269.364 302.148 269.823 309.938 268.766 314.108C267.71 318.277 266.132 339.859 267.482 350.706C268.248 356.862 270.036 359.801 271.65 360.988C271.847 361.134 272.106 360.92 272.012 360.694C267.869 350.732 271.01 326.199 272.75 319.861C274.763 312.538 272.377 303.926 274.973 302.704C277.57 301.483 294.184 306.794 297.151 309.111C300.118 311.431 297.714 312.618 292.342 318.888C288.66 323.182 287.234 329.272 286.701 332.68C286.658 332.942 287.009 333.071 287.148 332.842C289.847 328.393 293.213 323.679 296.772 320.369C301.615 315.863 314.624 311.479 317.642 307.926C320.661 304.371 346.374 298.877 351.969 298.104C357.564 297.331 364.751 293.236 365.969 290.904C367.071 288.798 364.147 288.65 363.572 288.641L363.577 288.644Z" fill="#FFB979"/>
<path d="M355.787 280.502C353.484 280.816 351.141 281.661 349.375 283.225C347.553 284.506 345.341 285.08 343.308 285.99L343.319 286.101C349.071 286.829 350.546 281.718 355.805 280.614L355.785 280.505L355.787 280.502Z" fill="#FFB979"/>
<path d="M352.53 271.833C348.313 272.001 344.023 272.963 340.626 275.628L340.666 275.731C342.653 275.522 344.521 274.789 346.204 273.733C348.225 272.886 350.412 272.452 352.542 271.944L352.527 271.833H352.53Z" fill="#FFB979"/>
<path d="M345.552 246.843C343.951 247.69 342.084 247.707 340.74 249.017L340.757 249.126C342.662 249.853 344.262 248.016 345.614 246.934L345.552 246.843Z" fill="#FFB979"/>
<path d="M233.702 203.432C233.386 202.057 233.235 200.621 233.278 199.146C233.534 189.794 241.307 182.423 250.635 182.683C257.084 182.86 262.587 186.638 265.287 192.04C265.287 192.04 268.624 198.193 270.591 211.608C272.559 225.023 280.431 280.742 280.431 280.742C280.554 281.464 280.608 282.206 280.588 282.962C280.417 289.195 275.235 294.109 269.017 293.938C263.809 293.795 259.527 290.128 258.371 285.279C258.371 285.279 235.615 218.64 233.702 203.429V203.432Z" fill="#9E5959"/>
<path d="M275.662 247.065C276.314 251.666 276.96 256.214 277.555 260.412C271.869 261.545 258.849 263.996 255.159 263.46C252.747 263.157 252.289 265.363 252.294 267.118C250.848 262.732 249.248 257.827 247.605 252.719C252.035 250.647 268.362 248.121 275.662 247.065Z" fill="#914D4D"/>
<path d="M246.851 181.242C251.253 179.829 256.059 180.42 259.937 182.94C263.763 185.426 268.268 189.792 270.822 197.274C275.864 212.053 277.709 226.816 277.607 230.3C277.504 233.782 278.319 234.718 278.529 236.016C278.74 237.314 283.062 253.409 282.686 255.204C282.311 256.999 255.022 266.748 244.596 258.172C243.63 257.128 243.505 256.349 244.225 254.234C244.949 252.117 240.564 243.895 239.525 235.799C239.525 235.799 232.5 212.011 232.073 201.949C231.709 193.345 235.735 184.809 246.848 181.242H246.851Z" fill="#FFD693"/>
<path d="M257.693 182.221C261.548 183.048 266.679 185.403 266.895 189.966L266.727 190.054C264.939 188.807 263.855 187.42 262.513 185.833C261.138 184.452 259.49 183.277 257.639 182.403L257.696 182.221H257.693Z" fill="#FFB979"/>
<path d="M293.35 67.0995C293.35 67.0995 262.687 64.6653 259.14 100.939C255.734 135.783 281.551 167.638 307.364 163.264C315.624 161.36 322.964 143.864 326.415 116.683C329.866 89.4983 320.402 69.3054 293.35 67.1024V67.0995Z" fill="#9E5959"/>
<path d="M303.705 134.944C303.705 134.944 302.749 132.198 296.325 131.77C291.103 131.425 287.114 131.87 286.878 135.129C286.163 139.324 305.883 141.69 303.702 134.941L303.705 134.944Z" fill="#914D4D"/>
<path d="M323.371 134.17C322.947 136.83 322.415 138.85 321.438 141.57C317.93 140.671 314.451 139.044 314.704 137.549C314.923 134.53 318.713 133.965 323.368 134.167L323.371 134.17Z" fill="#914D4D"/>
<path d="M297.789 124.591C297.626 126.48 298.64 128.109 300.052 128.232C301.464 128.355 302.743 126.925 302.908 125.036C303.07 123.147 302.057 121.517 300.644 121.395C299.232 121.272 297.954 122.702 297.789 124.591Z" fill="#192B4F"/>
<path d="M315.946 125.715C315.789 127.533 316.766 129.102 318.127 129.222C319.488 129.339 320.718 127.964 320.877 126.143C321.037 124.322 320.057 122.756 318.696 122.636C317.335 122.519 316.105 123.894 315.946 125.715Z" fill="#192B4F"/>
<path d="M308.15 148.368C305.863 148.353 303.785 147.865 302.447 147.457C299.611 146.593 299.568 146.199 299.617 145.876L299.679 145.685C299.819 145.266 300.277 145.049 300.69 145.203C300.724 145.22 304.132 146.841 308.158 146.867C312.15 146.89 314.4 145.799 314.422 145.788C314.792 145.605 315.242 145.757 315.425 146.125C315.61 146.496 315.462 146.944 315.091 147.129C314.989 147.181 312.532 148.391 308.15 148.365V148.368Z" fill="#723333"/>
<path d="M306.8 152.323C308.836 152.562 310.425 152.049 310.51 152.02C310.937 151.878 311.168 151.418 311.026 150.99C310.883 150.562 310.425 150.331 309.998 150.471C309.955 150.485 307.677 151.198 305.317 150.299C304.898 150.14 304.426 150.351 304.266 150.77C304.107 151.193 304.317 151.664 304.736 151.823C305.445 152.094 306.143 152.249 306.795 152.323H306.8Z" fill="#914D4D"/>
<path d="M308.79 141.119C309.827 141.242 311.717 141.376 312.868 140.936C314.425 140.34 314.041 138.973 313.594 137.389L313.537 137.189C310.849 127.624 311.726 123.774 311.737 123.734C311.843 123.298 311.578 122.855 311.145 122.747C310.71 122.638 310.271 122.898 310.16 123.332C310.117 123.5 309.138 127.541 311.971 137.632L312.028 137.831C312.201 138.448 312.398 139.141 312.369 139.375C312.352 139.384 312.327 139.398 312.29 139.412C311.427 139.743 309.414 139.587 308.349 139.412C307.908 139.341 307.486 139.641 307.415 140.086C307.341 140.531 307.643 140.951 308.087 141.022C308.173 141.036 308.432 141.076 308.796 141.119H308.79Z" fill="#723333"/>
<path d="M305.818 115.37C305.818 115.37 307.019 115.43 306.94 116.226C306.86 117.022 306.47 118.758 305.937 118.914C305.405 119.069 299.286 118.144 296.903 117.916C294.52 117.685 290.656 117.841 290.505 117.545C290.351 117.248 292.003 115.949 294.788 115.533C297.154 115.179 302.709 114.791 305.821 115.37H305.818Z" fill="#142347"/>
<path d="M325.43 119.916C325.43 119.916 326.572 120.099 326.725 119.391C326.925 118.484 323.329 116.614 316.771 116.232C314.841 116.215 314.778 118.501 315.143 119.597C315.479 120.61 318.477 119.083 325.43 119.916Z" fill="#142347"/>
<path d="M325.908 120.347C325.908 120.347 327.235 122.065 328.294 117.782C328.294 117.782 331.896 117.168 332.067 114.363C332.067 114.363 334.971 112.251 334.014 110.011C334.014 110.011 335.575 108.792 334.749 106.923C334.749 106.923 336.722 105.225 335.526 103.487C335.526 103.487 338.752 98.7645 335.842 96.6356C335.842 96.6356 340.586 89.6269 334.962 86.6334C334.962 86.6334 336.736 82.2586 333.63 80.2839C333.63 80.2839 335.748 74.5394 330.43 71.9368C330.43 71.9368 330.748 66.5005 325.777 65.3533C325.777 65.3533 325.64 60.7417 320.695 60.8359C320.695 60.8359 320.43 57.2687 316.697 57.5142C316.697 57.5142 314.522 52.2976 309.465 53.2593C309.465 53.2593 307.552 50.1944 303.691 51.4843C303.691 51.4843 301.646 48.0513 297.569 49.6665C297.569 49.6665 294.594 46.6472 290.605 48.9787C290.605 48.9787 287.347 46.807 284.617 48.9416C284.617 48.9416 280.449 47.0125 278.478 50.1231C278.478 50.1231 275.178 48.2995 274.008 50.6282C274.008 50.6282 270.013 48.719 267.958 52.5287C267.958 52.5287 263.53 51.2731 261.645 55.1028C261.645 55.1028 256.959 54.5206 255.791 58.2647C255.791 58.2647 249.39 58.707 248.812 64.8196C248.812 64.8196 244.932 66.2807 244.718 69.4341C244.718 69.4341 241.227 70.5898 241.578 73.4607C241.578 73.4607 236.438 75.1187 236.142 81.7963C236.142 81.7963 234.323 85.1038 234.351 89.1703C234.351 89.1703 229.687 91.2421 231.715 97.6772C231.715 97.6772 226.749 99.3581 229.773 106.27C229.773 106.27 226.826 110.145 229.912 113.706C229.912 113.706 227.444 117.993 230.573 121.209C230.573 121.209 228.819 123.994 232.859 126.968C232.859 126.968 232.515 129.753 235.513 131.183C235.513 131.183 234.408 132.989 237.623 135.509C237.623 135.509 236.845 138.945 240.883 140.506C240.883 140.506 240.063 144.29 245.034 145.437C245.034 145.437 245.692 150.111 250.965 150.237C250.965 150.237 252.531 153.259 256.89 152.209C256.89 152.209 266.574 157.071 270.494 150.796C270.494 150.796 277.379 148.179 276.42 143.114C276.42 143.114 279.754 136.108 277.971 133.411C276.189 130.717 279.919 125.564 281.653 124.365C283.387 123.167 284.896 121.343 283.193 118.598C284.495 118.001 286.006 113.709 284.631 112.223C284.631 112.223 286.707 110.496 286.789 108.387C286.789 108.387 288.538 108.61 289.338 106.412C289.338 106.412 292.028 106.039 292.763 104.363C292.763 104.363 295.607 105.599 296.601 103.251C296.601 103.251 301.504 103.504 302.999 99.9802C302.999 99.9802 308.275 101.518 309.659 98.8615C309.659 98.8615 312.438 100.619 315.279 99.0299C315.279 99.0299 317.648 101.267 320.575 100.394C320.575 100.394 323.676 103.559 326.415 103.556C326.415 103.556 327.548 109.28 325.914 120.35L325.908 120.347Z" fill="#142347"/>
<path d="M285.483 127.247C285.483 127.247 285.776 116.021 279.099 115.738C272.422 115.456 272.169 124.853 276.289 131.083C278.595 134.57 285.147 139.076 285.483 127.247Z" fill="#9E5959"/>
<path d="M278.248 123.286C279.563 123.401 280.58 124.163 281.28 124.919C281.135 123.62 280.639 122.356 279.443 121.546C279.136 121.337 279.056 120.918 279.264 120.61C279.472 120.301 279.885 120.222 280.198 120.43C284.449 123.324 281.98 129.993 281.875 130.275C281.741 130.623 281.354 130.797 281.007 130.666C280.654 130.521 280.488 130.138 280.617 129.799C280.625 129.773 281.044 128.64 281.234 127.176C281.195 127.105 280.033 124.799 278.128 124.631C277.758 124.596 277.485 124.271 277.516 123.9C277.547 123.529 277.875 123.255 278.245 123.286H278.248Z" fill="#723333"/>
<path d="M333.715 341.218L413.45 299.406L472.89 306.055L472.785 309.691L402.696 354.953L333.61 344.854L333.715 341.218Z" fill="#293462"/>
<path d="M350.141 338.059L402.579 345.045L461.529 308.352L414.29 302.936L350.141 338.059Z" fill="#2E396F"/>
<path d="M359.961 343.076C360.078 343.056 360.195 343.016 360.306 342.953L426.579 304.206C427.055 303.929 427.214 303.315 426.938 302.839C426.662 302.362 426.049 302.2 425.574 302.479L359.301 341.227C358.825 341.504 358.663 342.117 358.942 342.594C359.156 342.962 359.568 343.142 359.961 343.076Z" fill="#293462"/>
<path d="M381.578 345.022C381.695 345.002 381.811 344.962 381.922 344.9L448.196 306.152C448.671 305.875 448.833 305.262 448.554 304.785C448.275 304.309 447.666 304.146 447.19 304.426L380.917 343.173C380.442 343.45 380.28 344.064 380.559 344.54C380.772 344.908 381.185 345.088 381.578 345.022Z" fill="#293462"/>
<path d="M403.234 350.319L402.696 354.953L472.785 309.69L472.89 306.055L403.234 350.319Z" fill="#212C55"/>
<path d="M402.696 354.953L333.61 344.854L333.715 341.218L403.234 350.319L402.696 354.953Z" fill="#212C55"/>
<path d="M277.314 273.237C277.314 273.237 294.659 280.674 310.442 288.168C324.217 294.709 335.825 298.316 340.782 300.65C341.725 300.975 346.742 303.247 347.433 304.06C349.503 306.489 343.387 316.822 337.291 315.509C337.291 315.509 289.642 303.404 266.733 294.506C264.484 293.972 262.374 292.748 260.76 290.85C256.719 286.108 257.277 278.982 262.01 274.932C265.819 271.671 271.371 270.395 277.314 273.232V273.237Z" fill="#9E5959"/>
<path d="M329.481 313.477C329.481 313.477 334.285 314.199 339.666 317.301C342.428 318.894 350.961 320.295 353.68 320.375C356.4 320.455 362.797 322.461 363.996 322.798C365.198 323.137 367.424 329.769 369.104 330.931C370.784 332.092 370.588 328.448 370.044 326.308C369.5 324.17 368.472 321.411 368.281 321C368.09 320.589 363.35 317.219 363.35 317.219C363.35 317.219 368.441 318.985 370.138 319.638C371.832 320.295 372.831 324.164 373.589 325.802C374.349 327.44 375.696 329.604 376.709 329.43C377.723 329.258 377.541 325.109 377.541 325.109C377.541 325.109 379.257 328.494 380.365 328.528C381.473 328.559 381.894 324.53 381.552 322.398C381.552 322.398 383.261 322.649 383.884 321.961C384.511 321.271 382.95 315.869 382.122 313.218C381.29 310.567 372.7 304.251 369.349 301.626C365.998 299 352.043 305.986 336.918 298.978C321.794 291.969 314.906 308.304 329.481 313.477Z" fill="#9E5959"/>
<path d="M381.555 322.398C380.846 319.476 380.274 316.502 379.283 313.657C377.535 311.08 374.807 309.362 372.116 307.958C371.336 307.633 370.459 307.042 369.648 306.979C370.795 308.241 372.279 309.248 373.62 310.315C375.083 311.468 376.792 312.35 378.096 313.674C378.947 314.824 379.203 316.288 379.764 317.598C380.445 319.031 380.772 321.399 381.558 322.398H381.555Z" fill="#723333"/>
<path d="M377.543 325.112C376.849 322.475 376.222 319.804 375.311 317.23C373.765 314.564 370.881 312.998 368.122 311.939C367.356 311.716 366.453 311.257 365.687 311.317C366.894 312.376 368.372 313.172 369.708 314.068C371.345 315.204 373.469 315.96 374.505 317.735C375.63 320.009 376.382 323.245 377.543 325.109V325.112Z" fill="#723333"/>
<path d="M385.815 288.074C385.815 288.074 389.348 290.682 390.413 292.64C391.481 294.597 394.075 299.426 395.268 301.238C396.461 303.053 401.489 310.156 402.337 310.775C403.186 311.397 404.171 307.824 403.775 305.824C403.38 303.823 401.691 300.559 400.917 298.986C400.142 297.414 400.051 295.936 400.803 295.08C401.557 294.221 409.726 297.751 411.395 298.59C413.063 299.429 416.058 308.415 417.493 309.811C418.929 311.206 420.292 309.362 419.637 307.513C419.637 307.513 422.903 311.237 422.149 304.654C422.149 304.654 424.33 305.056 423.285 301.341C423.285 301.341 424.802 302.168 424.623 299.332C424.424 296.19 423.772 292.283 421.09 287.409C418.667 283.006 404.931 281.587 395.92 275.415C386.908 269.239 374.901 281.613 385.815 288.071V288.074Z" fill="#9E5959"/>
<path d="M419.703 307.493C418.909 304.114 417.921 300.599 417.072 297.231C416.526 295.222 413.211 293.099 411.503 292.934C412.867 294.54 414.792 295.782 415.839 297.585C416.537 299.363 417.331 301.672 418.015 303.464C418.536 304.819 419.04 306.183 419.575 307.533C419.601 307.605 419.723 307.573 419.7 307.493H419.703Z" fill="#723333"/>
<path d="M422.214 304.636C421.497 301.409 420.953 298.027 419.797 294.917C418.576 292.939 416.443 290.642 414.481 289.9C415.694 292.034 417.38 293.815 418.875 295.719C419.996 298.304 421.098 301.994 422.086 304.671C422.109 304.742 422.234 304.716 422.214 304.636Z" fill="#723333"/>
<path d="M423.353 301.326C422.787 298.484 422.268 295.433 421.514 292.637C420.691 290.893 419.088 288.707 417.491 288.034C418.251 289.986 419.387 291.627 420.483 293.342C420.996 294.649 421.528 296.543 422.006 297.873C422.414 299.035 422.801 300.199 423.225 301.361C423.248 301.432 423.37 301.406 423.353 301.326Z" fill="#723333"/>
<path d="M494.011 252.294L432.408 283.248L399.206 349.791L403.235 350.319L472.89 306.055L497.024 252.788L494.011 252.294Z" fill="#2E396F"/>
<path d="M494.011 252.294L469.06 264.83C469.049 274.407 464.792 307.008 410.634 331.533L407.286 333.587L399.203 349.791L403.232 350.319L472.887 306.055L497.021 252.785L494.008 252.294H494.011Z" fill="#293462"/>
<path d="M494.011 252.294L432.408 283.248L399.206 349.791L403.235 350.319L434.774 285.137L497.024 252.788L494.011 252.294Z" fill="#34427D"/>
<defs>
<radialGradient id="paint0_radial_282_2" cx="0" cy="0" r="1" gradientUnits="userSpaceOnUse" gradientTransform="translate(287 302.5) rotate(90) scale(302.5 287)">
<stop offset="0.225" stop-color="white"/>
<stop offset="0.81" stop-color="white" stop-opacity="0.535484"/>
<stop offset="1" stop-color="white" stop-opacity="0"/>
</radialGradient>
</defs>
</svg>
