<svg width="552" height="55" viewBox="0 0 552 55" fill="none" xmlns="http://www.w3.org/2000/svg">
<path d="M24.7275 5.0918C25.6176 2.35255 29.4928 2.35254 30.3828 5.0918L34.5166 17.8135C34.5431 17.8951 34.6192 17.9502 34.7051 17.9502H48.082C50.9621 17.9504 52.1592 21.6362 49.8291 23.3291L39.0078 31.1914C38.9384 31.2418 38.9092 31.3315 38.9355 31.4131L43.0693 44.1357C43.959 46.8747 40.8242 49.1523 38.4941 47.46L27.6719 39.5967C27.6024 39.5462 27.5079 39.5462 27.4385 39.5967L16.6172 47.46C14.2871 49.1528 11.1514 46.8748 12.041 44.1357L16.1748 31.4131C16.2012 31.3315 16.1728 31.2418 16.1035 31.1914L5.28125 23.3291C2.9512 21.6362 4.14832 17.9505 7.02832 17.9502H20.4053C20.4911 17.9502 20.5672 17.8951 20.5938 17.8135L24.7275 5.0918Z" fill="#C7F18D" stroke="white" stroke-width="2.775"/>
<path d="M149.125 5.0918C150.015 2.35255 153.89 2.35254 154.78 5.0918L158.914 17.8135C158.941 17.8951 159.017 17.9502 159.103 17.9502H172.479C175.36 17.9504 176.557 21.6362 174.227 23.3291L163.405 31.1914C163.336 31.2418 163.307 31.3315 163.333 31.4131L167.467 44.1357C168.356 46.8747 165.222 49.1523 162.892 47.46L152.069 39.5967C152 39.5462 151.905 39.5462 151.836 39.5967L141.015 47.46C138.685 49.1528 135.549 46.8748 136.438 44.1357L140.572 31.4131C140.599 31.3315 140.57 31.2418 140.501 31.1914L129.679 23.3291C127.349 21.6362 128.546 17.9505 131.426 17.9502H144.803C144.889 17.9502 144.965 17.8951 144.991 17.8135L149.125 5.0918Z" fill="#C7F18D" stroke="white" stroke-width="2.775"/>
<path d="M273.523 5.0918C274.413 2.35255 278.288 2.35254 279.178 5.0918L283.312 17.8135C283.339 17.8951 283.415 17.9502 283.5 17.9502H296.877C299.757 17.9504 300.955 21.6362 298.625 23.3291L287.803 31.1914C287.734 31.2418 287.705 31.3315 287.731 31.4131L291.865 44.1357C292.754 46.8747 289.62 49.1523 287.29 47.46L276.467 39.5967C276.398 39.5462 276.303 39.5462 276.234 39.5967L265.413 47.46C263.083 49.1528 259.947 46.8748 260.836 44.1357L264.97 31.4131C264.997 31.3315 264.968 31.2418 264.899 31.1914L254.077 23.3291C251.747 21.6362 252.944 17.9505 255.824 17.9502H269.201C269.287 17.9502 269.363 17.8951 269.389 17.8135L273.523 5.0918Z" fill="#C7F18D" stroke="white" stroke-width="2.775"/>
<path d="M397.92 5.0918C398.81 2.35255 402.686 2.35254 403.576 5.0918L407.709 17.8135C407.736 17.8951 407.812 17.9502 407.898 17.9502H421.275C424.155 17.9504 425.352 21.6362 423.022 23.3291L412.201 31.1914C412.131 31.2418 412.102 31.3315 412.128 31.4131L416.262 44.1357C417.152 46.8747 414.017 49.1523 411.687 47.46L400.865 39.5967C400.795 39.5462 400.701 39.5462 400.631 39.5967L389.81 47.46C387.48 49.1528 384.344 46.8748 385.234 44.1357L389.368 31.4131C389.394 31.3315 389.366 31.2418 389.296 31.1914L378.474 23.3291C376.144 21.6362 377.341 17.9505 380.221 17.9502H393.598C393.684 17.9502 393.76 17.8951 393.787 17.8135L397.92 5.0918Z" fill="#C7F18D" stroke="white" stroke-width="2.775"/>
<path d="M522.318 5.0918C523.208 2.35255 527.083 2.35254 527.973 5.0918L532.107 17.8135C532.133 17.8951 532.21 17.9502 532.295 17.9502H545.672C548.552 17.9504 549.75 21.6362 547.419 23.3291L536.598 31.1914C536.529 31.2418 536.5 31.3315 536.526 31.4131L540.66 44.1357C541.549 46.8747 538.414 49.1523 536.084 47.46L525.262 39.5967C525.193 39.5462 525.098 39.5462 525.029 39.5967L514.208 47.46C511.877 49.1528 508.742 46.8748 509.631 44.1357L513.765 31.4131C513.792 31.3315 513.763 31.2418 513.694 31.1914L502.872 23.3291C500.542 21.6362 501.739 17.9505 504.619 17.9502H517.996C518.081 17.9502 518.158 17.8951 518.184 17.8135L522.318 5.0918Z" fill="#C7F18D" stroke="white" stroke-width="2.775"/>
</svg>
