<svg width="353" height="281" viewBox="0 0 353 281" fill="none" xmlns="http://www.w3.org/2000/svg">
<g filter="url(#filter0_d_134_7148)">
<circle cx="193.999" cy="235" r="7" fill="white"/>
</g>
<g filter="url(#filter1_d_134_7148)">
<circle cx="184.999" cy="254" r="5" fill="white"/>
</g>
<g filter="url(#filter2_d_134_7148)">
<circle cx="175.999" cy="268" r="3" fill="white"/>
</g>
<g filter="url(#filter3_d_134_7148)">
<path d="M322.415 48.852C350.999 90.0002 352.833 154.352 318.415 185.352C283.996 216.352 208.332 216.352 165.915 216.352H165.915C104.914 216.352 33.4151 199.352 18.4151 148.352C-1.87906 79.352 7.4931 41.2039 64.9961 17.8521C122.499 -5.49976 293.83 7.7038 322.415 48.852Z" fill="white"/>
</g>
<path d="M61.3598 77H57.8398V54.024H61.3598V63.624H73.0078V54.024H76.5278V77H73.0078V66.696H61.3598V77ZM88.3753 77.32C83.5753 77.32 80.0553 73.544 80.0553 68.52C80.0553 63.496 83.5753 59.72 88.3753 59.72C93.1753 59.72 96.6953 63.496 96.6953 68.52C96.6953 73.544 93.1753 77.32 88.3753 77.32ZM88.3753 74.472C91.1593 74.472 93.3673 72.232 93.3673 68.52C93.3673 64.808 91.1593 62.6 88.3753 62.6C85.5913 62.6 83.4153 64.808 83.4153 68.52C83.4153 72.232 85.5913 74.472 88.3753 74.472ZM104.289 77H101.057V62.792H97.3133V60.04H101.057V58.792C101.057 55.528 102.817 53.736 106.017 53.736C106.977 53.736 107.745 53.896 108.385 54.152V56.776C107.873 56.552 107.297 56.488 106.721 56.488C105.185 56.488 104.289 57.192 104.289 58.824V60.04H109.025V62.792H104.289V77ZM117.196 77H113.964V62.792H110.22V60.04H113.964V58.792C113.964 55.528 115.724 53.736 118.924 53.736C119.884 53.736 120.652 53.896 121.292 54.152V56.776C120.78 56.552 120.204 56.488 119.628 56.488C118.092 56.488 117.196 57.192 117.196 58.824V60.04H121.932V62.792H117.196V77ZM130.904 77.32C126.008 77.32 122.712 73.768 122.712 68.424C122.712 63.4 126.136 59.72 130.808 59.72C135.864 59.72 139.224 63.816 138.648 69.32H126.008C126.264 72.776 127.992 74.792 130.84 74.792C133.24 74.792 134.904 73.48 135.448 71.272H138.648C137.816 75.048 134.904 77.32 130.904 77.32ZM130.744 62.152C128.152 62.152 126.391 64.008 126.04 67.176H135.224C135.064 64.04 133.368 62.152 130.744 62.152ZM145.316 67.432V77H142.084V60.04H145.092V62.856C146.244 60.968 148.164 59.72 150.5 59.72C153.988 59.72 156.292 61.96 156.292 66.024V77H153.06V67.112C153.06 64.2 151.78 62.568 149.38 62.568C147.172 62.568 145.316 64.424 145.316 67.432ZM170.089 73.864V76.712C169.097 77.16 168.233 77.32 167.209 77.32C164.073 77.32 161.897 75.624 161.897 71.88V62.792H158.153V60.04H161.897V55.016H165.129V60.04H170.249V62.792H165.129V71.144C165.129 73.48 166.249 74.312 167.977 74.312C168.745 74.312 169.417 74.184 170.089 73.864ZM176.598 77H173.334V54.024H176.598V77ZM185.02 56.104C185.02 57.32 184.06 58.248 182.684 58.248C181.308 58.248 180.316 57.32 180.316 56.104C180.316 54.856 181.308 53.96 182.684 53.96C184.06 53.96 185.02 54.856 185.02 56.104ZM184.316 77H181.084V60.04H184.316V77ZM195.491 77.352C190.851 77.352 187.587 73.704 187.587 68.52C187.587 63.4 190.915 59.72 195.491 59.72C199.683 59.72 202.722 62.504 203.331 66.92H199.939C199.587 64.2 197.891 62.568 195.523 62.568C192.739 62.568 190.915 64.936 190.915 68.52C190.915 72.136 192.739 74.472 195.523 74.472C197.923 74.472 199.587 72.872 199.971 70.12H203.331C202.755 74.6 199.747 77.352 195.491 77.352ZM209.816 67.432V77H206.584V54.024H209.816V62.76C210.936 60.936 212.664 59.72 215 59.72C218.488 59.72 220.792 61.96 220.792 66.024V77H217.56V67.112C217.56 64.2 216.28 62.568 213.88 62.568C211.672 62.568 209.816 64.424 209.816 67.432ZM235.003 77H231.771V54.024H235.003V67.624L242.267 60.04H246.075L238.235 68.264L246.811 77H242.651L235.003 68.968V77ZM258.887 77V74.376C257.831 76.264 255.943 77.32 253.447 77.32C249.927 77.32 247.623 75.304 247.623 72.2C247.623 68.872 250.279 67.144 255.335 67.144C256.327 67.144 257.127 67.176 258.503 67.336V66.088C258.503 63.656 257.191 62.28 254.951 62.28C252.583 62.28 251.143 63.688 251.047 66.056H248.103C248.263 62.248 250.983 59.72 254.951 59.72C259.143 59.72 261.575 62.088 261.575 66.12V77H258.887ZM250.695 72.104C250.695 73.864 252.007 75.016 254.087 75.016C256.807 75.016 258.503 73.32 258.503 70.728V69.352C257.255 69.192 256.359 69.16 255.527 69.16C252.295 69.16 250.695 70.12 250.695 72.104ZM269.128 67.432V77H265.896V60.04H268.904V62.856C270.056 60.968 271.976 59.72 274.312 59.72C277.8 59.72 280.104 61.96 280.104 66.024V77H276.872V67.112C276.872 64.2 275.592 62.568 273.192 62.568C270.984 62.568 269.128 64.424 269.128 67.432ZM287.628 67.432V77H284.396V60.04H287.404V62.856C288.556 60.968 290.476 59.72 292.812 59.72C296.3 59.72 298.604 61.96 298.604 66.024V77H295.372V67.112C295.372 64.2 294.092 62.568 291.692 62.568C289.484 62.568 287.628 64.424 287.628 67.432ZM48.301 96.104C48.301 97.32 47.341 98.248 45.965 98.248C44.589 98.248 43.597 97.32 43.597 96.104C43.597 94.856 44.589 93.96 45.965 93.96C47.341 93.96 48.301 94.856 48.301 96.104ZM47.597 117H44.365V100.04H47.597V117ZM58.7718 117.352C54.1318 117.352 50.8678 113.704 50.8678 108.52C50.8678 103.4 54.1958 99.72 58.7718 99.72C62.9638 99.72 66.0037 102.504 66.6118 106.92H63.2198C62.8678 104.2 61.1718 102.568 58.8038 102.568C56.0198 102.568 54.1958 104.936 54.1958 108.52C54.1958 112.136 56.0198 114.472 58.8038 114.472C61.2038 114.472 62.8678 112.872 63.2518 110.12H66.6118C66.0358 114.6 63.0278 117.352 58.7718 117.352ZM73.097 107.432V117H69.865V94.024H73.097V102.76C74.217 100.936 75.945 99.72 78.281 99.72C81.769 99.72 84.073 101.96 84.073 106.024V117H80.841V107.112C80.841 104.2 79.561 102.568 77.161 102.568C74.953 102.568 73.097 104.424 73.097 107.432ZM105.645 110.024V100.04H108.877V117H105.869V114.312C104.973 116.072 102.989 117.32 100.685 117.32C97.2605 117.32 94.8925 115.304 94.8925 110.952V100.04H98.1245V110.312C98.1245 113.256 99.5965 114.472 101.709 114.472C103.885 114.472 105.645 112.68 105.645 110.024ZM116.597 117H113.365V100.04H116.373V102.856C117.525 100.904 119.349 99.72 121.685 99.72C124.181 99.72 126.069 101 126.837 103.24C128.021 101.064 129.973 99.72 132.565 99.72C136.053 99.72 138.293 101.992 138.293 106.024V117H135.061V107.048C135.061 104.232 133.813 102.568 131.445 102.568C129.237 102.568 127.445 104.424 127.445 107.272V117H124.213V107.048C124.213 104.232 122.965 102.568 120.597 102.568C118.357 102.568 116.597 104.424 116.597 107.272V117ZM156.055 111.944C156.055 115.272 153.463 117.32 148.951 117.32C144.471 117.32 141.815 115.112 141.495 111.464H144.599C144.727 113.576 146.423 114.888 149.015 114.888C151.287 114.888 152.791 114.088 152.791 112.488C152.791 111.08 151.927 110.472 149.815 110.056L147.063 109.544C143.927 108.936 142.167 107.336 142.167 104.776C142.167 101.8 144.759 99.72 148.695 99.72C152.759 99.72 155.511 101.896 155.799 105.384H152.695C152.503 103.336 150.999 102.152 148.727 102.152C146.679 102.152 145.303 103.016 145.303 104.488C145.303 105.864 146.167 106.504 148.215 106.888L151.095 107.432C154.455 108.04 156.055 109.512 156.055 111.944ZM168.933 113.864V116.712C167.941 117.16 167.077 117.32 166.053 117.32C162.917 117.32 160.741 115.624 160.741 111.88V102.792H156.997V100.04H160.741V95.016H163.973V100.04H169.093V102.792H163.973V111.144C163.973 113.48 165.093 114.312 166.821 114.312C167.589 114.312 168.261 114.184 168.933 113.864ZM178.685 117.32C173.789 117.32 170.493 113.768 170.493 108.424C170.493 103.4 173.917 99.72 178.589 99.72C183.645 99.72 187.005 103.816 186.429 109.32H173.789C174.045 112.776 175.773 114.792 178.621 114.792C181.021 114.792 182.685 113.48 183.229 111.272H186.429C185.597 115.048 182.685 117.32 178.685 117.32ZM178.525 102.152C175.933 102.152 174.173 104.008 173.821 107.176H183.005C182.845 104.04 181.149 102.152 178.525 102.152ZM193.801 96.104C193.801 97.32 192.841 98.248 191.465 98.248C190.089 98.248 189.097 97.32 189.097 96.104C189.097 94.856 190.089 93.96 191.465 93.96C192.841 93.96 193.801 94.856 193.801 96.104ZM193.097 117H189.865V100.04H193.097V117ZM204.368 123.528C199.92 123.528 197.04 121.16 196.848 117.32H199.984C200.176 119.688 201.712 120.968 204.336 120.968C207.248 120.968 208.784 119.4 208.784 116.488V113.416C207.824 115.464 205.904 116.648 203.6 116.648C199.376 116.648 196.368 113.16 196.368 108.168C196.368 103.112 199.248 99.72 203.504 99.72C205.936 99.72 207.856 100.904 209.008 103.048V100.04H212.016V116.424C212.016 120.872 209.168 123.528 204.368 123.528ZM199.632 108.168C199.632 111.688 201.36 113.832 204.176 113.832C206.928 113.832 208.784 111.624 208.784 108.264C208.784 104.744 206.96 102.504 204.176 102.504C201.392 102.504 199.632 104.68 199.632 108.168ZM223.466 117.32C218.57 117.32 215.274 113.768 215.274 108.424C215.274 103.4 218.698 99.72 223.37 99.72C228.426 99.72 231.786 103.816 231.21 109.32H218.57C218.826 112.776 220.554 114.792 223.402 114.792C225.802 114.792 227.466 113.48 228.01 111.272H231.21C230.378 115.048 227.466 117.32 223.466 117.32ZM223.306 102.152C220.714 102.152 218.954 104.008 218.602 107.176H227.786C227.626 104.04 225.93 102.152 223.306 102.152ZM237.878 107.432V117H234.646V100.04H237.654V102.856C238.806 100.968 240.726 99.72 243.062 99.72C246.55 99.72 248.854 101.96 248.854 106.024V117H245.622V107.112C245.622 104.2 244.342 102.568 241.942 102.568C239.734 102.568 237.878 104.424 237.878 107.432ZM270.426 110.024V100.04H273.658V117H270.65V114.312C269.754 116.072 267.77 117.32 265.466 117.32C262.042 117.32 259.674 115.304 259.674 110.952V100.04H262.906V110.312C262.906 113.256 264.378 114.472 266.49 114.472C268.666 114.472 270.426 112.68 270.426 110.024ZM281.378 107.432V117H278.146V100.04H281.154V102.856C282.306 100.968 284.226 99.72 286.562 99.72C290.05 99.72 292.354 101.96 292.354 106.024V117H289.122V107.112C289.122 104.2 287.842 102.568 285.442 102.568C283.234 102.568 281.378 104.424 281.378 107.432ZM295.43 108.52C295.43 103.368 298.374 99.72 302.95 99.72C305.222 99.72 307.206 100.872 308.39 102.952V94.024H311.622V117H308.614V113.96C307.398 116.104 305.35 117.32 302.95 117.32C298.374 117.32 295.43 113.608 295.43 108.52ZM298.79 108.52C298.79 112.296 300.774 114.44 303.59 114.44C306.342 114.44 308.39 112.2 308.39 108.456C308.39 104.648 306.278 102.568 303.59 102.568C300.774 102.568 298.79 104.68 298.79 108.52ZM60.0189 147.432V157H56.7869V140.04H59.7949V142.856C60.9469 140.968 62.8669 139.72 65.2029 139.72C68.6909 139.72 70.9949 141.96 70.9949 146.024V157H67.7629V147.112C67.7629 144.2 66.4829 142.568 64.0829 142.568C61.8749 142.568 60.0189 144.424 60.0189 147.432ZM87.0629 136.104C87.0629 137.32 86.1349 138.248 84.8549 138.248C83.5429 138.248 82.6149 137.32 82.6149 136.104C82.6149 134.824 83.5429 133.96 84.8549 133.96C86.1349 133.96 87.0629 134.824 87.0629 136.104ZM80.7269 136.104C80.7269 137.32 79.7989 138.248 78.4869 138.248C77.2069 138.248 76.2469 137.32 76.2469 136.104C76.2469 134.824 77.2069 133.96 78.4869 133.96C79.7989 133.96 80.7269 134.824 80.7269 136.104ZM85.5589 157V154.376C84.5029 156.264 82.6149 157.32 80.1189 157.32C76.5989 157.32 74.2949 155.304 74.2949 152.2C74.2949 148.872 76.9509 147.144 82.0069 147.144C82.9989 147.144 83.7989 147.176 85.1749 147.336V146.088C85.1749 143.656 83.8629 142.28 81.6229 142.28C79.2549 142.28 77.8149 143.688 77.7189 146.056H74.7749C74.9349 142.248 77.6549 139.72 81.6229 139.72C85.8149 139.72 88.2469 142.088 88.2469 146.12V157H85.5589ZM77.3669 152.104C77.3669 153.864 78.6789 155.016 80.7589 155.016C83.4789 155.016 85.1749 153.32 85.1749 150.728V149.352C83.9269 149.192 83.0309 149.16 82.1989 149.16C78.9669 149.16 77.3669 150.12 77.3669 152.104ZM95.8001 147.432V157H92.5681V134.024H95.8001V142.76C96.9201 140.936 98.6481 139.72 100.984 139.72C104.472 139.72 106.776 141.96 106.776 146.024V157H103.544V147.112C103.544 144.2 102.264 142.568 99.8641 142.568C97.6561 142.568 95.8001 144.424 95.8001 147.432ZM118.044 157.32C113.148 157.32 109.852 153.768 109.852 148.424C109.852 143.4 113.276 139.72 117.948 139.72C123.004 139.72 126.364 143.816 125.788 149.32H113.148C113.404 152.776 115.132 154.792 117.98 154.792C120.38 154.792 122.044 153.48 122.588 151.272H125.788C124.956 155.048 122.044 157.32 118.044 157.32ZM117.884 142.152C115.292 142.152 113.532 144.008 113.18 147.176H122.364C122.204 144.04 120.508 142.152 117.884 142.152ZM132.456 148.328V157H129.224V140.04H132.232V143.624C133.416 141.288 135.976 139.816 138.76 139.816V143.176C135.112 142.984 132.456 144.584 132.456 148.328ZM151.238 147.432V157H148.006V134.024H151.238V142.76C152.358 140.936 154.086 139.72 156.422 139.72C159.91 139.72 162.214 141.96 162.214 146.024V157H158.982V147.112C158.982 144.2 157.702 142.568 155.302 142.568C153.094 142.568 151.238 144.424 151.238 147.432ZM170.442 136.104C170.442 137.32 169.482 138.248 168.106 138.248C166.73 138.248 165.738 137.32 165.738 136.104C165.738 134.856 166.73 133.96 168.106 133.96C169.482 133.96 170.442 134.856 170.442 136.104ZM169.738 157H166.506V140.04H169.738V157ZM177.456 147.432V157H174.224V140.04H177.232V142.856C178.384 140.968 180.304 139.72 182.64 139.72C186.128 139.72 188.432 141.96 188.432 146.024V157H185.2V147.112C185.2 144.2 183.92 142.568 181.52 142.568C179.312 142.568 177.456 144.424 177.456 147.432ZM204.18 157H200.948V142.792H197.204V140.04H200.948V138.792C200.948 135.528 202.708 133.736 205.908 133.736C206.868 133.736 207.636 133.896 208.276 134.152V136.776C207.764 136.552 207.188 136.488 206.612 136.488C205.076 136.488 204.18 137.192 204.18 138.824V140.04H208.916V142.792H204.18V157ZM221.184 157V154.376C220.128 156.264 218.24 157.32 215.744 157.32C212.224 157.32 209.92 155.304 209.92 152.2C209.92 148.872 212.576 147.144 217.632 147.144C218.624 147.144 219.424 147.176 220.8 147.336V146.088C220.8 143.656 219.488 142.28 217.248 142.28C214.88 142.28 213.44 143.688 213.344 146.056H210.4C210.56 142.248 213.28 139.72 217.248 139.72C221.44 139.72 223.872 142.088 223.872 146.12V157H221.184ZM212.992 152.104C212.992 153.864 214.304 155.016 216.384 155.016C219.104 155.016 220.8 153.32 220.8 150.728V149.352C219.552 149.192 218.656 149.16 217.824 149.16C214.592 149.16 212.992 150.12 212.992 152.104ZM231.425 147.432V157H228.193V134.024H231.425V142.76C232.545 140.936 234.273 139.72 236.609 139.72C240.097 139.72 242.401 141.96 242.401 146.024V157H239.169V147.112C239.169 144.2 237.889 142.568 235.489 142.568C233.281 142.568 231.425 144.424 231.425 147.432ZM249.925 148.328V157H246.693V140.04H249.701V143.624C250.885 141.288 253.445 139.816 256.229 139.816V143.176C252.581 142.984 249.925 144.584 249.925 148.328ZM265.7 157.32C260.804 157.32 257.508 153.768 257.508 148.424C257.508 143.4 260.932 139.72 265.604 139.72C270.66 139.72 274.02 143.816 273.444 149.32H260.804C261.06 152.776 262.788 154.792 265.636 154.792C268.036 154.792 269.7 153.48 270.244 151.272H273.444C272.612 155.048 269.7 157.32 265.7 157.32ZM265.54 142.152C262.948 142.152 261.188 144.008 260.836 147.176H270.02C269.86 144.04 268.164 142.152 265.54 142.152ZM280.113 147.432V157H276.881V140.04H279.889V142.856C281.041 140.968 282.961 139.72 285.297 139.72C288.785 139.72 291.089 141.96 291.089 146.024V157H287.857V147.112C287.857 144.2 286.577 142.568 284.177 142.568C281.969 142.568 280.113 144.424 280.113 147.432ZM299.765 154.696C299.765 156.136 298.773 157.16 297.301 157.16C295.861 157.16 294.837 156.136 294.837 154.696C294.837 153.192 295.861 152.168 297.301 152.168C298.773 152.168 299.765 153.192 299.765 154.696Z" fill="black"/>
<defs>
<filter id="filter0_d_134_7148" x="178.999" y="222" width="30" height="30" filterUnits="userSpaceOnUse" color-interpolation-filters="sRGB">
<feFlood flood-opacity="0" result="BackgroundImageFix"/>
<feColorMatrix in="SourceAlpha" type="matrix" values="0 0 0 0 0 0 0 0 0 0 0 0 0 0 0 0 0 0 127 0" result="hardAlpha"/>
<feOffset dy="2"/>
<feGaussianBlur stdDeviation="4"/>
<feComposite in2="hardAlpha" operator="out"/>
<feColorMatrix type="matrix" values="0 0 0 0 0 0 0 0 0 0 0 0 0 0 0 0 0 0 0.5 0"/>
<feBlend mode="normal" in2="BackgroundImageFix" result="effect1_dropShadow_134_7148"/>
<feBlend mode="normal" in="SourceGraphic" in2="effect1_dropShadow_134_7148" result="shape"/>
</filter>
<filter id="filter1_d_134_7148" x="171.999" y="243" width="26" height="26" filterUnits="userSpaceOnUse" color-interpolation-filters="sRGB">
<feFlood flood-opacity="0" result="BackgroundImageFix"/>
<feColorMatrix in="SourceAlpha" type="matrix" values="0 0 0 0 0 0 0 0 0 0 0 0 0 0 0 0 0 0 127 0" result="hardAlpha"/>
<feOffset dy="2"/>
<feGaussianBlur stdDeviation="4"/>
<feComposite in2="hardAlpha" operator="out"/>
<feColorMatrix type="matrix" values="0 0 0 0 0 0 0 0 0 0 0 0 0 0 0 0 0 0 0.5 0"/>
<feBlend mode="normal" in2="BackgroundImageFix" result="effect1_dropShadow_134_7148"/>
<feBlend mode="normal" in="SourceGraphic" in2="effect1_dropShadow_134_7148" result="shape"/>
</filter>
<filter id="filter2_d_134_7148" x="164.999" y="259" width="22" height="22" filterUnits="userSpaceOnUse" color-interpolation-filters="sRGB">
<feFlood flood-opacity="0" result="BackgroundImageFix"/>
<feColorMatrix in="SourceAlpha" type="matrix" values="0 0 0 0 0 0 0 0 0 0 0 0 0 0 0 0 0 0 127 0" result="hardAlpha"/>
<feOffset dy="2"/>
<feGaussianBlur stdDeviation="4"/>
<feComposite in2="hardAlpha" operator="out"/>
<feColorMatrix type="matrix" values="0 0 0 0 0 0 0 0 0 0 0 0 0 0 0 0 0 0 0.5 0"/>
<feBlend mode="normal" in2="BackgroundImageFix" result="effect1_dropShadow_134_7148"/>
<feBlend mode="normal" in="SourceGraphic" in2="effect1_dropShadow_134_7148" result="shape"/>
</filter>
<filter id="filter3_d_134_7148" x="0.644531" y="0.366211" width="351.403" height="225.986" filterUnits="userSpaceOnUse" color-interpolation-filters="sRGB">
<feFlood flood-opacity="0" result="BackgroundImageFix"/>
<feColorMatrix in="SourceAlpha" type="matrix" values="0 0 0 0 0 0 0 0 0 0 0 0 0 0 0 0 0 0 127 0" result="hardAlpha"/>
<feOffset dy="2"/>
<feGaussianBlur stdDeviation="4"/>
<feComposite in2="hardAlpha" operator="out"/>
<feColorMatrix type="matrix" values="0 0 0 0 0 0 0 0 0 0 0 0 0 0 0 0 0 0 0.5 0"/>
<feBlend mode="normal" in2="BackgroundImageFix" result="effect1_dropShadow_134_7148"/>
<feBlend mode="normal" in="SourceGraphic" in2="effect1_dropShadow_134_7148" result="shape"/>
</filter>
</defs>
</svg>
