<svg width="353" height="281" viewBox="0 0 353 281" fill="none" xmlns="http://www.w3.org/2000/svg">
<g filter="url(#filter0_d_134_5898)">
<circle cx="193.999" cy="235" r="7" fill="white"/>
</g>
<g filter="url(#filter1_d_134_5898)">
<circle cx="184.999" cy="254" r="5" fill="white"/>
</g>
<g filter="url(#filter2_d_134_5898)">
<circle cx="175.999" cy="268" r="3" fill="white"/>
</g>
<g filter="url(#filter3_d_134_5898)">
<path d="M322.415 48.8519C350.999 90.0001 352.833 154.352 318.415 185.352C283.996 216.352 208.332 216.352 165.915 216.352H165.915C104.914 216.352 33.4151 199.352 18.4151 148.352C-1.87906 79.3519 7.4931 41.2037 64.9961 17.8519C122.499 -5.49988 293.83 7.70367 322.415 48.8519Z" fill="white"/>
</g>
<path d="M80.1869 77.0001H76.6669V54.0241H80.1869V64.6481L89.9149 54.0241H93.9789L83.7389 65.2881L94.2349 77.0001H89.8189L80.1869 66.3441V77.0001ZM102.324 77.3201C97.4284 77.3201 94.1324 73.7681 94.1324 68.4241C94.1324 63.4001 97.5564 59.7201 102.228 59.7201C107.284 59.7201 110.644 63.8161 110.068 69.3201H97.4284C97.6844 72.7761 99.4124 74.7921 102.26 74.7921C104.66 74.7921 106.324 73.4801 106.868 71.2721H110.068C109.236 75.0481 106.324 77.3201 102.324 77.3201ZM102.164 62.1521C99.5724 62.1521 97.8124 64.0081 97.4604 67.1761H106.644C106.484 64.0401 104.788 62.1521 102.164 62.1521ZM117.441 56.1041C117.441 57.3201 116.481 58.2481 115.105 58.2481C113.729 58.2481 112.737 57.3201 112.737 56.1041C112.737 54.8561 113.729 53.9601 115.105 53.9601C116.481 53.9601 117.441 54.8561 117.441 56.1041ZM116.737 77.0001H113.505V60.0401H116.737V77.0001ZM124.455 67.4321V77.0001H121.223V60.0401H124.231V62.8561C125.383 60.9681 127.303 59.7201 129.639 59.7201C133.127 59.7201 135.431 61.9601 135.431 66.0241V77.0001H132.199V67.1121C132.199 64.2001 130.919 62.5681 128.519 62.5681C126.311 62.5681 124.455 64.4241 124.455 67.4321ZM154.635 69.0001H150.187V77.0001H146.667V54.0241H154.635C159.787 54.0241 163.115 56.6481 163.115 61.4481C163.115 66.2801 159.787 69.0001 154.635 69.0001ZM154.603 57.0001H150.187V66.0241H154.603C157.707 66.0241 159.595 64.3281 159.595 61.4801C159.595 58.6321 157.707 57.0001 154.603 57.0001ZM169.612 68.3281V77.0001H166.38V60.0401H169.388V63.6241C170.572 61.2881 173.132 59.8161 175.916 59.8161V63.1761C172.268 62.9841 169.612 64.5841 169.612 68.3281ZM185.515 77.3201C180.715 77.3201 177.195 73.5441 177.195 68.5201C177.195 63.4961 180.715 59.7201 185.515 59.7201C190.315 59.7201 193.835 63.4961 193.835 68.5201C193.835 73.5441 190.315 77.3201 185.515 77.3201ZM185.515 74.4721C188.299 74.4721 190.507 72.2321 190.507 68.5201C190.507 64.8081 188.299 62.6001 185.515 62.6001C182.731 62.6001 180.555 64.8081 180.555 68.5201C180.555 72.2321 182.731 74.4721 185.515 74.4721ZM213.322 68.5201C213.322 73.6081 210.378 77.3201 205.802 77.3201C203.402 77.3201 201.354 76.1041 200.138 73.9601V77.0001H197.13V54.0241H200.362V62.9521C201.546 60.8721 203.498 59.7201 205.802 59.7201C210.346 59.7201 213.322 63.3681 213.322 68.5201ZM209.962 68.5201C209.962 64.6801 207.946 62.5681 205.162 62.5681C202.474 62.5681 200.362 64.6481 200.362 68.4561C200.362 72.2001 202.41 74.4401 205.162 74.4401C207.946 74.4401 209.962 72.2961 209.962 68.5201ZM219.862 77.0001H216.598V54.0241H219.862V77.0001ZM231.324 77.3201C226.428 77.3201 223.132 73.7681 223.132 68.4241C223.132 63.4001 226.556 59.7201 231.228 59.7201C236.284 59.7201 239.644 63.8161 239.068 69.3201H226.428C226.684 72.7761 228.412 74.7921 231.26 74.7921C233.66 74.7921 235.324 73.4801 235.868 71.2721H239.068C238.236 75.0481 235.324 77.3201 231.324 77.3201ZM231.164 62.1521C228.572 62.1521 226.812 64.0081 226.46 67.1761H235.644C235.484 64.0401 233.788 62.1521 231.164 62.1521ZM245.737 77.0001H242.505V60.0401H245.513V62.8561C246.665 60.9041 248.489 59.7201 250.825 59.7201C253.321 59.7201 255.209 61.0001 255.977 63.2401C257.161 61.0641 259.113 59.7201 261.705 59.7201C265.193 59.7201 267.433 61.9921 267.433 66.0241V77.0001H264.201V67.0481C264.201 64.2321 262.953 62.5681 260.585 62.5681C258.377 62.5681 256.585 64.4241 256.585 67.2721V77.0001H253.353V67.0481C253.353 64.2321 252.105 62.5681 249.737 62.5681C247.497 62.5681 245.737 64.4241 245.737 67.2721V77.0001ZM276.139 75.6241C276.139 78.6641 273.739 81.0321 270.219 81.0961V79.2721C272.299 79.2081 273.707 78.0881 273.899 76.5201C273.611 76.6161 273.419 76.6481 273.195 76.6481C271.979 76.6481 271.083 75.6561 271.083 74.4721C271.083 73.0961 272.107 72.2001 273.419 72.2001C275.179 72.2001 276.139 73.4801 276.139 75.6241ZM69.2105 108.52C69.2105 103.368 72.1545 99.7201 76.7305 99.7201C79.0025 99.7201 80.9865 100.872 82.1705 102.952V94.0241H85.4025V117H82.3945V113.96C81.1785 116.104 79.1305 117.32 76.7305 117.32C72.1545 117.32 69.2105 113.608 69.2105 108.52ZM72.5705 108.52C72.5705 112.296 74.5545 114.44 77.3705 114.44C80.1225 114.44 82.1705 112.2 82.1705 108.456C82.1705 104.648 80.0585 102.568 77.3705 102.568C74.5545 102.568 72.5705 104.68 72.5705 108.52ZM100.167 117V114.376C99.1113 116.264 97.2233 117.32 94.7273 117.32C91.2073 117.32 88.9033 115.304 88.9033 112.2C88.9033 108.872 91.5593 107.144 96.6153 107.144C97.6073 107.144 98.4073 107.176 99.7833 107.336V106.088C99.7833 103.656 98.4713 102.28 96.2313 102.28C93.8633 102.28 92.4233 103.688 92.3273 106.056H89.3833C89.5433 102.248 92.2633 99.7201 96.2313 99.7201C100.423 99.7201 102.855 102.088 102.855 106.12V117H100.167ZM91.9753 112.104C91.9753 113.864 93.2873 115.016 95.3673 115.016C98.0873 115.016 99.7833 113.32 99.7833 110.728V109.352C98.5353 109.192 97.6393 109.16 96.8073 109.16C93.5753 109.16 91.9753 110.12 91.9753 112.104ZM120.617 111.944C120.617 115.272 118.025 117.32 113.513 117.32C109.033 117.32 106.377 115.112 106.057 111.464H109.161C109.289 113.576 110.985 114.888 113.577 114.888C115.849 114.888 117.353 114.088 117.353 112.488C117.353 111.08 116.489 110.472 114.377 110.056L111.625 109.544C108.489 108.936 106.729 107.336 106.729 104.776C106.729 101.8 109.321 99.7201 113.257 99.7201C117.321 99.7201 120.073 101.896 120.361 105.384H117.257C117.065 103.336 115.561 102.152 113.289 102.152C111.241 102.152 109.865 103.016 109.865 104.488C109.865 105.864 110.729 106.504 112.777 106.888L115.657 107.432C119.017 108.04 120.617 109.512 120.617 111.944ZM144.273 111.944C144.273 115.272 141.681 117.32 137.169 117.32C132.689 117.32 130.033 115.112 129.713 111.464H132.817C132.945 113.576 134.641 114.888 137.233 114.888C139.505 114.888 141.009 114.088 141.009 112.488C141.009 111.08 140.145 110.472 138.033 110.056L135.281 109.544C132.145 108.936 130.385 107.336 130.385 104.776C130.385 101.8 132.977 99.7201 136.913 99.7201C140.977 99.7201 143.729 101.896 144.017 105.384H140.913C140.721 103.336 139.217 102.152 136.945 102.152C134.897 102.152 133.521 103.016 133.521 104.488C133.521 105.864 134.385 106.504 136.433 106.888L139.313 107.432C142.673 108.04 144.273 109.512 144.273 111.944ZM154.49 117.352C149.85 117.352 146.586 113.704 146.586 108.52C146.586 103.4 149.914 99.7201 154.49 99.7201C158.682 99.7201 161.722 102.504 162.33 106.92H158.938C158.586 104.2 156.89 102.568 154.522 102.568C151.738 102.568 149.914 104.936 149.914 108.52C149.914 112.136 151.738 114.472 154.522 114.472C156.922 114.472 158.586 112.872 158.97 110.12H162.33C161.754 114.6 158.746 117.352 154.49 117.352ZM168.815 107.432V117H165.583V94.0241H168.815V102.76C169.935 100.936 171.663 99.7201 173.999 99.7201C177.487 99.7201 179.791 101.96 179.791 106.024V117H176.559V107.112C176.559 104.2 175.279 102.568 172.879 102.568C170.671 102.568 168.815 104.424 168.815 107.432ZM194.355 117V114.376C193.299 116.264 191.411 117.32 188.915 117.32C185.395 117.32 183.091 115.304 183.091 112.2C183.091 108.872 185.747 107.144 190.803 107.144C191.795 107.144 192.595 107.176 193.971 107.336V106.088C193.971 103.656 192.659 102.28 190.419 102.28C188.051 102.28 186.611 103.688 186.515 106.056H183.571C183.731 102.248 186.451 99.7201 190.419 99.7201C194.611 99.7201 197.043 102.088 197.043 106.12V117H194.355ZM186.163 112.104C186.163 113.864 187.475 115.016 189.555 115.016C192.275 115.016 193.971 113.32 193.971 110.728V109.352C192.723 109.192 191.827 109.16 190.995 109.16C187.763 109.16 186.163 110.12 186.163 112.104ZM205.976 117H202.744V102.792H199V100.04H202.744V98.7921C202.744 95.5281 204.504 93.7361 207.704 93.7361C208.664 93.7361 209.432 93.8961 210.072 94.1521V96.7761C209.56 96.5521 208.984 96.4881 208.408 96.4881C206.872 96.4881 205.976 97.1921 205.976 98.8241V100.04H210.712V102.792H205.976V117ZM218.882 117H215.65V102.792H211.906V100.04H215.65V98.7921C215.65 95.5281 217.41 93.7361 220.61 93.7361C221.57 93.7361 222.338 93.8961 222.978 94.1521V96.7761C222.466 96.5521 221.89 96.4881 221.314 96.4881C219.778 96.4881 218.882 97.1921 218.882 98.8241V100.04H223.618V102.792H218.882V117ZM231.599 96.9361C231.599 99.6881 229.199 102.024 225.999 101.768V100.04C227.791 100.136 229.071 99.2401 229.359 97.8321C229.103 97.9281 228.847 97.9601 228.623 97.9601C227.407 97.9601 226.543 97.0641 226.543 95.9761C226.543 94.6961 227.503 93.8321 228.911 93.8321C230.607 93.8321 231.599 95.0801 231.599 96.9361ZM245.988 96.1041C245.988 97.3201 245.028 98.2481 243.652 98.2481C242.276 98.2481 241.284 97.3201 241.284 96.1041C241.284 94.8561 242.276 93.9601 243.652 93.9601C245.028 93.9601 245.988 94.8561 245.988 96.1041ZM245.284 117H242.052V100.04H245.284V117ZM256.458 117.352C251.818 117.352 248.554 113.704 248.554 108.52C248.554 103.4 251.882 99.7201 256.458 99.7201C260.65 99.7201 263.69 102.504 264.298 106.92H260.906C260.554 104.2 258.858 102.568 256.49 102.568C253.706 102.568 251.882 104.936 251.882 108.52C251.882 112.136 253.706 114.472 256.49 114.472C258.89 114.472 260.554 112.872 260.938 110.12H264.298C263.722 114.6 260.714 117.352 256.458 117.352ZM270.784 107.432V117H267.552V94.0241H270.784V102.76C271.904 100.936 273.632 99.7201 275.968 99.7201C279.456 99.7201 281.76 101.96 281.76 106.024V117H278.528V107.112C278.528 104.2 277.248 102.568 274.848 102.568C272.64 102.568 270.784 104.424 270.784 107.432ZM80.2061 157H76.9421V134.024H80.2061V157ZM91.7961 157.32C86.9961 157.32 83.4761 153.544 83.4761 148.52C83.4761 143.496 86.9961 139.72 91.7961 139.72C96.5961 139.72 100.116 143.496 100.116 148.52C100.116 153.544 96.5961 157.32 91.7961 157.32ZM91.7961 154.472C94.5801 154.472 96.7881 152.232 96.7881 148.52C96.7881 144.808 94.5801 142.6 91.7961 142.6C89.0121 142.6 86.8361 144.808 86.8361 148.52C86.8361 152.232 89.0121 154.472 91.7961 154.472ZM110.099 157.352C105.459 157.352 102.195 153.704 102.195 148.52C102.195 143.4 105.523 139.72 110.099 139.72C114.291 139.72 117.331 142.504 117.939 146.92H114.547C114.195 144.2 112.499 142.568 110.131 142.568C107.347 142.568 105.523 144.936 105.523 148.52C105.523 152.136 107.347 154.472 110.131 154.472C112.531 154.472 114.195 152.872 114.579 150.12H117.939C117.363 154.6 114.355 157.352 110.099 157.352ZM124.424 157H121.192V134.024H124.424V147.624L131.688 140.04H135.496L127.656 148.264L136.232 157H132.072L124.424 148.968V157ZM144.668 157.32C139.772 157.32 136.476 153.768 136.476 148.424C136.476 143.4 139.9 139.72 144.572 139.72C149.628 139.72 152.988 143.816 152.412 149.32H139.772C140.028 152.776 141.756 154.792 144.604 154.792C147.004 154.792 148.668 153.48 149.212 151.272H152.412C151.58 155.048 148.668 157.32 144.668 157.32ZM144.508 142.152C141.916 142.152 140.156 144.008 139.804 147.176H148.988C148.828 144.04 147.132 142.152 144.508 142.152ZM159.08 148.328V157H155.848V140.04H158.856V143.624C160.04 141.288 162.6 139.816 165.384 139.816V143.176C161.736 142.984 159.08 144.584 159.08 148.328ZM187.462 157H173.478V154.472L183.11 142.824H173.638V140.04H187.142V142.632L177.51 154.184H187.462V157ZM201.253 150.024V140.04H204.485V157H201.477V154.312C200.581 156.072 198.597 157.32 196.293 157.32C192.869 157.32 190.501 155.304 190.501 150.952V140.04H193.733V150.312C193.733 153.256 195.205 154.472 197.317 154.472C199.493 154.472 201.253 152.68 201.253 150.024ZM219.437 157H215.917V134.024H229.869V137.096H219.437V144.584H228.333V147.656H219.437V157ZM243.503 150.024V140.04H246.735V157H243.727V154.312C242.831 156.072 240.847 157.32 238.543 157.32C235.119 157.32 232.751 155.304 232.751 150.952V140.04H235.983V150.312C235.983 153.256 237.455 154.472 239.567 154.472C241.743 154.472 243.503 152.68 243.503 150.024ZM267.703 150.472C267.703 154.696 264.919 157.32 260.375 157.32C259.511 157.32 258.807 157.256 258.359 157.128V154.536C258.999 154.664 259.575 154.728 260.183 154.728C262.775 154.728 264.375 153.096 264.375 150.536C264.375 148.04 262.519 146.44 259.511 146.44H258.359V143.848H259.287C261.719 143.848 263.319 142.216 263.319 139.816C263.319 137.672 261.943 136.296 259.735 136.296C257.431 136.296 255.991 137.928 255.991 140.456V157H252.759V142.792H249.015V140.04H252.791C253.047 136.488 255.671 133.736 259.799 133.736C264.055 133.736 266.647 136.296 266.647 139.624C266.647 141.992 265.207 143.912 263.095 144.808C266.007 145.576 267.703 147.656 267.703 150.472ZM274.237 150.696H271.773L271.005 134.024H275.005L274.237 150.696ZM275.549 154.76C275.549 156.136 274.461 157.16 273.021 157.16C271.581 157.16 270.493 156.136 270.493 154.76C270.493 153.32 271.581 152.296 273.021 152.296C274.493 152.296 275.549 153.32 275.549 154.76Z" fill="black"/>
<defs>
<filter id="filter0_d_134_5898" x="178.999" y="222" width="30" height="30" filterUnits="userSpaceOnUse" color-interpolation-filters="sRGB">
<feFlood flood-opacity="0" result="BackgroundImageFix"/>
<feColorMatrix in="SourceAlpha" type="matrix" values="0 0 0 0 0 0 0 0 0 0 0 0 0 0 0 0 0 0 127 0" result="hardAlpha"/>
<feOffset dy="2"/>
<feGaussianBlur stdDeviation="4"/>
<feComposite in2="hardAlpha" operator="out"/>
<feColorMatrix type="matrix" values="0 0 0 0 0 0 0 0 0 0 0 0 0 0 0 0 0 0 0.5 0"/>
<feBlend mode="normal" in2="BackgroundImageFix" result="effect1_dropShadow_134_5898"/>
<feBlend mode="normal" in="SourceGraphic" in2="effect1_dropShadow_134_5898" result="shape"/>
</filter>
<filter id="filter1_d_134_5898" x="171.999" y="243" width="26" height="26" filterUnits="userSpaceOnUse" color-interpolation-filters="sRGB">
<feFlood flood-opacity="0" result="BackgroundImageFix"/>
<feColorMatrix in="SourceAlpha" type="matrix" values="0 0 0 0 0 0 0 0 0 0 0 0 0 0 0 0 0 0 127 0" result="hardAlpha"/>
<feOffset dy="2"/>
<feGaussianBlur stdDeviation="4"/>
<feComposite in2="hardAlpha" operator="out"/>
<feColorMatrix type="matrix" values="0 0 0 0 0 0 0 0 0 0 0 0 0 0 0 0 0 0 0.5 0"/>
<feBlend mode="normal" in2="BackgroundImageFix" result="effect1_dropShadow_134_5898"/>
<feBlend mode="normal" in="SourceGraphic" in2="effect1_dropShadow_134_5898" result="shape"/>
</filter>
<filter id="filter2_d_134_5898" x="164.999" y="259" width="22" height="22" filterUnits="userSpaceOnUse" color-interpolation-filters="sRGB">
<feFlood flood-opacity="0" result="BackgroundImageFix"/>
<feColorMatrix in="SourceAlpha" type="matrix" values="0 0 0 0 0 0 0 0 0 0 0 0 0 0 0 0 0 0 127 0" result="hardAlpha"/>
<feOffset dy="2"/>
<feGaussianBlur stdDeviation="4"/>
<feComposite in2="hardAlpha" operator="out"/>
<feColorMatrix type="matrix" values="0 0 0 0 0 0 0 0 0 0 0 0 0 0 0 0 0 0 0.5 0"/>
<feBlend mode="normal" in2="BackgroundImageFix" result="effect1_dropShadow_134_5898"/>
<feBlend mode="normal" in="SourceGraphic" in2="effect1_dropShadow_134_5898" result="shape"/>
</filter>
<filter id="filter3_d_134_5898" x="0.644531" y="0.366211" width="351.403" height="225.986" filterUnits="userSpaceOnUse" color-interpolation-filters="sRGB">
<feFlood flood-opacity="0" result="BackgroundImageFix"/>
<feColorMatrix in="SourceAlpha" type="matrix" values="0 0 0 0 0 0 0 0 0 0 0 0 0 0 0 0 0 0 127 0" result="hardAlpha"/>
<feOffset dy="2"/>
<feGaussianBlur stdDeviation="4"/>
<feComposite in2="hardAlpha" operator="out"/>
<feColorMatrix type="matrix" values="0 0 0 0 0 0 0 0 0 0 0 0 0 0 0 0 0 0 0.5 0"/>
<feBlend mode="normal" in2="BackgroundImageFix" result="effect1_dropShadow_134_5898"/>
<feBlend mode="normal" in="SourceGraphic" in2="effect1_dropShadow_134_5898" result="shape"/>
</filter>
</defs>
</svg>
