<svg width="353" height="281" viewBox="0 0 353 281" fill="none" xmlns="http://www.w3.org/2000/svg">
<g filter="url(#filter0_d_134_6523)">
<circle cx="193.999" cy="235" r="7" fill="white"/>
</g>
<g filter="url(#filter1_d_134_6523)">
<circle cx="184.999" cy="254" r="5" fill="white"/>
</g>
<g filter="url(#filter2_d_134_6523)">
<circle cx="175.999" cy="268" r="3" fill="white"/>
</g>
<g filter="url(#filter3_d_134_6523)">
<path d="M322.415 48.8518C350.999 90 352.833 154.352 318.415 185.352C283.996 216.352 208.332 216.352 165.915 216.352H165.915C104.914 216.352 33.4151 199.352 18.4151 148.352C-1.87906 79.3518 7.4931 41.2036 64.9961 17.8518C122.499 -5.5 293.83 7.70355 322.415 48.8518Z" fill="white"/>
</g>
<path d="M59.5871 77H52.3231V54.024H59.5871C66.9151 54.024 71.1391 58.696 71.1391 65.416C71.1391 72.04 66.7551 77 59.5871 77ZM55.8431 57.064V73.96H59.4271C64.7071 73.96 67.5551 70.696 67.5551 65.416C67.5551 60.232 64.7391 57.064 59.4271 57.064H55.8431ZM84.8391 77V74.376C83.7831 76.264 81.8951 77.32 79.3991 77.32C75.8791 77.32 73.5751 75.304 73.5751 72.2C73.5751 68.872 76.2311 67.144 81.2871 67.144C82.2791 67.144 83.0791 67.176 84.4551 67.336V66.088C84.4551 63.656 83.1431 62.28 80.9031 62.28C78.5351 62.28 77.0951 63.688 76.9991 66.056H74.0551C74.2151 62.248 76.9351 59.72 80.9031 59.72C85.0951 59.72 87.5271 62.088 87.5271 66.12V77H84.8391ZM76.6471 72.104C76.6471 73.864 77.9591 75.016 80.0391 75.016C82.7591 75.016 84.4551 73.32 84.4551 70.728V69.352C83.2071 69.192 82.3111 69.16 81.4791 69.16C78.2471 69.16 76.6471 70.12 76.6471 72.104ZM105.288 71.944C105.288 75.272 102.696 77.32 98.1844 77.32C93.7044 77.32 91.0484 75.112 90.7284 71.464H93.8324C93.9604 73.576 95.6564 74.888 98.2484 74.888C100.52 74.888 102.024 74.088 102.024 72.488C102.024 71.08 101.16 70.472 99.0484 70.056L96.2964 69.544C93.1604 68.936 91.4004 67.336 91.4004 64.776C91.4004 61.8 93.9924 59.72 97.9284 59.72C101.992 59.72 104.744 61.896 105.032 65.384H101.928C101.736 63.336 100.232 62.152 97.9604 62.152C95.9124 62.152 94.5364 63.016 94.5364 64.488C94.5364 65.864 95.4004 66.504 97.4484 66.888L100.328 67.432C103.688 68.04 105.288 69.512 105.288 71.944ZM128.945 71.944C128.945 75.272 126.353 77.32 121.841 77.32C117.361 77.32 114.705 75.112 114.385 71.464H117.489C117.617 73.576 119.313 74.888 121.905 74.888C124.177 74.888 125.681 74.088 125.681 72.488C125.681 71.08 124.817 70.472 122.705 70.056L119.953 69.544C116.817 68.936 115.057 67.336 115.057 64.776C115.057 61.8 117.649 59.72 121.585 59.72C125.649 59.72 128.401 61.896 128.689 65.384H125.585C125.393 63.336 123.889 62.152 121.617 62.152C119.569 62.152 118.193 63.016 118.193 64.488C118.193 65.864 119.057 66.504 121.105 66.888L123.985 67.432C127.345 68.04 128.945 69.512 128.945 71.944ZM139.577 77.32C134.777 77.32 131.257 73.544 131.257 68.52C131.257 63.496 134.777 59.72 139.577 59.72C144.377 59.72 147.897 63.496 147.897 68.52C147.897 73.544 144.377 77.32 139.577 77.32ZM139.577 74.472C142.361 74.472 144.569 72.232 144.569 68.52C144.569 64.808 142.361 62.6 139.577 62.6C136.793 62.6 134.617 64.808 134.617 68.52C134.617 72.232 136.793 74.472 139.577 74.472ZM154.456 77H151.192V54.024H154.456V77ZM162.206 77H158.942V54.024H162.206V77ZM176.26 73.864V76.712C175.268 77.16 174.404 77.32 173.38 77.32C170.244 77.32 168.068 75.624 168.068 71.88V62.792H164.324V60.04H168.068V55.016H171.3V60.04H176.42V62.792H171.3V71.144C171.3 73.48 172.42 74.312 174.148 74.312C174.916 74.312 175.588 74.184 176.26 73.864ZM186.012 77.32C181.116 77.32 177.82 73.768 177.82 68.424C177.82 63.4 181.244 59.72 185.916 59.72C190.972 59.72 194.332 63.816 193.756 69.32H181.116C181.372 72.776 183.1 74.792 185.948 74.792C188.348 74.792 190.012 73.48 190.556 71.272H193.756C192.924 75.048 190.012 77.32 186.012 77.32ZM185.852 62.152C183.26 62.152 181.5 64.008 181.148 67.176H190.332C190.172 64.04 188.476 62.152 185.852 62.152ZM210.664 83.528C206.216 83.528 203.336 81.16 203.144 77.32H206.28C206.472 79.688 208.008 80.968 210.632 80.968C213.544 80.968 215.08 79.4 215.08 76.488V73.416C214.12 75.464 212.2 76.648 209.896 76.648C205.672 76.648 202.664 73.16 202.664 68.168C202.664 63.112 205.544 59.72 209.8 59.72C212.232 59.72 214.152 60.904 215.304 63.048V60.04H218.312V76.424C218.312 80.872 215.464 83.528 210.664 83.528ZM205.928 68.168C205.928 71.688 207.656 73.832 210.472 73.832C213.224 73.832 215.08 71.624 215.08 68.264C215.08 64.744 213.256 62.504 210.472 62.504C207.688 62.504 205.928 64.68 205.928 68.168ZM229.762 77.32C224.866 77.32 221.57 73.768 221.57 68.424C221.57 63.4 224.994 59.72 229.666 59.72C234.722 59.72 238.082 63.816 237.506 69.32H224.866C225.122 72.776 226.85 74.792 229.698 74.792C232.098 74.792 233.762 73.48 234.306 71.272H237.506C236.674 75.048 233.762 77.32 229.762 77.32ZM229.602 62.152C227.01 62.152 225.25 64.008 224.898 67.176H234.082C233.922 64.04 232.226 62.152 229.602 62.152ZM244.174 67.432V77H240.942V54.024H244.174V62.76C245.294 60.936 247.022 59.72 249.358 59.72C252.846 59.72 255.15 61.96 255.15 66.024V77H251.918V67.112C251.918 64.2 250.638 62.568 248.238 62.568C246.03 62.568 244.174 64.424 244.174 67.432ZM266.418 77.32C261.522 77.32 258.226 73.768 258.226 68.424C258.226 63.4 261.65 59.72 266.322 59.72C271.378 59.72 274.738 63.816 274.162 69.32H261.522C261.778 72.776 263.506 74.792 266.354 74.792C268.754 74.792 270.418 73.48 270.962 71.272H274.162C273.33 75.048 270.418 77.32 266.418 77.32ZM266.258 62.152C263.666 62.152 261.906 64.008 261.554 67.176H270.738C270.578 64.04 268.882 62.152 266.258 62.152ZM280.83 67.432V77H277.598V60.04H280.606V62.856C281.758 60.968 283.678 59.72 286.014 59.72C289.502 59.72 291.806 61.96 291.806 66.024V77H288.574V67.112C288.574 64.2 287.294 62.568 284.894 62.568C282.686 62.568 280.83 64.424 280.83 67.432ZM300.482 75.624C300.482 78.664 298.082 81.032 294.562 81.096V79.272C296.642 79.208 298.05 78.088 298.242 76.52C297.954 76.616 297.762 76.648 297.538 76.648C296.322 76.648 295.426 75.656 295.426 74.472C295.426 73.096 296.45 72.2 297.762 72.2C299.522 72.2 300.482 73.48 300.482 75.624ZM62.8148 107.432V117H59.5828V94.024H62.8148V102.76C63.9348 100.936 65.6628 99.72 67.9988 99.72C71.4868 99.72 73.7908 101.96 73.7908 106.024V117H70.5588V107.112C70.5588 104.2 69.2788 102.568 66.8788 102.568C64.6708 102.568 62.8148 104.424 62.8148 107.432ZM85.1868 117.32C80.3868 117.32 76.8668 113.544 76.8668 108.52C76.8668 103.496 80.3868 99.72 85.1868 99.72C89.9868 99.72 93.5068 103.496 93.5068 108.52C93.5068 113.544 89.9868 117.32 85.1868 117.32ZM85.1868 114.472C87.9708 114.472 90.1788 112.232 90.1788 108.52C90.1788 104.808 87.9708 102.6 85.1868 102.6C82.4028 102.6 80.2268 104.808 80.2268 108.52C80.2268 112.232 82.4028 114.472 85.1868 114.472ZM101.101 117H97.8688V102.792H94.1248V100.04H97.8688V98.792C97.8688 95.528 99.6288 93.736 102.829 93.736C103.789 93.736 104.557 93.896 105.197 94.152V96.776C104.685 96.552 104.109 96.488 103.533 96.488C101.997 96.488 101.101 97.192 101.101 98.824V100.04H105.837V102.792H101.101V117ZM114.007 117H110.775V102.792H107.031V100.04H110.775V98.792C110.775 95.528 112.535 93.736 115.735 93.736C116.695 93.736 117.463 93.896 118.103 94.152V96.776C117.591 96.552 117.015 96.488 116.439 96.488C114.903 96.488 114.007 97.192 114.007 98.824V100.04H118.743V102.792H114.007V117ZM127.715 117.32C122.819 117.32 119.523 113.768 119.523 108.424C119.523 103.4 122.947 99.72 127.619 99.72C132.675 99.72 136.035 103.816 135.459 109.32H122.819C123.075 112.776 124.803 114.792 127.651 114.792C130.051 114.792 131.715 113.48 132.259 111.272H135.459C134.627 115.048 131.715 117.32 127.715 117.32ZM127.555 102.152C124.963 102.152 123.203 104.008 122.851 107.176H132.035C131.875 104.04 130.179 102.152 127.555 102.152ZM142.127 107.432V117H138.895V100.04H141.903V102.856C143.055 100.968 144.975 99.72 147.311 99.72C150.799 99.72 153.103 101.96 153.103 106.024V117H149.871V107.112C149.871 104.2 148.591 102.568 146.191 102.568C143.983 102.568 142.127 104.424 142.127 107.432ZM166.901 113.864V116.712C165.909 117.16 165.045 117.32 164.021 117.32C160.885 117.32 158.709 115.624 158.709 111.88V102.792H154.965V100.04H158.709V95.016H161.941V100.04H167.061V102.792H161.941V111.144C161.941 113.48 163.061 114.312 164.789 114.312C165.557 114.312 166.229 114.184 166.901 113.864ZM173.409 117H170.145V94.024H173.409V117ZM181.831 96.104C181.831 97.32 180.871 98.248 179.495 98.248C178.119 98.248 177.127 97.32 177.127 96.104C177.127 94.856 178.119 93.96 179.495 93.96C180.871 93.96 181.831 94.856 181.831 96.104ZM181.127 117H177.895V100.04H181.127V117ZM192.302 117.352C187.662 117.352 184.398 113.704 184.398 108.52C184.398 103.4 187.726 99.72 192.302 99.72C196.494 99.72 199.534 102.504 200.142 106.92H196.75C196.398 104.2 194.702 102.568 192.334 102.568C189.55 102.568 187.726 104.936 187.726 108.52C187.726 112.136 189.55 114.472 192.334 114.472C194.734 114.472 196.398 112.872 196.782 110.12H200.142C199.566 114.6 196.558 117.352 192.302 117.352ZM206.627 107.432V117H203.395V94.024H206.627V102.76C207.747 100.936 209.475 99.72 211.811 99.72C215.299 99.72 217.603 101.96 217.603 106.024V117H214.371V107.112C214.371 104.2 213.091 102.568 210.691 102.568C208.483 102.568 206.627 104.424 206.627 107.432ZM235.367 123.528C230.919 123.528 228.039 121.16 227.847 117.32H230.983C231.175 119.688 232.711 120.968 235.335 120.968C238.247 120.968 239.783 119.4 239.783 116.488V113.416C238.823 115.464 236.903 116.648 234.599 116.648C230.375 116.648 227.367 113.16 227.367 108.168C227.367 103.112 230.247 99.72 234.503 99.72C236.935 99.72 238.855 100.904 240.007 103.048V100.04H243.015V116.424C243.015 120.872 240.167 123.528 235.367 123.528ZM230.631 108.168C230.631 111.688 232.359 113.832 235.175 113.832C237.927 113.832 239.783 111.624 239.783 108.264C239.783 104.744 237.959 102.504 235.175 102.504C232.391 102.504 230.631 104.68 230.631 108.168ZM254.465 117.32C249.569 117.32 246.273 113.768 246.273 108.424C246.273 103.4 249.697 99.72 254.369 99.72C259.425 99.72 262.785 103.816 262.209 109.32H249.569C249.825 112.776 251.553 114.792 254.401 114.792C256.801 114.792 258.465 113.48 259.009 111.272H262.209C261.377 115.048 258.465 117.32 254.465 117.32ZM254.305 102.152C251.713 102.152 249.953 104.008 249.601 107.176H258.785C258.625 104.04 256.929 102.152 254.305 102.152ZM268.877 107.432V117H265.645V94.024H268.877V102.76C269.997 100.936 271.725 99.72 274.061 99.72C277.549 99.72 279.853 101.96 279.853 106.024V117H276.621V107.112C276.621 104.2 275.341 102.568 272.941 102.568C270.733 102.568 268.877 104.424 268.877 107.432ZM293.651 113.864V116.712C292.659 117.16 291.795 117.32 290.771 117.32C287.635 117.32 285.459 115.624 285.459 111.88V102.792H281.715V100.04H285.459V95.016H288.691V100.04H293.811V102.792H288.691V111.144C288.691 113.48 289.811 114.312 291.539 114.312C292.307 114.312 292.979 114.184 293.651 113.864ZM65.2463 157.32C60.3503 157.32 57.0543 153.768 57.0543 148.424C57.0543 143.4 60.4783 139.72 65.1503 139.72C70.2063 139.72 73.5663 143.816 72.9903 149.32H60.3503C60.6063 152.776 62.3343 154.792 65.1823 154.792C67.5823 154.792 69.2463 153.48 69.7903 151.272H72.9903C72.1583 155.048 69.2463 157.32 65.2463 157.32ZM65.0863 142.152C62.4943 142.152 60.7343 144.008 60.3823 147.176H69.5663C69.4063 144.04 67.7103 142.152 65.0863 142.152ZM89.8665 151.944C89.8665 155.272 87.2745 157.32 82.7625 157.32C78.2825 157.32 75.6265 155.112 75.3065 151.464H78.4105C78.5385 153.576 80.2345 154.888 82.8265 154.888C85.0985 154.888 86.6025 154.088 86.6025 152.488C86.6025 151.08 85.7385 150.472 83.6265 150.056L80.8745 149.544C77.7385 148.936 75.9785 147.336 75.9785 144.776C75.9785 141.8 78.5705 139.72 82.5065 139.72C86.5705 139.72 89.3225 141.896 89.6105 145.384H86.5065C86.3145 143.336 84.8105 142.152 82.5385 142.152C80.4905 142.152 79.1145 143.016 79.1145 144.488C79.1145 145.864 79.9785 146.504 82.0265 146.888L84.9065 147.432C88.2665 148.04 89.8665 149.512 89.8665 151.944ZM103.315 147.432V157H100.083V140.04H103.091V142.856C104.243 140.968 106.163 139.72 108.499 139.72C111.987 139.72 114.291 141.96 114.291 146.024V157H111.059V147.112C111.059 144.2 109.779 142.568 107.379 142.568C105.171 142.568 103.315 144.424 103.315 147.432ZM122.519 136.104C122.519 137.32 121.559 138.248 120.183 138.248C118.807 138.248 117.815 137.32 117.815 136.104C117.815 134.856 118.807 133.96 120.183 133.96C121.559 133.96 122.519 134.856 122.519 136.104ZM121.815 157H118.583V140.04H121.815V157ZM132.99 157.352C128.35 157.352 125.086 153.704 125.086 148.52C125.086 143.4 128.414 139.72 132.99 139.72C137.182 139.72 140.222 142.504 140.83 146.92H137.438C137.086 144.2 135.39 142.568 133.022 142.568C130.238 142.568 128.414 144.936 128.414 148.52C128.414 152.136 130.238 154.472 133.022 154.472C135.422 154.472 137.086 152.872 137.47 150.12H140.83C140.254 154.6 137.246 157.352 132.99 157.352ZM147.315 147.432V157H144.083V134.024H147.315V142.76C148.435 140.936 150.163 139.72 152.499 139.72C155.987 139.72 158.291 141.96 158.291 146.024V157H155.059V147.112C155.059 144.2 153.779 142.568 151.379 142.568C149.171 142.568 147.315 144.424 147.315 147.432ZM172.088 153.864V156.712C171.096 157.16 170.232 157.32 169.208 157.32C166.072 157.32 163.896 155.624 163.896 151.88V142.792H160.152V140.04H163.896V135.016H167.128V140.04H172.248V142.792H167.128V151.144C167.128 153.48 168.248 154.312 169.976 154.312C170.744 154.312 171.416 154.184 172.088 153.864ZM198.212 148.52C198.212 153.608 195.268 157.32 190.692 157.32C188.292 157.32 186.244 156.104 185.028 153.96V157H182.02V134.024H185.252V142.952C186.436 140.872 188.388 139.72 190.692 139.72C195.236 139.72 198.212 143.368 198.212 148.52ZM194.852 148.52C194.852 144.68 192.836 142.568 190.052 142.568C187.364 142.568 185.252 144.648 185.252 148.456C185.252 152.2 187.3 154.44 190.052 154.44C192.836 154.44 194.852 152.296 194.852 148.52ZM208.465 157.32C203.569 157.32 200.273 153.768 200.273 148.424C200.273 143.4 203.697 139.72 208.369 139.72C213.425 139.72 216.785 143.816 216.209 149.32H203.569C203.825 152.776 205.553 154.792 208.401 154.792C210.801 154.792 212.465 153.48 213.009 151.272H216.209C215.377 155.048 212.465 157.32 208.465 157.32ZM208.305 142.152C205.713 142.152 203.953 144.008 203.601 147.176H212.785C212.625 144.04 210.929 142.152 208.305 142.152ZM222.877 148.328V157H219.645V140.04H222.653V143.624C223.837 141.288 226.397 139.816 229.181 139.816V143.176C225.533 142.984 222.877 144.584 222.877 148.328ZM238.523 163.528C234.075 163.528 231.195 161.16 231.003 157.32H234.139C234.331 159.688 235.867 160.968 238.491 160.968C241.403 160.968 242.939 159.4 242.939 156.488V153.416C241.979 155.464 240.059 156.648 237.755 156.648C233.531 156.648 230.523 153.16 230.523 148.168C230.523 143.112 233.403 139.72 237.659 139.72C240.091 139.72 242.011 140.904 243.163 143.048V140.04H246.171V156.424C246.171 160.872 243.323 163.528 238.523 163.528ZM233.787 148.168C233.787 151.688 235.515 153.832 238.331 153.832C241.083 153.832 242.939 151.624 242.939 148.264C242.939 144.744 241.115 142.504 238.331 142.504C235.547 142.504 233.787 144.68 233.787 148.168ZM260.917 157V154.376C259.861 156.264 257.973 157.32 255.477 157.32C251.957 157.32 249.653 155.304 249.653 152.2C249.653 148.872 252.309 147.144 257.365 147.144C258.357 147.144 259.157 147.176 260.533 147.336V146.088C260.533 143.656 259.221 142.28 256.981 142.28C254.613 142.28 253.173 143.688 253.077 146.056H250.133C250.293 142.248 253.013 139.72 256.981 139.72C261.173 139.72 263.605 142.088 263.605 146.12V157H260.917ZM252.725 152.104C252.725 153.864 254.037 155.016 256.117 155.016C258.837 155.016 260.533 153.32 260.533 150.728V149.352C259.285 149.192 258.389 149.16 257.557 149.16C254.325 149.16 252.725 150.12 252.725 152.104ZM278.519 150.024V140.04H281.751V157H278.743V154.312C277.847 156.072 275.863 157.32 273.559 157.32C270.135 157.32 267.767 155.304 267.767 150.952V140.04H270.999V150.312C270.999 153.256 272.471 154.472 274.583 154.472C276.759 154.472 278.519 152.68 278.519 150.024ZM291.007 157H287.775V142.792H284.031V140.04H287.775V138.792C287.775 135.528 289.535 133.736 292.735 133.736C293.695 133.736 294.463 133.896 295.103 134.152V136.776C294.591 136.552 294.015 136.488 293.439 136.488C291.903 136.488 291.007 137.192 291.007 138.824V140.04H295.743V142.792H291.007V157ZM169.045 194.696C169.045 196.136 168.053 197.16 166.581 197.16C165.141 197.16 164.117 196.136 164.117 194.696C164.117 193.192 165.141 192.168 166.581 192.168C168.053 192.168 169.045 193.192 169.045 194.696ZM178.485 194.696C178.485 196.136 177.461 197.16 176.021 197.16C174.581 197.16 173.557 196.136 173.557 194.696C173.557 193.192 174.581 192.168 176.021 192.168C177.461 192.168 178.485 193.192 178.485 194.696ZM187.893 194.696C187.893 196.136 186.901 197.16 185.429 197.16C183.989 197.16 182.965 196.136 182.965 194.696C182.965 193.192 183.989 192.168 185.429 192.168C186.901 192.168 187.893 193.192 187.893 194.696Z" fill="black"/>
<defs>
<filter id="filter0_d_134_6523" x="178.999" y="222" width="30" height="30" filterUnits="userSpaceOnUse" color-interpolation-filters="sRGB">
<feFlood flood-opacity="0" result="BackgroundImageFix"/>
<feColorMatrix in="SourceAlpha" type="matrix" values="0 0 0 0 0 0 0 0 0 0 0 0 0 0 0 0 0 0 127 0" result="hardAlpha"/>
<feOffset dy="2"/>
<feGaussianBlur stdDeviation="4"/>
<feComposite in2="hardAlpha" operator="out"/>
<feColorMatrix type="matrix" values="0 0 0 0 0 0 0 0 0 0 0 0 0 0 0 0 0 0 0.5 0"/>
<feBlend mode="normal" in2="BackgroundImageFix" result="effect1_dropShadow_134_6523"/>
<feBlend mode="normal" in="SourceGraphic" in2="effect1_dropShadow_134_6523" result="shape"/>
</filter>
<filter id="filter1_d_134_6523" x="171.999" y="243" width="26" height="26" filterUnits="userSpaceOnUse" color-interpolation-filters="sRGB">
<feFlood flood-opacity="0" result="BackgroundImageFix"/>
<feColorMatrix in="SourceAlpha" type="matrix" values="0 0 0 0 0 0 0 0 0 0 0 0 0 0 0 0 0 0 127 0" result="hardAlpha"/>
<feOffset dy="2"/>
<feGaussianBlur stdDeviation="4"/>
<feComposite in2="hardAlpha" operator="out"/>
<feColorMatrix type="matrix" values="0 0 0 0 0 0 0 0 0 0 0 0 0 0 0 0 0 0 0.5 0"/>
<feBlend mode="normal" in2="BackgroundImageFix" result="effect1_dropShadow_134_6523"/>
<feBlend mode="normal" in="SourceGraphic" in2="effect1_dropShadow_134_6523" result="shape"/>
</filter>
<filter id="filter2_d_134_6523" x="164.999" y="259" width="22" height="22" filterUnits="userSpaceOnUse" color-interpolation-filters="sRGB">
<feFlood flood-opacity="0" result="BackgroundImageFix"/>
<feColorMatrix in="SourceAlpha" type="matrix" values="0 0 0 0 0 0 0 0 0 0 0 0 0 0 0 0 0 0 127 0" result="hardAlpha"/>
<feOffset dy="2"/>
<feGaussianBlur stdDeviation="4"/>
<feComposite in2="hardAlpha" operator="out"/>
<feColorMatrix type="matrix" values="0 0 0 0 0 0 0 0 0 0 0 0 0 0 0 0 0 0 0.5 0"/>
<feBlend mode="normal" in2="BackgroundImageFix" result="effect1_dropShadow_134_6523"/>
<feBlend mode="normal" in="SourceGraphic" in2="effect1_dropShadow_134_6523" result="shape"/>
</filter>
<filter id="filter3_d_134_6523" x="0.644531" y="0.366211" width="351.403" height="225.986" filterUnits="userSpaceOnUse" color-interpolation-filters="sRGB">
<feFlood flood-opacity="0" result="BackgroundImageFix"/>
<feColorMatrix in="SourceAlpha" type="matrix" values="0 0 0 0 0 0 0 0 0 0 0 0 0 0 0 0 0 0 127 0" result="hardAlpha"/>
<feOffset dy="2"/>
<feGaussianBlur stdDeviation="4"/>
<feComposite in2="hardAlpha" operator="out"/>
<feColorMatrix type="matrix" values="0 0 0 0 0 0 0 0 0 0 0 0 0 0 0 0 0 0 0.5 0"/>
<feBlend mode="normal" in2="BackgroundImageFix" result="effect1_dropShadow_134_6523"/>
<feBlend mode="normal" in="SourceGraphic" in2="effect1_dropShadow_134_6523" result="shape"/>
</filter>
</defs>
</svg>
